<!--SVG JE NASTAVENE NA DANU VELKOST -->
<svg width="400" height="300" id="krizovatka11" class="krizovatka11" xmlns="http://www.w3.org/2000/svg" >
	
	<!--Zeleny stvorec -->
	<rect x="0" y="0" height="300" width="400" fill="lightgreen"/>
	
	<!--Cesta -->
	<polygon fill="gray" points="0,50 400,50 400,250 250,250 250,300 150,300 150,250 0,250 0,50"/>
	
	<!--Biele ciary na ceste -->
	<line x1="10" y1="150" x2="40" y2="150" stroke="white"/>
	<line x1="65" y1="150" x2="95" y2="150" stroke="white"/>
	<line x1="120" y1="150" x2="150" y2="150" stroke="white"/>
	<line x1="250" y1="150" x2="280" y2="150" stroke="white"/>
	<line x1="305" y1="150" x2="335" y2="150" stroke="white"/>
	<line x1="360" y1="150" x2="390" y2="150" stroke="white"/>
	<line x1="200" y1="255" x2="200" y2="285" stroke="white"/>
	
	<path d="M 0 110 L 400 110" stroke="black" stroke-width="2" fill="none" />
	<path d="M 0 140 L 400 140" stroke="black" stroke-width="2" fill="none" />
	<path d="M 0 160 L 400 160" stroke="black" stroke-width="2" fill="none" />
	<path d="M 0 190 L 400 190" stroke="black" stroke-width="2" fill="none" />
	<path d="M 0 110 L 120 110 q 70 0 70 70 M 190 180 L 190 300" stroke="black" stroke-width="2" fill="none" />
	<path d="M 0 140 L 120 140 q 40 0 40 40 M 160 180 L 160 300" stroke="black" stroke-width="2" fill="none" />
	
	<rect x="85" y="255" width="60" height="20" fill="black"/>
	<circle cx="115" cy="265" r="8" fill="lightgrey"/>
	<circle cx="135" cy="265" r="8" fill="lightgrey"/>
	<circle cx="95" cy="265" r="8" fill="green"/>
	<line x1="55" y1="265" x2="85" y2="265" stroke="black"/>
	
	<line x1="145" y1="265" x2="145" y2="175" stroke="black"/>
	
	<rect x="125" y="162" width="20" height="26" fill="black"/>
	<circle cx="140" cy="165" r="4" fill="grey"/>
	<circle cx="140" cy="175" r="4" fill="yellow"/>
	<circle cx="130" cy="175" r="4" fill="yellow"/>
	<circle cx="140" cy="185" r="4" fill="grey"/>
	
	<rect x="255" y="25" width="60" height="20" fill="black"/>
	<circle cx="265" cy="35" r="8" fill="lightgrey"/>
	<circle cx="285" cy="35" r="8" fill="lightgrey"/>
	<circle cx="305" cy="35" r="8" fill="green"/>
	<line x1="315" y1="35" x2="345" y2="35" stroke="black"/>
	
	<line x1="255" y1="35" x2="255" y2="125" stroke="black"/>
	
	<rect x="255" y="112" width="20" height="26" fill="black"/>
	<circle cx="260" cy="115" r="4" fill="grey"/>
	<circle cx="260" cy="125" r="4" fill="yellow"/>
	<circle cx="270" cy="125" r="4" fill="yellow"/>
	<circle cx="260" cy="135" r="4" fill="grey"/>
	
	<rect x="255" y="245" width="20" height="60" fill="black"/>
	<circle cx="265" cy="275" r="8" fill="lightgrey"/>
	<circle cx="265" cy="295" r="8" fill="lightgrey"/>
	<circle cx="265" cy="255" r="8" fill="red"/>
	
</svg>