<!--SVG JE NASTAVENE NA DANU VELKOST -->
<svg width="400" height="300" id="krizovatka10" class="krizovatka10" xmlns="http://www.w3.org/2000/svg" >
	
	<!--Zeleny stvorec -->
	<rect x="0" y="0" height="300" width="400" fill="lightgreen"/>
	
	<!--Cesta -->
	<polygon fill="gray" points="0,50 400,50 400,250 250,250 250,300 150,300 150,250 0,250 0,50"/>
	
	<!--Biele ciary na ceste -->
	<line x1="10" y1="150" x2="40" y2="150" stroke="white"/>
	<line x1="65" y1="150" x2="95" y2="150" stroke="white"/>
	<line x1="120" y1="150" x2="150" y2="150" stroke="white"/>
	<line x1="250" y1="150" x2="280" y2="150" stroke="white"/>
	<line x1="305" y1="150" x2="335" y2="150" stroke="white"/>
	<line x1="360" y1="150" x2="390" y2="150" stroke="white"/>
	<line x1="200" y1="255" x2="200" y2="285" stroke="white"/>
	
	<path d="M 0 110 L 400 110" stroke="black" stroke-width="2" fill="none" />
	<path d="M 0 140 L 400 140" stroke="black" stroke-width="2" fill="none" />
	<path d="M 0 160 L 400 160" stroke="black" stroke-width="2" fill="none" />
	<path d="M 0 190 L 400 190" stroke="black" stroke-width="2" fill="none" />
	<path d="M 0 110 L 120 110 q 70 0 70 70 M 190 180 L 190 300" stroke="black" stroke-width="2" fill="none" />
	<path d="M 0 140 L 120 140 q 40 0 40 40 M 160 180 L 160 300" stroke="black" stroke-width="2" fill="none" />
	
	<!--Znacka Hlavnej cesty -->
	<polygon fill="white" points="130,250 150,270 130,290 110,270 130,250"/>
	<polygon fill="yellow" points="130,255 145,270 130,285 115,270 130,255"/>
	<line x1="110" y1="270" x2="80" y2="270" stroke="black"/>
	
	<polygon fill="white" points="270,250 290,270 270,290 250,270 270,250"/>
	<polygon fill="yellow" points="270,255 285,270 270,285 255,270 270,255"/>
	<line x1="270" y1="290" x2="270" y2="320" stroke="black"/>
	<polygon fill="red" points="250,50 250,10 290,30 250,50"/>
	<polygon fill="white" points="255,42 255,18 280,30 255,42"/>
	<line x1="290" y1="30" x2="320" y2="30" stroke="black"/>
</svg>