<svg width="400" height="300" id="krizovatka6" class="krizovatka6" xmlns="http://www.w3.org/2000/svg" >
	<rect x="0" y="0" height="300" width="400" fill="lightgreen"/>
	<polygon fill="gray" points="0,100 150,100 150,0 250,0 250,100 400,100 400,200 250,200 250,300 150,300 150,200 0,200 0,50"/>
	
	<line x1="10" y1="150" x2="40" y2="150" stroke="white"/>
	<line x1="65" y1="150" x2="95" y2="150" stroke="white"/>
	<line x1="120" y1="150" x2="150" y2="150" stroke="white"/>
	<line x1="250" y1="150" x2="280" y2="150" stroke="white"/>
	<line x1="305" y1="150" x2="335" y2="150" stroke="white"/>
	<line x1="360" y1="150" x2="390" y2="150" stroke="white"/>
	<line x1="200" y1="200" x2="200" y2="230" stroke="white"/>
	<line x1="200" y1="255" x2="200" y2="285" stroke="white"/>
	<line x1="200" y1="100" x2="200" y2="70" stroke="white"/>
	<line x1="200" y1="45" x2="200" y2="15" stroke="white"/>
	
	<rect x="85" y="205" width="60" height="20" fill="black"/>
	<circle cx="115" cy="215" r="8" fill="lightgrey"/>
	<circle cx="135" cy="215" r="8" fill="lightgrey"/>
	<circle cx="95" cy="215" r="8" fill="green"/>
	<line x1="55" y1="215" x2="85" y2="215" stroke="black"/>
	
	<rect x="255" y="75" width="60" height="20" fill="black"/>
	<circle cx="265" cy="85" r="8" fill="lightgrey"/>
	<circle cx="285" cy="85" r="8" fill="lightgrey"/>
	<circle cx="305" cy="85" r="8" fill="green"/>
	<line x1="315" y1="85" x2="345" y2="85" stroke="black"/>
	
	<rect x="125" y="35" width="20" height="60" fill="black"/>
	<circle cx="135" cy="45" r="8" fill="lightgrey"/>
	<circle cx="135" cy="65" r="8" fill="lightgrey"/>
	<circle cx="135" cy="85" r="8" fill="red"/>
	<line x1="135" y1="35" x2="135" y2="5" stroke="black"/>
	
	<rect x="255" y="205" width="20" height="60" fill="black"/>
	<circle cx="265" cy="235" r="8" fill="lightgrey"/>
	<circle cx="265" cy="255" r="8" fill="lightgrey"/>
	<circle cx="265" cy="215" r="8" fill="red"/>
	<line x1="265" y1="265" x2="265" y2="295" stroke="black"/>
</svg>