<svg width="400" height="300" id="krizovatka5" class="krizovatka5" xmlns="http://www.w3.org/2000/svg" >
	<rect x="0" y="0" height="300" width="400" fill="lightgreen"/>
	<circle cx="250" cy="120" r="110" fill="gray"/>
	<polygon fill="gray" points="0,70 200,70 200,170 200,0 300,0 300,70 400,70 400,170 300,170 300,300 200,300 200,170 0,170 0,70"/>
	<circle cx="250" cy="120" r="50" fill="lightgreen"/>
	
	<line x1="10" y1="120" x2="40" y2="120" stroke="white"/>
	<line x1="65" y1="120" x2="95" y2="120" stroke="white"/>
	<line x1="120" y1="120" x2="150" y2="120" stroke="white"/>
	<line x1="360" y1="120" x2="390" y2="120" stroke="white"/>
	<line x1="250" y1="0" x2="250" y2="15" stroke="white"/>
	<line x1="250" y1="300" x2="250" y2="270" stroke="white"/>
	<line x1="250" y1="255" x2="250" y2="225" stroke="white"/>
	
	
</svg>