<svg xmlns="http://www.w3.org/2000/svg" xmlns:xlink="http://www.w3.org/1999/xlink" viewBox="0 0 600 600"><defs><style>.cls-1,.cls-20,.cls-29,.cls-4,.cls-5,.cls-7{fill:none;}.cls-2{clip-path:url(#clip-path);}.cls-3{fill:#5a5a62;}.cls-29,.cls-4,.cls-5,.cls-7,.cls-9{stroke:#fff;}.cls-20,.cls-29,.cls-4,.cls-5,.cls-7,.cls-8,.cls-9{stroke-miterlimit:10;}.cls-29,.cls-4,.cls-5,.cls-7{stroke-width:4px;}.cls-5{stroke-dasharray:26.87 36.55;}.cls-15,.cls-6{fill:#fff;}.cls-7{stroke-linecap:round;}.cls-8{fill:#969696;stroke:#d1c6c6;stroke-width:3px;}.cls-12,.cls-9{fill:#93b258;}.cls-9{stroke-width:6px;}.cls-10{fill:#345130;}.cls-11{opacity:0.2;}.cls-13{fill:#d5d5d5;}.cls-14{fill:#fad1ca;}.cls-15{opacity:0.3;}.cls-16{fill:#a2e6df;}.cls-17{fill:#af3f00;}.cls-18{fill:#ffe165;}.cls-19{fill:#311505;}.cls-20{stroke:#d5d5d5;stroke-width:40px;}.cls-21{fill:#d05e26;}.cls-22{fill:#ba5e26;}.cls-23{fill:#c64400;}.cls-24{fill:#1c798d;}.cls-25{fill:#2d9499;}.cls-26{fill:#863a31;}.cls-27{fill:#ff8576;}.cls-28{fill:#35b37a;}.cls-29{stroke-dasharray:25.47 34.63;}.cls-30{fill:#4f5356;}.cls-31{fill:#6f767a;}.cls-32{fill:#d03123;}.cls-33{fill:#f5f5f5;}.cls-34{fill:#f7c035;}.cls-35{fill:#383310;}</style><clipPath id="clip-path"><rect class="cls-1" width="600" height="600"/></clipPath></defs><title>kriz3</title><g id="kriz_1" data-name="kriz 1"><g class="cls-2"><rect class="cls-3" x="0.96" y="0.96" width="598.08" height="598.08"/><line class="cls-4" x1="600.53" y1="299.25" x2="588.03" y2="299.25"/><line class="cls-5" x1="551.49" y1="299.25" x2="442.91" y2="299.25"/><line class="cls-4" x1="424.64" y1="299.25" x2="412.14" y2="299.25"/><rect class="cls-6" x="397.19" y="215.52" width="5.23" height="79.99"/><polygon class="cls-7" points="417.37 266.73 417.37 244.3 439.8 255.52 417.37 266.73"/><line class="cls-4" x1="-0.53" y1="300.75" x2="11.97" y2="300.75"/><line class="cls-5" x1="48.51" y1="300.75" x2="157.09" y2="300.75"/><line class="cls-4" x1="175.36" y1="300.75" x2="187.86" y2="300.75"/><rect class="cls-6" x="197.58" y="304.49" width="5.23" height="79.99"/><polygon class="cls-7" points="182.63 333.27 182.63 355.7 160.2 344.48 182.63 333.27"/><line class="cls-7" x1="129.55" y1="255.14" x2="102.77" y2="255.14"/><polygon class="cls-6" points="84.69 255.14 110.16 244.74 104.12 255.14 110.16 265.55 84.69 255.14"/><line class="cls-7" x1="469.69" y1="344.14" x2="496.47" y2="344.14"/><polygon class="cls-6" points="514.55 344.14 489.08 354.55 495.12 344.14 489.08 333.74 514.55 344.14"/><rect class="cls-8" x="-132.49" y="390.09" width="337.91" height="337.91"/><rect class="cls-9" x="-93.98" y="430.08" width="259.42" height="259.42" rx="8.95" ry="8.95"/><polygon class="cls-10" points="53.87 457.54 48.03 462.37 42.08 467 34.36 467.55 26.63 467.17 18.91 464.99 11.19 467.37 3.46 467.67 -4.27 465.37 -10.36 462.55 -15.16 457.54 -17.02 449.72 -11.48 443.16 -4.27 441.48 3.45 440.74 11.17 442.85 18.9 440.9 26.62 443.01 34.35 443.36 42.08 439.31 49.14 443.37 49.95 450.05 53.87 457.54"/><g class="cls-11"><polygon class="cls-12" points="-4.27 457.89 -7.93 457.42 -7.08 449.87 -4.27 448.16 3.45 450.44 11.17 450.53 18.9 447.21 26.62 451.14 34.35 449.7 42.08 450.93 47.35 449.79 43.06 457.34 42.08 457.11 34.36 455.97 26.63 460.39 18.91 460.76 11.19 460.67 3.45 458.68 -4.27 457.89"/></g><polygon class="cls-10" points="125.64 457.54 119.8 462.37 113.85 467 106.13 467.55 98.4 467.17 90.68 464.99 82.95 467.37 75.23 467.67 67.5 465.37 61.41 462.55 56.61 457.54 54.74 449.72 60.29 443.16 67.5 441.48 75.22 440.74 82.94 442.85 90.67 440.9 98.39 443.01 106.12 443.36 113.85 439.31 120.91 443.37 121.72 450.05 125.64 457.54"/><g class="cls-11"><polygon class="cls-12" points="67.5 457.89 63.84 457.42 64.69 449.87 67.5 448.16 75.22 450.44 82.94 450.53 90.67 447.21 98.39 451.14 106.12 449.7 113.85 450.93 119.12 449.79 114.83 457.34 113.85 457.11 106.13 455.97 98.4 460.39 90.68 460.76 82.95 460.67 75.22 458.68 67.5 457.89"/></g><polygon class="cls-10" points="134.98 516.63 127.28 517.74 127.59 525.77 128.14 533.5 127.76 541.22 125.58 548.95 127.96 556.67 128.26 564.4 125.96 572.13 127.46 580.03 134.98 582.17 142.8 580.31 148.78 578.91 151.41 572.13 150.67 564.4 152.78 556.68 150.83 548.96 152.94 541.23 153.29 533.5 149.25 525.77 148.98 518.84 142.47 512.72 134.98 516.63"/><g class="cls-11"><polygon class="cls-12" points="133.43 572.13 135.14 574.45 142.67 575.3 143.14 572.13 145.43 564.4 145.51 556.68 142.19 548.96 146.12 541.23 144.68 533.5 145.91 525.77 142.6 525.06 135.06 520.78 132.65 525.77 131.51 533.5 135.93 541.22 136.3 548.95 136.22 556.67 134.22 564.4 133.43 572.13"/></g><polygon class="cls-10" points="134.98 444.12 127.28 445.22 127.59 453.26 128.14 460.98 127.76 468.7 125.58 476.43 127.96 484.15 128.26 491.88 125.96 499.61 127.46 507.51 134.98 509.65 142.8 507.79 148.78 506.39 151.41 499.61 150.67 491.89 152.78 484.16 150.83 476.44 152.94 468.71 153.29 460.99 149.25 453.26 148.98 446.33 142.47 440.2 134.98 444.12"/><g class="cls-11"><polygon class="cls-12" points="133.43 499.61 135.14 501.93 142.67 502.79 143.14 499.61 145.43 491.89 145.51 484.16 142.19 476.44 146.12 468.71 144.68 460.99 145.91 453.26 142.6 452.55 135.06 448.26 132.65 453.26 131.51 460.98 135.93 468.7 136.3 476.43 136.22 484.15 134.22 491.89 133.43 499.61"/></g><polygon class="cls-10" points="134.98 587.66 127.28 588.76 127.59 596.8 128.14 604.52 127.76 612.24 125.58 619.97 127.96 627.69 128.26 635.42 125.96 643.15 127.46 651.05 134.98 653.19 142.8 651.33 148.78 649.93 151.41 643.15 150.67 635.43 152.78 627.7 150.83 619.98 152.94 612.25 153.29 604.52 149.25 596.8 148.98 589.87 142.47 583.74 134.98 587.66"/><g class="cls-11"><polygon class="cls-12" points="133.43 643.15 135.14 645.47 142.67 646.33 143.14 643.15 145.43 635.43 145.51 627.7 142.19 619.98 146.12 612.25 144.68 604.52 145.91 596.8 142.6 596.08 135.06 591.8 132.65 596.8 131.51 604.52 135.93 612.24 136.3 619.97 136.22 627.69 134.22 635.43 133.43 643.15"/></g><rect class="cls-6" x="9.93" y="480.92" width="17.94" height="17.19"/><rect class="cls-13" x="9.93" y="498.11" width="17.94" height="24.67"/><rect class="cls-6" x="35.35" y="480.92" width="17.94" height="17.19"/><rect class="cls-13" x="35.35" y="498.11" width="17.94" height="24.67"/><rect class="cls-14" x="63.76" y="480.92" width="41.87" height="41.87"/><polygon class="cls-15" points="105.62 522.78 63.76 522.78 63.76 522.78 85.19 501.85 105.62 522.78"/><polygon class="cls-15" points="105.62 480.92 63.76 480.92 63.76 480.92 85.19 501.85 105.62 480.92"/><path class="cls-6" d="M57.67,606c9.41,0,14.08,3.42,23.12,3.42a32.52,32.52,0,0,0,0-65c-9,0-12.14,4.41-23.12,4.41s-14.07-4.41-23.11-4.41a32.52,32.52,0,0,0,0,65C43.6,609.45,48.27,606,57.67,606Z"/><path class="cls-16" d="M11.44,576.93a23.14,23.14,0,0,1,23.12-23.12,20.92,20.92,0,0,1,7.35,1.55,44.73,44.73,0,0,0,31.53,0,20.88,20.88,0,0,1,7.35-1.55,23.12,23.12,0,1,1,0,46.23,35.16,35.16,0,0,1-9.07-1.41,54.66,54.66,0,0,0-14-2,54.64,54.64,0,0,0-14,2A35.16,35.16,0,0,1,34.56,600,23.14,23.14,0,0,1,11.44,576.93Z"/><path class="cls-6" d="M76.47,580.35s3.27-1.12,2.76-4.11-5.75,1.87-5.75,1.87-4.12-3-7.1-3.74c0,0-4.49-1.5-7.48-1.12L60,567.64c-3-1.5-9.34,6.73-9.34,6.73S39.46,580,40.58,584.83a2.88,2.88,0,0,0,.3.78c-1.63,1.44-3.19,3.06-2.53,3.57s2.85-.89,4.89-2.36c3.63.23,10-3,13.79-4.6,5.23-2.24,11.59-4.11,17.2-.38,0,0,.37,5.24,3,4.49S80.21,582.59,76.47,580.35Z"/><path class="cls-13" d="M28.62,555.3a1.13,1.13,0,0,1-1.12,1.13h0a1.13,1.13,0,0,1-1.12-1.13V542.6a1.13,1.13,0,0,1,1.12-1.13h0a1.13,1.13,0,0,1,1.12,1.13Z"/><path class="cls-13" d="M38.34,555.3a1.13,1.13,0,0,1-1.12,1.13h0a1.13,1.13,0,0,1-1.12-1.13V542.6a1.13,1.13,0,0,1,1.12-1.13h0a1.13,1.13,0,0,1,1.12,1.13Z"/><path class="cls-17" d="M185.62,488.77a1.87,1.87,0,0,1-1.87,1.87h0a1.87,1.87,0,0,1-1.87-1.87v-8.23a1.87,1.87,0,0,1,1.87-1.86h0a1.87,1.87,0,0,1,1.87,1.86Z"/><path class="cls-17" d="M193.09,479.8a1.87,1.87,0,0,1-1.87,1.87h0a1.87,1.87,0,0,1-1.86-1.87v-8.23a1.87,1.87,0,0,1,1.86-1.87h0a1.87,1.87,0,0,1,1.87,1.87Z"/><rect class="cls-18" x="178.89" y="477.18" width="17.94" height="5.23" rx="2.47" ry="2.47"/><circle class="cls-19" cx="187.36" cy="479.8" r="4.31"/><rect class="cls-8" x="394.57" y="-128" width="337.91" height="337.91"/><rect class="cls-9" x="433.07" y="-89.5" width="259.42" height="259.42" rx="8.95" ry="8.95"/><path class="cls-20" d="M530.26,168.42V80.21a10.47,10.47,0,0,1,10.47-10.47h31.4"/><polygon class="cls-10" points="487.42 80.54 481.84 82.78 476.13 84.43 470.33 83.21 464.94 81.41 460.22 78.31 456.49 74.14 453.82 69.22 452.64 63.76 450.73 57.85 452.5 51.99 456.97 47.8 461.25 44.06 465.6 39.7 471.62 38.91 477.68 38.55 483.43 40.55 488.59 43.71 491.26 49.19 496.08 53.29 495.96 59.47 496.95 65.46 494.92 71.18 490.43 75.23 487.42 80.54"/><g class="cls-11"><polygon class="cls-12" points="484.08 75.89 479.35 78.88 473.76 79.69 468.37 78.28 463.46 75.81 459.47 71.99 457.64 66.83 456.1 61.55 457.51 56.23 460.19 51.6 464.21 48.19 468.87 45.93 473.97 44.96 479.61 44.37 483.83 48.12 487.35 51.99 490.38 56.41 492.22 61.77 490.41 67.14 487.63 71.78 484.08 75.89"/></g><g class="cls-11"><polygon class="cls-12" points="479.87 70.01 474.97 72.77 469.53 71.26 465.16 67.92 463.55 62.68 464.16 57.27 467.77 53.16 472.84 51.2 478.41 51.63 482.55 55.44 484.82 60.58 483.28 65.92 479.87 70.01"/></g><polygon class="cls-10" points="486.25 16.87 481.69 20.35 476 21.06 470.09 22.62 464.95 19.33 458.83 17.96 456.32 12.21 454.05 7.08 451.5 1.82 453.04 -3.82 452.85 -9.9 456.15 -14.92 460.1 -19.59 465.51 -22.58 471.69 -22.41 477.37 -21.61 482.63 -19.74 487.43 -16.93 492.99 -14.1 494.7 -8.24 495.66 -2.55 495.31 3.14 495.19 9.25 492.07 14.53 486.25 16.87"/><g class="cls-11"><polygon class="cls-12" points="483.56 13.12 479.22 16.41 473.76 17.92 468.7 15.19 463.98 13.05 459.98 9.58 456.86 5.03 456 -0.5 456.68 -6.09 459.56 -10.92 463.2 -15.27 468.5 -17.28 473.98 -17.77 479.37 -16.97 483.64 -13.66 487.27 -10 491.17 -5.9 491.81 -0.28 489.54 4.81 487.08 9.33 483.56 13.12"/></g><g class="cls-11"><polygon class="cls-12" points="480.33 8.61 474.92 10.19 469.72 8.79 465.82 5.39 463.72 0.62 464.02 -4.85 467.98 -8.61 472.85 -10.78 478.27 -10.11 482.63 -6.67 484.18 -1.41 483.91 4.15 480.33 8.61"/></g><polygon class="cls-10" points="598.72 140.13 593.05 141.57 587.63 142.83 581.61 144.86 576.55 141.19 570.56 139.45 567.47 134.12 564.53 128.98 563.42 123.13 564.73 117.39 564.78 111.16 569.9 107.48 573.9 103.5 579.05 101.19 584.52 99.65 590.51 98.55 596.14 100.79 601.24 104 605.32 108.47 608.09 113.88 608.19 119.91 607.82 125.67 605.2 130.77 602.12 135.36 598.72 140.13"/><g class="cls-11"><polygon class="cls-12" points="596.21 136.42 590.98 138.38 585.5 139.7 580.52 136.91 574.8 136.02 571.17 131.61 570.25 126.08 567.7 120.9 569.01 115.32 572.75 111.12 575.92 106.48 581.49 105.56 586.66 104.17 591.68 106.07 596.18 108.53 601.2 111.26 603.6 116.44 603.42 122.07 602.4 127.39 599.2 131.69 596.21 136.42"/></g><g class="cls-11"><polygon class="cls-12" points="592.08 130.33 586.9 132.64 581.34 131.3 577.37 127.42 575.08 122.29 576.18 116.69 580.32 112.97 585.37 111.35 590.53 112.36 595.25 115.3 597.05 120.71 595.6 126.11 592.08 130.33"/></g><polygon class="cls-10" points="496.54 121.44 494.86 126.93 493.88 132.69 490.52 137.55 486.28 141.99 480.51 144.19 474.41 142.65 468.28 144.34 462.6 141.9 458.88 136.97 455.81 132.19 452.85 127.22 452.43 121.44 453.5 115.84 455.31 110.42 459.26 106.29 463.47 102.5 468.85 100.7 474.41 100.31 480.08 100.28 485.68 101.93 490.53 105.32 493.23 110.58 496.81 115.44 496.54 121.44"/><g class="cls-11"><polygon class="cls-12" points="492.84 121.44 490.1 126.54 489.05 132.08 484.29 135.05 479.9 138.35 474.41 139.61 469.25 137.33 463.82 136.02 459.97 131.94 457.49 126.94 457.99 121.44 458.13 116.16 459.76 110.8 463.62 106.59 469.27 105.64 474.41 103.69 479.85 104.72 484.21 107.96 489.18 110.72 490.5 116.22 492.84 121.44"/></g><g class="cls-11"><polygon class="cls-12" points="484.65 121.44 483.85 126.9 479.97 131.08 474.41 132.49 469.21 130.45 465.7 126.47 463.84 121.44 464.96 115.99 468.88 111.87 474.41 110.89 479.49 112.64 483.95 115.94 484.65 121.44"/></g><polygon class="cls-6" points="445.78 152.72 445.78 -2.03 442.79 -2.03 442.79 152.72 442.79 155.71 445.78 155.71 504.09 155.71 504.09 152.72 445.78 152.72"/><rect class="cls-6" x="553.44" y="152.72" width="51.58" height="2.99"/><rect class="cls-21" x="514.56" y="12.92" width="29.16" height="17.19"/><rect class="cls-22" x="514.56" y="30.12" width="29.16" height="17.19"/><circle class="cls-18" cx="505.78" cy="17.96" r="4.75"/><circle class="cls-10" cx="505.78" cy="27.68" r="3.56"/><rect class="cls-23" x="558.67" y="-28.94" width="99.43" height="58.31"/><rect class="cls-17" x="558.67" y="29.37" width="99.43" height="58.31"/><path class="cls-24" d="M411.39,96.28a1.87,1.87,0,0,1-1.87,1.87h0a1.87,1.87,0,0,1-1.87-1.87V88.06a1.87,1.87,0,0,1,1.87-1.87h0a1.86,1.86,0,0,1,1.87,1.87Z"/><path class="cls-24" d="M418.87,87.31A1.87,1.87,0,0,1,417,89.18h0a1.87,1.87,0,0,1-1.87-1.87V79.08A1.87,1.87,0,0,1,417,77.22h0a1.87,1.87,0,0,1,1.87,1.86Z"/><rect class="cls-17" x="404.66" y="84.69" width="17.94" height="5.23" rx="2.47" ry="2.47"/><circle class="cls-19" cx="413.14" cy="87.31" r="4.31"/><rect class="cls-8" x="-132.49" y="-128" width="337.91" height="337.91"/><rect class="cls-9" x="-93.98" y="-89.5" width="259.42" height="259.42" rx="8.95" ry="8.95"/><polygon class="cls-10" points="144.54 120.93 145.07 126.61 140.96 131.06 139.82 136.51 136.84 141.26 131.36 143.16 127.11 146.51 122.16 149.35 116.51 149.85 111.36 146.8 106.14 145.97 100.8 144.44 97.64 139.8 92.91 136.7 89.5 132.12 88.33 126.54 88.66 120.93 88.84 115.43 91.07 110.39 92.86 105.13 97.83 102.25 101.84 98.98 105.53 94.42 111.37 95.09 116.51 92.06 122.16 92.54 127.41 94.63 131.93 97.86 135.19 102.25 139.89 105.31 141.34 110.65 143.89 115.49 144.54 120.93"/><g class="cls-11"><polygon class="cls-12" points="135.7 120.93 133.83 126.56 132.74 132.72 128 136.75 122.47 139.27 116.51 140.22 110.37 139.84 105.52 136.06 100.75 132.39 98.33 126.84 96.28 120.93 98.2 114.98 100.06 108.98 105.53 105.81 110.8 103.36 116.51 100.8 122.42 102.75 127.45 105.88 132.56 109.27 134.15 115.2 135.7 120.93"/></g><g class="cls-11"><polygon class="cls-12" points="126.13 120.93 124.74 125.68 121.34 129.31 116.51 130.49 112.05 128.66 108.74 125.42 107.21 120.93 108.12 116.09 111.91 112.96 116.51 111.84 121.14 112.92 124.13 116.54 126.13 120.93"/></g><polygon class="cls-10" points="73.2 119.44 70 124.98 69.21 130.93 64.54 134.67 60.67 139.11 54.85 140.14 49.31 140.77 43.31 141.8 37.52 139.84 32.32 136.42 28.66 131.36 27.85 125.19 27.45 119.44 28.05 113.74 30.4 108.52 33.48 103.6 38.43 100.59 43.69 98.49 49.31 95.76 55.1 97.81 60.88 99.39 66.05 102.69 68.31 108.46 71.28 113.55 73.2 119.44"/><g class="cls-11"><polygon class="cls-12" points="63.77 119.44 62.71 124.98 59.74 129.87 55.12 133.47 49.31 133.94 43.42 133.64 37.98 130.75 35.69 125.07 34.86 119.44 34.35 113.24 37.9 108.03 43.63 105.72 49.31 103.89 55.03 105.62 60.31 108.43 63.91 113.39 63.77 119.44"/></g><g class="cls-11"><polygon class="cls-12" points="56.42 119.44 54.19 124.31 49.31 126.75 44.12 124.62 42.47 119.44 44.44 114.57 49.31 112 54.62 114.12 56.42 119.44"/></g><polygon class="cls-10" points="39.53 58.15 35.4 61.78 30.91 64.7 26.4 67.76 21.02 68.6 15.64 69.41 10.57 67.26 5.71 65.51 0.02 64.58 -2.33 59.19 -6.18 55.6 -7.74 50.58 -11.78 46.06 -9.41 40.51 -9.09 35.33 -6.72 30.71 -6.4 24.69 -2.82 20.32 1.73 16.95 7.26 15.67 12.63 15.18 17.88 14.43 22.92 16.14 28.52 16.18 32.53 19.94 36.94 22.98 40.14 27.3 42.43 32.15 42.67 37.51 44.66 42.7 42.89 47.88 40.8 52.69 39.53 58.15"/><g class="cls-11"><polygon class="cls-12" points="33.9 54.05 30.64 58.74 25.41 61.04 20.04 62.37 14.4 63.9 8.91 62 4.38 58.58 0.59 54.65 -3.4 50.52 -4.39 44.9 -4.25 39.34 -2.18 34.27 -0.69 28.85 2.93 24.44 7.82 21.4 13.61 21.45 18.91 21.48 24.47 21.6 29.73 23.78 33.87 27.77 35.73 33.16 38.66 38.13 36.93 43.72 37.27 49.47 33.9 54.05"/></g><g class="cls-11"><polygon class="cls-12" points="22.62 45.83 17.92 48.89 12.11 47.97 9.13 42.77 10.28 36.84 15.6 34.08 21.27 35.41 23.9 40.45 22.62 45.83"/></g><polygon class="cls-10" points="99.05 -0.18 97.91 5.63 96.44 11.5 91.43 15.03 87.95 20.14 82 21.41 76.22 23.2 70.36 21.69 64.41 20.28 60.83 15.21 55.55 11.75 55.37 5.41 54.37 -0.18 54.15 -6.09 55.65 -12.06 59.29 -17.11 64.81 -19.94 70.3 -22.29 76.22 -21.88 81.97 -21.64 87.06 -18.96 92.59 -16.55 94.82 -10.92 97.32 -5.84 99.05 -0.18"/><g class="cls-11"><polygon class="cls-12" points="94.25 -0.18 93.83 5.54 91.29 10.77 86.19 13.54 81.75 16.84 76.22 17.44 71.05 15.72 66.14 13.69 61.15 10.77 60.05 5.07 58.98 -0.18 59.24 -5.7 62.34 -10.27 66.46 -13.62 70.92 -16.48 76.22 -18.09 81.4 -16.12 86.29 -14.05 89.74 -10 92.75 -5.55 94.25 -0.18"/></g><g class="cls-11"><polygon class="cls-12" points="86.67 -0.18 85.55 5.2 81.25 8.54 76.22 10.61 71 8.86 67.38 4.92 66.02 -0.18 67.19 -5.39 70.76 -9.64 76.22 -11.1 81.72 -9.71 85.37 -5.47 86.67 -0.18"/></g><polygon class="cls-10" points="128.94 61.52 131.85 67.56 128.91 72.97 128.01 79.02 124.43 83.87 120.62 88.47 115.73 91.9 110.51 94.57 105.28 97.28 99.42 97.88 93.66 97.22 88.06 96.9 82.18 96.85 77.68 92.89 71.36 92.21 66.64 88.54 63.12 83.7 60.42 78.45 59.83 72.51 55.9 67.5 59.08 61.52 58.98 56.02 60.5 50.74 62.2 45.49 62.54 38.9 66.83 34.68 73.33 33.53 76.94 28.69 82.61 27.52 87.88 25.01 93.66 25.07 99.36 25.57 105.59 24.8 109.36 30.69 114.27 33.16 119.73 35.45 124.19 39.34 127.62 44.21 129.57 49.85 129.52 55.84 128.94 61.52"/><g class="cls-11"><polygon class="cls-12" points="123.35 61.52 120.08 66.77 120.83 72.77 116.41 76.72 113.54 81.4 108.64 83.93 104.62 87.98 99.34 90.07 93.66 89 87.8 91.02 83.13 86.94 78.34 84.44 72.8 82.38 69.85 77.43 67.9 72.19 66.09 67 63.63 61.52 64.3 55.68 67.28 50.59 69 45.04 74.33 42.19 77.96 38.02 82.63 34.89 88.08 33.42 93.66 32.79 99.14 33.98 104.3 35.84 109.97 37.11 114.14 41.03 118.29 45.06 119.46 50.83 120.98 56.08 123.35 61.52"/></g><g class="cls-11"><polygon class="cls-12" points="110.43 61.52 110.05 66.84 108.13 72.03 103.86 75.56 98.69 77 93.66 77.92 88.21 78.31 83.27 75.82 80 71.44 78.02 66.6 76.72 61.52 77.85 56.38 79.67 51.35 83.16 47.06 88.56 45.81 93.66 44.43 99.2 44.46 103.43 48.08 107.36 51.56 109.55 56.35 110.43 61.52"/></g><rect class="cls-17" x="-14.74" y="75.72" width="33.64" height="76.26"/><path class="cls-25" d="M182.63,41.7a1.87,1.87,0,0,1-1.87,1.87h0a1.87,1.87,0,0,1-1.87-1.87V33.48a1.87,1.87,0,0,1,1.87-1.87h0a1.87,1.87,0,0,1,1.87,1.87Z"/><path class="cls-25" d="M190.1,32.73a1.86,1.86,0,0,1-1.87,1.87h0a1.86,1.86,0,0,1-1.86-1.87V24.51a1.87,1.87,0,0,1,1.86-1.87h0a1.87,1.87,0,0,1,1.87,1.87Z"/><rect class="cls-10" x="175.9" y="30.12" width="17.94" height="5.23" rx="2.47" ry="2.47"/><circle class="cls-18" cx="184.37" cy="32.73" r="4.31"/><path class="cls-26" d="M164.31,187.86a1.87,1.87,0,0,0,1.87-1.87h0a1.87,1.87,0,0,0-1.87-1.87h-8.22a1.87,1.87,0,0,0-1.87,1.87h0a1.87,1.87,0,0,0,1.87,1.87Z"/><path class="cls-26" d="M155.34,195.34a1.87,1.87,0,0,0,1.87-1.87h0a1.87,1.87,0,0,0-1.87-1.87h-8.22a1.86,1.86,0,0,0-1.87,1.87h0a1.87,1.87,0,0,0,1.87,1.87Z"/><rect class="cls-27" x="152.72" y="181.13" width="5.23" height="17.94" rx="2.47" ry="2.47"/><path class="cls-18" d="M155.34,185.29a4.31,4.31,0,1,0,4.31,4.31A4.31,4.31,0,0,0,155.34,185.29Z"/><rect class="cls-8" x="393.82" y="390.09" width="337.91" height="337.91"/><rect class="cls-9" x="432.32" y="430.08" width="259.42" height="259.42" rx="8.95" ry="8.95"/><polygon class="cls-10" points="480.88 479.04 475.72 480.88 470.58 482.28 465.33 481.48 460.39 479.93 456.32 476.8 451.64 474 448.92 469.27 447.68 463.93 447.72 458.44 450.63 453.76 452.98 449.1 456.77 445.43 461.73 443.76 466.5 441.07 471.85 441.88 477.2 442.76 481.17 446.49 484.72 450.28 488.13 454.49 487.7 459.97 487.85 465.04 487.21 470.31 483.81 474.37 480.88 479.04"/><g class="cls-11"><polygon class="cls-12" points="476.6 473.07 471.75 475.5 466.29 475.66 461.49 473.25 457.68 469.67 455.72 464.87 454.01 459.47 457.32 454.89 460.36 450.44 465.48 448.69 470.89 447.69 475.72 450.34 479.68 453.89 481.72 458.79 482.86 464.22 480.51 469.29 476.6 473.07"/></g><g class="cls-11"><polygon class="cls-12" points="472.17 466.9 467.5 468.29 463.76 465.31 462.54 460.88 465.11 457.06 469.55 455.84 473.53 458.3 474.85 462.9 472.17 466.9"/></g><polygon class="cls-10" points="565.16 595.4 560.09 597.19 555.11 599.4 549.79 598.25 544.27 597.87 539.85 594.58 535.98 590.73 533.09 586.01 533.59 580.42 532.07 575.04 533.78 569.78 537.23 565.53 540.91 561.58 545.63 558.85 551.01 557.96 556.18 559.43 561.11 560.66 566.6 561.96 570.33 566.09 571.79 571.42 572.24 576.59 573.79 581.91 570.53 586.41 569.4 591.91 565.16 595.4"/><g class="cls-11"><polygon class="cls-12" points="560.77 589.27 556.36 592.7 550.8 592.11 545.94 589.91 541.33 586.89 540.12 581.51 539.86 576.33 541.19 571.13 544.97 567.25 549.71 564.24 555.36 564.39 560.02 567.25 564.82 570.04 567.32 575.15 567.28 580.84 565.48 586.22 560.77 589.27"/></g><g class="cls-11"><polygon class="cls-12" points="556.45 583.26 552 584.82 548.03 582.08 547.33 577.55 549.27 573.24 554.1 572.07 557.8 575.08 558.81 579.44 556.45 583.26"/></g><polygon class="cls-10" points="563.45 477.52 569.28 475.79 568.6 469.83 566.16 462.62 564.33 455.23 563.65 447.51 560.02 440.63 556.75 437.27 551.48 435.5 544.38 436.86 540.3 441.27 540.57 446.17 541.41 453.84 543.15 461.26 545.71 468.44 546.43 476.15 551.26 479.76 557.19 481.42 563.45 477.52"/><g class="cls-11"><polygon class="cls-12" points="554.7 442.15 552.93 441.07 546.1 442.43 546.11 444.6 546.72 452.33 548.75 459.66 552.97 466.37 552.53 474.41 555.71 476.19 562.65 475.06 561.19 471.94 561.86 463.84 559.38 456.64 558.03 449.16 554.7 442.15"/></g><polygon class="cls-10" points="601.58 506.43 605.16 501.57 601.17 497.13 594.95 492.75 589.09 487.89 583.93 482.12 576.99 478.65 572.32 477.86 567.05 479.62 562.16 484.93 561.42 490.87 564.5 494.73 569.75 500.36 575.55 505.3 581.85 509.59 587.04 515.33 593.04 515.44 598.75 513.22 601.58 506.43"/><g class="cls-11"><polygon class="cls-12" points="573.54 483.1 571.46 483.22 566.8 488.38 568.06 490.15 573.22 495.9 579.19 500.61 586.43 503.7 591 510.23 594.47 509.87 599.33 504.81 596.51 503.13 592.09 496.43 585.85 492.06 580.28 486.88 573.54 483.1"/></g><polygon class="cls-10" points="478.86 600.1 482.49 595.27 478.55 590.79 472.39 586.34 466.58 581.41 461.48 575.59 454.58 572.04 449.92 571.19 444.63 572.89 439.68 578.15 438.88 584.08 441.91 587.97 447.1 593.66 452.84 598.66 459.1 603.03 464.22 608.82 470.22 609.01 475.95 606.86 478.86 600.1"/><g class="cls-11"><polygon class="cls-12" points="451.08 576.44 449 576.54 444.29 581.65 445.52 583.44 450.62 589.24 456.54 594.01 463.74 597.2 468.24 603.77 471.7 603.46 476.62 598.45 473.83 596.73 469.48 589.99 463.29 585.55 457.78 580.31 451.08 576.44"/></g><path class="cls-20" d="M516.06,432.32c0,36.64,15,109.15,109.89,109.15"/><path class="cls-20" d="M434.57,544.41c50.83,0,90.46,71.08,90.46,71.08"/><polygon class="cls-10" points="552.63 526.13 551.73 531.95 550.6 538.02 546.07 542.19 541.93 546.78 536.02 548.54 530.01 549.32 524.24 547.68 518.95 545.29 514.84 541.3 510.69 537.28 509.32 531.67 507.53 526.13 508.8 520.44 510.27 514.73 513.96 510.08 518.29 505.83 523.86 503.18 530.01 504.62 535.59 505.32 541.5 506.23 546.79 509.35 549.59 514.82 553.12 519.94 552.63 526.13"/><g class="cls-11"><polygon class="cls-12" points="546.06 526.13 544.11 531.97 540.9 537.02 535.61 539.64 530.01 541.98 524.3 539.92 518.53 537.61 516.16 531.87 514.6 526.13 515.53 520.13 518.95 515.07 523.78 511.08 530.01 511.22 536.13 511.35 540.34 515.8 543.78 520.43 546.06 526.13"/></g><g class="cls-11"><polygon class="cls-12" points="536.81 526.13 535.38 531.5 530.01 533.49 525.13 531.01 522.79 526.13 524.65 520.77 530.01 519.26 534.85 521.29 536.81 526.13"/></g><polygon class="cls-10" points="580.38 550.05 580.77 556.24 576.55 560.95 573.18 565.56 568.71 569.18 563.59 572.14 557.67 572.98 551.72 572.27 545.9 570.43 541.66 566.06 538.62 561.05 535.87 555.89 535.1 550.05 535.43 544.09 538.06 538.73 541.68 534.06 545.87 529.61 551.95 528.69 557.67 527.98 563.66 527.71 568.71 530.94 573.87 533.85 577.82 538.42 579.69 544.15 580.38 550.05"/><g class="cls-11"><polygon class="cls-12" points="576.13 550.05 575.3 555.78 571.55 560.13 567.41 563.46 563.19 567.04 557.67 568.45 552.42 566.22 546.88 564.91 543.26 560.53 540.22 555.72 539.13 550.05 540.67 544.53 542.63 539.12 547.2 535.64 552.46 534 557.67 532.01 563.31 532.69 567.46 536.57 572.39 539.36 573.84 544.8 576.13 550.05"/></g><g class="cls-11"><polygon class="cls-12" points="568.87 550.05 567.33 555.63 563.19 559.61 557.67 560.85 552.35 559.28 548.15 555.55 547.44 550.05 548.82 544.94 552.15 540.49 557.67 538.86 562.86 541.07 566.43 545 568.87 550.05"/></g><polygon class="cls-10" points="508.08 559.89 503.08 561.54 498.33 564.71 492.86 563.76 487.75 562.08 482.82 559.7 479.34 555.47 478.09 550.19 475.99 545.36 477.3 540.24 478.68 535.42 480.91 530.81 483.74 525.96 489.4 525.26 494.33 524.25 499.38 524.19 504.38 525.33 508.92 527.87 511.86 532.14 514.33 536.53 515.67 541.43 516.5 546.69 514.79 551.76 511.91 556.22 508.08 559.89"/><g class="cls-11"><polygon class="cls-12" points="504.86 555.4 499.36 556.79 493.88 557.59 488.68 555.5 484.29 551.91 482.14 546.65 481.73 540.97 483.65 535.55 488.28 532.28 493.02 529.68 498.45 529.81 503.58 531.51 507.17 535.5 509.24 540.31 509.56 545.55 508.46 550.96 504.86 555.4"/></g><g class="cls-11"><polygon class="cls-12" points="499.65 548.13 495.23 549.38 491.31 546.88 490.39 542.4 492.5 538.17 497.19 537.48 501.14 539.83 502.03 544.31 499.65 548.13"/></g><polygon class="cls-10" points="510.13 486.65 504.75 488.01 499.75 489.9 494.35 489.81 489.34 487.86 484.13 485.91 482.15 480.51 479.52 476.2 477.32 471.36 476.88 465.92 478.49 460.65 481.13 455.75 485.95 452.94 490.89 451.23 495.63 448.31 501.06 449.05 506.53 449.87 510.02 454.34 514.78 457.11 515.7 462.57 516.71 467.46 518.13 472.7 516.43 477.81 513.64 482.4 510.13 486.65"/><g class="cls-11"><polygon class="cls-12" points="506.3 481.31 500.95 483.18 495.5 482.81 490.64 480.73 485.73 477.94 484.86 472.35 483.87 467.06 485.31 461.64 489.09 457.32 494.54 455.74 500.05 455.16 505.31 457.12 508.42 461.67 511.2 466.19 512.16 471.72 509.2 476.48 506.3 481.31"/></g><g class="cls-11"><polygon class="cls-12" points="501.45 474.55 496.69 475.55 492.68 472.95 491.7 468.35 493.95 464.09 498.73 463.2 502.97 465.58 503.91 470.36 501.45 474.55"/></g><polygon class="cls-10" points="487.46 523.13 484.28 527.99 479.07 529.51 473.78 530.32 468.38 531.15 463.2 529.4 457.82 528.44 454.65 523.42 449.71 521.39 445.99 517.62 442.48 513.43 442.68 507.72 441.99 502.7 442.29 497.68 442.88 492.71 442.5 487.06 445.6 482.65 448.61 478.19 453.08 475.2 457.53 472.3 462.74 471.23 467.86 470.55 473.16 468.28 477.94 471.79 483.57 471.55 486.74 476.46 490.96 479.18 494.89 482.54 499.18 486.2 497.97 492.22 500.46 496.91 501.01 502.15 498.5 506.94 499.69 512.94 496.47 517.41 491.4 520.02 487.46 523.13"/><g class="cls-11"><polygon class="cls-12" points="483.06 516.99 478.15 519.46 472.89 521.34 467.48 519.81 462.27 518.61 457 516.64 454.27 511.68 450.35 507.54 449.55 501.95 451.26 496.64 451.46 491.11 454.85 486.81 458.22 482.37 463.86 481.54 468.82 480.29 474.31 478.31 479.68 480.13 484.49 483.1 487.87 487.58 489.99 492.6 491.89 497.76 491.76 503.3 490.68 508.86 487.34 513.44 483.06 516.99"/></g><g class="cls-11"><polygon class="cls-12" points="476.3 507.56 471.68 509.1 467.19 507.74 463.19 505.28 461.81 500.73 462.13 495.94 465.19 492.08 469.83 490.48 474.51 491.56 477.77 494.82 479.66 498.97 478.84 503.5 476.3 507.56"/></g><path class="cls-17" d="M456.59,548.75a1.88,1.88,0,0,1-.7-2.55h0a1.87,1.87,0,0,1,2.54-.71l7.16,4a1.87,1.87,0,0,1,.71,2.55h0a1.87,1.87,0,0,1-2.55.7Z"/><path class="cls-17" d="M460.73,559.67a1.87,1.87,0,0,1-.71-2.55h0a1.88,1.88,0,0,1,2.55-.7l7.16,4a1.87,1.87,0,0,1,.7,2.55h0a1.87,1.87,0,0,1-2.54.71Z"/><path class="cls-28" d="M458.76,562.85a2.45,2.45,0,0,1-.93-3.36l6.39-11.32a2.47,2.47,0,0,1,3.37-.94l.25.15a2.46,2.46,0,0,1,.94,3.36l-6.4,11.32A2.47,2.47,0,0,1,459,563Z"/><path class="cls-19" d="M465.67,550.93a4.31,4.31,0,1,1-5.88,1.63A4.31,4.31,0,0,1,465.67,550.93Z"/><path class="cls-26" d="M525.1,489.29a1.89,1.89,0,0,0,1.4-2.25l-1.86-8a1.89,1.89,0,0,0-2.25-1.4h0a1.89,1.89,0,0,0-1.4,2.25l1.86,8a1.89,1.89,0,0,0,2.25,1.4Z"/><path class="cls-26" d="M534.41,496.33a1.86,1.86,0,0,0,1.4-2.24l-1.86-8a1.88,1.88,0,0,0-2.25-1.4h0a1.87,1.87,0,0,0-1.39,2.25l1.86,8a1.86,1.86,0,0,0,2.24,1.39Z"/><path class="cls-27" d="M535.77,488.34a2.47,2.47,0,0,0,1.85-3l-.06-.29a2.48,2.48,0,0,0-3-1.85l-12.66,2.95a2.46,2.46,0,0,0-1.85,3l.06.29a2.47,2.47,0,0,0,3,1.84Z"/><path class="cls-18" d="M524.17,488.35a4.31,4.31,0,1,0,3.22-5.17A4.3,4.3,0,0,0,524.17,488.35Z"/><rect class="cls-1" x="0.96" y="0.96" width="598.08" height="598.08"/><line class="cls-4" x1="299.75" y1="600.53" x2="299.75" y2="588.03"/><line class="cls-29" x1="299.75" y1="553.4" x2="299.75" y2="29.82"/><line class="cls-4" x1="299.75" y1="12.5" x2="299.75"/></g></g><g id="znaÄky"><path class="cls-30" d="M196,411c.51,0,.54,1.77,0,1.77H128.67V411Z"/><polygon class="cls-30" points="127.41 416.16 127.41 412.93 129.47 412.93 129.47 413.53 127.73 416.16 127.41 416.16"/><polygon class="cls-30" points="127.41 407.52 127.41 410.75 129.47 410.75 129.47 410.16 127.73 407.52 127.41 407.52"/><path class="cls-31" d="M130.5,413.19l.21-.21v-2.29l-.21-.21h-3.1v2.72h3.1Z"/><polygon class="cls-6" points="196.28 396.44 196.28 427.24 169.6 411.84 196.28 396.44"/><path class="cls-32" d="M168.67,411.08l27.42-15.82a.87.87,0,0,1,1.31.75v31.66a.88.88,0,0,1-1.31.76L168.67,412.6A.88.88,0,0,1,168.67,411.08Zm26-12.44-22.42,12.94a.3.3,0,0,0,0,.52l22.42,12.95a.3.3,0,0,0,.45-.26V398.9A.3.3,0,0,0,194.71,398.64Z"/><path class="cls-30" d="M401.78,188.73c-.51,0-.54-1.77,0-1.77h67.36v1.77Z"/><polygon class="cls-30" points="470.4 183.52 470.4 186.75 468.33 186.75 468.33 186.16 470.07 183.52 470.4 183.52"/><polygon class="cls-30" points="470.4 192.16 470.4 188.93 468.33 188.93 468.33 189.53 470.07 192.16 470.4 192.16"/><path class="cls-31" d="M467.31,186.49l-.21.21V189l.21.21h3.09v-2.72h-3.09Z"/><polygon class="cls-6" points="401.52 203.24 401.52 172.44 428.2 187.84 401.52 203.24"/><path class="cls-32" d="M429.13,188.6l-27.42,15.83a.88.88,0,0,1-1.31-.76V172a.87.87,0,0,1,1.31-.75l27.42,15.82A.88.88,0,0,1,429.13,188.6Zm-26,12.45,22.42-13a.3.3,0,0,0,0-.52l-22.42-12.94a.3.3,0,0,0-.45.26v25.89A.3.3,0,0,0,403.09,201.05Z"/><g id="hlavnacesta"><path class="cls-30" d="M413.18,395.62c0-.51,1.79-.54,1.79,0v67.95h-1.79Z"/><polygon class="cls-30" points="418.44 464.84 415.18 464.84 415.18 462.76 415.78 462.76 418.44 464.52 418.44 464.84"/><polygon class="cls-30" points="409.72 464.84 412.98 464.84 412.98 462.76 412.38 462.76 409.72 464.52 409.72 464.84"/><path class="cls-31" d="M415.45,461.73l-.22-.22h-2.31l-.21.22h0v3.12h2.74v-3.12Z"/><rect class="cls-33" x="403.19" y="398.64" width="21.57" height="21.57" rx="1.08" ry="1.08" transform="translate(-168.26 412.64) rotate(-45)"/><rect class="cls-34" x="407.48" y="402.93" width="12.99" height="12.99" rx="1.1" ry="1.1" transform="translate(-168.26 412.64) rotate(-45)"/><path class="cls-35" d="M414,423.52a.7.7,0,0,1-.49-.2l-13.4-13.4a.7.7,0,0,1-.2-.49.68.68,0,0,1,.2-.49l13.4-13.4a.69.69,0,0,1,1,0l13.4,13.39a.71.71,0,0,1,0,1l-13.4,13.4A.7.7,0,0,1,414,423.52Zm-.24-.45a.35.35,0,0,0,.24.1h0a.35.35,0,0,0,.24-.1l13.4-13.4a.34.34,0,0,0,0-.49l-13.4-13.39a.33.33,0,0,0-.48,0l-13.4,13.4a.34.34,0,0,0,0,.48Z"/></g><g id="hlavnacesta-2" data-name="hlavnacesta"><path class="cls-30" d="M183.76,201.84c0,.52-1.79.55-1.79,0v-68h1.79Z"/><polygon class="cls-30" points="178.5 132.62 181.76 132.62 181.76 134.71 181.16 134.71 178.5 132.95 178.5 132.62"/><polygon class="cls-30" points="187.22 132.62 183.96 132.62 183.96 134.71 184.56 134.71 187.22 132.95 187.22 132.62"/><path class="cls-31" d="M181.5,135.74l.21.21H184l.21-.21h0v-3.11h-2.75v3.11Z"/><rect class="cls-33" x="172.19" y="177.25" width="21.57" height="21.57" rx="1.08" ry="1.08" transform="translate(-79.37 184.46) rotate(-45)"/><rect class="cls-34" x="176.48" y="181.54" width="12.99" height="12.99" rx="1.1" ry="1.1" transform="translate(-79.37 184.46) rotate(-45)"/><path class="cls-35" d="M183,173.94a.7.7,0,0,1,.5.21l13.39,13.39a.73.73,0,0,1,.21.5.71.71,0,0,1-.21.49l-13.39,13.4a.71.71,0,0,1-1,0l-13.4-13.4a.69.69,0,0,1,0-1l13.4-13.4A.7.7,0,0,1,183,173.94Zm.25.46a.33.33,0,0,0-.25-.1h0a.33.33,0,0,0-.24.1l-13.4,13.4a.34.34,0,0,0,0,.48l13.4,13.4a.36.36,0,0,0,.49,0l13.39-13.4a.34.34,0,0,0,0-.49Z"/></g></g></svg>