<svg xmlns="http://www.w3.org/2000/svg" xmlns:xlink="http://www.w3.org/1999/xlink" viewBox="0 0 600 600"><defs><style>.cls-1,.cls-20,.cls-4,.cls-5,.cls-6{fill:none;}.cls-2{clip-path:url(#clip-path);}.cls-3{fill:#5a5a62;}.cls-4,.cls-5,.cls-6,.cls-9{stroke:#fff;}.cls-20,.cls-4,.cls-5,.cls-6,.cls-8,.cls-9{stroke-miterlimit:10;}.cls-4,.cls-5,.cls-6{stroke-width:4px;}.cls-4{stroke-dasharray:26.87 36.55;}.cls-6{stroke-linecap:round;}.cls-15,.cls-33,.cls-7{fill:#fff;}.cls-8{fill:#969696;stroke:#d1c6c6;stroke-width:3px;}.cls-12,.cls-9{fill:#93b258;}.cls-9{stroke-width:6px;}.cls-10{fill:#345130;}.cls-11{opacity:0.2;}.cls-13{fill:#d5d5d5;}.cls-14{fill:#fad1ca;}.cls-15{opacity:0.3;}.cls-16{fill:#a2e6df;}.cls-17{fill:#af3f00;}.cls-18{fill:#ffe165;}.cls-19{fill:#311505;}.cls-20{stroke:#d5d5d5;stroke-width:40px;}.cls-21{fill:#d05e26;}.cls-22{fill:#ba5e26;}.cls-23{fill:#c64400;}.cls-24{fill:#1c798d;}.cls-25{fill:#2d9499;}.cls-26{fill:#863a31;}.cls-27{fill:#ff8576;}.cls-28{fill:#35b37a;}.cls-29{fill:#4f5356;}.cls-30{fill:#6f767a;}.cls-31{fill:#efefef;}.cls-32{fill:#d03123;}.cls-33,.cls-34{fill-rule:evenodd;}.cls-34{fill:#00a2d2;}.cls-35{fill:#eaebeb;}</style><clipPath id="clip-path"><rect class="cls-1" width="600" height="600"/></clipPath></defs><title>kriz13</title><g id="kriz_3" data-name="kriz 3"><g class="cls-2"><rect class="cls-3" x="-29" y="-8" width="665" height="650"/><line class="cls-4" x1="301.25" y1="1.51" x2="301.25" y2="110.09"/><line class="cls-5" x1="301.25" y1="128.36" x2="301.25" y2="140.86"/><line class="cls-6" x1="346.86" y1="82.55" x2="346.86" y2="55.77"/><polygon class="cls-7" points="346.86 37.69 357.26 63.16 346.86 57.12 336.45 63.16 346.86 37.69"/><line class="cls-4" x1="600.49" y1="299.25" x2="491.91" y2="299.25"/><line class="cls-5" x1="473.64" y1="299.25" x2="461.14" y2="299.25"/><line class="cls-4" x1="302.75" y1="602.49" x2="302.75" y2="493.91"/><line class="cls-5" x1="302.75" y1="475.64" x2="302.75" y2="463.14"/><line class="cls-6" x1="257.14" y1="521.45" x2="257.14" y2="548.23"/><polygon class="cls-7" points="257.14 566.31 246.74 540.84 257.14 546.88 267.55 540.84 257.14 566.31"/><line class="cls-4" x1="-0.49" y1="300.75" x2="108.09" y2="300.75"/><line class="cls-5" x1="126.36" y1="300.75" x2="138.86" y2="300.75"/><line class="cls-6" x1="80.55" y1="255.14" x2="53.77" y2="255.14"/><polygon class="cls-7" points="35.69 255.14 61.16 244.74 55.12 255.14 61.16 265.55 35.69 255.14"/><path class="cls-8" d="M-129.49,397.09V735H208.43V439.59s-43.94,5.08-43.94-42.5Z"/><rect class="cls-9" x="-90.98" y="437.08" width="259.42" height="259.42" rx="8.95" ry="8.95"/><polygon class="cls-10" points="56.87 464.54 51.03 469.37 45.08 474 37.36 474.55 29.63 474.17 21.91 471.99 14.19 474.37 6.46 474.67 -1.27 472.37 -7.36 469.55 -12.16 464.54 -14.02 456.72 -8.48 450.16 -1.27 448.48 6.45 447.74 14.17 449.85 21.9 447.9 29.62 450.01 37.35 450.36 45.08 446.31 52.14 450.37 52.95 457.05 56.87 464.54"/><g class="cls-11"><polygon class="cls-12" points="-1.27 464.89 -4.93 464.42 -4.08 456.87 -1.27 455.16 6.45 457.44 14.17 457.53 21.9 454.21 29.62 458.14 37.35 456.7 45.08 457.93 50.35 456.79 46.06 464.34 45.08 464.11 37.36 462.97 29.63 467.39 21.91 467.76 14.19 467.67 6.45 465.68 -1.27 464.89"/></g><polygon class="cls-10" points="128.64 464.54 122.8 469.37 116.85 474 109.13 474.55 101.4 474.17 93.68 471.99 85.95 474.37 78.23 474.67 70.5 472.37 64.41 469.55 59.61 464.54 57.74 456.72 63.29 450.16 70.5 448.48 78.22 447.74 85.94 449.85 93.67 447.9 101.39 450.01 109.12 450.36 116.85 446.31 123.91 450.37 124.72 457.05 128.64 464.54"/><g class="cls-11"><polygon class="cls-12" points="70.5 464.89 66.84 464.42 67.69 456.87 70.5 455.16 78.22 457.44 85.94 457.53 93.67 454.21 101.39 458.14 109.12 456.7 116.85 457.93 122.12 456.79 117.83 464.34 116.85 464.11 109.13 462.97 101.4 467.39 93.68 467.76 85.95 467.67 78.22 465.68 70.5 464.89"/></g><polygon class="cls-10" points="137.98 523.63 130.28 524.74 130.59 532.77 131.14 540.5 130.76 548.22 128.58 555.95 130.96 563.67 131.26 571.4 128.96 579.13 130.46 587.03 137.98 589.17 145.8 587.31 151.78 585.91 154.41 579.13 153.67 571.4 155.78 563.68 153.83 555.96 155.94 548.23 156.29 540.5 152.25 532.77 151.98 525.84 145.47 519.72 137.98 523.63"/><g class="cls-11"><polygon class="cls-12" points="136.43 579.13 138.14 581.45 145.67 582.3 146.14 579.13 148.43 571.4 148.51 563.68 145.19 555.96 149.12 548.23 147.68 540.5 148.91 532.77 145.6 532.06 138.06 527.78 135.65 532.77 134.51 540.5 138.93 548.22 139.3 555.95 139.22 563.67 137.22 571.4 136.43 579.13"/></g><polygon class="cls-10" points="137.98 451.12 130.28 452.22 130.59 460.26 131.14 467.98 130.76 475.7 128.58 483.43 130.96 491.15 131.26 498.88 128.96 506.61 130.46 514.51 137.98 516.65 145.8 514.79 151.78 513.39 154.41 506.61 153.67 498.89 155.78 491.16 153.83 483.44 155.94 475.71 156.29 467.99 152.25 460.26 151.98 453.33 145.47 447.2 137.98 451.12"/><g class="cls-11"><polygon class="cls-12" points="136.43 506.61 138.14 508.93 145.67 509.79 146.14 506.61 148.43 498.89 148.51 491.16 145.19 483.44 149.12 475.71 147.68 467.99 148.91 460.26 145.6 459.55 138.06 455.26 135.65 460.26 134.51 467.98 138.93 475.7 139.3 483.43 139.22 491.15 137.22 498.89 136.43 506.61"/></g><polygon class="cls-10" points="137.98 594.66 130.28 595.76 130.59 603.8 131.14 611.52 130.76 619.24 128.58 626.97 130.96 634.69 131.26 642.42 128.96 650.15 130.46 658.05 137.98 660.19 145.8 658.33 151.78 656.93 154.41 650.15 153.67 642.43 155.78 634.7 153.83 626.98 155.94 619.25 156.29 611.52 152.25 603.8 151.98 596.87 145.47 590.74 137.98 594.66"/><g class="cls-11"><polygon class="cls-12" points="136.43 650.15 138.14 652.47 145.67 653.33 146.14 650.15 148.43 642.43 148.51 634.7 145.19 626.98 149.12 619.25 147.68 611.52 148.91 603.8 145.6 603.08 138.06 598.8 135.65 603.8 134.51 611.52 138.93 619.24 139.3 626.97 139.22 634.69 137.22 642.43 136.43 650.15"/></g><rect class="cls-7" x="12.93" y="487.92" width="17.94" height="17.19"/><rect class="cls-13" x="12.93" y="505.11" width="17.94" height="24.67"/><rect class="cls-7" x="38.35" y="487.92" width="17.94" height="17.19"/><rect class="cls-13" x="38.35" y="505.11" width="17.94" height="24.67"/><rect class="cls-14" x="66.76" y="487.92" width="41.87" height="41.87"/><polygon class="cls-15" points="108.62 529.78 66.76 529.78 66.76 529.78 88.19 508.85 108.62 529.78"/><polygon class="cls-15" points="108.62 487.92 66.76 487.92 66.76 487.92 88.19 508.85 108.62 487.92"/><path class="cls-7" d="M60.67,613c9.41,0,14.08,3.42,23.12,3.42a32.52,32.52,0,0,0,0-65c-9,0-12.14,4.41-23.12,4.41s-14.07-4.41-23.11-4.41a32.52,32.52,0,0,0,0,65C46.6,616.45,51.27,613,60.67,613Z"/><path class="cls-16" d="M14.44,583.93a23.14,23.14,0,0,1,23.12-23.12,20.92,20.92,0,0,1,7.35,1.55,44.73,44.73,0,0,0,31.53,0,20.88,20.88,0,0,1,7.35-1.55,23.12,23.12,0,1,1,0,46.23,35.16,35.16,0,0,1-9.07-1.41,54.66,54.66,0,0,0-14-2,54.64,54.64,0,0,0-14,2A35.16,35.16,0,0,1,37.56,607,23.14,23.14,0,0,1,14.44,583.93Z"/><path class="cls-7" d="M79.47,587.35s3.27-1.12,2.76-4.11-5.75,1.87-5.75,1.87-4.12-3-7.1-3.74c0,0-4.49-1.5-7.48-1.12L63,574.64c-3-1.5-9.34,6.73-9.34,6.73S42.46,587,43.58,591.83a2.88,2.88,0,0,0,.3.78c-1.63,1.44-3.19,3.06-2.53,3.57s2.85-.89,4.89-2.36c3.63.23,10-3,13.79-4.6,5.23-2.24,11.59-4.11,17.2-.38,0,0,.37,5.24,3,4.49S83.21,589.59,79.47,587.35Z"/><path class="cls-13" d="M31.62,562.3a1.13,1.13,0,0,1-1.12,1.13h0a1.13,1.13,0,0,1-1.12-1.13V549.6a1.13,1.13,0,0,1,1.12-1.13h0a1.13,1.13,0,0,1,1.12,1.13Z"/><path class="cls-13" d="M41.34,562.3a1.13,1.13,0,0,1-1.12,1.13h0a1.13,1.13,0,0,1-1.12-1.13V549.6a1.13,1.13,0,0,1,1.12-1.13h0a1.13,1.13,0,0,1,1.12,1.13Z"/><path class="cls-17" d="M188.62,495.77a1.87,1.87,0,0,1-1.87,1.87h0a1.87,1.87,0,0,1-1.87-1.87v-8.23a1.87,1.87,0,0,1,1.87-1.86h0a1.87,1.87,0,0,1,1.87,1.86Z"/><path class="cls-17" d="M196.09,486.8a1.87,1.87,0,0,1-1.87,1.87h0a1.87,1.87,0,0,1-1.86-1.87v-8.23a1.87,1.87,0,0,1,1.86-1.87h0a1.87,1.87,0,0,1,1.87,1.87Z"/><rect class="cls-18" x="181.89" y="484.18" width="17.94" height="5.23" rx="2.47" ry="2.47"/><circle class="cls-19" cx="190.36" cy="486.8" r="4.31"/><path class="cls-8" d="M395.57,166.71V-128H733.49V209.91H436.68S441.5,166.71,395.57,166.71Z"/><rect class="cls-9" x="434.07" y="-89.5" width="259.42" height="259.42" rx="8.95" ry="8.95"/><path class="cls-20" d="M531.26,168.42V80.21a10.47,10.47,0,0,1,10.47-10.47h31.4"/><polygon class="cls-10" points="487.66 79.48 483.14 83.59 476.96 82.7 471.22 83.83 465.23 82.98 460.36 79.36 455.71 75.41 454.09 69.49 452.4 63.89 452.48 57.98 455.55 52.91 456.83 46.87 461.76 43.39 466.92 40.56 472.69 39.59 478.38 40.38 483.86 41.81 488.77 44.72 493.13 48.56 495.37 53.94 497.38 59.43 497.67 65.41 496.2 71.31 492.64 76.23 487.66 79.48"/><g class="cls-11"><polygon class="cls-12" points="485.46 76.42 480.02 77.84 474.77 78.39 469.36 78.29 464.2 76.16 460.78 71.77 457.68 67.13 457.97 61.56 457.7 55.97 461.21 51.6 464.68 47.46 469.69 45.37 474.99 43.32 480.37 45.08 484.74 48.25 488.25 52.06 491.1 56.5 492.16 61.77 491.89 67.3 489.53 72.45 485.46 76.42"/></g><g class="cls-11"><polygon class="cls-12" points="481.35 70.69 475.86 71.64 470.39 71.56 465.9 68.09 464.34 62.7 464.83 57.12 468.88 53.31 473.78 50.64 479.37 51.72 483.65 55.37 485.77 60.58 484.21 65.89 481.35 70.69"/></g><polygon class="cls-10" points="487.25 16.86 482.34 19.42 477.12 22.27 471.03 22.98 465.97 19.29 460.47 17.18 457.39 12.15 454.31 7.36 453.53 1.72 452.71 -4.04 454.52 -9.6 457.76 -14.42 461.05 -19.66 467.15 -20.87 472.63 -23.1 478.38 -21.68 483.82 -20.15 488.69 -17.25 493.8 -13.96 494.75 -7.88 496.54 -2.54 497.45 3.33 495.1 8.76 492.36 13.94 487.25 16.86"/><g class="cls-11"><polygon class="cls-12" points="485.43 14.32 480.34 16.77 474.77 16.15 469.58 15.56 464.92 13.14 460.85 9.67 459.24 4.58 457.49 -0.49 458.59 -5.79 460.82 -10.73 464.68 -14.61 469.77 -16.42 474.97 -16.77 480.08 -16.09 485.19 -14.41 488.4 -10.09 491.29 -5.61 492.79 -0.28 490.74 4.87 489.12 10.09 485.43 14.32"/></g><g class="cls-11"><polygon class="cls-12" points="480.7 7.74 475.89 9.9 470.6 9.06 465.89 6.05 463.86 0.7 465.78 -4.5 468.78 -8.88 473.85 -10.77 479 -9.51 483.69 -6.72 485.87 -1.48 484.97 4.18 480.7 7.74"/></g><polygon class="cls-10" points="600.21 140.86 594.76 143.59 588.65 143.1 582.76 144.07 577.7 140.87 572.24 138.66 567.46 134.81 565.81 128.88 563.67 123.19 563.79 117.02 568.03 112.25 570.84 107.43 574.33 102.66 579.31 99.03 585.42 98.23 591.48 98.67 597.45 100.15 602.35 103.88 605.63 108.94 608.96 113.92 608.85 119.93 608.21 125.56 607.38 131.34 603.22 135.45 600.21 140.86"/><g class="cls-11"><polygon class="cls-12" points="597.15 136.34 592.15 138.98 586.55 138.05 581.35 137.4 576.08 135.67 572.58 131.34 570.17 126.39 569.04 120.91 570.16 115.38 572.83 110.41 577.26 106.98 582.05 104.05 587.64 105.01 593.19 104.65 598.05 107.42 601.8 111.53 603.65 116.72 603.58 122.04 602.98 127.24 601.31 132.56 597.15 136.34"/></g><g class="cls-11"><polygon class="cls-12" points="592.68 129.73 587.87 132.26 582.72 130.53 578.88 127.06 576.46 122.27 577.84 117.01 581.16 112.74 586.36 111.32 591.77 111.86 595.43 115.86 597.99 120.72 596.4 126.01 592.68 129.73"/></g><polygon class="cls-10" points="497.2 121.44 496.76 127.17 495.85 133.25 492.11 138.14 486.61 140.85 481.37 143.7 475.41 143.41 469.52 143.44 463.96 141.27 458.82 138.03 456.14 132.57 452.65 127.54 452.7 121.44 454.43 115.82 455.79 110.11 459.37 105.41 464.06 101.78 469.55 99.56 475.41 97.99 481.1 100.2 487.2 101.02 491.81 105.05 493.73 110.87 496.87 115.69 497.2 121.44"/><g class="cls-11"><polygon class="cls-12" points="492.18 121.44 492.29 126.93 488.74 131.13 486.15 136.23 480.89 138.32 475.41 138.83 469.82 138.64 465.18 135.53 461.15 131.8 459.56 126.6 458.41 121.44 459.21 116.18 461.06 111.02 465.18 107.36 469.72 103.94 475.41 103.56 480.93 104.46 485.4 107.69 488.96 111.6 491.89 116.09 492.18 121.44"/></g><g class="cls-11"><polygon class="cls-12" points="486.49 121.44 484.53 126.71 480.78 130.74 475.41 131.72 470.18 130.5 465.89 126.94 464.68 121.44 465.85 115.92 470.19 112.41 475.41 110.78 480.47 112.68 484.17 116.39 486.49 121.44"/></g><polygon class="cls-7" points="446.78 152.72 446.78 -2.03 443.79 -2.03 443.79 152.72 443.79 155.71 446.78 155.71 505.09 155.71 505.09 152.72 446.78 152.72"/><rect class="cls-7" x="554.44" y="152.72" width="51.58" height="2.99"/><rect class="cls-21" x="515.56" y="12.92" width="29.16" height="17.19"/><rect class="cls-22" x="515.56" y="30.12" width="29.16" height="17.19"/><circle class="cls-18" cx="506.78" cy="17.96" r="4.75"/><circle class="cls-10" cx="506.78" cy="27.68" r="3.56"/><rect class="cls-23" x="559.67" y="-28.94" width="99.43" height="58.31"/><rect class="cls-17" x="559.67" y="29.37" width="99.43" height="58.31"/><path class="cls-24" d="M412.39,96.28a1.87,1.87,0,0,1-1.87,1.87h0a1.87,1.87,0,0,1-1.87-1.87V88.06a1.87,1.87,0,0,1,1.87-1.87h0a1.86,1.86,0,0,1,1.87,1.87Z"/><path class="cls-24" d="M419.87,87.31A1.87,1.87,0,0,1,418,89.18h0a1.87,1.87,0,0,1-1.87-1.87V79.08A1.87,1.87,0,0,1,418,77.22h0a1.87,1.87,0,0,1,1.87,1.86Z"/><rect class="cls-17" x="405.66" y="84.69" width="17.94" height="5.23" rx="2.47" ry="2.47"/><circle class="cls-19" cx="414.14" cy="87.31" r="4.31"/><path class="cls-8" d="M-128.49,209.91V-128H209.43V168.07c-47.93,0-43.38,41.84-43.38,41.84Z"/><rect class="cls-9" x="-89.98" y="-89.5" width="259.42" height="259.42" rx="8.95" ry="8.95"/><polygon class="cls-10" points="147.37 120.93 147.85 126.37 147.31 132.04 143.05 135.99 139.19 139.62 135.75 143.74 130.97 146.18 125.69 146.99 120.51 147.4 114.89 149.22 109.65 147.15 105.65 143.17 99.77 141.68 98.42 135.69 94.56 131.68 93.29 126.35 92.33 120.93 93.68 115.59 96.1 110.82 97.96 105.86 100.9 101.32 104.39 96.81 109.51 94.37 115.08 93.62 120.51 94.48 126.06 93.02 131.58 94.22 135.4 98.64 141.17 100.28 144.2 105.1 145.96 110.39 147.24 115.61 147.37 120.93"/><g class="cls-11"><polygon class="cls-12" points="139.35 120.93 138.94 126.92 135.27 131.66 131.3 135.78 126.36 138.95 120.51 140.2 114.91 138.16 109.21 136.49 104.69 132.43 102.09 126.92 101.4 120.93 102.91 115.21 105.35 109.92 109.68 106.02 114.58 102.67 120.51 101.81 126.61 102.17 131.91 105.24 135.28 110.2 138.07 115.23 139.35 120.93"/></g><g class="cls-11"><polygon class="cls-12" points="129.48 120.93 128.92 125.79 124.99 128.69 120.51 130.18 115.62 129.4 112.67 125.46 110.72 120.93 112.48 116.3 115.96 113.06 120.51 112.21 125.17 112.86 128.31 116.43 129.48 120.93"/></g><polygon class="cls-10" points="74.63 119.44 75.97 125.51 73.93 131.34 68.45 134.58 64.55 138.91 59.16 141.28 53.31 141.73 47.46 141.24 42.59 138 37.62 135.12 33.91 130.63 32.16 125.1 29.66 119.44 31.63 113.63 34.32 108.47 37.58 103.7 42.15 100.12 47.22 96.72 53.31 97.61 59.41 96.64 64.31 100.37 69.36 103.38 73.93 107.53 74.09 113.86 74.63 119.44"/><g class="cls-11"><polygon class="cls-12" points="69.58 119.44 66.66 124.97 64.79 130.92 59.09 133.4 53.31 135.27 47.73 132.89 41.8 130.94 39.36 125.21 38.29 119.44 39.67 113.79 41.97 108.09 47.25 104.81 53.31 104.43 58.98 105.73 63.58 109.17 66.78 113.86 69.58 119.44"/></g><g class="cls-11"><polygon class="cls-12" points="60.34 119.44 58.46 124.59 53.31 126.94 48.37 124.37 45.7 119.44 48.17 114.3 53.31 112.36 58.21 114.53 60.34 119.44"/></g><polygon class="cls-10" points="41.88 56.95 39.01 61.35 35.09 65.01 30.55 68.18 25.08 68.98 19.63 69.92 14.63 67.01 8.81 67.43 5.14 63.03 0.94 59.86 -2.75 55.95 -5.16 51.1 -5.75 45.74 -6.72 40.46 -5.88 35.14 -3.54 30.33 -0.82 25.84 2.73 22 6.12 17.59 11.17 15.43 16.58 14.86 21.9 13.87 27.1 15.38 33 15.14 36.82 19.54 40.07 23.79 44.56 27.04 47.38 31.8 47.66 37.35 47.57 42.66 47.75 48.08 45.15 52.85 41.88 56.95"/><g class="cls-11"><polygon class="cls-12" points="38 54.12 34.52 58.6 29.07 60.26 24.05 62.45 18.41 63.81 12.72 62.47 7.89 59.27 4.76 54.5 1.65 50.06 0.19 44.81 0.25 39.39 1.79 34.26 3.96 29.32 7.13 24.68 11.84 21.43 17.48 20.57 23 20.67 28.22 22.25 32.81 25.05 36.81 28.62 39.91 33.08 41.08 38.38 43.21 43.96 40.62 49.22 38 54.12"/></g><g class="cls-11"><polygon class="cls-12" points="27.24 46.29 22.02 49.48 16.4 47.58 13.08 42.78 14.7 37.14 19.55 33.79 25.03 35.73 28.31 40.39 27.24 46.29"/></g><polygon class="cls-10" points="103.42 -0.18 101.58 5.54 100.71 11.65 96.43 16.04 91.51 19.38 85.84 20.8 80.22 21.74 74.36 21.66 69.31 18.71 63.48 16.55 60.1 11.44 57.43 5.93 58.48 -0.18 58.34 -6.05 60.65 -11.48 63.72 -16.68 69.53 -18.7 74.19 -22.69 80.22 -23.39 86.26 -22.72 91.11 -19.04 95.58 -15.54 98.7 -10.85 102.94 -6.27 103.42 -0.18"/><g class="cls-11"><polygon class="cls-12" points="98.62 -0.18 97.7 5.5 94.66 10.31 89.98 13.25 85.92 17.35 80.22 17.04 75.09 15.62 70.32 13.44 65.61 10.43 62.75 5.5 63.26 -0.18 64.16 -5.4 65.87 -10.61 69.36 -15.13 74.65 -17.31 80.22 -17.31 85.88 -17.6 91.11 -15.17 95.03 -10.94 96.86 -5.59 98.62 -0.18"/></g><g class="cls-11"><polygon class="cls-12" points="90.3 -0.18 89.44 5.14 85.39 8.78 80.22 10.01 74.72 9.34 70.66 5.34 69.43 -0.18 71.05 -5.48 74.7 -9.74 80.22 -10.99 85.82 -9.88 89.84 -5.74 90.3 -0.18"/></g><polygon class="cls-10" points="135.66 61.52 132.12 66.98 133.75 73.24 130.56 78.28 126.53 82.49 123.27 87.12 118.73 90.51 113.9 93.38 108.68 95.42 103.11 95.88 97.66 98.89 91.78 98.64 86.27 96.58 81.38 93.47 75.6 91.88 71.51 87.67 67.45 83.47 64.41 78.46 63.1 72.75 60.06 67.47 61.66 61.52 61.91 55.85 62.24 50.01 64.48 44.61 66.29 38.72 72.87 36.72 75.76 31.37 80.41 27.65 85.97 25.52 91.67 23.64 97.66 25.75 103.36 25.57 108.75 27.4 113.82 29.8 120.3 30.36 123.4 35.78 126.84 40.32 130.3 44.89 131.56 50.5 135.83 55.47 135.66 61.52"/><g class="cls-11"><polygon class="cls-12" points="124.64 61.52 126.84 67.32 124.85 72.78 121.47 77.42 118.47 82.33 113.31 84.93 108.03 86.53 103.41 90.43 97.66 89.62 92.43 87.81 87.42 86.25 81.91 85.09 77.77 81.41 72.97 78.02 71.53 72.34 70.51 66.92 68.91 61.52 70.67 56.15 71.86 50.83 72.93 44.99 77.98 41.84 81.99 38.06 87.36 36.65 91.88 32.43 97.66 32.56 103.24 33.5 108.72 34.82 113.72 37.48 118.94 40.23 121.31 45.72 122.94 51.05 125.8 55.92 124.64 61.52"/></g><g class="cls-11"><polygon class="cls-12" points="115.69 61.52 113.91 66.8 112.41 72.23 107.23 74.68 103.22 78.62 97.66 79.7 92.33 77.94 87.25 75.84 83.77 71.61 82 66.61 80.27 61.52 82.16 56.48 83.43 51.17 87.95 48.14 92.15 44.56 97.66 45.19 103.27 44.27 108.14 47.1 112.25 50.91 114.09 56.18 115.69 61.52"/></g><rect class="cls-17" x="-10.74" y="75.72" width="33.64" height="76.26"/><path class="cls-25" d="M186.63,41.7a1.87,1.87,0,0,1-1.87,1.87h0a1.87,1.87,0,0,1-1.87-1.87V33.48a1.87,1.87,0,0,1,1.87-1.87h0a1.87,1.87,0,0,1,1.87,1.87Z"/><path class="cls-25" d="M194.1,32.73a1.86,1.86,0,0,1-1.87,1.87h0a1.86,1.86,0,0,1-1.86-1.87V24.51a1.87,1.87,0,0,1,1.86-1.87h0a1.87,1.87,0,0,1,1.87,1.87Z"/><rect class="cls-10" x="179.9" y="30.12" width="17.94" height="5.23" rx="2.47" ry="2.47"/><circle class="cls-18" cx="188.37" cy="32.73" r="4.31"/><path class="cls-26" d="M168.31,187.86a1.87,1.87,0,0,0,1.87-1.87h0a1.87,1.87,0,0,0-1.87-1.87h-8.22a1.87,1.87,0,0,0-1.87,1.87h0a1.87,1.87,0,0,0,1.87,1.87Z"/><path class="cls-26" d="M159.34,195.34a1.87,1.87,0,0,0,1.87-1.87h0a1.87,1.87,0,0,0-1.87-1.87h-8.22a1.86,1.86,0,0,0-1.87,1.87h0a1.87,1.87,0,0,0,1.87,1.87Z"/><rect class="cls-27" x="156.72" y="181.13" width="5.23" height="17.94" rx="2.47" ry="2.47"/><path class="cls-18" d="M159.34,185.29a4.31,4.31,0,1,0,4.31,4.31A4.31,4.31,0,0,0,159.34,185.29Z"/><path class="cls-8" d="M394.82,442.55c-.32,13.95,0,292.45,0,292.45H732.74V397.09H438.29C438.29,442.5,394.82,442.55,394.82,442.55Z"/><rect class="cls-9" x="433.32" y="437.08" width="259.42" height="259.42" rx="8.95" ry="8.95"/><polygon class="cls-10" points="481.23 485.13 476.66 487.7 471.46 488.07 466.23 489.12 461.43 486.83 455.99 485.42 452.96 480.78 451.55 475.66 450.29 470.78 449.24 465.52 450.78 460.37 454.26 456.32 457.61 452.22 462.53 450.21 467.66 449.74 473.01 447.92 477.46 451.41 481.8 453.94 486.84 456.47 489.32 461.42 490.81 466.77 489.88 472.21 488.94 477.64 484.55 481.16 481.23 485.13"/><g class="cls-11"><polygon class="cls-12" points="477.3 479.65 472.85 482.95 467.37 482.17 461.88 481.23 457.79 477.31 455.95 472.05 455.51 466.56 457.05 461.1 461.46 457.58 466.27 454.78 471.86 454.9 476.85 457.12 480.48 461.04 483.61 465.58 483.25 471.12 481.64 476.37 477.3 479.65"/></g><g class="cls-11"><polygon class="cls-12" points="473.32 474.11 468.54 475.05 464.41 472.56 463.2 467.82 466.1 464.04 470.56 462.77 474.51 465.32 475.67 469.87 473.32 474.11"/></g><polygon class="cls-10" points="566.26 602.53 561.21 604.52 556.04 605.7 550.89 604.61 545.97 603.31 541.33 601 538.39 596.72 534.84 592.73 534.23 587.46 534.26 582.24 535.2 576.97 537.72 572.12 542.2 569 546.71 566.05 552.12 566.14 557.24 566.04 562.46 566.89 566.21 570.64 570.69 573.54 573.94 577.99 572.99 583.62 573.16 588.64 571.46 593.38 569.06 597.81 566.26 602.53"/><g class="cls-11"><polygon class="cls-12" points="562.08 596.7 557.22 599.12 551.83 598.91 546.72 597.27 542.16 594.01 540.93 588.56 539.5 583.1 542.39 578.26 545.78 573.99 550.93 572.18 556.38 571.24 561.36 573.71 565.06 577.59 568.02 582.23 567.55 587.72 565.35 592.52 562.08 596.7"/></g><g class="cls-11"><polygon class="cls-12" points="557.79 590.73 553.02 591.68 548.85 589.21 547.62 584.44 550.49 580.55 555.01 579.57 559.06 581.89 560.46 586.55 557.79 590.73"/></g><polygon class="cls-10" points="564.45 484.52 570.28 482.79 569.6 476.83 567.16 469.62 565.33 462.23 564.65 454.51 561.02 447.63 557.75 444.27 552.48 442.5 545.38 443.86 541.3 448.27 541.57 453.17 542.41 460.84 544.15 468.26 546.71 475.44 547.43 483.15 552.26 486.76 558.19 488.42 564.45 484.52"/><g class="cls-11"><polygon class="cls-12" points="555.7 449.15 553.93 448.07 547.1 449.43 547.11 451.6 547.72 459.33 549.75 466.66 553.97 473.37 553.53 481.41 556.71 483.19 563.65 482.06 562.19 478.94 562.86 470.84 560.38 463.64 559.03 456.16 555.7 449.15"/></g><polygon class="cls-10" points="602.58 513.43 606.16 508.57 602.17 504.13 595.95 499.75 590.09 494.89 584.93 489.12 577.99 485.65 573.32 484.86 568.05 486.62 563.16 491.93 562.42 497.87 565.5 501.73 570.75 507.36 576.55 512.3 582.85 516.59 588.04 522.33 594.04 522.44 599.75 520.22 602.58 513.43"/><g class="cls-11"><polygon class="cls-12" points="574.54 490.1 572.46 490.22 567.8 495.38 569.06 497.15 574.22 502.9 580.19 507.61 587.43 510.7 592 517.23 595.47 516.87 600.33 511.81 597.51 510.13 593.09 503.43 586.85 499.06 581.28 493.88 574.54 490.1"/></g><polygon class="cls-10" points="479.86 607.1 483.49 602.27 479.55 597.79 473.39 593.34 467.58 588.41 462.48 582.59 455.58 579.04 450.92 578.19 445.63 579.89 440.68 585.15 439.88 591.08 442.91 594.97 448.1 600.66 453.84 605.66 460.1 610.03 465.22 615.82 471.22 616.01 476.95 613.86 479.86 607.1"/><g class="cls-11"><polygon class="cls-12" points="452.08 583.44 450 583.54 445.29 588.65 446.52 590.44 451.62 596.24 457.54 601.01 464.74 604.2 469.24 610.77 472.7 610.46 477.62 605.45 474.83 603.73 470.48 596.99 464.29 592.55 458.78 587.31 452.08 583.44"/></g><path class="cls-20" d="M517.06,439.32c0,36.64,15,109.15,109.89,109.15"/><path class="cls-20" d="M435.57,551.41c50.83,0,90.46,71.08,90.46,71.08"/><polygon class="cls-10" points="552.66 533.13 551.62 538.65 550.44 544.34 547.2 549.32 542.05 552.25 537.12 555.94 531.01 556.29 525.39 554.11 519.85 552.46 514.48 549.66 511.8 544.22 508.04 539.28 508.83 533.13 509.21 527.29 510.52 521.3 514.95 517.07 520.26 514.5 525.31 511.85 531.01 510.04 536.71 511.87 542.94 512.47 547.16 516.98 551.49 521.3 552.83 527.28 552.66 533.13"/><g class="cls-11"><polygon class="cls-12" points="546.66 533.13 545.44 539.1 541.88 543.99 537 547.59 531.01 547.67 525.25 547.04 520.59 543.55 517.09 538.9 516.12 533.13 516.58 527.15 519.76 521.88 525.19 519.08 531.01 517.29 536.71 519.38 541.23 522.91 545.36 527.18 546.66 533.13"/></g><g class="cls-11"><polygon class="cls-12" points="538.1 533.13 535.83 537.95 531.01 540.13 525.9 538.24 523.74 533.13 525.81 527.93 531.01 525.62 536.08 528.06 538.1 533.13"/></g><polygon class="cls-10" points="580.54 557.05 579.53 562.64 577.43 567.88 575.41 573.79 569.45 575.72 564.5 578.78 558.67 580.79 552.75 579.17 547.45 576.5 543.22 572.5 539.09 568.36 536.08 563.11 535.16 557.05 536.74 551.17 538.71 545.53 542.82 541.19 547.99 538.54 552.69 534.71 558.67 534.28 564.84 534.05 569.4 538.48 574.15 541.58 577.91 545.95 581.16 551.02 580.54 557.05"/><g class="cls-11"><polygon class="cls-12" points="575.77 557.05 575.22 562.43 572.39 567.01 568.81 571 563.9 573.13 558.67 574.23 553.38 573.33 547.78 572.05 544.63 567.25 541.74 562.55 540.89 557.05 541.62 551.51 544.41 546.69 547.89 542.21 553.23 540.3 558.67 539.82 564.05 540.51 568.88 543 573.12 546.56 576.29 551.33 575.77 557.05"/></g><g class="cls-11"><polygon class="cls-12" points="569.04 557.05 568.32 562.62 564.15 566.54 558.67 567.6 553.06 566.78 549.09 562.59 547.91 557.05 549.92 552 553.42 547.95 558.67 547.03 564.27 547.36 568.11 551.6 569.04 557.05"/></g><polygon class="cls-10" points="508.39 565.92 504.39 569.37 499.18 570.19 493.76 571.36 489.13 568.24 484.38 566.02 481.55 561.6 477.6 557.75 476.8 552.38 477.11 547.04 478.92 542.07 482.02 537.9 484.8 533.04 489.96 531.09 495.14 529.36 500.36 531.26 505.9 531.17 510.57 534.07 513.21 538.88 516.42 543.12 518.11 548.29 516.35 553.5 515.37 558.57 513.27 563.51 508.39 565.92"/><g class="cls-11"><polygon class="cls-12" points="504.98 561.16 500.31 563.59 494.87 564.65 489.81 562.29 486.47 558.07 483.43 553.58 482.96 548.01 484.76 542.62 489.19 539.17 494.22 537.52 499.56 536.14 504.99 537.85 509.27 541.71 511.34 547.06 510.99 552.62 508.75 557.52 504.98 561.16"/></g><g class="cls-11"><polygon class="cls-12" points="500.69 555.19 496.19 556.64 491.95 554.13 491.23 549.37 493.55 545.24 498.18 544.5 501.99 546.94 503.51 551.39 500.69 555.19"/></g><polygon class="cls-10" points="509.84 491.85 505.65 494.73 500.72 496.57 495.49 495.94 490.04 495.52 485.53 492.43 482.79 487.77 480.4 483.25 477.78 478.42 479.32 473.15 479.96 467.86 482.17 462.78 486.31 459.05 491.27 456.59 496.75 456.49 501.82 457.45 506.72 458.66 512.26 459.82 514.49 465.03 516.91 469.49 518.23 474.41 518.98 479.68 516.99 484.61 514.77 489.51 509.84 491.85"/><g class="cls-11"><polygon class="cls-12" points="506.76 487.56 501.83 489.66 496.36 490.68 491.61 487.78 487.81 484.17 484.44 479.68 484.3 473.97 486.73 468.9 490.15 464.4 495.62 463.11 501.12 461.77 505.71 465.08 509.6 468.54 512.39 473.15 511.86 478.51 511.2 484.1 506.76 487.56"/></g><g class="cls-11"><polygon class="cls-12" points="502.49 481.6 497.75 482.19 493.95 479.76 492.88 475.38 494.97 471.12 499.75 470.04 503.9 472.63 505.11 477.4 502.49 481.6"/></g><polygon class="cls-10" points="490.11 532.43 484.55 533.48 479.58 534.75 474.81 537.62 469.37 538.26 464.59 534.88 460.06 532.69 455.28 530.96 450.97 528.12 446.46 525 443.2 520.57 441.22 515.41 442.49 509.75 442.36 504.61 444.36 499.84 443.62 494.11 447.5 490.27 449.74 485.32 453.61 481.55 459 480.27 463.81 478.49 468.68 475.73 474.09 476.2 479.5 476.6 483.51 480.89 487.68 483.55 491.75 486.4 495.21 490.03 498.03 494.23 501.38 498.55 500.14 504.04 500.98 509.07 500.03 514.08 500.07 519.66 497.46 524.41 494.27 528.85 490.11 532.43"/><g class="cls-11"><polygon class="cls-12" points="483.86 523.71 478.83 525.59 473.84 527.87 468.32 527.74 463.2 525.76 458.32 523.25 454.65 519.12 451.86 514.35 451.19 508.88 450.55 503.36 453.27 498.48 455.46 493.48 460.11 490.61 464.57 487.77 469.69 485.91 475.12 486.47 480.6 487.32 484.78 490.97 487.94 495.24 492.13 499.17 492.06 504.84 491.76 510.14 490.04 515.12 488.29 520.4 483.86 523.71"/></g><g class="cls-11"><polygon class="cls-12" points="477.23 514.48 472.66 515.92 467.85 515.5 464.8 511.84 462.52 507.76 463.7 503.2 466.26 499.18 470.91 498.28 475.67 498.21 479.06 501.61 480.72 505.96 480.48 510.79 477.23 514.48"/></g><path class="cls-17" d="M457.59,555.75a1.88,1.88,0,0,1-.7-2.55h0a1.87,1.87,0,0,1,2.54-.71l7.16,4a1.87,1.87,0,0,1,.71,2.55h0a1.87,1.87,0,0,1-2.55.7Z"/><path class="cls-17" d="M461.73,566.67a1.87,1.87,0,0,1-.71-2.55h0a1.88,1.88,0,0,1,2.55-.7l7.16,4a1.87,1.87,0,0,1,.7,2.55h0a1.87,1.87,0,0,1-2.54.71Z"/><path class="cls-28" d="M459.76,569.85a2.45,2.45,0,0,1-.93-3.36l6.39-11.32a2.47,2.47,0,0,1,3.37-.94l.25.15a2.46,2.46,0,0,1,.94,3.36l-6.4,11.32A2.47,2.47,0,0,1,460,570Z"/><path class="cls-19" d="M466.67,557.93a4.31,4.31,0,1,1-5.88,1.63A4.31,4.31,0,0,1,466.67,557.93Z"/><path class="cls-26" d="M526.1,496.29a1.89,1.89,0,0,0,1.4-2.25l-1.86-8a1.89,1.89,0,0,0-2.25-1.4h0a1.89,1.89,0,0,0-1.4,2.25l1.86,8a1.89,1.89,0,0,0,2.25,1.4Z"/><path class="cls-26" d="M535.41,503.33a1.86,1.86,0,0,0,1.4-2.24l-1.86-8a1.88,1.88,0,0,0-2.25-1.4h0a1.87,1.87,0,0,0-1.39,2.25l1.86,8a1.86,1.86,0,0,0,2.24,1.39Z"/><rect class="cls-27" x="520.88" y="491.65" width="17.94" height="5.23" rx="2.47" ry="2.47" transform="translate(-97.57 131.8) rotate(-12.99)"/><path class="cls-18" d="M525.17,495.35a4.31,4.31,0,1,0,3.22-5.17A4.3,4.3,0,0,0,525.17,495.35Z"/><rect class="cls-1" x="2.96" y="0.96" width="598.08" height="598.08"/><circle class="cls-8" cx="300" cy="300" r="56"/><circle class="cls-9" cx="300" cy="300" r="24.66"/></g></g><g id="znaÄky"><path class="cls-29" d="M412.05,448.23c0-.51,1.78-.54,1.78,0v67.68h-1.78Z"/><polygon class="cls-29" points="417.29 517.18 414.04 517.18 414.04 515.1 414.64 515.1 417.29 516.85 417.29 517.18"/><polygon class="cls-29" points="408.6 517.18 411.85 517.18 411.85 515.1 411.25 515.1 408.6 516.85 408.6 517.18"/><path class="cls-30" d="M414.3,514.07l-.21-.21h-2.3l-.21.21h0v3.1h2.73v-3.1Z"/><polygon class="cls-31" points="427.6 450.77 419.01 442.18 419.01 442.18 406.88 442.18 398.29 450.77 398.29 450.77 398.29 462.91 398.29 462.91 406.88 471.49 406.88 471.49 419.01 471.49 419.01 471.49 427.6 462.91 427.6 462.91 427.6 450.77"/><polygon class="cls-32" points="418.51 443.4 426.38 451.27 426.38 462.4 418.51 470.27 407.38 470.27 399.51 462.4 399.51 451.27 407.38 443.4 418.51 443.4"/><path class="cls-7" d="M402.34,458.81a2.6,2.6,0,0,0,1.73.63c.9,0,1.46-.4,1.46-1s-.24-.84-1.49-1.32-1.82-1-1.82-1.94.79-1.68,2.22-1.68a4.17,4.17,0,0,1,1.94.45l-.33.75a3.42,3.42,0,0,0-1.63-.44c-.82,0-1.33.36-1.33.87s.21.75,1.42,1.2c1.46.54,1.93,1.13,1.93,2,0,1.21-1,1.91-2.37,1.91a3.54,3.54,0,0,1-2.18-.66Z"/><path class="cls-7" d="M407,453.57h4.9v.79h-2v5.74H409v-5.74h-2Z"/><path class="cls-7" d="M415.26,453.46a3.39,3.39,0,1,1-3.08,3.37A3.06,3.06,0,0,1,415.26,453.46Zm0,6c1.44,0,2.18-1.13,2.18-2.62a2.37,2.37,0,0,0-2.18-2.61c-1.37,0-2.17,1.13-2.17,2.61A2.37,2.37,0,0,0,415.26,459.45Z"/><path class="cls-7" d="M419.65,453.59a16.14,16.14,0,0,1,1.8-.09c1.63,0,2.55.83,2.55,2,0,1.4-1.11,2.19-2.73,2.19-.26,0-.51,0-.73,0v2.46h-.89Zm3.47,2c0-.8-.6-1.32-1.69-1.32a8,8,0,0,0-.89,0v2.6a5.77,5.77,0,0,0,.84.05C422.49,456.93,423.12,456.4,423.12,455.56Z"/><path class="cls-33" d="M412.59,495a11.5,11.5,0,1,1,11.5-11.5,11.54,11.54,0,0,1-11.5,11.5"/><path class="cls-34" d="M412.61,472.83l0,0a10.69,10.69,0,0,0,0,21.38h0a10.68,10.68,0,0,0,0-21.36"/><path class="cls-35" d="M408.11,487a5.59,5.59,0,0,1-1.25-3.6,4.82,4.82,0,0,1,.19-1.31l-2.77-.75a8.13,8.13,0,0,0-.29,2.25,8.44,8.44,0,0,0,2.61,6l-1,1.74,6.75-.21-3.2-5.92Z"/><path class="cls-35" d="M412.39,478a5.56,5.56,0,0,1,3.91,1.6l2.06-2a8.62,8.62,0,0,0-6.11-2.43,8.92,8.92,0,0,0-2.24.33l-1-1.74-3.23,5.87,6.77.26-1.05-1.78a6.25,6.25,0,0,1,.87-.06"/><path class="cls-35" d="M419.06,479.67l-3.55,5.82h2.06a5.57,5.57,0,0,1-3.7,3.36l.74,2.79a8.54,8.54,0,0,0,6-6.15h2Z"/><rect class="cls-1" x="401.09" y="472" width="23" height="23"/><path class="cls-29" d="M445.49,191.58c-.51,0-.54-1.78,0-1.78h67.69v1.78Z"/><polygon class="cls-29" points="514.44 186.34 514.44 189.59 512.37 189.59 512.37 188.99 514.12 186.34 514.44 186.34"/><polygon class="cls-29" points="514.44 195.03 514.44 191.78 512.37 191.78 512.37 192.38 514.12 195.03 514.44 195.03"/><path class="cls-30" d="M511.34,189.32l-.22.22v2.3l.22.21h3.11v-2.73Z"/><polygon class="cls-31" points="448.03 176.03 439.44 184.61 439.44 184.61 439.44 196.75 448.03 205.34 448.03 205.34 460.17 205.34 460.17 205.34 468.75 196.75 468.75 196.75 468.75 184.61 468.75 184.61 460.17 176.03 460.17 176.03 448.03 176.03"/><polygon class="cls-32" points="440.66 185.12 448.53 177.25 459.66 177.25 467.54 185.12 467.54 196.25 459.66 204.12 448.53 204.12 440.66 196.25 440.66 185.12"/><path class="cls-7" d="M456.07,201.29a2.6,2.6,0,0,0,.63-1.73c0-.9-.4-1.46-1-1.46s-.85.24-1.33,1.49-1,1.82-1.94,1.82-1.68-.79-1.68-2.22a4.17,4.17,0,0,1,.45-1.94l.75.33a3.39,3.39,0,0,0-.43,1.63c0,.82.35,1.32.86,1.32s.75-.2,1.2-1.41c.54-1.46,1.13-1.93,2-1.93,1.22,0,1.92,1,1.92,2.37a3.56,3.56,0,0,1-.67,2.18Z"/><path class="cls-7" d="M450.83,196.63v-4.9h.79v2h5.74v.89h-5.74v2Z"/><path class="cls-7" d="M450.72,188.37a3.39,3.39,0,1,1,3.37,3.08A3.07,3.07,0,0,1,450.72,188.37Zm6,0c0-1.44-1.13-2.18-2.62-2.18a2.37,2.37,0,0,0-2.6,2.18c0,1.37,1.13,2.17,2.6,2.17A2.37,2.37,0,0,0,456.71,188.37Z"/><path class="cls-7" d="M450.85,184c-.05-.52-.09-1.14-.09-1.8,0-1.63.83-2.55,2-2.55,1.4,0,2.18,1.11,2.18,2.73,0,.26,0,.51,0,.73h2.46V184Zm2-3.47c-.8,0-1.32.6-1.32,1.68a8,8,0,0,0,0,.9h2.61c0-.2,0-.49,0-.84C454.19,181.14,453.66,180.51,452.82,180.51Z"/><path class="cls-33" d="M492.26,191a11.5,11.5,0,1,1-11.5-11.5,11.53,11.53,0,0,1,11.5,11.5"/><path class="cls-34" d="M470.09,191h0a10.69,10.69,0,1,0,21.37,0h0a10.68,10.68,0,0,0-21.36,0"/><path class="cls-35" d="M484.27,195.51a5.53,5.53,0,0,1-3.6,1.26,4.82,4.82,0,0,1-1.31-.19l-.75,2.77a8.13,8.13,0,0,0,2.25.29,8.44,8.44,0,0,0,6-2.61l1.74,1-.21-6.75-5.92,3.2Z"/><path class="cls-35" d="M475.25,191.24a5.6,5.6,0,0,1,1.6-3.92l-2.05-2a8.66,8.66,0,0,0-2.43,6.11,8.92,8.92,0,0,0,.33,2.24l-1.73,1,5.86,3.23.26-6.77-1.77,1.05a5,5,0,0,1-.07-.87"/><path class="cls-35" d="M476.94,184.57l5.81,3.54v-2.05a5.54,5.54,0,0,1,3.36,3.7l2.79-.74a8.54,8.54,0,0,0-6.15-6v-2Z"/><rect class="cls-1" x="469.26" y="179.53" width="23" height="23"/><path class="cls-29" d="M190.84,158.14c0,.51-1.78.54-1.78,0V90.45h1.78Z"/><polygon class="cls-29" points="185.6 89.19 188.85 89.19 188.85 91.26 188.25 91.26 185.6 89.51 185.6 89.19"/><polygon class="cls-29" points="194.29 89.19 191.04 89.19 191.04 91.26 191.64 91.26 194.29 89.51 194.29 89.19"/><path class="cls-30" d="M188.59,92.29l.21.21h2.3l.21-.21h0V89.18h-2.73v3.11Z"/><polygon class="cls-31" points="175.29 155.6 183.88 164.18 183.88 164.18 196.01 164.18 204.6 155.6 204.6 155.6 204.6 143.46 204.6 143.46 196.01 134.88 196.01 134.88 183.88 134.88 183.88 134.88 175.29 143.46 175.29 143.46 175.29 155.6"/><polygon class="cls-32" points="184.38 162.97 176.51 155.1 176.51 143.96 184.38 136.09 195.51 136.09 203.38 143.96 203.38 155.1 195.51 162.97 184.38 162.97"/><path class="cls-7" d="M200.55,147.56a2.6,2.6,0,0,0-1.73-.63c-.9,0-1.46.4-1.46,1s.24.85,1.49,1.33,1.82,1,1.82,1.94-.79,1.68-2.22,1.68a4.17,4.17,0,0,1-1.94-.45l.33-.76a3.31,3.31,0,0,0,1.63.44c.82,0,1.33-.35,1.33-.87s-.21-.74-1.42-1.19c-1.46-.54-1.93-1.13-1.93-2,0-1.22,1-1.92,2.37-1.92a3.48,3.48,0,0,1,2.18.67Z"/><path class="cls-7" d="M195.89,152.8H191V152h2v-5.75h.88V152h2Z"/><path class="cls-7" d="M187.63,152.91a3.39,3.39,0,1,1,3.08-3.37A3.07,3.07,0,0,1,187.63,152.91Zm0-6c-1.44,0-2.18,1.13-2.18,2.62a2.37,2.37,0,0,0,2.18,2.6c1.37,0,2.18-1.13,2.18-2.6A2.38,2.38,0,0,0,187.63,146.92Z"/><path class="cls-7" d="M183.24,152.78c-.52.05-1.14.09-1.8.09-1.63,0-2.55-.83-2.55-2,0-1.4,1.11-2.18,2.73-2.18.27,0,.51,0,.73,0v-2.47h.89Zm-3.47-2c0,.8.6,1.31,1.69,1.31.33,0,.63,0,.89,0v-2.61a8.22,8.22,0,0,0-.84,0C180.4,149.44,179.77,150,179.77,150.81Z"/><path class="cls-33" d="M190.3,111.37a11.5,11.5,0,1,1-11.5,11.5,11.53,11.53,0,0,1,11.5-11.5"/><path class="cls-34" d="M190.28,133.54h0a10.69,10.69,0,0,0,0-21.37h0a10.68,10.68,0,0,0,0,21.36"/><path class="cls-35" d="M194.78,119.36A5.58,5.58,0,0,1,196,123a4.82,4.82,0,0,1-.19,1.31l2.77.75a8.13,8.13,0,0,0,.29-2.25,8.42,8.42,0,0,0-2.61-6l1-1.74-6.75.21,3.2,5.92Z"/><path class="cls-35" d="M190.5,128.38a5.56,5.56,0,0,1-3.91-1.6l-2.06,2.05a8.66,8.66,0,0,0,6.11,2.43,8.92,8.92,0,0,0,2.24-.33l1,1.73,3.23-5.86-6.77-.26,1.05,1.77a5,5,0,0,1-.87.07"/><path class="cls-35" d="M183.83,126.69l3.55-5.82h-2a5.52,5.52,0,0,1,3.69-3.35l-.74-2.79a8.54,8.54,0,0,0-6,6.14h-2Z"/><rect class="cls-1" x="178.8" y="111.37" width="23" height="23"/><path class="cls-29" d="M154.4,414.79c.51,0,.54,1.78,0,1.78H86.71v-1.78Z"/><polygon class="cls-29" points="85.45 420.03 85.45 416.78 87.53 416.78 87.53 417.38 85.78 420.03 85.45 420.03"/><polygon class="cls-29" points="85.45 411.34 85.45 414.59 87.53 414.59 87.53 413.99 85.78 411.34 85.45 411.34"/><path class="cls-30" d="M88.55,417l.22-.21v-2.3l-.22-.21h-3.1v2.74h3.1Z"/><polygon class="cls-31" points="151.86 430.34 160.44 421.75 160.44 421.75 160.44 409.61 151.86 401.03 151.86 401.03 139.72 401.03 139.72 401.03 131.14 409.61 131.14 409.61 131.14 421.75 131.14 421.75 139.72 430.34 139.72 430.34 151.86 430.34"/><polygon class="cls-32" points="159.23 421.25 151.36 429.12 140.23 429.12 132.35 421.25 132.35 410.12 140.23 402.25 151.36 402.25 159.23 410.12 159.23 421.25"/><path class="cls-7" d="M143.82,405.08a2.58,2.58,0,0,0-.63,1.73c0,.9.4,1.46,1,1.46s.85-.25,1.33-1.5,1-1.81,1.94-1.81,1.68.79,1.68,2.22a4.17,4.17,0,0,1-.45,1.94l-.75-.33a3.42,3.42,0,0,0,.43-1.63c0-.82-.35-1.33-.86-1.33s-.75.21-1.2,1.42c-.54,1.46-1.13,1.93-2,1.93-1.22,0-1.92-1-1.92-2.37a3.54,3.54,0,0,1,.67-2.18Z"/><path class="cls-7" d="M149.06,409.74v4.9h-.79v-2h-5.74v-.88h5.74v-2Z"/><path class="cls-7" d="M149.17,418a3.39,3.39,0,1,1-3.37-3.08A3.07,3.07,0,0,1,149.17,418Zm-6,0c0,1.43,1.13,2.18,2.62,2.18a2.37,2.37,0,0,0,2.6-2.18c0-1.37-1.12-2.18-2.6-2.18A2.38,2.38,0,0,0,143.18,418Z"/><path class="cls-7" d="M149,422.39c.05.51.09,1.14.09,1.8,0,1.62-.83,2.55-2,2.55-1.39,0-2.18-1.11-2.18-2.74q0-.39,0-.72h-2.46v-.89Zm-2,3.47c.8,0,1.32-.61,1.32-1.69a8,8,0,0,0,0-.89h-2.6a5.77,5.77,0,0,0-.05.84C145.7,425.23,146.23,425.86,147.07,425.86Z"/><path class="cls-33" d="M107.63,415.33a11.5,11.5,0,1,1,11.5,11.5,11.53,11.53,0,0,1-11.5-11.5"/><path class="cls-34" d="M129.8,415.35v0a10.69,10.69,0,0,0-21.37,0v0a10.68,10.68,0,0,0,21.36,0"/><path class="cls-35" d="M115.62,410.85a5.58,5.58,0,0,1,3.6-1.25,4.82,4.82,0,0,1,1.31.19l.75-2.77a8.13,8.13,0,0,0-2.25-.29,8.44,8.44,0,0,0-6,2.61l-1.74-1,.21,6.75,5.92-3.21Z"/><path class="cls-35" d="M124.64,415.12A5.56,5.56,0,0,1,123,419l2,2a8.63,8.63,0,0,0,2.43-6.11,8.91,8.91,0,0,0-.33-2.23l1.73-1-5.86-3.23-.26,6.77,1.77-1.05a5,5,0,0,1,.07.86"/><path class="cls-35" d="M123,421.8l-5.81-3.55v2.05a5.53,5.53,0,0,1-3.36-3.7l-2.79.74a8.5,8.5,0,0,0,6.15,6v2Z"/><rect class="cls-1" x="107.63" y="403.83" width="23" height="23"/></g></svg>