<svg class="kriz9" xmlns="http://www.w3.org/2000/svg" xmlns:xlink="http://www.w3.org/1999/xlink" viewBox="0 0 600 600"><defs><style>.cls-1,.cls-21,.cls-4,.cls-5,.cls-7,.cls-8{fill:none;}.cls-2{clip-path:url(#clip-path);}.cls-3{fill:#5a5a62;}.cls-10,.cls-4,.cls-5,.cls-7,.cls-8{stroke:#fff;}.cls-10,.cls-21,.cls-4,.cls-5,.cls-7,.cls-8,.cls-9{stroke-miterlimit:10;}.cls-4,.cls-5,.cls-7,.cls-8{stroke-width:4px;}.cls-5{stroke-dasharray:26.87 36.55;}.cls-16,.cls-6{fill:#fff;}.cls-7{stroke-linecap:round;}.cls-8{stroke-dasharray:25.42 34.57;}.cls-9{fill:#969696;stroke:#d1c6c6;stroke-width:3px;}.cls-10,.cls-13{fill:#93b258;}.cls-10{stroke-width:6px;}.cls-11{fill:#345130;}.cls-12{opacity:0.2;}.cls-14{fill:#d5d5d5;}.cls-15{fill:#fad1ca;}.cls-16{opacity:0.3;}.cls-17{fill:#a2e6df;}.cls-18{fill:#af3f00;}.cls-19{fill:#ffe165;}.cls-20{fill:#311505;}.cls-21{stroke:#d5d5d5;stroke-width:40px;}.cls-22{fill:#d05e26;}.cls-23{fill:#ba5e26;}.cls-24{fill:#c64400;}.cls-25{fill:#1c798d;}.cls-26{fill:#2d9499;}.cls-27{fill:#863a31;}.cls-28{fill:#ff8576;}.cls-29{fill:#35b37a;}.cls-30{fill:#4f5356;}.cls-31{fill:#6f767a;}.cls-32{fill:#f5f5f5;}.cls-33{fill:#f7c035;}.cls-34{fill:#383310;}</style><clipPath id="clip-path"><rect class="cls-1" width="600" height="600"/></clipPath></defs><title>kriz9</title><g id="kriz_1" data-name="kriz 1"><g class="cls-2"><rect class="cls-3" x="-64" y="-26" width="756" height="663"/><line class="cls-4" x1="-0.53" y1="300.75" x2="11.97" y2="300.75"/><line class="cls-5" x1="48.51" y1="300.75" x2="157.09" y2="300.75"/><line class="cls-4" x1="175.36" y1="300.75" x2="187.86" y2="300.75"/><rect class="cls-6" x="197.58" y="304.49" width="5.23" height="79.99"/><polygon class="cls-7" points="182.63 333.27 182.63 355.7 160.2 344.48 182.63 333.27"/><line class="cls-7" x1="129.55" y1="255.14" x2="102.77" y2="255.14"/><polygon class="cls-6" points="84.69 255.14 110.16 244.74 104.12 255.14 110.16 265.55 84.69 255.14"/><line class="cls-4" x1="299.75" y1="599.53" x2="299.75" y2="587.03"/><line class="cls-8" x1="299.75" y1="552.46" x2="299.75" y2="29.79"/><line class="cls-4" x1="299.75" y1="12.5" x2="299.75"/><rect class="cls-9" x="-132.49" y="390.09" width="337.91" height="337.91"/><rect class="cls-10" x="-93.98" y="430.08" width="259.42" height="259.42" rx="8.95" ry="8.95"/><polygon class="cls-11" points="53.87 457.54 48.03 462.37 42.08 467 34.36 467.55 26.63 467.17 18.91 464.99 11.19 467.37 3.46 467.67 -4.27 465.37 -10.36 462.55 -15.16 457.54 -17.02 449.72 -11.48 443.16 -4.27 441.48 3.45 440.74 11.17 442.85 18.9 440.9 26.62 443.01 34.35 443.36 42.08 439.31 49.14 443.37 49.95 450.05 53.87 457.54"/><g class="cls-12"><polygon class="cls-13" points="-4.27 457.89 -7.93 457.42 -7.08 449.87 -4.27 448.16 3.45 450.44 11.17 450.53 18.9 447.21 26.62 451.14 34.35 449.7 42.08 450.93 47.35 449.79 43.06 457.34 42.08 457.11 34.36 455.97 26.63 460.39 18.91 460.76 11.19 460.67 3.45 458.68 -4.27 457.89"/></g><polygon class="cls-11" points="125.64 457.54 119.8 462.37 113.85 467 106.13 467.55 98.4 467.17 90.68 464.99 82.95 467.37 75.23 467.67 67.5 465.37 61.41 462.55 56.61 457.54 54.74 449.72 60.29 443.16 67.5 441.48 75.22 440.74 82.94 442.85 90.67 440.9 98.39 443.01 106.12 443.36 113.85 439.31 120.91 443.37 121.72 450.05 125.64 457.54"/><g class="cls-12"><polygon class="cls-13" points="67.5 457.89 63.84 457.42 64.69 449.87 67.5 448.16 75.22 450.44 82.94 450.53 90.67 447.21 98.39 451.14 106.12 449.7 113.85 450.93 119.12 449.79 114.83 457.34 113.85 457.11 106.13 455.97 98.4 460.39 90.68 460.76 82.95 460.67 75.22 458.68 67.5 457.89"/></g><polygon class="cls-11" points="134.98 516.63 127.28 517.74 127.59 525.77 128.14 533.5 127.76 541.22 125.58 548.95 127.96 556.67 128.26 564.4 125.96 572.13 127.46 580.03 134.98 582.17 142.8 580.31 148.78 578.91 151.41 572.13 150.67 564.4 152.78 556.68 150.83 548.96 152.94 541.23 153.29 533.5 149.25 525.77 148.98 518.84 142.47 512.72 134.98 516.63"/><g class="cls-12"><polygon class="cls-13" points="133.43 572.13 135.14 574.45 142.67 575.3 143.14 572.13 145.43 564.4 145.51 556.68 142.19 548.96 146.12 541.23 144.68 533.5 145.91 525.77 142.6 525.06 135.06 520.78 132.65 525.77 131.51 533.5 135.93 541.22 136.3 548.95 136.22 556.67 134.22 564.4 133.43 572.13"/></g><polygon class="cls-11" points="134.98 444.12 127.28 445.22 127.59 453.26 128.14 460.98 127.76 468.7 125.58 476.43 127.96 484.15 128.26 491.88 125.96 499.61 127.46 507.51 134.98 509.65 142.8 507.79 148.78 506.39 151.41 499.61 150.67 491.89 152.78 484.16 150.83 476.44 152.94 468.71 153.29 460.99 149.25 453.26 148.98 446.33 142.47 440.2 134.98 444.12"/><g class="cls-12"><polygon class="cls-13" points="133.43 499.61 135.14 501.93 142.67 502.79 143.14 499.61 145.43 491.89 145.51 484.16 142.19 476.44 146.12 468.71 144.68 460.99 145.91 453.26 142.6 452.55 135.06 448.26 132.65 453.26 131.51 460.98 135.93 468.7 136.3 476.43 136.22 484.15 134.22 491.89 133.43 499.61"/></g><polygon class="cls-11" points="134.98 587.66 127.28 588.76 127.59 596.8 128.14 604.52 127.76 612.24 125.58 619.97 127.96 627.69 128.26 635.42 125.96 643.15 127.46 651.05 134.98 653.19 142.8 651.33 148.78 649.93 151.41 643.15 150.67 635.43 152.78 627.7 150.83 619.98 152.94 612.25 153.29 604.52 149.25 596.8 148.98 589.87 142.47 583.74 134.98 587.66"/><g class="cls-12"><polygon class="cls-13" points="133.43 643.15 135.14 645.47 142.67 646.33 143.14 643.15 145.43 635.43 145.51 627.7 142.19 619.98 146.12 612.25 144.68 604.52 145.91 596.8 142.6 596.08 135.06 591.8 132.65 596.8 131.51 604.52 135.93 612.24 136.3 619.97 136.22 627.69 134.22 635.43 133.43 643.15"/></g><rect class="cls-6" x="9.93" y="480.92" width="17.94" height="17.19"/><rect class="cls-14" x="9.93" y="498.11" width="17.94" height="24.67"/><rect class="cls-6" x="35.35" y="480.92" width="17.94" height="17.19"/><rect class="cls-14" x="35.35" y="498.11" width="17.94" height="24.67"/><rect class="cls-15" x="63.76" y="480.92" width="41.87" height="41.87"/><polygon class="cls-16" points="105.62 522.78 63.76 522.78 63.76 522.78 85.19 501.85 105.62 522.78"/><polygon class="cls-16" points="105.62 480.92 63.76 480.92 63.76 480.92 85.19 501.85 105.62 480.92"/><path class="cls-6" d="M57.67,606c9.41,0,14.08,3.42,23.12,3.42a32.52,32.52,0,0,0,0-65c-9,0-12.14,4.41-23.12,4.41s-14.07-4.41-23.11-4.41a32.52,32.52,0,0,0,0,65C43.6,609.45,48.27,606,57.67,606Z"/><path class="cls-17" d="M11.44,576.93a23.14,23.14,0,0,1,23.12-23.12,20.92,20.92,0,0,1,7.35,1.55,44.73,44.73,0,0,0,31.53,0,20.88,20.88,0,0,1,7.35-1.55,23.12,23.12,0,1,1,0,46.23,35.16,35.16,0,0,1-9.07-1.41,54.66,54.66,0,0,0-14-2,54.64,54.64,0,0,0-14,2A35.16,35.16,0,0,1,34.56,600,23.14,23.14,0,0,1,11.44,576.93Z"/><path class="cls-6" d="M76.47,580.35s3.27-1.12,2.76-4.11-5.75,1.87-5.75,1.87-4.12-3-7.1-3.74c0,0-4.49-1.5-7.48-1.12L60,567.64c-3-1.5-9.34,6.73-9.34,6.73S39.46,580,40.58,584.83a2.88,2.88,0,0,0,.3.78c-1.63,1.44-3.19,3.06-2.53,3.57s2.85-.89,4.89-2.36c3.63.23,10-3,13.79-4.6,5.23-2.24,11.59-4.11,17.2-.38,0,0,.37,5.24,3,4.49S80.21,582.59,76.47,580.35Z"/><path class="cls-14" d="M28.62,555.3a1.13,1.13,0,0,1-1.12,1.13h0a1.13,1.13,0,0,1-1.12-1.13V542.6a1.13,1.13,0,0,1,1.12-1.13h0a1.13,1.13,0,0,1,1.12,1.13Z"/><path class="cls-14" d="M38.34,555.3a1.13,1.13,0,0,1-1.12,1.13h0a1.13,1.13,0,0,1-1.12-1.13V542.6a1.13,1.13,0,0,1,1.12-1.13h0a1.13,1.13,0,0,1,1.12,1.13Z"/><path class="cls-18" d="M185.62,488.77a1.87,1.87,0,0,1-1.87,1.87h0a1.87,1.87,0,0,1-1.87-1.87v-8.23a1.87,1.87,0,0,1,1.87-1.86h0a1.87,1.87,0,0,1,1.87,1.86Z"/><path class="cls-18" d="M193.09,479.8a1.87,1.87,0,0,1-1.87,1.87h0a1.87,1.87,0,0,1-1.86-1.87v-8.23a1.87,1.87,0,0,1,1.86-1.87h0a1.87,1.87,0,0,1,1.87,1.87Z"/><rect class="cls-19" x="178.89" y="477.18" width="17.94" height="5.23" rx="2.47" ry="2.47"/><circle class="cls-20" cx="187.36" cy="479.8" r="4.31"/><rect class="cls-9" x="394.57" y="-93" width="337.91" height="717"/><path class="cls-10" d="M790,255.6A12.36,12.36,0,0,1,777.68,268H445.39a12.36,12.36,0,0,1-12.32-12.4V-79.09A12.36,12.36,0,0,1,445.39-91.5H777.68A12.36,12.36,0,0,1,790-79.09Z"/><path class="cls-21" d="M557.84,265.66v-116a13.77,13.77,0,0,1,13.77-13.77h41.3"/><polygon class="cls-11" points="501.49 150.07 495.94 152.27 490.53 154.54 484.63 153.95 479.05 153.36 473.71 151.74 468.82 149.15 464.42 145.82 460.88 141.59 455.57 137.99 453.62 132.26 454.94 126.19 455.56 120.61 454.78 114.38 458.13 109.36 461.18 104.18 465.91 100.47 471.06 97.43 477.27 97.82 482.64 94.05 488.42 96.43 494.5 96.43 499.71 99.42 502.91 104.67 509.1 107 510.96 112.85 511.55 118.72 512.86 124.26 512.2 129.93 512.86 136.2 509.57 141.32 503.97 144.22 501.49 150.07"/><g class="cls-12"><polygon class="cls-13" points="497.1 143.94 492.06 147.47 486.01 148.84 479.94 147.95 474.15 146.28 468.89 143.27 465.48 138.29 461.79 133.48 461.11 127.47 461.64 121.61 463.81 116.24 466.88 111.47 470.88 107.39 475.23 102.81 481.5 103.24 487.22 103.71 493.07 104.48 498.98 106.57 502.29 111.88 504.7 117.31 507.27 122.9 506.39 128.97 504.94 134.86 500.91 139.36 497.1 143.94"/></g><g class="cls-12"><polygon class="cls-13" points="491.56 136.22 487.02 139.53 481.43 138.9 476.23 137.23 472.58 133.19 470.02 128.43 470.1 123 471.93 117.94 475.24 113.47 480.48 111.56 486.03 110.96 490.84 113.7 495 117.11 497.68 121.96 497.84 127.56 495.52 132.59 491.56 136.22"/></g><polygon class="cls-11" points="499.96 66.31 495.72 70.17 490.13 71.23 484.69 74.28 479.05 71.7 472.7 72.82 468.68 67.77 464.64 63.96 459.65 60.85 458.37 55.09 454.11 50.52 453.55 44.62 453 38.57 454.48 32.65 458.95 28.25 463.01 24.29 467.39 20.91 472.06 18 476.63 13.48 482.7 14.35 488.35 15.2 493.73 16.86 499.91 17.48 504.82 21.02 507.09 26.82 512.16 30.69 512.42 36.9 513.73 42.62 512.37 48.34 511.63 54.12 508.59 59.09 505.19 63.74 499.96 66.31"/><g class="cls-12"><polygon class="cls-13" points="496.42 61.38 491.86 65.32 486.05 67.58 480.17 64.92 474.63 63.61 469.41 61.02 464.59 57.3 461.67 51.91 459.96 45.96 460.62 39.82 461.72 33.68 465.65 28.84 470.35 25.04 475.57 22.11 481.54 22.04 487.2 22.21 493.52 21.86 498.63 25.37 501.32 30.96 503.86 36.01 505.24 41.48 505.98 47.29 503.71 52.68 502.08 58.7 496.42 61.38"/></g><g class="cls-12"><polygon class="cls-13" points="492.17 55.45 486.86 57.23 481.52 56.69 476.79 54.7 472.77 51.44 469.82 46.85 470.55 41.45 472.01 36.37 475.5 32.22 480.45 29.82 485.89 30.17 491.32 31.3 494.43 35.9 497.35 40.42 498.06 45.98 494.78 50.51 492.17 55.45"/></g><polygon class="cls-11" points="513.49 203.87 511.7 209.31 511.7 215.19 509.3 220.52 506.45 225.94 501.59 229.62 495.06 229.65 490.46 234.45 484.38 234.93 478.75 232.21 473.57 229.98 468.07 228.28 463.94 224.32 460.7 219.69 457.58 214.97 456.73 209.37 455.61 203.87 456.67 198.36 458.69 193.23 460.42 187.86 463.43 182.92 467.72 178.93 473.44 177.46 478.43 173.96 484.38 173.99 490.49 173.18 496.07 175.66 500.8 179.3 506.26 181.99 510.06 186.72 511.07 192.82 512.36 198.31 513.49 203.87"/><g class="cls-12"><polygon class="cls-13" points="508.62 203.87 505.34 209.49 505 215.77 500.02 219.51 496.07 224.11 490.57 226.96 484.38 225.84 478.25 226.77 472.64 224.21 467.83 220.42 465.67 214.67 462.64 209.7 460.57 203.87 461.05 197.62 465.45 192.94 467.87 187.35 472.82 183.84 478.71 182.69 484.38 179.87 490.14 182.38 495.67 184.32 499.65 188.6 504.24 192.41 506.83 197.86 508.62 203.87"/></g><g class="cls-12"><polygon class="cls-13" points="497.85 203.87 497.63 209.36 494.72 214.21 489.94 217.3 484.38 217.55 479.32 216.09 474.55 213.7 471.11 209.37 469.85 203.87 471.55 198.56 474.93 194.42 478.84 190.49 484.38 189.2 489.41 191.74 494.57 193.69 496.75 198.75 497.85 203.87"/></g><polygon class="cls-6" points="446.73 245.01 446.73 -3 442.79 -3 442.79 245.01 442.79 248.95 446.73 248.95 523.43 248.95 523.43 245.01 446.73 245.01"/><rect class="cls-6" x="588.33" y="245.01" width="67.85" height="3.93"/><rect class="cls-22" x="537.19" y="61.13" width="38.35" height="22.62"/><rect class="cls-23" x="537.19" y="83.74" width="38.35" height="22.62"/><circle class="cls-19" cx="525.65" cy="67.76" r="6.24"/><circle class="cls-11" cx="525.65" cy="80.54" r="4.68"/><rect class="cls-24" x="595.21" y="6.06" width="130.79" height="76.7"/><rect class="cls-18" x="595.21" y="82.76" width="130.79" height="76.7"/><path class="cls-25" d="M411.39,131.28a1.87,1.87,0,0,1-1.87,1.87h0a1.87,1.87,0,0,1-1.87-1.87v-8.22a1.87,1.87,0,0,1,1.87-1.87h0a1.86,1.86,0,0,1,1.87,1.87Z"/><path class="cls-25" d="M418.87,122.31a1.87,1.87,0,0,1-1.87,1.87h0a1.87,1.87,0,0,1-1.87-1.87v-8.23a1.87,1.87,0,0,1,1.87-1.86h0a1.87,1.87,0,0,1,1.87,1.86Z"/><rect class="cls-18" x="404.66" y="119.69" width="17.94" height="5.23" rx="2.47" ry="2.47"/><circle class="cls-20" cx="413.14" cy="122.31" r="4.31"/><rect class="cls-9" x="-132.49" y="-128" width="337.91" height="337.91"/><rect class="cls-10" x="-93.98" y="-89.5" width="259.42" height="259.42" rx="8.95" ry="8.95"/><polygon class="cls-11" points="144.54 120.93 145.07 126.61 140.96 131.06 139.82 136.51 136.84 141.26 131.36 143.16 127.11 146.51 122.16 149.35 116.51 149.85 111.36 146.8 106.14 145.97 100.8 144.44 97.64 139.8 92.91 136.7 89.5 132.12 88.33 126.54 88.66 120.93 88.84 115.43 91.07 110.39 92.86 105.13 97.83 102.25 101.84 98.98 105.53 94.42 111.37 95.09 116.51 92.06 122.16 92.54 127.41 94.63 131.93 97.86 135.19 102.25 139.89 105.31 141.34 110.65 143.89 115.49 144.54 120.93"/><g class="cls-12"><polygon class="cls-13" points="135.7 120.93 133.83 126.56 132.74 132.72 128 136.75 122.47 139.27 116.51 140.22 110.37 139.84 105.52 136.06 100.75 132.39 98.33 126.84 96.28 120.93 98.2 114.98 100.06 108.98 105.53 105.81 110.8 103.36 116.51 100.8 122.42 102.75 127.45 105.88 132.56 109.27 134.15 115.2 135.7 120.93"/></g><g class="cls-12"><polygon class="cls-13" points="126.13 120.93 124.74 125.68 121.34 129.31 116.51 130.49 112.05 128.66 108.74 125.42 107.21 120.93 108.12 116.09 111.91 112.96 116.51 111.84 121.14 112.92 124.13 116.54 126.13 120.93"/></g><polygon class="cls-11" points="73.2 119.44 70 124.98 69.21 130.93 64.54 134.67 60.67 139.11 54.85 140.14 49.31 140.77 43.31 141.8 37.52 139.84 32.32 136.42 28.66 131.36 27.85 125.19 27.45 119.44 28.05 113.74 30.4 108.52 33.48 103.6 38.43 100.59 43.69 98.49 49.31 95.76 55.1 97.81 60.88 99.39 66.05 102.69 68.31 108.46 71.28 113.55 73.2 119.44"/><g class="cls-12"><polygon class="cls-13" points="63.77 119.44 62.71 124.98 59.74 129.87 55.12 133.47 49.31 133.94 43.42 133.64 37.98 130.75 35.69 125.07 34.86 119.44 34.35 113.24 37.9 108.03 43.63 105.72 49.31 103.89 55.03 105.62 60.31 108.43 63.91 113.39 63.77 119.44"/></g><g class="cls-12"><polygon class="cls-13" points="56.42 119.44 54.19 124.31 49.31 126.75 44.12 124.62 42.47 119.44 44.44 114.57 49.31 112 54.62 114.12 56.42 119.44"/></g><polygon class="cls-11" points="39.53 58.15 35.4 61.78 30.91 64.7 26.4 67.76 21.02 68.6 15.64 69.41 10.57 67.26 5.71 65.51 0.02 64.58 -2.33 59.19 -6.18 55.6 -7.74 50.58 -11.78 46.06 -9.41 40.51 -9.09 35.33 -6.72 30.71 -6.4 24.69 -2.82 20.32 1.73 16.95 7.26 15.67 12.63 15.18 17.88 14.43 22.92 16.14 28.52 16.18 32.53 19.94 36.94 22.98 40.14 27.3 42.43 32.15 42.67 37.51 44.66 42.7 42.89 47.88 40.8 52.69 39.53 58.15"/><g class="cls-12"><polygon class="cls-13" points="33.9 54.05 30.64 58.74 25.41 61.04 20.04 62.37 14.4 63.9 8.91 62 4.38 58.58 0.59 54.65 -3.4 50.52 -4.39 44.9 -4.25 39.34 -2.18 34.27 -0.69 28.85 2.93 24.44 7.82 21.4 13.61 21.45 18.91 21.48 24.47 21.6 29.73 23.78 33.87 27.77 35.73 33.16 38.66 38.13 36.93 43.72 37.27 49.47 33.9 54.05"/></g><g class="cls-12"><polygon class="cls-13" points="22.62 45.83 17.92 48.89 12.11 47.97 9.13 42.77 10.28 36.84 15.6 34.08 21.27 35.41 23.9 40.45 22.62 45.83"/></g><polygon class="cls-11" points="99.05 -0.18 97.91 5.63 96.44 11.5 91.43 15.03 87.95 20.14 82 21.41 76.22 23.2 70.36 21.69 64.41 20.28 60.83 15.21 55.55 11.75 55.37 5.41 54.37 -0.18 54.15 -6.09 55.65 -12.06 59.29 -17.11 64.81 -19.94 70.3 -22.29 76.22 -21.88 81.97 -21.64 87.06 -18.96 92.59 -16.55 94.82 -10.92 97.32 -5.84 99.05 -0.18"/><g class="cls-12"><polygon class="cls-13" points="94.25 -0.18 93.83 5.54 91.29 10.77 86.19 13.54 81.75 16.84 76.22 17.44 71.05 15.72 66.14 13.69 61.15 10.77 60.05 5.07 58.98 -0.18 59.24 -5.7 62.34 -10.27 66.46 -13.62 70.92 -16.48 76.22 -18.09 81.4 -16.12 86.29 -14.05 89.74 -10 92.75 -5.55 94.25 -0.18"/></g><g class="cls-12"><polygon class="cls-13" points="86.67 -0.18 85.55 5.2 81.25 8.54 76.22 10.61 71 8.86 67.38 4.92 66.02 -0.18 67.19 -5.39 70.76 -9.64 76.22 -11.1 81.72 -9.71 85.37 -5.47 86.67 -0.18"/></g><polygon class="cls-11" points="128.94 61.52 131.85 67.56 128.91 72.97 128.01 79.02 124.43 83.87 120.62 88.47 115.73 91.9 110.51 94.57 105.28 97.28 99.42 97.88 93.66 97.22 88.06 96.9 82.18 96.85 77.68 92.89 71.36 92.21 66.64 88.54 63.12 83.7 60.42 78.45 59.83 72.51 55.9 67.5 59.08 61.52 58.98 56.02 60.5 50.74 62.2 45.49 62.54 38.9 66.83 34.68 73.33 33.53 76.94 28.69 82.61 27.52 87.88 25.01 93.66 25.07 99.36 25.57 105.59 24.8 109.36 30.69 114.27 33.16 119.73 35.45 124.19 39.34 127.62 44.21 129.57 49.85 129.52 55.84 128.94 61.52"/><g class="cls-12"><polygon class="cls-13" points="123.35 61.52 120.08 66.77 120.83 72.77 116.41 76.72 113.54 81.4 108.64 83.93 104.62 87.98 99.34 90.07 93.66 89 87.8 91.02 83.13 86.94 78.34 84.44 72.8 82.38 69.85 77.43 67.9 72.19 66.09 67 63.63 61.52 64.3 55.68 67.28 50.59 69 45.04 74.33 42.19 77.96 38.02 82.63 34.89 88.08 33.42 93.66 32.79 99.14 33.98 104.3 35.84 109.97 37.11 114.14 41.03 118.29 45.06 119.46 50.83 120.98 56.08 123.35 61.52"/></g><g class="cls-12"><polygon class="cls-13" points="110.43 61.52 110.05 66.84 108.13 72.03 103.86 75.56 98.69 77 93.66 77.92 88.21 78.31 83.27 75.82 80 71.44 78.02 66.6 76.72 61.52 77.85 56.38 79.67 51.35 83.16 47.06 88.56 45.81 93.66 44.43 99.2 44.46 103.43 48.08 107.36 51.56 109.55 56.35 110.43 61.52"/></g><rect class="cls-18" x="-14.74" y="75.72" width="33.64" height="76.26"/><path class="cls-26" d="M182.63,41.7a1.87,1.87,0,0,1-1.87,1.87h0a1.87,1.87,0,0,1-1.87-1.87V33.48a1.87,1.87,0,0,1,1.87-1.87h0a1.87,1.87,0,0,1,1.87,1.87Z"/><path class="cls-26" d="M190.1,32.73a1.86,1.86,0,0,1-1.87,1.87h0a1.86,1.86,0,0,1-1.86-1.87V24.51a1.87,1.87,0,0,1,1.86-1.87h0a1.87,1.87,0,0,1,1.87,1.87Z"/><rect class="cls-11" x="175.9" y="30.12" width="17.94" height="5.23" rx="2.47" ry="2.47"/><circle class="cls-19" cx="184.37" cy="32.73" r="4.31"/><path class="cls-27" d="M164.31,187.86a1.87,1.87,0,0,0,1.87-1.87h0a1.87,1.87,0,0,0-1.87-1.87h-8.22a1.87,1.87,0,0,0-1.87,1.87h0a1.87,1.87,0,0,0,1.87,1.87Z"/><path class="cls-27" d="M155.34,195.34a1.87,1.87,0,0,0,1.87-1.87h0a1.87,1.87,0,0,0-1.87-1.87h-8.22a1.86,1.86,0,0,0-1.87,1.87h0a1.87,1.87,0,0,0,1.87,1.87Z"/><rect class="cls-28" x="152.72" y="181.13" width="5.23" height="17.94" rx="2.47" ry="2.47"/><path class="cls-19" d="M155.34,185.29a4.31,4.31,0,1,0,4.31,4.31A4.31,4.31,0,0,0,155.34,185.29Z"/><rect class="cls-10" x="433.37" y="317.76" width="414.69" height="414.69" rx="14.31" ry="14.31"/><polygon class="cls-11" points="510.99 396.03 505.35 397.84 500.14 400.14 494.43 400.2 488.89 400.16 483.65 398.47 477.57 398.9 472.36 396.28 467.85 392.56 463.86 388.25 462.94 382.19 460.28 377.26 459.1 371.76 460.45 366.23 458.93 360.29 461.79 355.22 463.61 349.66 468.56 346.36 472.76 342.74 476.81 338.43 483 338.97 488.21 337.46 493.77 335.94 499.11 338.03 504.31 339.8 509.59 341.79 514.83 344.49 517.85 349.52 518.93 355.3 521.05 360.23 524.37 365.3 524.49 371.1 522.1 376.45 519.51 381.34 517.64 386.58 513.67 390.45 510.99 396.03"/><g class="cls-12"><polygon class="cls-13" points="504.14 386.48 499.18 389.5 493.5 390.81 487.82 389.69 482.47 388.07 477.93 384.87 472.14 382.32 471.51 376.03 468.92 370.79 469.96 365.06 470.36 359.1 474.51 354.81 478.54 350.79 483.67 348.35 489.01 345.52 494.94 346.39 500.92 347.29 505.52 351.21 509.71 355.36 511.86 360.82 513.09 366.41 512.34 372.04 512.26 378.06 509.23 383.28 504.14 386.48"/></g><g class="cls-12"><polygon class="cls-13" points="497.06 376.62 492.32 378.93 487.4 377.17 483.37 374.26 481.88 369.5 482.39 364.54 485.59 360.62 490.29 358.42 495.28 359.76 499.27 362.85 501.05 367.61 499.85 372.44 497.06 376.62"/></g><polygon class="cls-11" points="645.72 582.03 640.16 583.8 635.4 587.35 629.49 586.85 623.76 588.9 618.1 587.21 612.5 585.58 607.11 583.14 604.5 577.35 598.73 574.81 595.89 569.63 594.87 563.82 593.22 558.28 592.89 552.46 594.39 546.83 598.19 542.27 600.5 537.35 601.89 531.11 606.5 527.36 612.47 526.12 618.01 525.3 623.02 521.54 628.66 524.41 634.72 522.23 639.8 525.26 645.69 526.68 648.08 532.75 652.48 536.25 654.46 541.5 657.36 546.31 658.44 551.83 659.85 557.55 657.23 562.91 655.82 568.35 653.03 573.25 648.48 576.65 645.72 582.03"/><polygon class="cls-11" points="507.76 589.54 513.22 585.31 510.27 579.16 506.92 575.1 501.73 570.47 497.67 564.42 490.72 561.99 485.09 557.91 481.11 551.75 476.26 546.66 469.57 543.9 464.05 543.74 458.42 542.95 453.38 546.32 450.39 551.29 445.13 554.46 444.12 561 442.23 567.47 445.95 573.62 453.95 574.72 458.2 580.53 461.92 587.03 470.52 587.37 476.13 591.48 478.6 599.55 484 603.93 490.82 606.78 496.1 601.49 502.17 599.8 506.77 595.84 507.76 589.54"/><g class="cls-12"><polygon class="cls-13" points="463.35 551.73 460.02 551.89 455.95 555.71 453.11 560.51 453.1 564.62 458.49 569.01 465.9 570.84 469.01 578.11 475.3 581.35 480.01 586.6 488.09 587.61 490.99 595.14 496.64 595.21 500.97 591.5 501.08 584.59 499.73 584.15 494.35 579.76 490.09 573.95 485.47 568.59 479.62 564.8 475.12 559.28 467.94 557.08 463.35 551.73"/></g><path class="cls-21" d="M567.22,321.35c0,58.55,23.9,174.48,175.68,174.48"/><path class="cls-21" d="M437,500.51c81.26,0,144.6,113.63,144.6,113.63"/><polygon class="cls-11" points="625.68 471.3 625.03 476.92 625.68 483.04 621.89 487.79 620.36 493.7 615.75 497.52 611.32 501.29 605.72 503.08 600.46 504.94 594.9 505.17 589.53 506.96 584.17 505.11 578.42 505.49 573.59 502.58 568.11 500.77 563.87 496.95 559.22 493.32 555.69 488.54 556.82 481.92 555.52 476.69 552.8 471.3 552.05 465.36 555.15 460.13 555.45 453.93 559.15 449.23 565.23 447 568.56 442.43 572.24 437.36 578.1 436.12 583.63 434.08 589.53 434.84 595.26 435.13 601.08 435.74 605.43 440.08 611.9 440.51 614.49 446.33 620.34 448.91 623.24 454.12 625.49 459.61 623.72 465.88 625.68 471.3"/><g class="cls-12"><polygon class="cls-13" points="615.19 471.3 613.31 476.73 611.71 481.98 607.81 485.87 605.33 491.11 599.88 492.79 595.3 496.61 589.53 495.25 584.04 495.31 578.66 493.87 573.94 490.84 569.18 487.52 568.05 481.64 564.6 476.99 566.17 471.3 566.31 465.99 567.45 460.66 570.49 456.11 573.47 451.16 578.85 449.12 583.78 446.12 589.53 446.16 595.12 446.8 600.02 449.52 604.47 452.56 607.7 456.81 611.31 460.81 612.14 466.13 615.19 471.3"/></g><g class="cls-12"><polygon class="cls-13" points="600.39 471.3 600.04 477.37 595.41 481.49 589.53 482.32 583.75 481.3 579.03 477.35 578.56 471.3 580.05 465.83 583.49 460.84 589.53 459.82 595.32 461.26 599.06 465.79 600.39 471.3"/></g><polygon class="cls-11" points="670.04 509.54 671.5 515.52 666.89 520.31 664.99 525.46 662.3 530.28 659.58 535.38 655.29 539.2 650.44 542.3 645.37 545.32 639.41 545.29 633.75 544.71 628.1 545.17 622.59 543.87 617.04 542.33 612.47 538.83 608.18 535.1 603.22 531.72 602.25 525.59 600.18 520.44 597.24 515.32 598.47 509.54 597.57 503.81 598.37 498.04 601.28 493 606.17 489.5 606.83 482.62 612.06 479.68 618.04 478.72 622.55 475.08 627.8 472.01 633.75 475.13 639.12 475.65 645.45 473.51 650.09 477.46 655.1 480.14 658.15 485.14 664 487.56 665.12 493.56 670.19 497.7 668.67 504 670.04 509.54"/><polygon class="cls-11" points="554.47 525.27 548.96 526.85 544.77 531.87 538.77 531.73 533.02 531.59 527.14 531.55 521.82 529.1 518.03 524.41 512.79 522.08 510.6 516.71 507.77 512.16 505.05 507.37 501.45 502.21 504.69 496.49 505.78 491.23 507.22 486.03 509.39 480.99 512.62 476.46 517.58 473.84 522.12 470.95 527.08 468.74 532.27 466.14 537.98 466.34 543.55 467.42 549.55 467.81 554.66 470.82 558.99 474.82 562.19 479.7 564.72 484.81 567.72 489.81 566.48 495.77 566.53 501.19 568.03 507.15 566.53 512.87 561.55 516.63 557.51 520.34 554.47 525.27"/><g class="cls-12"><polygon class="cls-13" points="549.33 518.09 543.29 519.48 537.78 521.79 531.8 521.38 525.84 520.22 520.86 516.71 516.43 512.52 513.37 507.18 513.83 500.98 513.36 495.19 515.51 489.79 518.27 484.7 522.96 481.34 527.98 478.84 533.38 477.32 539.25 476.12 544.78 478.35 549.13 482.22 554.78 485.02 556.9 490.77 558.11 496.6 558.54 502.63 556.43 508.3 552.07 512.41 549.33 518.09"/></g><g class="cls-12"><polygon class="cls-13" points="540.99 506.48 536.47 508.55 531.53 507.64 527.84 504.34 525.36 499.84 526.83 494.91 529.87 490.97 534.58 489.46 539.8 489.36 543.37 493.2 545.59 497.84 544.64 502.97 540.99 506.48"/></g><polygon class="cls-11" points="557.75 408.19 551.7 409.26 546.81 412.32 541.17 413.52 535.44 412.92 529.42 413.69 525.27 408.43 520.37 406.19 515 403.95 510.48 400.2 507.5 395.13 504.89 389.77 505.78 383.7 507.05 378.18 505.17 372.15 507.94 366.97 509.68 361.24 515.72 358.85 518.34 353.25 524.61 352.83 529.66 351.13 534.64 347.61 540.39 347.78 546.06 348.63 550.68 352.28 556.07 353.94 560.17 357.74 563.21 362.37 568.22 365.96 568.14 372.05 569.66 377.38 568.86 382.88 571.12 389.02 566.97 393.68 565.46 399.35 561.53 403.62 557.75 408.19"/><g class="cls-12"><polygon class="cls-13" points="551.62 399.64 545.91 401.78 540.05 402.23 534.42 401.66 528.18 402.01 524.52 396.84 519.67 393.6 516.05 388.76 514.36 382.85 515.87 376.9 516.96 371.05 520.11 365.94 525.63 363.41 530.1 359.81 535.6 357.24 541.41 359.21 547.6 359.08 551.88 363.48 556.45 367.22 559.35 372.44 560.25 378.31 561.25 384.37 557.19 389.25 554.52 394.14 551.62 399.64"/></g><g class="cls-12"><polygon class="cls-13" points="543.87 388.84 538.89 390.53 533.82 389.54 529.98 386.21 527.62 381.54 528.84 376.42 531.88 372.13 536.91 370.53 542.16 371.11 546 374.71 547.43 379.58 546.47 384.4 543.87 388.84"/></g><polygon class="cls-11" points="521.51 466.51 519.18 472.83 513.89 474.67 508.61 476.25 503.47 478.72 497.8 477.96 492.26 479.38 487.4 474.31 481.73 475.61 476.4 474.41 470.78 473.31 468.03 467.45 464.2 463.9 460.94 459.88 457.43 456.1 451.55 453.49 449.91 448.16 447.29 443.24 447.05 437.65 446.06 432.27 447.38 426.87 448.38 421.64 446.11 415.53 451.94 411.78 451.23 405.49 457.74 403.27 460.2 398.68 463 394.05 465.44 388.34 472.77 389.87 476.32 385.29 481.14 382.73 486.91 384.2 491.71 378.62 497.35 379.58 502.31 383.76 508.39 381.23 513.36 383.85 517.97 386.87 522.15 390.33 528.23 391.5 530.85 396.74 535.77 399.9 537.55 405.37 541.28 409.75 541.48 415.58 540.83 421.22 540.6 426.47 545.23 431.86 539.39 436.62 541.04 442.35 541.1 448.18 539.27 453.56 533.97 456.76 531.68 461.89 527.82 465.84 521.51 466.51"/><g class="cls-12"><polygon class="cls-13" points="514.47 456.69 509.32 459.48 504.13 462.53 498 461.47 492.32 462.1 486.22 462.9 481.44 458.84 475.14 458.08 470.99 453.65 469.14 447.7 464.28 443.95 463.15 438.16 460.59 432.67 463.63 426.92 464.38 421.5 463.02 414.9 466.25 409.77 470.05 405.08 475.2 401.94 480.59 399.67 485.65 396.6 491.46 395.42 497.46 394.44 503.3 396.08 507.87 400.43 514.28 400.8 518.6 404.94 522.3 409.56 526.09 414.26 527.28 420.19 529.33 425.87 526.27 431.67 527.05 437.53 525.51 443.17 523.45 448.85 517.86 451.81 514.47 456.69"/></g><g class="cls-12"><polygon class="cls-13" points="503.66 441.62 498.19 443.75 492.56 442.94 486.95 441.94 483.13 437.66 480.07 432.73 479.73 426.8 482.03 421.35 486.34 417.48 491.67 415.86 497.13 415.18 502.29 417.25 506.84 420.66 509.13 425.94 509.76 431.74 506.87 436.77 503.66 441.62"/></g><path class="cls-18" d="M472.17,507.46a3,3,0,0,1-1.13-4.07h0a3,3,0,0,1,4.07-1.14l11.44,6.47a3,3,0,0,1,1.13,4.07h0a3,3,0,0,1-4.07,1.13Z"/><path class="cls-18" d="M478.77,524.92a3,3,0,0,1-1.13-4.08h0a3,3,0,0,1,4.07-1.13l11.45,6.47a3,3,0,0,1,1.13,4.07h0a3,3,0,0,1-4.07,1.13Z"/><path class="cls-29" d="M475.63,530a3.94,3.94,0,0,1-1.49-5.38l10.22-18.09a4,4,0,0,1,5.38-1.5l.41.23a4,4,0,0,1,1.49,5.38l-10.22,18.1a3.94,3.94,0,0,1-5.38,1.49Z"/><path class="cls-20" d="M486.67,510.94a6.89,6.89,0,1,1-9.39,2.61A6.89,6.89,0,0,1,486.67,510.94Z"/><path class="cls-27" d="M581.67,412.4a3,3,0,0,0,2.24-3.58l-3-12.81a3,3,0,0,0-3.58-2.23h0a3,3,0,0,0-2.24,3.58l3,12.81a3,3,0,0,0,3.58,2.23Z"/><path class="cls-27" d="M596.56,423.67a3,3,0,0,0,2.23-3.59l-3-12.8a3,3,0,0,0-3.59-2.24h0a3,3,0,0,0-2.23,3.59l3,12.8a3,3,0,0,0,3.59,2.24Z"/><path class="cls-28" d="M598.74,410.89a3.94,3.94,0,0,0,3-4.74l-.1-.45a4,4,0,0,0-4.74-3l-20.25,4.71a4,4,0,0,0-3,4.74l.1.45a4,4,0,0,0,4.75,2.95Z"/><path class="cls-19" d="M580.18,410.9a6.89,6.89,0,1,0,5.16-8.26A6.9,6.9,0,0,0,580.18,410.9Z"/><rect class="cls-1" x="0.96" y="0.96" width="598.08" height="598.08"/></g></g><g id="znaÄky"><g id="hlavnacesta"><path class="cls-30" d="M413.61,396.05c0-.51,1.79-.54,1.79,0V464h-1.79Z"/><polygon class="cls-30" points="418.87 465.27 415.61 465.27 415.61 463.19 416.21 463.19 418.87 464.95 418.87 465.27"/><polygon class="cls-30" points="410.15 465.27 413.41 465.27 413.41 463.19 412.81 463.19 410.15 464.95 410.15 465.27"/><path class="cls-31" d="M415.88,462.16l-.22-.22h-2.31l-.21.22h0v3.12h2.74v-3.12Z"/><rect class="cls-32" x="403.61" y="399.07" width="21.57" height="21.57" rx="1.08" ry="1.08" transform="translate(-168.44 413.07) rotate(-45)"/><rect class="cls-33" x="407.91" y="403.36" width="12.99" height="12.99" rx="1.1" ry="1.1" transform="translate(-168.44 413.07) rotate(-45)"/><path class="cls-34" d="M414.4,424a.7.7,0,0,1-.49-.2l-13.4-13.4a.7.7,0,0,1-.2-.49.68.68,0,0,1,.2-.49l13.4-13.4a.69.69,0,0,1,1,0l13.4,13.39a.71.71,0,0,1,0,1l-13.4,13.4A.7.7,0,0,1,414.4,424Zm-.24-.45a.35.35,0,0,0,.24.1h0a.35.35,0,0,0,.24-.1L428,410.1a.34.34,0,0,0,0-.49l-13.4-13.39a.33.33,0,0,0-.48,0l-13.4,13.39a.36.36,0,0,0,0,.49Z"/></g><g id="hlavnacesta-2" data-name="hlavnacesta"><path class="cls-30" d="M187.19,204.27c0,.52-1.79.55-1.79,0v-68h1.79Z"/><polygon class="cls-30" points="181.93 135.05 185.19 135.05 185.19 137.14 184.59 137.14 181.93 135.38 181.93 135.05"/><polygon class="cls-30" points="190.65 135.05 187.39 135.05 187.39 137.14 187.99 137.14 190.65 135.38 190.65 135.05"/><path class="cls-31" d="M184.93,138.17l.21.21h2.31l.21-.21h0v-3.11h-2.75v3.11Z"/><rect class="cls-32" x="175.61" y="179.68" width="21.57" height="21.57" rx="1.08" ry="1.08" transform="translate(-80.09 187.59) rotate(-45)"/><rect class="cls-33" x="179.91" y="183.97" width="12.99" height="12.99" rx="1.1" ry="1.1" transform="translate(-80.09 187.59) rotate(-45)"/><path class="cls-34" d="M186.4,176.37a.7.7,0,0,1,.5.21L200.29,190a.73.73,0,0,1,.21.5.71.71,0,0,1-.21.49l-13.39,13.4a.71.71,0,0,1-1,0L172.51,191a.69.69,0,0,1,0-1l13.4-13.4A.7.7,0,0,1,186.4,176.37Zm.25.46a.33.33,0,0,0-.25-.1h0a.33.33,0,0,0-.24.1l-13.4,13.4a.34.34,0,0,0,0,.48l13.4,13.4a.36.36,0,0,0,.49,0L200,190.71a.34.34,0,0,0,0-.49Z"/></g></g></svg>