<svg xmlns="http://www.w3.org/2000/svg" xmlns:xlink="http://www.w3.org/1999/xlink" viewBox="0 0 600 600"><defs><style>.cls-1,.cls-20,.cls-4,.cls-5,.cls-6,.cls-8{fill:none;}.cls-2{clip-path:url(#clip-path);}.cls-3{fill:#5a5a62;}.cls-10,.cls-4,.cls-5,.cls-6,.cls-8{stroke:#fff;}.cls-10,.cls-20,.cls-4,.cls-5,.cls-6,.cls-8,.cls-9{stroke-miterlimit:10;}.cls-4,.cls-5,.cls-6,.cls-8{stroke-width:4px;}.cls-4{stroke-dasharray:22.24 30.25;}.cls-6{stroke-linecap:round;}.cls-16,.cls-7{fill:#fff;}.cls-8{stroke-dasharray:22.25 30.25;}.cls-9{fill:#969696;stroke:#d1c6c6;stroke-width:3px;}.cls-10,.cls-13{fill:#93b258;}.cls-10{stroke-width:6px;}.cls-11{fill:#345130;}.cls-12{opacity:0.2;}.cls-14{fill:#d5d5d5;}.cls-15{fill:#fad1ca;}.cls-16{opacity:0.3;}.cls-17{fill:#af3f00;}.cls-18{fill:#ffe165;}.cls-19{fill:#311505;}.cls-20{stroke:#d5d5d5;stroke-width:40px;}.cls-21{fill:#1c798d;}.cls-22{fill:#863a31;}.cls-23{fill:#ff8576;}.cls-24{fill:#ccc;}.cls-25{fill:#999;}.cls-26{fill:#1a1a1a;}.cls-27{fill:#4f5356;}.cls-28{fill:#6f767a;}.cls-29{fill:#d03123;}.cls-30,.cls-32{fill:#131414;}.cls-31{clip-path:url(#clip-path-2);}.cls-32{fill-rule:evenodd;}.cls-33{clip-path:url(#clip-path-3);}</style><clipPath id="clip-path"><rect class="cls-1" width="600" height="600"/></clipPath><clipPath id="clip-path-2"><rect class="cls-1" x="387.65" y="520.09" width="19.7" height="14.91"/></clipPath><clipPath id="clip-path-3"><rect class="cls-1" x="190.67" y="63.46" width="19.7" height="14.91"/></clipPath></defs><title>kriz8</title><g id="kriz_2" data-name="kriz 2"><g class="cls-2"><rect class="cls-3" x="-89" y="-12" width="729" height="623.85"/><line class="cls-4" x1="298.36" y1="-12.52" x2="298.36" y2="77.35"/><line class="cls-5" x1="298.36" y1="92.48" x2="298.36" y2="104.98"/><line class="cls-6" x1="337.15" y1="71.58" x2="337.15" y2="51.5"/><polygon class="cls-7" points="337.15 33.43 347.56 58.9 337.15 52.86 326.75 58.9 337.15 33.43"/><line class="cls-4" x1="299.64" y1="611.67" x2="299.64" y2="521.8"/><line class="cls-5" x1="299.64" y1="506.67" x2="299.64" y2="494.17"/><line class="cls-6" x1="260.85" y1="526.57" x2="260.85" y2="546.64"/><polygon class="cls-7" points="260.85 564.72 250.44 539.25 260.85 545.29 271.25 539.25 260.85 564.72"/><line class="cls-6" x1="154.02" y1="227.19" x2="133.94" y2="227.19"/><polygon class="cls-7" points="115.86 227.19 141.33 216.78 135.29 227.19 141.33 237.59 115.86 227.19"/><line class="cls-6" x1="154.02" y1="154.89" x2="133.94" y2="154.89"/><polygon class="cls-7" points="115.86 154.88 141.33 144.48 135.29 154.88 141.33 165.29 115.86 154.88"/><line class="cls-6" x1="428.75" y1="154.89" x2="408.68" y2="154.89"/><polygon class="cls-7" points="390.6 154.88 416.07 144.48 410.03 154.88 416.07 165.29 390.6 154.88"/><polyline class="cls-6" points="447 154.88 430 155 424.97 137.38"/><polygon class="cls-7" points="420 120 437 141.63 425.34 138.68 416.99 147.35 420 120"/><line class="cls-6" x1="418.67" y1="444.08" x2="438.75" y2="444.08"/><polygon class="cls-7" points="456.82 444.08 431.35 454.49 437.4 444.08 431.35 433.68 456.82 444.08"/><line class="cls-6" x1="171.15" y1="444.08" x2="191.23" y2="444.08"/><polygon class="cls-7" points="209.3 444.08 183.83 454.49 189.88 444.08 183.83 433.68 209.3 444.08"/><polyline class="cls-6" points="151.59 444.08 170.56 444.08 175.28 461.55"/><polygon class="cls-7" points="180 479 163.31 457.13 174.93 460.25 183.4 451.7 180 479"/><line class="cls-6" x1="418.67" y1="372.64" x2="438.75" y2="372.64"/><polygon class="cls-7" points="456.82 372.63 431.35 383.04 437.4 372.63 431.35 362.23 456.82 372.63"/><polyline class="cls-6" points="166.31 372.23 184.12 372.23 191.7 367.61"/><polygon class="cls-7" points="207.14 358.21 190.8 380.35 190.55 368.31 179.97 362.57 207.14 358.21"/><polyline class="cls-6" points="433.39 228.48 415.58 228.48 408 233.09"/><polygon class="cls-7" points="392.56 242.5 408.9 220.36 409.15 232.39 419.73 238.13 392.56 242.5"/><line class="cls-5" x1="-3" y1="408.26" x2="9.5" y2="408.26"/><line class="cls-8" x1="39.75" y1="408.26" x2="182.13" y2="408.26"/><line class="cls-5" x1="197.26" y1="408.26" x2="209.76" y2="408.26"/><line class="cls-5" x1="-3" y1="192.26" x2="9.5" y2="192.26"/><line class="cls-8" x1="39.75" y1="192.26" x2="182.13" y2="192.26"/><line class="cls-5" x1="197.26" y1="192.26" x2="209.76" y2="192.26"/><line class="cls-5" x1="387" y1="192.26" x2="399.5" y2="192.26"/><line class="cls-8" x1="429.76" y1="192.26" x2="572.13" y2="192.26"/><line class="cls-5" x1="587.26" y1="192.26" x2="599.76" y2="192.26"/><line class="cls-5" x1="384" y1="408.26" x2="396.5" y2="408.26"/><line class="cls-8" x1="426.76" y1="408.26" x2="569.13" y2="408.26"/><line class="cls-5" x1="584.26" y1="408.26" x2="596.76" y2="408.26"/><rect class="cls-9" x="-68.87" y="484.58" width="287.42" height="287.42"/><rect class="cls-10" x="-36.12" y="518.6" width="220.66" height="220.66" rx="7.61" ry="7.61"/><polygon class="cls-11" points="89.65 541.95 84.68 546.06 79.62 550 71.73 550.46 63.85 550.14 55.97 548.29 48.08 550.31 40.19 550.57 34.54 546.87 32.61 541.95 30.93 535.3 33.1 528.4 40.19 527.83 48.07 528.29 55.96 527.66 63.84 529.45 71.73 527.8 79.62 529.59 84.54 531.39 90.19 535.08 89.65 541.95"/><g class="cls-12"><polygon class="cls-13" points="40.19 542.25 37.08 541.85 37.81 535.42 40.19 533.97 48.07 535.92 55.96 535.99 63.84 533.16 71.73 536.51 79.62 535.28 80.33 535.47 84.1 541.89 79.62 541.05 71.73 541.58 63.85 540.62 55.97 544.37 48.02 544.69 40.19 542.25"/></g><polygon class="cls-11" points="150.69 541.95 145.73 546.06 140.66 550 132.78 550.46 124.89 550.14 117.01 548.29 109.12 550.31 101.24 550.57 95.58 546.87 93.65 541.95 91.97 535.3 94.14 528.4 101.24 527.83 109.12 528.29 117 527.66 124.89 529.45 132.77 527.8 140.66 529.59 145.59 531.39 151.24 535.08 150.69 541.95"/><g class="cls-12"><polygon class="cls-13" points="101.24 542.25 98.13 541.85 98.85 535.42 101.24 533.97 109.12 535.92 117 535.99 124.89 533.16 132.77 536.51 140.66 535.28 141.38 535.47 145.14 541.89 140.66 541.05 132.78 541.58 124.89 540.62 117.01 544.37 109.06 544.69 101.24 542.25"/></g><polygon class="cls-11" points="158.64 592.22 152.09 593.15 152.35 599.99 152.82 607.87 152.49 615.76 150.64 623.64 152.67 631.53 152.92 639.42 152.9 645.67 158.64 649.64 165.29 647.96 169.04 644.23 172.15 639.42 172.61 631.53 171.98 623.65 173.78 615.77 172.12 607.88 173.91 599.99 172.04 593.01 165.51 592.76 158.64 592.22"/><g class="cls-12"><polygon class="cls-13" points="157.32 639.42 158.77 641.39 165.18 642.12 165.58 639.42 167.52 631.53 167.59 623.65 164.76 615.77 168.11 607.88 166.88 599.99 165.23 595.62 158.81 599.38 156.12 599.99 156.65 607.87 155.69 615.76 159.44 623.64 159.76 631.59 157.32 639.42"/></g><polygon class="cls-11" points="158.64 530.53 152.09 531.47 152.35 538.31 152.82 546.19 152.49 554.08 150.64 561.96 152.67 569.85 152.92 577.73 152.9 583.99 158.64 587.96 165.29 586.28 169.04 582.55 172.15 577.73 172.61 569.85 171.98 561.97 173.78 554.08 172.12 546.2 173.91 538.31 172.04 531.33 165.51 531.08 158.64 530.53"/><g class="cls-12"><polygon class="cls-13" points="157.32 577.73 158.77 579.71 165.18 580.44 165.58 577.73 167.52 569.85 167.59 561.97 164.76 554.08 168.11 546.2 166.88 538.31 165.23 533.93 158.81 537.7 156.12 538.31 156.65 546.19 155.69 554.08 159.44 561.96 159.76 569.91 157.32 577.73"/></g><rect class="cls-7" x="52.27" y="561.84" width="15.26" height="14.63"/><rect class="cls-14" x="52.27" y="576.46" width="15.26" height="20.98"/><rect class="cls-7" x="73.89" y="561.84" width="15.26" height="14.63"/><rect class="cls-14" x="73.89" y="576.46" width="15.26" height="20.98"/><rect class="cls-15" x="98.06" y="561.84" width="35.61" height="35.61"/><polygon class="cls-16" points="133.67 597.45 98.06 597.45 98.06 597.45 116.29 579.64 133.67 597.45"/><polygon class="cls-16" points="133.67 561.84 98.06 561.84 98.06 561.84 116.29 579.64 133.67 561.84"/><path class="cls-17" d="M201.71,568.51a1.59,1.59,0,0,1-1.59,1.59h0a1.59,1.59,0,0,1-1.59-1.59v-7a1.59,1.59,0,0,1,1.59-1.59h0a1.59,1.59,0,0,1,1.59,1.59Z"/><path class="cls-17" d="M208.07,560.88a1.59,1.59,0,0,1-1.59,1.59h0a1.59,1.59,0,0,1-1.59-1.59v-7a1.59,1.59,0,0,1,1.59-1.59h0a1.59,1.59,0,0,1,1.59,1.59Z"/><rect class="cls-18" x="195.98" y="558.66" width="15.26" height="4.45" rx="2.1" ry="2.1"/><circle class="cls-19" cx="203.19" cy="560.88" r="3.67"/><rect class="cls-9" x="379.44" y="-173" width="287.42" height="287.42"/><rect class="cls-10" x="412.19" y="-140.25" width="220.66" height="220.66" rx="7.61" ry="7.61"/><path class="cls-20" d="M494.86,79.13V4.1a8.9,8.9,0,0,1,8.9-8.91h26.71"/><polygon class="cls-11" points="457.77 3.48 452.94 7.32 446.79 6.31 440.88 6.47 435.1 4.35 431.08 -0.33 427.78 -5.59 428.01 -11.79 428.66 -17.72 431.34 -23.12 436.38 -26.34 440.88 -30.59 447.01 -30.81 452.93 -29.88 458.07 -26.87 461.8 -22.37 464.56 -17.3 465.53 -11.56 465.04 -5.66 461.9 -0.64 457.77 3.48"/><g class="cls-12"><polygon class="cls-13" points="455.9 0.88 450.18 2.38 444.58 2.37 439.03 0.98 434.45 -2.75 432.52 -8.32 431.76 -14.17 434.68 -19.26 437.93 -24.18 443.61 -25.73 449.31 -26.35 454.57 -24.03 459.57 -20.77 461.37 -15.06 460.86 -9.38 458.79 -4.29 455.9 0.88"/></g><polygon class="cls-11" points="553.51 55.69 547.87 58.33 541.75 57.63 535.7 57.6 531.11 53.68 526.37 50.05 522.96 44.83 523.2 38.59 523.56 32.43 526.41 26.82 532.24 24.3 537.27 21.65 542.98 19.87 549.23 20.2 554.54 23.55 558.72 28.13 561.74 33.62 562.15 39.87 560.26 45.7 557.89 51.31 553.51 55.69"/><g class="cls-12"><polygon class="cls-13" points="550.9 51.84 545.47 54.38 539.69 53.05 534.44 51.23 529.72 47.78 527.74 42.23 527.63 36.39 529.51 30.76 533.76 26.54 539.25 24.17 545.17 24.57 550.85 26.32 553.97 31.35 557.28 36.15 557.24 42.08 554.97 47.53 550.9 51.84"/></g><g class="cls-12"><polygon class="cls-13" points="547.1 46.22 543.01 48.37 538.63 46.9 535.37 43.95 533.3 39.87 534.47 35.4 537.3 31.77 541.73 30.56 546.33 31.02 549.43 34.42 551.62 38.55 550.27 43.06 547.1 46.22"/></g><polygon class="cls-11" points="465.88 39.17 465.23 44.98 463.59 50.97 459.16 55.42 453.24 57.3 447.35 58.76 441.58 56.95 435.97 54.84 431.6 50.62 428.37 45.34 428.42 39.17 428.29 32.98 431.73 27.82 436.49 24.23 441.39 20.84 447.35 19.88 453.32 20.8 458.68 23.59 463.49 27.45 465.14 33.39 465.88 39.17"/><g class="cls-12"><polygon class="cls-13" points="461.61 39.17 461.3 44.95 457.26 49.08 453.3 53.54 447.35 54.26 441.69 52.84 436.48 50.05 433.66 44.84 432.36 39.17 434.25 33.75 437.13 28.95 441.81 25.79 447.35 24.09 453.02 25.49 458.42 28.11 461.41 33.35 461.61 39.17"/></g><g class="cls-12"><polygon class="cls-13" points="456.77 39.17 455.11 43.65 451.92 47.08 447.35 47.91 442.9 46.88 439.25 43.85 438.22 39.17 439.22 34.48 442.92 31.49 447.35 30.1 451.66 31.72 454.8 34.88 456.77 39.17"/></g><polygon class="cls-7" points="423 65.78 423 -65.85 420.46 -65.85 420.46 65.78 420.46 68.32 423 68.32 472.6 68.32 472.6 65.78 423 65.78"/><rect class="cls-7" x="514.57" y="65.78" width="43.88" height="2.54"/><rect class="cls-17" x="519.02" y="-39.14" width="84.57" height="49.6"/><path class="cls-21" d="M393.75,17.77a1.59,1.59,0,0,1-1.59,1.59h0a1.59,1.59,0,0,1-1.59-1.59v-7a1.59,1.59,0,0,1,1.59-1.59h0a1.59,1.59,0,0,1,1.59,1.59Z"/><path class="cls-21" d="M400.11,10.14a1.59,1.59,0,0,1-1.59,1.59h0a1.59,1.59,0,0,1-1.59-1.59v-7a1.59,1.59,0,0,1,1.59-1.59h0a1.59,1.59,0,0,1,1.59,1.59Z"/><rect class="cls-17" x="388.03" y="7.91" width="15.26" height="4.45" rx="2.1" ry="2.1"/><circle class="cls-19" cx="395.23" cy="10.14" r="3.67"/><rect class="cls-9" x="-68.87" y="-173" width="287.42" height="287.42"/><rect class="cls-10" x="-36.12" y="-140.25" width="220.66" height="220.66" rx="7.61" ry="7.61"/><polygon class="cls-11" points="165.77 38.74 166.05 44.02 165.16 49.45 160.95 53.11 156.94 56.31 153.05 59.76 148.1 61.4 142.93 61.33 137.91 60.69 132.28 60.84 127.88 57.6 125.14 52.92 120.44 49.57 120.9 43.77 119.04 38.74 119.91 33.48 121.33 28.34 124.74 24.23 128.92 21.17 132.92 17.95 137.68 15.73 142.93 14.06 148.37 14.89 153.21 17.4 156.96 21.15 161.85 23.65 165.09 28.07 165.16 33.66 165.77 38.74"/><g class="cls-12"><polygon class="cls-13" points="158.96 38.74 158.6 43.83 155.48 47.86 152.1 51.37 147.91 54.06 142.93 55.12 138.17 53.39 133.31 51.97 129.47 48.52 127.26 43.83 126.67 38.74 127.96 33.87 130.03 29.37 133.71 26.05 137.88 23.2 142.93 22.47 148.11 22.78 152.62 25.39 155.49 29.61 157.86 33.89 158.96 38.74"/></g><g class="cls-12"><polygon class="cls-13" points="150.56 38.74 148.77 44.58 142.93 46.35 137.37 44.3 134.61 38.74 137.49 33.3 142.93 30.41 148.5 33.16 150.56 38.74"/></g><polygon class="cls-11" points="103.9 37.46 104.75 43.63 102.15 49.37 96.47 52.21 91.68 55.66 85.76 56.7 79.9 55.51 74.48 52.99 71.01 48.18 67.81 43.3 66.71 37.46 68.05 31.71 69.49 25.64 74.55 22.02 80 19.73 85.76 18.54 91.63 19.42 97.52 21.29 100.78 26.55 104.85 31.26 103.9 37.46"/><g class="cls-12"><polygon class="cls-13" points="99.6 37.46 97.12 42.17 95.53 47.23 90.68 49.34 85.76 50.93 81.02 48.91 75.98 47.25 73.9 42.38 72.99 37.46 74.17 32.66 76.12 27.82 80.61 25.03 85.76 24.7 90.59 25.81 94.5 28.73 97.22 32.72 99.6 37.46"/></g><g class="cls-12"><polygon class="cls-13" points="91.75 37.46 90.15 41.85 85.76 43.85 81.57 41.66 79.29 37.46 81.4 33.1 85.76 31.44 89.93 33.29 91.75 37.46"/></g><polygon class="cls-11" points="155.81 -11.8 152.72 -6.64 153.82 -0.76 150.69 3.9 146.74 7.71 143.29 11.79 138.74 14.61 133.9 16.78 128.76 18.06 123.49 17.79 117.97 19.51 112.56 18.25 107.81 15.36 103.89 11.56 99.04 8.72 96.25 3.93 93.64 -0.93 92.24 -6.29 92.59 -11.8 91.6 -17.42 94.71 -22.28 96.83 -27.2 99.23 -32.16 103.14 -36.06 107 -40.37 113.29 -39.83 117.99 -43.02 123.49 -44.12 129.08 -43.5 134.65 -42.46 138.71 -38.15 143.39 -35.51 146.86 -31.41 149.72 -26.94 154.28 -23.01 153.99 -17.18 155.81 -11.8"/><g class="cls-12"><polygon class="cls-13" points="146.44 -11.8 148.17 -6.17 146.05 -0.94 142.53 3.38 139.1 7.77 133.89 9.78 128.62 10.65 123.49 13.27 118.17 11.51 113.6 8.75 109.3 6 104.64 3.23 101.92 -1.41 98.86 -6.18 99.44 -11.8 100.54 -17.04 101.45 -22.42 105.19 -26.39 108.68 -30.37 112.51 -34.6 118.22 -34.88 123.49 -35.79 128.59 -34.12 134.44 -34.53 138.85 -31.05 142.49 -26.95 145.63 -22.46 147.47 -17.27 146.44 -11.8"/></g><g class="cls-12"><polygon class="cls-13" points="138.83 -11.8 136.92 -6.24 134.45 -0.84 128.79 0.99 123.49 3.5 117.57 2.49 113.11 -1.42 109.57 -6.03 108.89 -11.8 110.55 -17.16 113.03 -22.26 118.19 -24.61 123.49 -26.77 128.87 -24.79 134.21 -22.52 136.33 -17.12 138.83 -11.8"/></g><rect class="cls-17" x="31.29" y="0.28" width="28.62" height="64.86"/><path class="cls-22" d="M183.58,95.67a1.59,1.59,0,0,0,1.59-1.59h0a1.59,1.59,0,0,0-1.59-1.59h-7A1.59,1.59,0,0,0,175,94.08h0a1.59,1.59,0,0,0,1.59,1.59Z"/><path class="cls-22" d="M176,102a1.59,1.59,0,0,0,1.59-1.58h0A1.59,1.59,0,0,0,176,98.85h-7a1.59,1.59,0,0,0-1.59,1.59h0A1.59,1.59,0,0,0,169,102Z"/><rect class="cls-23" x="173.73" y="89.94" width="4.45" height="15.26" rx="2.1" ry="2.1"/><path class="cls-18" d="M176,93.48a3.67,3.67,0,1,0,3.67,3.67A3.67,3.67,0,0,0,176,93.48Z"/><rect class="cls-9" x="378.8" y="484.58" width="287.42" height="287.42"/><rect class="cls-10" x="411.55" y="518.6" width="220.66" height="220.66" rx="7.61" ry="7.61"/><polygon class="cls-11" points="452.3 559.47 447.57 561.95 442.28 562.04 436.88 562.21 432.44 559.14 427.58 556.24 425.81 550.9 426 545.53 426.74 540.45 428.26 535.25 432.15 531.39 437.27 529.6 442.48 528.2 447.71 529.54 452.06 532.46 457.05 535.11 457.91 540.69 458.79 545.73 459.55 551.33 456.85 556.28 452.3 559.47"/><g class="cls-12"><polygon class="cls-13" points="448.96 554.81 443.59 557.88 437.65 556.08 432.32 552.84 430.11 546.85 431.54 540.73 435.32 535.79 441.14 533.17 447.25 534.86 452.37 538.46 454.36 544.45 453.09 550.48 448.96 554.81"/></g><g class="cls-12"><polygon class="cls-13" points="445.57 550.09 438.04 548.74 439.23 541.25 446.83 542.43 445.57 550.09"/></g><polygon class="cls-11" points="523.09 558.95 529.01 551.97 525.7 546.19 523.62 540.05 522.06 533.76 521.48 527.2 513.22 524.3 507.38 526.14 502.04 532.73 503.29 539.1 506.15 545.01 508.94 550.95 509.66 557.48 517.44 561.45 523.09 558.95"/><g class="cls-12"><polygon class="cls-13" points="515.64 528.86 514.14 527.95 508.33 529.09 508.33 530.94 508.86 537.51 510.58 543.75 514.17 549.46 513.8 556.3 516.5 557.81 522.41 556.86 521.16 554.2 521.74 547.32 519.62 541.19 518.48 534.82 515.64 528.86"/></g><polygon class="cls-11" points="555.52 583.54 556.11 574.42 550.06 571.66 544.77 567.93 539.78 563.79 535.39 558.89 527.01 561.4 523.38 566.33 523.02 574.82 527.81 579.19 533.58 582.31 539.32 585.49 543.79 590.28 552.41 588.87 555.52 583.54"/><g class="cls-12"><polygon class="cls-13" points="531.67 563.69 529.9 563.79 525.94 568.18 527 569.69 531.39 574.58 536.48 578.58 542.63 581.21 546.52 586.77 549.47 586.47 553.61 582.16 551.21 580.73 547.45 575.03 542.14 571.31 537.41 566.9 531.67 563.69"/></g><path class="cls-20" d="M482.77,520.5c0,31.16,12.72,92.84,93.48,92.84"/><path class="cls-20" d="M413.46,615.84c43.24,0,76.94,60.46,76.94,60.46"/><polygon class="cls-11" points="513.06 600.29 511.9 605.9 510.08 611.5 506.09 616.05 500.45 618.15 494.64 620.38 488.55 619.04 483.78 615.24 479.28 611.45 475.73 606.44 475.78 600.29 475.4 594.04 479.38 589.2 483.36 584.76 488.43 581.15 494.64 580.97 500.3 582.89 505.66 585.13 510.54 588.75 512.45 594.5 513.06 600.29"/><g class="cls-12"><polygon class="cls-13" points="507.95 600.29 506.92 605.37 503.89 609.53 499.74 612.6 494.64 612.66 489.74 612.13 485.78 609.15 482.8 605.2 481.98 600.29 482.37 595.21 485.08 590.72 489.69 588.34 494.64 586.82 499.49 588.6 503.33 591.6 506.85 595.24 507.95 600.29"/></g><g class="cls-12"><polygon class="cls-13" points="500.68 600.29 498.74 604.39 494.64 606.25 490.3 604.64 488.46 600.29 490.22 595.87 494.64 593.9 498.95 595.98 500.68 600.29"/></g><polygon class="cls-11" points="475.4 628.18 471.14 631.42 465.8 631.9 460.2 632.13 456 628.4 451.91 624.99 450.26 619.92 448.07 614.84 449.34 609.45 451.93 604.66 455.94 601.06 460.83 599.02 466.01 596.82 471.42 598.32 476.54 600.49 479.28 605.35 482.97 609.51 483.81 615.05 481.79 620.22 479.96 625.29 475.4 628.18"/><polygon class="cls-11" points="476.63 565.18 472.24 567.92 467.07 569.28 461.86 568.02 456.56 566.41 452.8 562.3 451.28 557.05 450.53 551.89 450.19 546.36 453.7 542.08 456.97 537.76 461.66 534.65 467.28 533.89 472.82 534.95 477.23 538.32 480.41 542.5 482.91 546.99 485.34 552.1 482.85 557.19 480.49 561.79 476.63 565.18"/><g class="cls-12"><polygon class="cls-13" points="474.02 561.53 468.32 563.57 462.08 563.25 457.87 558.66 455.81 553.12 455.81 546.85 459.93 541.89 465.99 540.05 472.33 540.6 476.57 545.25 479.68 550.75 477.44 556.64 474.02 561.53"/></g><g class="cls-12"><polygon class="cls-13" points="470.38 556.46 463.08 554.93 464.26 547.94 471.26 549.06 470.38 556.46"/></g><polygon class="cls-11" points="459.85 599.69 453.98 601.1 448.5 602.22 442.91 604.21 436.96 603.72 432.45 599.54 428.26 596.01 424.07 592.41 420.93 587.74 418.15 582.51 417.34 576.57 418.29 570.6 422.28 565.95 425.45 561.32 430.22 558.39 434.06 553.71 439.93 553.32 445.58 551.78 451.45 552.45 456.27 555.92 460.84 559.17 465.86 562.43 468.35 567.81 470.41 573.35 468.44 579.17 467.34 584.46 465.6 589.59 462.64 594.2 459.85 599.69"/><g class="cls-12"><polygon class="cls-13" points="454.54 592.28 449.41 594.17 444.14 595.9 438.58 595.03 433.78 592.16 429.6 588.45 427.17 583.37 426.16 577.83 427.56 572.4 429.52 567.1 434.18 563.91 438.81 560.85 444.35 560.94 449.7 561.48 454.85 563.52 458.52 567.7 461.62 572.41 461.71 578.04 460.32 583.27 459.16 588.91 454.54 592.28"/></g><g class="cls-12"><polygon class="cls-13" points="448.9 584.43 442.99 585.59 437.69 582.64 437.06 576.75 439.64 571.52 445.47 570.51 450.77 573.26 451.47 579.13 448.9 584.43"/></g><path class="cls-22" d="M490.47,569a1.58,1.58,0,0,0,1.18-1.9l-1.58-6.82a1.59,1.59,0,0,0-1.91-1.19h0A1.61,1.61,0,0,0,487,561l1.59,6.81a1.59,1.59,0,0,0,1.91,1.19Z"/><path class="cls-22" d="M498.39,575a1.59,1.59,0,0,0,1.18-1.91L498,566.23a1.59,1.59,0,0,0-1.91-1.19h0A1.59,1.59,0,0,0,494.9,567l1.58,6.81a1.59,1.59,0,0,0,1.91,1.19Z"/><rect class="cls-23" x="486.03" y="565.01" width="15.26" height="4.45" rx="2.1" ry="2.1" transform="translate(-114.91 125.53) rotate(-12.99)"/><path class="cls-18" d="M489.67,568.16a3.67,3.67,0,1,0,2.74-4.4A3.67,3.67,0,0,0,489.67,568.16Z"/><rect class="cls-1" x="44.64" y="45.57" width="508.72" height="517.22"/><rect class="cls-24" x="-14" y="269.85" width="620.84" height="26.94"/><rect class="cls-25" x="418.76" y="273.1" width="4.94" height="20.43"/><rect class="cls-25" x="428.97" y="273.1" width="4.94" height="20.43"/><rect class="cls-25" x="439.18" y="273.1" width="4.94" height="20.43"/><rect class="cls-25" x="449.39" y="273.1" width="4.94" height="20.43"/><rect class="cls-25" x="459.59" y="273.1" width="4.94" height="20.43"/><rect class="cls-25" x="469.8" y="273.1" width="4.94" height="20.43"/><rect class="cls-25" x="480.01" y="273.1" width="4.94" height="20.43"/><rect class="cls-25" x="490.21" y="273.1" width="4.94" height="20.43"/><rect class="cls-25" x="500.42" y="273.1" width="4.94" height="20.43"/><rect class="cls-25" x="510.63" y="273.1" width="4.94" height="20.43"/><rect class="cls-25" x="520.83" y="273.1" width="4.94" height="20.43"/><rect class="cls-25" x="531.04" y="273.1" width="4.94" height="20.43"/><rect class="cls-25" x="541.25" y="273.1" width="4.94" height="20.43"/><rect class="cls-25" x="551.46" y="273.1" width="4.94" height="20.43"/><rect class="cls-25" x="561.42" y="273.1" width="4.94" height="20.43"/><rect class="cls-25" x="571.63" y="273.1" width="4.94" height="20.43"/><rect class="cls-25" x="581.83" y="273.1" width="4.94" height="20.43"/><rect class="cls-25" x="592.04" y="273.1" width="4.94" height="20.43"/><rect class="cls-25" x="408.66" y="273.1" width="4.95" height="20.43"/><rect class="cls-25" x="398.56" y="273.1" width="4.95" height="20.43"/><rect class="cls-25" x="388.46" y="273.1" width="4.93" height="20.43"/><rect class="cls-25" x="378.35" y="273.1" width="4.98" height="20.43"/><rect class="cls-25" x="368.26" y="273.1" width="4.95" height="20.43"/><rect class="cls-25" x="358.16" y="273.1" width="4.94" height="20.43"/><rect class="cls-25" x="348.06" y="273.1" width="4.95" height="20.43"/><rect class="cls-25" x="337.96" y="273.1" width="4.94" height="20.43"/><rect class="cls-25" x="327.84" y="273.1" width="4.94" height="20.43"/><rect class="cls-25" x="317.74" y="273.1" width="4.95" height="20.43"/><rect class="cls-25" x="307.66" y="273.1" width="4.95" height="20.43"/><rect class="cls-25" x="297.56" y="273.1" width="4.94" height="20.43"/><rect class="cls-25" x="287.44" y="273.1" width="4.96" height="20.43"/><rect class="cls-25" x="277.34" y="273.1" width="4.96" height="20.43"/><rect class="cls-25" x="267.24" y="273.1" width="4.98" height="20.43"/><rect class="cls-25" x="257.14" y="273.1" width="4.96" height="20.43"/><rect class="cls-25" x="247.05" y="273.1" width="4.94" height="20.43"/><rect class="cls-25" x="236.95" y="273.1" width="4.94" height="20.43"/><rect class="cls-25" x="226.84" y="273.1" width="4.96" height="20.43"/><rect class="cls-25" x="216.74" y="273.1" width="4.94" height="20.43"/><rect class="cls-25" x="206.64" y="273.1" width="4.95" height="20.43"/><rect class="cls-25" x="196.53" y="273.1" width="4.96" height="20.43"/><rect class="cls-25" x="186.45" y="273.1" width="4.94" height="20.43"/><rect class="cls-25" x="176.33" y="273.1" width="4.94" height="20.43"/><rect class="cls-25" x="166.25" y="273.1" width="4.93" height="20.43"/><rect class="cls-25" x="156.13" y="273.1" width="4.94" height="20.43"/><rect class="cls-25" x="146.03" y="273.1" width="4.95" height="20.43"/><rect class="cls-25" x="135.92" y="273.1" width="4.94" height="20.43"/><rect class="cls-25" x="125.82" y="273.1" width="4.96" height="20.43"/><rect class="cls-25" x="115.73" y="273.1" width="4.95" height="20.43"/><rect class="cls-25" x="105.63" y="273.1" width="4.94" height="20.43"/><rect class="cls-25" x="95.53" y="273.1" width="4.94" height="20.43"/><rect class="cls-25" x="85.43" y="273.1" width="4.95" height="20.43"/><rect class="cls-25" x="75.33" y="273.1" width="4.96" height="20.43"/><rect class="cls-25" x="65.21" y="273.1" width="4.96" height="20.43"/><rect class="cls-25" x="55.13" y="273.1" width="4.94" height="20.43"/><rect class="cls-25" x="45.03" y="273.1" width="4.94" height="20.43"/><rect class="cls-25" x="34.63" y="273.1" width="4.94" height="20.43"/><rect class="cls-25" x="24.53" y="273.1" width="4.94" height="20.43"/><rect class="cls-25" x="14.43" y="273.1" width="4.95" height="20.43"/><rect class="cls-25" x="4.33" y="273.1" width="4.96" height="20.43"/><rect class="cls-26" x="-14" y="289.55" width="629" height="1.09"/><rect class="cls-26" x="-14" y="275.98" width="629" height="1.12"/><rect class="cls-24" x="-14" y="303.85" width="620.84" height="26.94"/><rect class="cls-25" x="418.76" y="307.1" width="4.94" height="20.43"/><rect class="cls-25" x="428.97" y="307.1" width="4.94" height="20.43"/><rect class="cls-25" x="439.18" y="307.1" width="4.94" height="20.43"/><rect class="cls-25" x="449.39" y="307.1" width="4.94" height="20.43"/><rect class="cls-25" x="459.59" y="307.1" width="4.94" height="20.43"/><rect class="cls-25" x="469.8" y="307.1" width="4.94" height="20.43"/><rect class="cls-25" x="480.01" y="307.1" width="4.94" height="20.43"/><rect class="cls-25" x="490.21" y="307.1" width="4.94" height="20.43"/><rect class="cls-25" x="500.42" y="307.1" width="4.94" height="20.43"/><rect class="cls-25" x="510.63" y="307.1" width="4.94" height="20.43"/><rect class="cls-25" x="520.83" y="307.1" width="4.94" height="20.43"/><rect class="cls-25" x="531.04" y="307.1" width="4.94" height="20.43"/><rect class="cls-25" x="541.25" y="307.1" width="4.94" height="20.43"/><rect class="cls-25" x="551.46" y="307.1" width="4.94" height="20.43"/><rect class="cls-25" x="561.42" y="307.1" width="4.94" height="20.43"/><rect class="cls-25" x="571.63" y="307.1" width="4.94" height="20.43"/><rect class="cls-25" x="581.83" y="307.1" width="4.94" height="20.43"/><rect class="cls-25" x="592.04" y="307.1" width="4.94" height="20.43"/><rect class="cls-25" x="408.66" y="307.1" width="4.95" height="20.43"/><rect class="cls-25" x="398.56" y="307.1" width="4.95" height="20.43"/><rect class="cls-25" x="388.46" y="307.1" width="4.93" height="20.43"/><rect class="cls-25" x="378.35" y="307.1" width="4.98" height="20.43"/><rect class="cls-25" x="368.26" y="307.1" width="4.95" height="20.43"/><rect class="cls-25" x="358.16" y="307.1" width="4.94" height="20.43"/><rect class="cls-25" x="348.06" y="307.1" width="4.95" height="20.43"/><rect class="cls-25" x="337.96" y="307.1" width="4.94" height="20.43"/><rect class="cls-25" x="327.84" y="307.1" width="4.94" height="20.43"/><rect class="cls-25" x="317.74" y="307.1" width="4.95" height="20.43"/><rect class="cls-25" x="307.66" y="307.1" width="4.95" height="20.43"/><rect class="cls-25" x="297.56" y="307.1" width="4.94" height="20.43"/><rect class="cls-25" x="287.44" y="307.1" width="4.96" height="20.43"/><rect class="cls-25" x="277.34" y="307.1" width="4.96" height="20.43"/><rect class="cls-25" x="267.24" y="307.1" width="4.98" height="20.43"/><rect class="cls-25" x="257.14" y="307.1" width="4.96" height="20.43"/><rect class="cls-25" x="247.05" y="307.1" width="4.94" height="20.43"/><rect class="cls-25" x="236.95" y="307.1" width="4.94" height="20.43"/><rect class="cls-25" x="226.84" y="307.1" width="4.96" height="20.43"/><rect class="cls-25" x="216.74" y="307.1" width="4.94" height="20.43"/><rect class="cls-25" x="206.64" y="307.1" width="4.95" height="20.43"/><rect class="cls-25" x="196.53" y="307.1" width="4.96" height="20.43"/><rect class="cls-25" x="186.45" y="307.1" width="4.94" height="20.43"/><rect class="cls-25" x="176.33" y="307.1" width="4.94" height="20.43"/><rect class="cls-25" x="166.25" y="307.1" width="4.93" height="20.43"/><rect class="cls-25" x="156.13" y="307.1" width="4.94" height="20.43"/><rect class="cls-25" x="146.03" y="307.1" width="4.95" height="20.43"/><rect class="cls-25" x="135.92" y="307.1" width="4.94" height="20.43"/><rect class="cls-25" x="125.82" y="307.1" width="4.96" height="20.43"/><rect class="cls-25" x="115.73" y="307.1" width="4.95" height="20.43"/><rect class="cls-25" x="105.63" y="307.1" width="4.94" height="20.43"/><rect class="cls-25" x="95.53" y="307.1" width="4.94" height="20.43"/><rect class="cls-25" x="85.43" y="307.1" width="4.95" height="20.43"/><rect class="cls-25" x="75.33" y="307.1" width="4.96" height="20.43"/><rect class="cls-25" x="65.21" y="307.1" width="4.96" height="20.43"/><rect class="cls-25" x="55.13" y="307.1" width="4.94" height="20.43"/><rect class="cls-25" x="45.03" y="307.1" width="4.94" height="20.43"/><rect class="cls-25" x="34.63" y="307.1" width="4.94" height="20.43"/><rect class="cls-25" x="24.53" y="307.1" width="4.94" height="20.43"/><rect class="cls-25" x="14.43" y="307.1" width="4.95" height="20.43"/><rect class="cls-25" x="4.33" y="307.1" width="4.96" height="20.43"/><rect class="cls-26" x="-14" y="323.55" width="629" height="1.09"/><rect class="cls-26" x="-14" y="309.98" width="629" height="1.12"/></g></g><g id="znaÄky"><path class="cls-27" d="M396.62,488.11c0-.51,1.77-.54,1.77,0v67.36h-1.77Z"/><polygon class="cls-27" points="401.83 556.73 398.6 556.73 398.6 554.66 399.19 554.66 401.83 556.4 401.83 556.73"/><polygon class="cls-27" points="393.19 556.73 396.42 556.73 396.42 554.66 395.83 554.66 393.19 556.4 393.19 556.73"/><path class="cls-28" d="M398.86,553.64l-.21-.21h-2.29l-.21.21h0v3.09h2.72v-3.09Z"/><polygon class="cls-7" points="382.11 487.85 412.91 487.85 397.51 514.53 382.11 487.85"/><path class="cls-29" d="M396.75,515.46,380.93,488a.87.87,0,0,1,.75-1.31h31.66a.88.88,0,0,1,.76,1.31l-15.83,27.42A.88.88,0,0,1,396.75,515.46Zm-12.44-26,12.94,22.42a.3.3,0,0,0,.52,0l13-22.42a.3.3,0,0,0-.26-.45H384.57A.3.3,0,0,0,384.31,489.42Z"/><path class="cls-7" d="M388.39,517h17.19a2.42,2.42,0,0,1,2.42,2.42v16.16a2.42,2.42,0,0,1-2.42,2.42H389.42a2.42,2.42,0,0,1-2.42-2.42V518.39A1.39,1.39,0,0,1,388.39,517Z"/><path class="cls-30" d="M395,532.46l.65,1.19h3.66l.69-1.19Zm-5.46-5.31h1.15v1.92h-1.95Zm1.75,0h3.49v1.92h-3.49Zm4.36,0h3.66v1.92h-3.66Zm4.53,0h3.48v1.92H400.2Zm4.12,0h1.13l.83,1.92h-2Zm1-.89H389.25l-1.6,3.5v4.31h1.44l.65-1.36.42-.82h14.67l.47,1,.64,1.22h1.41v-4.31l-1.57-3.5Zm-9.95-2.75,2.06-1.52h.21l2,1.49-.46,1.11h-3.43Zm1.85-3.42v1.25l-2.61,2,.64,1.93h4.33l.87-1.93-2.59-2v-1.25Z"/><g class="cls-31"><path class="cls-32" d="M391.23,532.6a1.2,1.2,0,1,0,2.4,0,29854929714870.25,29854929714870.25,0,0,0-2.4,2.4,1.2,1.2,0,0,1,0-2.4m10.14,0a1.2,1.2,0,1,0,2.4,0,29854929714867.32,29854929714867.32,0,0,0-2.4,2.4,1.2,1.2,0,1,1,0-2.4"/></g><path class="cls-27" d="M201.4,110.36c0,.5-1.77.53-1.77,0V43h1.77Z"/><polygon class="cls-27" points="196.19 41.74 199.42 41.74 199.42 43.8 198.83 43.8 196.19 42.06 196.19 41.74"/><polygon class="cls-27" points="204.83 41.74 201.6 41.74 201.6 43.8 202.2 43.8 204.83 42.06 204.83 41.74"/><path class="cls-28" d="M199.16,44.83l.21.21h2.29l.21-.21h0V41.73h-2.72v3.09Z"/><polygon class="cls-7" points="215.91 110.61 185.11 110.61 200.51 83.93 215.91 110.61"/><path class="cls-29" d="M201.27,83l15.83,27.42a.88.88,0,0,1-.76,1.31H184.68a.87.87,0,0,1-.75-1.31L199.75,83A.88.88,0,0,1,201.27,83Zm12.45,26L200.77,86.62a.3.3,0,0,0-.52,0L187.31,109a.3.3,0,0,0,.26.45h25.89A.3.3,0,0,0,213.72,109Z"/><path class="cls-7" d="M191.42,60.46H208.6A2.42,2.42,0,0,1,211,62.88V79a2.42,2.42,0,0,1-2.42,2.42H192.44A2.42,2.42,0,0,1,190,79V61.86A1.39,1.39,0,0,1,191.42,60.46Z" transform="translate(401.05 141.93) rotate(180)"/><path class="cls-30" d="M203,66l-.64-1.2h-3.67L198,66Zm5.46,5.3h-1.15V69.39h2Zm-1.75,0h-3.49V69.39h3.49Zm-4.35,0h-3.67V69.39h3.67Zm-4.54,0h-3.48V69.39h3.48Zm-4.12,0h-1.13l-.82-1.92h1.95Zm-1,.9h16.05l1.6-3.51V64.39h-1.44l-.65,1.37-.42.82H193.19l-.47-1-.64-1.22h-1.41v4.32l1.57,3.5Zm10,2.74-2.06,1.52h-.22l-2-1.48.47-1.11h3.42Zm-1.86,3.42V77.13l2.61-2-.64-1.92h-4.32l-.88,1.92,2.59,2v1.24Z"/><g class="cls-33"><path class="cls-32" d="M206.79,65.86a1.2,1.2,0,0,1-1.2-1.2,1.2,1.2,0,1,1-1.2-1.19,1.2,1.2,0,0,1,1.2,1.19,1.2,1.2,0,1,1,1.2,1.2m-10.14,0a1.2,1.2,0,0,1-1.2-1.2,1.2,1.2,0,1,1-1.2-1.19,1.19,1.19,0,0,1,1.2,1.19,1.2,1.2,0,1,1,1.2,1.2"/></g></g></svg>