<svg xmlns="http://www.w3.org/2000/svg" xmlns:xlink="http://www.w3.org/1999/xlink" viewBox="0 0 600 600"><defs><style>.cls-1,.cls-21,.cls-34,.cls-35,.cls-4,.cls-5,.cls-7,.cls-8{fill:none;}.cls-2{clip-path:url(#clip-path);}.cls-3{fill:#5a5a62;}.cls-10,.cls-4,.cls-5,.cls-7,.cls-8{stroke:#fff;}.cls-10,.cls-21,.cls-4,.cls-5,.cls-7,.cls-8,.cls-9{stroke-miterlimit:10;}.cls-4,.cls-5,.cls-7,.cls-8{stroke-width:4px;}.cls-5{stroke-dasharray:26.87 36.55;}.cls-16,.cls-6{fill:#fff;}.cls-7{stroke-linecap:round;}.cls-8{stroke-dasharray:25.42 34.57;}.cls-9{fill:#969696;stroke:#d1c6c6;stroke-width:3px;}.cls-10,.cls-13{fill:#93b258;}.cls-10{stroke-width:6px;}.cls-11{fill:#345130;}.cls-12{opacity:0.2;}.cls-14{fill:#d5d5d5;}.cls-15{fill:#fad1ca;}.cls-16{opacity:0.3;}.cls-17{fill:#a2e6df;}.cls-18{fill:#af3f00;}.cls-19{fill:#ffe165;}.cls-20{fill:#311505;}.cls-21{stroke:#d5d5d5;stroke-width:40px;}.cls-22{fill:#ba5e26;}.cls-23{fill:#1c798d;}.cls-24{fill:#2d9499;}.cls-25{fill:#863a31;}.cls-26{fill:#ff8576;}.cls-27{fill:#35b37a;}.cls-28{fill:#4f5356;}.cls-29{fill:#6f767a;}.cls-30{fill:#d03123;}.cls-31{fill:#f5f5f5;}.cls-32{fill:#f7c035;}.cls-33{fill:#383310;}.cls-34,.cls-35{stroke:#000;stroke-linejoin:round;}.cls-34{stroke-width:1.98px;}.cls-35{stroke-width:3.4px;}</style><clipPath id="clip-path"><rect class="cls-1" width="600" height="600" transform="translate(600 0) rotate(90)"/></clipPath></defs><title>kriz14</title><g id="kriz_1" data-name="kriz 1"><g class="cls-2"><rect class="cls-3" x="-37" y="-64" width="663" height="756"/><line class="cls-4" x1="-0.53" y1="300.75" x2="11.97" y2="300.75"/><line class="cls-5" x1="48.51" y1="300.75" x2="157.09" y2="300.75"/><line class="cls-4" x1="175.36" y1="300.75" x2="187.86" y2="300.75"/><rect class="cls-6" x="197.58" y="304.49" width="5.23" height="79.99"/><polygon class="cls-7" points="182.63 333.27 182.63 355.7 160.2 344.48 182.63 333.27"/><line class="cls-7" x1="129.55" y1="255.14" x2="102.77" y2="255.14"/><polygon class="cls-6" points="84.69 255.14 110.16 244.74 104.12 255.14 110.16 265.55 84.69 255.14"/><line class="cls-4" x1="300.25" y1="0.47" x2="300.25" y2="12.97"/><line class="cls-8" x1="300.25" y1="47.54" x2="300.25" y2="570.21"/><line class="cls-4" x1="300.25" y1="587.5" x2="300.25" y2="600"/><rect class="cls-9" x="-128" y="-132.49" width="337.91" height="337.91"/><rect class="cls-10" x="-89.5" y="-93.98" width="259.42" height="259.42" rx="8.95" ry="8.95"/><polygon class="cls-11" points="142.46 53.87 137.63 48.03 133 42.08 132.45 34.36 132.83 26.63 135.01 18.91 132.63 11.19 132.33 3.46 134.63 -4.27 137.45 -10.36 142.46 -15.16 150.28 -17.02 156.84 -11.48 158.52 -4.27 159.26 3.45 157.15 11.17 159.1 18.9 156.99 26.62 156.64 34.35 160.69 42.08 156.63 49.14 149.95 49.95 142.46 53.87"/><g class="cls-12"><polygon class="cls-13" points="142.11 -4.27 142.58 -7.93 150.13 -7.08 151.84 -4.27 149.56 3.45 149.47 11.17 152.79 18.9 148.86 26.62 150.3 34.35 149.07 42.08 150.21 47.35 142.66 43.06 142.9 42.08 144.03 34.36 139.61 26.63 139.24 18.91 139.33 11.19 141.32 3.45 142.11 -4.27"/></g><polygon class="cls-11" points="142.46 125.64 137.63 119.8 133 113.85 132.45 106.13 132.83 98.4 135.01 90.68 132.63 82.95 132.33 75.23 134.63 67.5 137.45 61.41 142.46 56.61 150.28 54.74 156.84 60.29 158.52 67.5 159.26 75.22 157.15 82.94 159.1 90.67 156.99 98.39 156.64 106.12 160.69 113.85 156.63 120.91 149.95 121.72 142.46 125.64"/><g class="cls-12"><polygon class="cls-13" points="142.11 67.5 142.58 63.84 150.13 64.69 151.84 67.5 149.56 75.22 149.47 82.94 152.79 90.67 148.86 98.39 150.3 106.12 149.07 113.85 150.21 119.12 142.66 114.83 142.9 113.85 144.03 106.13 139.61 98.4 139.24 90.68 139.33 82.95 141.32 75.22 142.11 67.5"/></g><polygon class="cls-11" points="83.36 134.98 82.26 127.28 74.22 127.59 66.5 128.14 58.78 127.76 51.05 125.58 43.33 127.96 35.6 128.26 27.87 125.96 19.97 127.46 17.83 134.98 19.69 142.8 21.09 148.78 27.87 151.41 35.59 150.67 43.32 152.78 51.04 150.83 58.77 152.94 66.5 153.29 74.22 149.25 81.16 148.98 87.28 142.47 83.36 134.98"/><g class="cls-12"><polygon class="cls-13" points="27.87 133.43 25.55 135.14 24.7 142.67 27.87 143.14 35.59 145.43 43.32 145.51 51.04 142.19 58.77 146.12 66.5 144.68 74.22 145.91 74.94 142.6 79.22 135.06 74.22 132.65 66.5 131.51 58.78 135.93 51.05 136.3 43.33 136.22 35.6 134.22 27.87 133.43"/></g><polygon class="cls-11" points="155.88 134.98 154.78 127.28 146.74 127.59 139.02 128.14 131.3 127.76 123.57 125.58 115.85 127.96 108.12 128.26 100.39 125.96 92.48 127.46 90.35 134.98 92.21 142.8 93.61 148.78 100.39 151.41 108.11 150.67 115.84 152.78 123.56 150.83 131.28 152.94 139.01 153.29 146.74 149.25 153.67 148.98 159.8 142.47 155.88 134.98"/><g class="cls-12"><polygon class="cls-13" points="100.39 133.43 98.07 135.14 97.21 142.67 100.39 143.14 108.11 145.43 115.84 145.51 123.56 142.19 131.28 146.12 139.01 144.68 146.74 145.91 147.46 142.6 151.74 135.06 146.74 132.65 139.02 131.51 131.3 135.93 123.57 136.3 115.85 136.22 108.11 134.22 100.39 133.43"/></g><polygon class="cls-11" points="12.34 134.98 11.24 127.28 3.2 127.59 -4.52 128.14 -12.24 127.76 -19.97 125.58 -27.69 127.96 -35.42 128.26 -43.15 125.96 -51.05 127.46 -53.19 134.98 -51.33 142.8 -49.93 148.78 -43.15 151.41 -35.43 150.67 -27.7 152.78 -19.98 150.83 -12.25 152.94 -4.53 153.29 3.2 149.25 10.13 148.98 16.26 142.47 12.34 134.98"/><g class="cls-12"><polygon class="cls-13" points="-43.15 133.43 -45.47 135.14 -46.33 142.67 -43.15 143.14 -35.43 145.43 -27.7 145.51 -19.98 142.19 -12.25 146.12 -4.53 144.68 3.2 145.91 3.92 142.6 8.2 135.06 3.2 132.65 -4.52 131.51 -12.24 135.93 -19.97 136.3 -27.69 136.22 -35.43 134.22 -43.15 133.43"/></g><rect class="cls-6" x="101.89" y="9.93" width="17.19" height="17.94"/><rect class="cls-14" x="77.22" y="9.93" width="24.67" height="17.94"/><rect class="cls-6" x="101.89" y="35.35" width="17.19" height="17.94"/><rect class="cls-14" x="77.22" y="35.35" width="24.67" height="17.94"/><rect class="cls-15" x="77.22" y="63.76" width="41.87" height="41.87"/><polygon class="cls-16" points="77.22 105.62 77.22 63.76 77.22 63.76 98.15 85.19 77.22 105.62"/><polygon class="cls-16" points="119.08 105.62 119.08 63.76 119.08 63.76 98.15 85.19 119.08 105.62"/><path class="cls-6" d="M-6,57.67c0,9.41-3.42,14.08-3.42,23.12a32.52,32.52,0,0,0,65,0c0-9-4.41-12.14-4.41-23.12s4.41-14.07,4.41-23.11a32.52,32.52,0,0,0-65,0C-9.45,43.6-6,48.27-6,57.67Z"/><path class="cls-17" d="M23.07,11.44A23.14,23.14,0,0,1,46.19,34.56a20.92,20.92,0,0,1-1.55,7.35,44.73,44.73,0,0,0,0,31.53,20.88,20.88,0,0,1,1.55,7.35A23.12,23.12,0,1,1,0,80.79a35.16,35.16,0,0,1,1.41-9.07,54.66,54.66,0,0,0,2-14,54.64,54.64,0,0,0-2-14A35.16,35.16,0,0,1,0,34.56,23.14,23.14,0,0,1,23.07,11.44Z"/><path class="cls-6" d="M19.65,76.47s1.12,3.27,4.11,2.76-1.87-5.75-1.87-5.75,3-4.12,3.74-7.1c0,0,1.5-4.49,1.12-7.48L32.36,60c1.5-3-6.73-9.34-6.73-9.34S20,39.46,15.17,40.58a2.88,2.88,0,0,0-.78.3c-1.44-1.63-3.06-3.19-3.57-2.53s.89,2.85,2.36,4.89c-.23,3.63,3,10,4.6,13.79,2.24,5.23,4.11,11.59.38,17.2,0,0-5.24.37-4.49,3S17.41,80.21,19.65,76.47Z"/><path class="cls-14" d="M44.7,28.62a1.13,1.13,0,0,1-1.13-1.12h0a1.13,1.13,0,0,1,1.13-1.12H57.4a1.13,1.13,0,0,1,1.13,1.12h0a1.13,1.13,0,0,1-1.13,1.12Z"/><path class="cls-14" d="M44.7,38.34a1.13,1.13,0,0,1-1.13-1.12h0A1.13,1.13,0,0,1,44.7,36.1H57.4a1.13,1.13,0,0,1,1.13,1.12h0a1.13,1.13,0,0,1-1.13,1.12Z"/><path class="cls-18" d="M111.23,185.62a1.87,1.87,0,0,1-1.87-1.87h0a1.87,1.87,0,0,1,1.87-1.87h8.23a1.87,1.87,0,0,1,1.86,1.87h0a1.87,1.87,0,0,1-1.86,1.87Z"/><path class="cls-18" d="M120.2,193.09a1.87,1.87,0,0,1-1.87-1.87h0a1.87,1.87,0,0,1,1.87-1.86h8.23a1.87,1.87,0,0,1,1.87,1.86h0a1.87,1.87,0,0,1-1.87,1.87Z"/><rect class="cls-19" x="117.59" y="178.89" width="5.23" height="17.94" rx="2.47" ry="2.47"/><circle class="cls-20" cx="120.2" cy="187.36" r="4.31"/><rect class="cls-9" x="390.09" y="-66" width="337.91" height="798.49"/><rect class="cls-10" x="430.08" y="334.57" width="316.92" height="316.92" rx="10.93" ry="10.93"/><path class="cls-21" d="M431.91,453.3H539.68a12.79,12.79,0,0,1,12.79,12.79v38.36"/><polygon class="cls-11" points="539.27 400.96 537.22 395.81 535.11 390.78 535.66 385.3 536.21 380.12 537.72 375.16 540.12 370.62 543.22 366.54 547.15 363.24 550.49 358.31 555.81 356.5 561.45 357.73 566.63 358.31 572.42 357.58 577.08 360.69 581.89 363.52 585.33 367.92 588.16 372.7 587.79 378.47 591.3 383.45 589.09 388.82 589.09 394.47 586.31 399.31 581.43 402.28 579.27 408.03 573.83 409.76 568.38 410.31 563.24 411.52 557.98 410.91 552.15 411.52 547.4 408.46 544.7 403.27 539.27 400.96"/><g class="cls-12"><polygon class="cls-13" points="544.96 396.88 541.68 392.2 540.41 386.59 541.24 380.94 542.78 375.57 545.59 370.69 550.21 367.51 554.67 364.09 560.26 363.46 565.7 363.95 570.69 365.96 575.12 368.82 578.91 372.53 583.16 376.57 582.76 382.39 582.33 387.71 581.61 393.14 579.67 398.63 574.74 401.7 569.7 403.94 564.5 406.33 558.86 405.52 553.4 404.17 549.21 400.42 544.96 396.88"/></g><g class="cls-12"><polygon class="cls-13" points="552.13 391.74 549.05 387.52 549.64 382.33 551.2 377.5 554.95 374.12 559.37 371.74 564.41 371.8 569.11 373.51 573.26 376.58 575.03 381.45 575.6 386.6 573.04 391.07 569.88 394.94 565.38 397.43 560.17 397.57 555.5 395.41 552.13 391.74"/></g><polygon class="cls-11" points="466.47 536.94 465.32 531.6 463.64 526.78 460.17 521.7 462.99 516.47 462.37 510.59 466.27 506.39 469.39 501.93 473.66 498.53 478.9 497.02 483.4 493.16 489.06 495.35 494.25 495.43 499.13 497.19 503.96 499.17 509.29 501.19 512.51 505.74 515.28 510.53 517.03 515.8 517.66 521.33 515.8 526.62 514.26 531.69 510.9 535.79 507.65 539.69 505.4 545.38 499.99 547.01 494.52 547.2 489.4 547.32 484.22 547.59 478.63 547.6 474.75 543.5 470.15 540.85 466.47 536.94"/><g class="cls-12"><polygon class="cls-13" points="471 533.87 468.95 528.55 467.05 523.11 469.58 517.74 469.01 511.71 472.58 507.1 477.93 504.84 481.86 500.26 487.64 499.38 493.13 501.24 498.91 501.57 502.5 506.18 506.76 509.64 508.18 514.95 509.24 520.07 511.12 525.72 509.26 531.23 505.25 535.38 501.11 539.04 495.88 540.68 490.77 542.78 485.44 541.27 480.39 539.74 474.48 538.56 471 533.87"/></g><g class="cls-12"><polygon class="cls-13" points="478.45 528.82 475.87 524.26 476.16 519 478.47 514.43 481.67 510.35 486.52 508.33 491.61 509.15 496.07 511.13 499.5 514.56 502.46 518.79 502.41 524.05 500.01 528.62 496.71 532.55 491.85 534.24 486.69 534.73 482.57 531.63 478.45 528.82"/></g><polygon class="cls-11" points="489.3 412.1 484.25 410.44 478.79 410.45 473.83 408.21 468.8 405.57 465.38 401.05 465.36 394.99 460.9 390.72 460.46 385.07 462.98 379.84 465.05 375.03 466.63 369.93 470.31 366.08 474.61 363.08 478.99 360.18 484.19 359.39 489.3 358.35 494.42 359.34 499.18 361.21 504.17 362.81 508.76 365.61 512.46 369.6 513.83 374.91 517.08 379.55 517.06 385.07 517.81 390.74 515.5 395.93 512.12 400.32 509.62 405.39 505.23 408.92 499.57 409.86 494.47 411.05 489.3 412.1"/><g class="cls-12"><polygon class="cls-13" points="489.3 407.58 484.08 404.54 478.25 404.22 474.78 399.59 470.5 395.93 467.86 390.82 468.89 385.07 468.04 379.38 470.42 374.17 473.93 369.7 479.27 367.69 483.89 364.88 489.3 362.95 495.11 363.4 499.45 367.49 504.64 369.73 507.9 374.33 508.97 379.8 511.59 385.07 509.26 390.42 507.46 395.56 503.48 399.25 499.95 403.52 494.89 405.92 489.3 407.58"/></g><g class="cls-12"><polygon class="cls-13" points="489.3 397.58 484.2 397.38 479.69 394.68 476.83 390.24 476.6 385.07 477.95 380.37 480.17 375.94 484.19 372.75 489.3 371.57 494.24 373.16 498.08 376.3 501.73 379.92 502.93 385.07 500.57 389.74 498.76 394.53 494.06 396.56 489.3 397.58"/></g><polygon class="cls-6" points="451.09 350.1 640.14 350.1 640.14 346.44 451.09 346.44 447.44 346.44 447.44 350.1 447.44 421.33 451.09 421.33 451.09 350.1"/><rect class="cls-6" x="447.43" y="481.61" width="3.65" height="164.39"/><rect class="cls-22" x="579.86" y="434.12" width="21.01" height="35.62"/><circle class="cls-11" cx="603.85" cy="423.4" r="4.35"/><rect class="cls-18" x="530.55" y="488.01" width="71.24" height="121.47"/><path class="cls-23" d="M503.72,445.39a1.87,1.87,0,0,1-1.87-1.87h0a1.87,1.87,0,0,1,1.87-1.87h8.22a1.87,1.87,0,0,1,1.87,1.87h0a1.86,1.86,0,0,1-1.87,1.87Z"/><path class="cls-23" d="M512.69,452.87a1.87,1.87,0,0,1-1.87-1.87h0a1.87,1.87,0,0,1,1.87-1.87h8.23a1.87,1.87,0,0,1,1.86,1.87h0a1.87,1.87,0,0,1-1.86,1.87Z"/><rect class="cls-18" x="510.08" y="438.66" width="5.23" height="17.94" rx="2.47" ry="2.47"/><circle class="cls-20" cx="512.69" cy="447.14" r="4.31"/><rect class="cls-10" x="430.08" y="-93.98" width="334.92" height="334.92" rx="11.56" ry="11.56"/><polygon class="cls-11" points="493.32 213.96 487.44 214.9 482.76 210.27 476.89 210.02 471.51 207.8 468.92 202.18 464.41 198.78 459.99 194.76 457.81 189.31 459.69 183.1 458.34 177.77 457.26 172.06 460.55 167.12 460.67 161.14 462.8 155.59 467.1 151.55 472.19 148.68 476.79 145.32 482.33 143.96 487.58 141.5 493.32 143.67 498.66 144.1 504.77 142.53 508.76 147.46 515.24 147.62 519.75 151.35 523.06 156.17 525.25 161.5 525.77 167.23 529.17 172.09 528 177.77 528.92 183.41 526.35 188.5 526.27 194.56 523.83 199.94 519.8 204.26 514.05 206.31 508.8 208.15 504.4 211.86 499.11 214.34 493.32 213.96"/><g class="cls-12"><polygon class="cls-13" points="493.32 202.55 488.09 200.69 482.09 201.1 477.59 197.5 473.87 193.29 470.88 188.58 468.31 183.48 469.19 177.77 468.79 172.17 471.08 167.06 472.9 161.49 477.83 158.34 481.93 154.11 487.95 154.25 493.32 153.93 499.11 152.42 504.03 155.53 508.3 159 513.35 161.81 514.9 167.38 517.83 172.18 519.42 177.77 516.46 183.06 515.97 188.68 513.47 193.84 508.27 196.51 504.09 200.14 499.1 203.1 493.32 202.55"/></g><g class="cls-12"><polygon class="cls-13" points="493.32 190.19 487.19 188.39 482.51 184.01 480.99 177.77 483.35 172.02 487.53 167.74 493.32 165.77 499.58 166.94 503.62 171.83 505.06 177.77 503.67 183.75 499 187.61 493.32 190.19"/></g><polygon class="cls-11" points="495.26 121.85 489.86 118.14 483.9 118.42 479.81 114.14 474.52 111.75 472.25 106.38 469.8 101.55 465.94 96.84 464.84 91.01 464.84 84.96 466.82 79.23 471.41 75.08 475.31 71.06 479.48 67.39 484.47 64.97 489.62 62.66 495.26 62.92 500.72 63.56 506.96 62.76 511.31 66.98 516.39 69.88 520.68 74.02 521.43 80.17 524.06 85.28 525.67 91.01 524.72 96.87 523.51 102.71 520.39 107.8 515.2 110.95 511.02 114.6 506.51 118.18 501.24 121.06 495.26 121.85"/><g class="cls-12"><polygon class="cls-13" points="495.26 109.68 490.41 109.1 485.74 107.51 481.4 104.87 479.04 100.37 476.08 96.15 474.59 91.01 476.88 86.08 479.11 81.68 480.49 76.24 484.85 72.97 490.3 72.5 495.26 70.94 500.25 72.37 505.31 73.6 509.68 76.58 513.36 80.56 513.36 86.16 515.36 91.01 513.47 95.89 512.47 100.95 508.51 104.26 504.59 107.18 500.5 110.57 495.26 109.68"/></g><g class="cls-12"><polygon class="cls-13" points="495.26 100.2 490.8 98.73 487.08 95.73 485.79 91.01 487.62 86.6 490.81 83.31 495.26 81.4 500.11 82.61 502.87 86.61 504.07 91.01 503.02 95.49 499.87 99 495.26 100.2"/></g><polygon class="cls-11" points="574.38 78.39 570.66 74.06 567.45 69.54 563.67 65.32 562.18 59.88 560.25 54.59 561.67 48.97 562.16 43.64 560.84 37.61 565.91 33.75 567.72 28.57 571.97 25.13 573.88 18.78 580.45 18.84 585.21 16.34 590.6 16 595.83 12 601.66 12.16 607.34 13.6 611.99 17.29 616.09 21.13 620.62 24.24 623.14 29.19 627.99 32.65 628.65 38.37 630.75 43.52 631.12 49.06 630.63 54.58 627.96 59.51 627.87 65.41 623.81 69.43 619.91 73.21 616.27 77.29 611.12 79.2 606.82 83.14 601.36 84.55 595.74 82.53 590.45 82.36 584.46 83.71 579 81.83 574.38 78.39"/><g class="cls-12"><polygon class="cls-13" points="579.68 71.12 574.84 68.32 572.32 63.35 570.26 58.39 567.15 53.51 567.55 47.87 569.36 42.63 571.4 37.74 572.76 32.24 577.03 28.68 581.55 25.71 586.74 24.4 591.45 21.45 596.93 20.6 602.47 21.3 606.82 25.14 611.13 27.93 616.09 30.28 620.03 34.19 622.4 39.23 622.23 44.86 624.37 50.17 621.22 55.15 621.52 60.91 618.57 65.61 614.43 69.24 609.93 72.17 605.41 75.23 600.03 76.07 594.65 76.88 589.57 74.73 584.7 72.97 579.68 71.12"/></g><g class="cls-12"><polygon class="cls-13" points="590.29 56.55 587.04 52.89 585.62 47.93 587.7 43.13 591.57 39.53 596.82 39.27 601.58 41.05 604.3 45.23 605.52 50.05 604.02 55.02 599.77 58.01 594.75 58.69 590.29 56.55"/></g><polygon class="cls-11" points="570.03 193.82 564.02 197.83 558.58 194.73 552.38 194.81 547.21 191.76 542.07 188.78 537.88 184.56 534.19 180.03 530.08 175.85 527.94 170.37 526.92 164.63 525.12 159.35 522.43 154.06 524.59 148.28 521.4 142.37 522.12 136.47 524.46 130.99 527.39 125.89 532.24 122.19 533.09 115.55 540.43 114.86 544.28 110.97 549.12 108.42 553.87 105.66 558.15 100.04 564.13 99.63 570.03 103.63 575.77 101.07 581.08 103.47 586.96 103.65 591.9 106.61 596.72 109.61 603.07 110.98 603.46 118.67 607.28 122.57 612.18 126.16 615.59 131 617.81 136.5 618.42 142.4 616.9 148.28 616.12 153.88 616.5 159.73 611.89 164.15 612.49 170.56 608.19 174.61 603.98 178.35 600.08 182.19 596.33 186.38 592.58 191.24 587.25 193.67 581.74 195.77 575.7 194.9 570.03 193.82"/><g class="cls-12"><polygon class="cls-13" points="570.03 186.6 564.59 182.62 558.3 184.38 554 179.75 548.7 177.64 545.43 172.88 540.12 170.01 536.54 165.34 536.28 159.24 531.68 154.35 534.51 148.28 534.87 142.71 533.8 136.5 537.08 131.49 540.92 127.12 544.38 122.62 547.24 116.9 552.49 113.84 558.64 113.21 564.04 110.45 570.03 112.98 575.74 112.24 581.53 112.89 586.82 115.33 591.83 118.27 595.66 122.65 599.05 127.19 603.8 131.07 605.61 136.72 607.8 142.3 606.07 148.28 605.55 153.9 603.63 159.19 604.53 165.85 600.05 170.08 597.32 175.56 592.42 179.08 587.37 182.29 581.65 184.04 575.84 184.96 570.03 186.6"/></g><g class="cls-12"><polygon class="cls-13" points="570.03 169.93 564.28 169.76 558.49 168.27 554.19 164.12 551.83 158.78 549.57 153.76 547.25 148.28 547.98 142.37 551.15 137.37 555.02 133.26 559.09 129.32 564.48 127.55 570.03 125.95 576 125.99 580.69 129.81 585.63 132.68 590.08 136.7 590.75 142.72 591.9 148.28 590.86 153.86 590.13 159.88 584.91 163.16 581.52 168.17 575.57 168.93 570.03 169.93"/></g><rect class="cls-18" x="453.25" y="8.32" width="98.45" height="43.43"/><path class="cls-24" d="M455.3,290.63a1.87,1.87,0,0,1-1.87-1.87h0a1.87,1.87,0,0,1,1.87-1.87h8.22a1.87,1.87,0,0,1,1.87,1.87h0a1.87,1.87,0,0,1-1.87,1.87Z"/><path class="cls-24" d="M464.27,298.1a1.86,1.86,0,0,1-1.87-1.87h0a1.86,1.86,0,0,1,1.87-1.86h8.22a1.87,1.87,0,0,1,1.87,1.86h0a1.87,1.87,0,0,1-1.87,1.87Z"/><rect class="cls-11" x="461.65" y="283.9" width="5.23" height="17.94" rx="2.47" ry="2.47"/><circle class="cls-19" cx="464.27" cy="292.37" r="4.31"/><path class="cls-25" d="M412.14,164.31a1.87,1.87,0,0,0,1.87,1.87h0a1.87,1.87,0,0,0,1.87-1.87v-8.22a1.87,1.87,0,0,0-1.87-1.87h0a1.87,1.87,0,0,0-1.87,1.87Z"/><path class="cls-25" d="M404.66,155.34a1.87,1.87,0,0,0,1.87,1.87h0a1.87,1.87,0,0,0,1.87-1.87v-8.22a1.86,1.86,0,0,0-1.87-1.87h0a1.87,1.87,0,0,0-1.87,1.87Z"/><rect class="cls-26" x="400.93" y="152.72" width="17.94" height="5.23" rx="2.47" ry="2.47"/><path class="cls-19" d="M414.71,155.34a4.31,4.31,0,1,0-4.31,4.31A4.31,4.31,0,0,0,414.71,155.34Z"/><rect class="cls-9" x="-128" y="393.82" width="337.91" height="337.91"/><rect class="cls-10" x="-89.5" y="432.32" width="259.42" height="259.42" rx="8.95" ry="8.95"/><polygon class="cls-11" points="120.96 480.88 119.12 475.72 117.72 470.58 118.52 465.33 120.07 460.39 123.2 456.32 126 451.64 130.73 448.92 136.07 447.68 141.56 447.72 146.24 450.63 150.91 452.98 154.57 456.77 156.24 461.73 158.93 466.5 158.12 471.85 157.24 477.2 153.51 481.17 149.72 484.72 145.51 488.13 140.03 487.7 134.96 487.85 129.69 487.21 125.63 483.81 120.96 480.88"/><g class="cls-12"><polygon class="cls-13" points="126.93 476.6 124.5 471.75 124.34 466.29 126.75 461.49 130.33 457.68 135.13 455.72 140.53 454.01 145.11 457.32 149.56 460.36 151.31 465.48 152.31 470.89 149.66 475.72 146.11 479.68 141.21 481.72 135.78 482.86 130.71 480.51 126.93 476.6"/></g><g class="cls-12"><polygon class="cls-13" points="133.1 472.17 131.71 467.5 134.69 463.76 139.12 462.54 142.94 465.11 144.16 469.55 141.7 473.53 137.1 474.85 133.1 472.17"/></g><polygon class="cls-11" points="4.6 565.16 2.81 560.09 0.59 555.11 1.75 549.79 2.13 544.27 5.42 539.85 9.27 535.98 13.99 533.09 19.58 533.59 24.96 532.07 30.22 533.78 34.47 537.23 38.42 540.91 41.15 545.63 42.04 551.01 40.57 556.18 39.34 561.11 38.05 566.6 33.91 570.33 28.58 571.79 23.41 572.24 18.09 573.79 13.59 570.53 8.09 569.4 4.6 565.16"/><g class="cls-12"><polygon class="cls-13" points="10.73 560.77 7.3 556.36 7.89 550.8 10.09 545.94 13.11 541.33 18.49 540.12 23.68 539.86 28.86 541.19 32.75 544.97 35.76 549.71 35.61 555.36 32.74 560.02 29.96 564.82 24.84 567.32 19.16 567.28 13.78 565.48 10.73 560.77"/></g><g class="cls-12"><polygon class="cls-13" points="16.74 556.45 15.18 552 17.92 548.03 22.45 547.33 26.77 549.27 27.93 554.1 24.92 557.8 20.56 558.81 16.74 556.45"/></g><polygon class="cls-11" points="122.48 563.45 124.21 569.28 130.17 568.6 137.38 566.16 144.77 564.33 152.49 563.65 159.37 560.02 162.73 556.75 164.5 551.48 163.14 544.38 158.73 540.3 153.83 540.57 146.16 541.41 138.74 543.15 131.56 545.71 123.85 546.43 120.24 551.26 118.58 557.19 122.48 563.45"/><g class="cls-12"><polygon class="cls-13" points="157.85 554.7 158.93 552.93 157.57 546.1 155.41 546.11 147.67 546.72 140.34 548.75 133.63 552.97 125.59 552.53 123.81 555.71 124.94 562.65 128.06 561.19 136.16 561.86 143.36 559.38 150.84 558.03 157.85 554.7"/></g><polygon class="cls-11" points="93.57 601.58 98.43 605.16 102.86 601.17 107.25 594.95 112.11 589.09 117.88 583.93 121.35 576.99 122.14 572.32 120.38 567.05 115.07 562.16 109.13 561.42 105.27 564.5 99.64 569.75 94.7 575.55 90.41 581.85 84.67 587.04 84.56 593.04 86.78 598.75 93.57 601.58"/><g class="cls-12"><polygon class="cls-13" points="116.91 573.54 116.78 571.46 111.62 566.8 109.85 568.06 104.1 573.22 99.39 579.19 96.3 586.43 89.77 591 90.13 594.47 95.19 599.33 96.87 596.51 103.57 592.09 107.94 585.85 113.12 580.28 116.91 573.54"/></g><polygon class="cls-11" points="-0.1 478.86 4.73 482.49 9.21 478.55 13.66 472.39 18.59 466.58 24.41 461.48 27.96 454.58 28.81 449.92 27.11 444.63 21.85 439.68 15.92 438.88 12.03 441.91 6.34 447.1 1.33 452.84 -3.04 459.1 -8.82 464.22 -9.01 470.22 -6.86 475.95 -0.1 478.86"/><g class="cls-12"><polygon class="cls-13" points="23.56 451.08 23.46 449 18.35 444.29 16.56 445.52 10.76 450.62 5.99 456.54 2.81 463.74 -3.77 468.24 -3.46 471.7 1.55 476.62 3.27 473.83 10.01 469.48 14.45 463.29 19.69 457.78 23.56 451.08"/></g><path class="cls-21" d="M167.68,516.06C131,516.06,58.53,531,58.53,626"/><path class="cls-21" d="M55.59,434.57C55.59,485.4-15.49,525-15.49,525"/><polygon class="cls-11" points="73.87 552.63 68.05 551.73 61.98 550.6 57.81 546.07 53.22 541.93 51.46 536.02 50.68 530.01 52.32 524.24 54.71 518.95 58.7 514.84 62.72 510.69 68.33 509.32 73.87 507.53 79.56 508.8 85.27 510.27 89.92 513.96 94.17 518.29 96.82 523.86 95.38 530.01 94.68 535.59 93.77 541.5 90.65 546.79 85.18 549.59 80.06 553.12 73.87 552.63"/><g class="cls-12"><polygon class="cls-13" points="73.87 546.06 68.03 544.11 62.98 540.9 60.35 535.61 58.02 530.01 60.08 524.3 62.39 518.53 68.14 516.16 73.87 514.6 79.87 515.53 84.93 518.95 88.92 523.78 88.78 530.01 88.65 536.13 84.2 540.34 79.57 543.78 73.87 546.06"/></g><g class="cls-12"><polygon class="cls-13" points="73.87 536.81 68.5 535.38 66.51 530.01 68.99 525.13 73.87 522.79 79.23 524.65 80.74 530.01 78.71 534.85 73.87 536.81"/></g><polygon class="cls-11" points="49.95 580.38 43.76 580.77 39.05 576.55 34.44 573.18 30.82 568.71 27.86 563.59 27.02 557.67 27.73 551.72 29.57 545.9 33.94 541.66 38.95 538.62 44.11 535.87 49.95 535.1 55.91 535.43 61.27 538.06 65.94 541.68 70.39 545.87 71.31 551.95 72.02 557.67 72.29 563.66 69.06 568.71 66.15 573.87 61.58 577.82 55.85 579.69 49.95 580.38"/><g class="cls-12"><polygon class="cls-13" points="49.95 576.13 44.22 575.3 39.87 571.55 36.54 567.41 32.96 563.19 31.55 557.67 33.78 552.42 35.09 546.88 39.47 543.26 44.28 540.22 49.95 539.13 55.47 540.67 60.88 542.63 64.36 547.2 66 552.46 67.99 557.67 67.31 563.31 63.43 567.46 60.64 572.39 55.2 573.84 49.95 576.13"/></g><g class="cls-12"><polygon class="cls-13" points="49.95 568.87 44.37 567.33 40.39 563.19 39.15 557.67 40.72 552.35 44.45 548.15 49.95 547.44 55.06 548.82 59.51 552.15 61.14 557.67 58.93 562.86 55.01 566.43 49.95 568.87"/></g><polygon class="cls-11" points="40.11 508.08 38.45 503.08 35.29 498.33 36.24 492.86 37.92 487.75 40.3 482.82 44.53 479.34 49.81 478.09 54.64 475.99 59.76 477.3 64.58 478.68 69.19 480.91 74.04 483.74 74.74 489.4 75.75 494.33 75.81 499.38 74.67 504.38 72.13 508.92 67.86 511.86 63.47 514.33 58.57 515.67 53.31 516.5 48.24 514.79 43.78 511.91 40.11 508.08"/><g class="cls-12"><polygon class="cls-13" points="44.6 504.86 43.21 499.36 42.41 493.88 44.5 488.68 48.09 484.29 53.35 482.14 59.03 481.73 64.45 483.65 67.72 488.28 70.32 493.02 70.19 498.45 68.49 503.58 64.5 507.17 59.69 509.24 54.45 509.56 49.04 508.46 44.6 504.86"/></g><g class="cls-12"><polygon class="cls-13" points="51.87 499.65 50.62 495.23 53.12 491.31 57.6 490.39 61.83 492.5 62.52 497.19 60.17 501.14 55.69 502.03 51.87 499.65"/></g><polygon class="cls-11" points="113.35 510.13 111.99 504.75 110.1 499.75 110.19 494.35 112.14 489.34 114.09 484.13 119.49 482.15 123.8 479.52 128.64 477.32 134.09 476.88 139.35 478.49 144.25 481.13 147.06 485.95 148.77 490.89 151.69 495.63 150.95 501.06 150.13 506.53 145.66 510.02 142.9 514.78 137.43 515.7 132.54 516.71 127.3 518.13 122.19 516.43 117.6 513.64 113.35 510.13"/><g class="cls-12"><polygon class="cls-13" points="118.69 506.3 116.82 500.95 117.19 495.5 119.27 490.64 122.06 485.73 127.65 484.86 132.94 483.87 138.36 485.31 142.68 489.09 144.26 494.54 144.84 500.05 142.88 505.31 138.34 508.42 133.81 511.2 128.28 512.16 123.52 509.2 118.69 506.3"/></g><g class="cls-12"><polygon class="cls-13" points="125.45 501.45 124.45 496.69 127.05 492.68 131.65 491.7 135.91 493.95 136.8 498.73 134.42 502.97 129.64 503.91 125.45 501.45"/></g><polygon class="cls-11" points="76.87 487.46 72.01 484.28 70.49 479.07 69.68 473.78 68.85 468.38 70.6 463.2 71.56 457.82 76.58 454.65 78.61 449.71 82.38 445.99 86.57 442.48 92.28 442.68 97.3 441.99 102.32 442.29 107.28 442.88 112.94 442.5 117.34 445.6 121.81 448.61 124.8 453.08 127.7 457.53 128.77 462.74 129.45 467.86 131.72 473.16 128.22 477.94 128.45 483.57 123.54 486.74 120.82 490.96 117.46 494.89 113.8 499.18 107.78 497.97 103.09 500.46 97.85 501.01 93.06 498.5 87.06 499.69 82.58 496.47 79.98 491.4 76.87 487.46"/><g class="cls-12"><polygon class="cls-13" points="83.01 483.06 80.54 478.15 78.66 472.89 80.19 467.48 81.39 462.27 83.36 457 88.32 454.27 92.46 450.35 98.05 449.55 103.36 451.26 108.89 451.46 113.19 454.85 117.63 458.22 118.46 463.86 119.71 468.82 121.69 474.31 119.87 479.68 116.9 484.49 112.42 487.87 107.4 489.99 102.24 491.89 96.7 491.76 91.14 490.68 86.56 487.34 83.01 483.06"/></g><g class="cls-12"><polygon class="cls-13" points="92.44 476.3 90.9 471.68 92.26 467.19 94.72 463.19 99.27 461.81 104.06 462.13 107.92 465.19 109.52 469.83 108.44 474.51 105.18 477.77 101.03 479.66 96.5 478.84 92.44 476.3"/></g><path class="cls-18" d="M51.25,456.59a1.88,1.88,0,0,1,2.55-.7h0a1.87,1.87,0,0,1,.71,2.54l-4,7.16a1.87,1.87,0,0,1-2.55.71h0a1.87,1.87,0,0,1-.7-2.55Z"/><path class="cls-18" d="M40.33,460.73a1.87,1.87,0,0,1,2.55-.71h0a1.88,1.88,0,0,1,.7,2.55l-4,7.16a1.87,1.87,0,0,1-2.55.7h0a1.87,1.87,0,0,1-.71-2.54Z"/><path class="cls-27" d="M37.15,458.76a2.45,2.45,0,0,1,3.36-.93l11.32,6.39a2.47,2.47,0,0,1,.94,3.37l-.15.25a2.46,2.46,0,0,1-3.36.94l-11.32-6.4A2.47,2.47,0,0,1,37,459Z"/><path class="cls-20" d="M49.07,465.67a4.31,4.31,0,1,1-1.63-5.88A4.31,4.31,0,0,1,49.07,465.67Z"/><path class="cls-25" d="M110.71,525.1a1.89,1.89,0,0,0,2.25,1.4l8-1.86a1.89,1.89,0,0,0,1.4-2.25h0a1.89,1.89,0,0,0-2.25-1.4l-8,1.86a1.89,1.89,0,0,0-1.4,2.25Z"/><path class="cls-25" d="M103.67,534.41a1.86,1.86,0,0,0,2.24,1.4l8-1.86a1.88,1.88,0,0,0,1.4-2.25h0a1.87,1.87,0,0,0-2.25-1.39l-8,1.86a1.86,1.86,0,0,0-1.39,2.24Z"/><rect class="cls-26" x="110.12" y="519.88" width="5.23" height="17.94" rx="2.47" ry="2.47" transform="translate(-116.03 38.89) rotate(-12.99)"/><path class="cls-19" d="M111.65,524.17a4.31,4.31,0,1,0,5.17,3.22A4.3,4.3,0,0,0,111.65,524.17Z"/><rect class="cls-1" x="0.96" y="0.96" width="598.08" height="598.08"/></g></g><g id="znaÄky"><path class="cls-28" d="M206.89,411.62c.51,0,.54,1.77,0,1.77H139.53v-1.77Z"/><polygon class="cls-28" points="138.27 416.83 138.27 413.6 140.34 413.6 140.34 414.19 138.6 416.83 138.27 416.83"/><polygon class="cls-28" points="138.27 408.19 138.27 411.42 140.34 411.42 140.34 410.83 138.6 408.19 138.27 408.19"/><path class="cls-29" d="M141.36,413.86l.21-.21v-2.29l-.21-.21h-3.09v2.72h3.09Z"/><polygon class="cls-6" points="207.15 397.11 207.15 427.91 180.47 412.51 207.15 397.11"/><path class="cls-30" d="M179.54,411.75,207,395.93a.87.87,0,0,1,1.31.75v31.66a.88.88,0,0,1-1.31.76l-27.42-15.83A.88.88,0,0,1,179.54,411.75Zm26-12.44-22.42,12.94a.3.3,0,0,0,0,.52l22.42,13a.3.3,0,0,0,.45-.26V399.57A.3.3,0,0,0,205.58,399.31Z"/><g id="hlavnacesta"><path class="cls-28" d="M409.05,408.29c0-.51,1.79-.54,1.79,0v67.95h-1.79Z"/><polygon class="cls-28" points="414.31 477.51 411.05 477.51 411.05 475.43 411.65 475.43 414.31 477.19 414.31 477.51"/><polygon class="cls-28" points="405.59 477.51 408.85 477.51 408.85 475.43 408.25 475.43 405.59 477.19 405.59 477.51"/><path class="cls-29" d="M411.31,474.4l-.21-.22h-2.31l-.21.22h0v3.12h2.75V474.4Z"/><rect class="cls-31" x="399.05" y="411.31" width="21.57" height="21.57" rx="1.08" ry="1.08" transform="translate(-178.43 413.43) rotate(-45)"/><rect class="cls-32" x="403.34" y="415.6" width="12.99" height="12.99" rx="1.1" ry="1.1" transform="translate(-178.43 413.43) rotate(-45)"/><path class="cls-33" d="M409.84,436.19a.74.74,0,0,1-.5-.2L396,422.59a.71.71,0,0,1-.21-.49.69.69,0,0,1,.21-.49l13.39-13.4a.71.71,0,0,1,1,0l13.4,13.39a.71.71,0,0,1,0,1L410.33,436A.73.73,0,0,1,409.84,436.19Zm-.25-.45a.37.37,0,0,0,.25.1h0a.37.37,0,0,0,.24-.1l13.4-13.4a.36.36,0,0,0,0-.49l-13.4-13.39a.34.34,0,0,0-.49,0L396.2,421.85a.34.34,0,0,0,0,.49Z"/></g><g id="hlavnacesta-2" data-name="hlavnacesta"><path class="cls-28" d="M191.63,199.51c0,.52-1.79.55-1.79,0V131.56h1.79Z"/><polygon class="cls-28" points="186.37 130.29 189.63 130.29 189.63 132.38 189.03 132.38 186.37 130.62 186.37 130.29"/><polygon class="cls-28" points="195.09 130.29 191.83 130.29 191.83 132.38 192.43 132.38 195.09 130.62 195.09 130.29"/><path class="cls-29" d="M189.36,133.41l.22.21h2.31l.21-.21h0v-3.11h-2.74v3.11Z"/><rect class="cls-31" x="180.05" y="174.92" width="21.57" height="21.57" rx="1.08" ry="1.08" transform="translate(-75.42 189.34) rotate(-45)"/><rect class="cls-32" x="184.34" y="179.21" width="12.99" height="12.99" rx="1.1" ry="1.1" transform="translate(-75.42 189.34) rotate(-45)"/><path class="cls-33" d="M190.84,171.61a.67.67,0,0,1,.49.21l13.4,13.39a.72.72,0,0,1,.2.5.7.7,0,0,1-.2.49l-13.4,13.4a.69.69,0,0,1-1,0L177,186.2a.69.69,0,0,1,0-1l13.4-13.4A.67.67,0,0,1,190.84,171.61Zm.24.46a.31.31,0,0,0-.24-.1h0a.31.31,0,0,0-.24.1l-13.4,13.4a.33.33,0,0,0,0,.48l13.4,13.4a.34.34,0,0,0,.48,0l13.4-13.4a.36.36,0,0,0,0-.49Z"/></g><path class="cls-6" d="M400.83,438.24H418a2.42,2.42,0,0,1,2.42,2.42v16.16a2.42,2.42,0,0,1-2.42,2.42H401.86a2.42,2.42,0,0,1-2.42-2.42V439.63A1.39,1.39,0,0,1,400.83,438.24Z" transform="translate(819.87 897.48) rotate(180)"/><line class="cls-34" x1="400.88" y1="448.74" x2="407.4" y2="448.74"/><line class="cls-35" x1="409.94" y1="457.5" x2="409.94" y2="440.5"/><path class="cls-6" d="M155.83,401.24H173a2.42,2.42,0,0,1,2.42,2.42v16.16a2.42,2.42,0,0,1-2.42,2.42H156.86a2.42,2.42,0,0,1-2.42-2.42V402.63A1.39,1.39,0,0,1,155.83,401.24Z" transform="translate(329.87 823.48) rotate(180)"/><line class="cls-34" x1="155.88" y1="411.74" x2="162.4" y2="411.74"/><line class="cls-35" x1="164.94" y1="420.5" x2="164.94" y2="403.5"/><path class="cls-6" d="M180.83,148.24H198a2.42,2.42,0,0,1,2.42,2.42v16.16a2.42,2.42,0,0,1-2.42,2.42H181.86a2.42,2.42,0,0,1-2.42-2.42V149.63A1.39,1.39,0,0,1,180.83,148.24Z" transform="translate(379.87 317.48) rotate(180)"/><line class="cls-34" x1="180.88" y1="158.74" x2="187.4" y2="158.74"/><line class="cls-35" x1="189.94" y1="167.5" x2="189.94" y2="150.5"/></g></svg>