<svg xmlns="http://www.w3.org/2000/svg" xmlns:xlink="http://www.w3.org/1999/xlink" viewBox="0 0 600 600"><defs><style>.cls-1,.cls-20,.cls-29,.cls-36,.cls-37,.cls-4,.cls-5,.cls-7{fill:none;}.cls-2{clip-path:url(#clip-path);}.cls-3{fill:#5a5a62;}.cls-29,.cls-4,.cls-5,.cls-7,.cls-9{stroke:#fff;}.cls-20,.cls-29,.cls-4,.cls-5,.cls-7,.cls-8,.cls-9{stroke-miterlimit:10;}.cls-29,.cls-4,.cls-5,.cls-7{stroke-width:4px;}.cls-5{stroke-dasharray:26.87 36.55;}.cls-15,.cls-6{fill:#fff;}.cls-7{stroke-linecap:round;}.cls-8{fill:#969696;stroke:#d1c6c6;stroke-width:3px;}.cls-12,.cls-9{fill:#93b258;}.cls-9{stroke-width:6px;}.cls-10{fill:#345130;}.cls-11{opacity:0.2;}.cls-13{fill:#d5d5d5;}.cls-14{fill:#fad1ca;}.cls-15{opacity:0.3;}.cls-16{fill:#a2e6df;}.cls-17{fill:#af3f00;}.cls-18{fill:#ffe165;}.cls-19{fill:#311505;}.cls-20{stroke:#d5d5d5;stroke-width:40px;}.cls-21{fill:#d05e26;}.cls-22{fill:#ba5e26;}.cls-23{fill:#c64400;}.cls-24{fill:#1c798d;}.cls-25{fill:#2d9499;}.cls-26{fill:#863a31;}.cls-27{fill:#ff8576;}.cls-28{fill:#35b37a;}.cls-29{stroke-dasharray:23.98 32.61;}.cls-30{fill:#4f5356;}.cls-31{fill:#6f767a;}.cls-32{fill:#f5f5f5;}.cls-33{fill:#f7c035;}.cls-34{fill:#383310;}.cls-35{fill:#d03123;}.cls-36,.cls-37{stroke:#000;stroke-linejoin:round;}.cls-36{stroke-width:3.4px;}.cls-37{stroke-width:1.98px;}</style><clipPath id="clip-path"><rect class="cls-1" width="600" height="600" transform="translate(0 600) rotate(-90)"/></clipPath></defs><title>kriz7</title><g id="kriz_1" data-name="kriz 1"><g class="cls-2"><rect class="cls-3" x="-26" y="-92" width="663" height="756"/><line class="cls-4" x1="-0.53" y1="300.75" x2="11.97" y2="300.75"/><line class="cls-5" x1="48.51" y1="300.75" x2="157.09" y2="300.75"/><line class="cls-4" x1="175.36" y1="300.75" x2="187.86" y2="300.75"/><rect class="cls-6" x="197.58" y="304.49" width="5.23" height="79.99"/><line class="cls-7" x1="129.55" y1="255.14" x2="102.77" y2="255.14"/><polygon class="cls-6" points="84.69 255.14 110.16 244.74 104.12 255.14 110.16 265.55 84.69 255.14"/><line class="cls-4" x1="299.25" y1="-0.53" x2="299.25" y2="11.97"/><line class="cls-5" x1="299.25" y1="48.51" x2="299.25" y2="157.09"/><line class="cls-4" x1="299.25" y1="175.36" x2="299.25" y2="187.86"/><rect class="cls-6" x="215.52" y="197.58" width="79.99" height="5.23"/><line class="cls-7" x1="344.14" y1="130.31" x2="344.14" y2="103.53"/><polygon class="cls-6" points="344.14 85.45 354.55 110.92 344.14 104.88 333.74 110.92 344.14 85.45"/><rect class="cls-8" x="390.09" y="394.57" width="337.91" height="337.91"/><rect class="cls-9" x="430.08" y="434.57" width="259.42" height="259.42" rx="8.95" ry="8.95"/><polygon class="cls-10" points="457.54 546.13 462.37 551.97 467 557.92 467.55 565.64 467.17 573.37 464.99 581.09 467.37 588.82 467.67 596.54 465.37 604.27 462.55 610.36 457.54 615.16 449.72 617.02 443.16 611.48 441.48 604.27 440.74 596.55 442.85 588.83 440.9 581.1 443.01 573.38 443.36 565.65 439.31 557.92 443.37 550.86 450.05 550.05 457.54 546.13"/><g class="cls-11"><polygon class="cls-12" points="457.89 604.27 457.42 607.93 449.87 607.08 448.16 604.27 450.44 596.55 450.53 588.83 447.21 581.1 451.14 573.38 449.7 565.65 450.93 557.92 449.79 552.65 457.34 556.94 457.11 557.92 455.97 565.64 460.39 573.37 460.76 581.09 460.67 588.82 458.68 596.55 457.89 604.27"/></g><polygon class="cls-10" points="457.54 474.36 462.37 480.2 467 486.15 467.55 493.87 467.17 501.6 464.99 509.32 467.37 517.05 467.67 524.77 465.37 532.5 462.55 538.59 457.54 543.39 449.72 545.25 443.16 539.71 441.48 532.5 440.74 524.78 442.85 517.06 440.9 509.33 443.01 501.61 443.36 493.88 439.31 486.15 443.37 479.09 450.05 478.28 457.54 474.36"/><g class="cls-11"><polygon class="cls-12" points="457.89 532.5 457.42 536.16 449.87 535.31 448.16 532.5 450.44 524.78 450.53 517.06 447.21 509.33 451.14 501.61 449.7 493.88 450.93 486.15 449.79 480.88 457.34 485.17 457.11 486.15 455.97 493.87 460.39 501.6 460.76 509.32 460.67 517.05 458.68 524.78 457.89 532.5"/></g><polygon class="cls-10" points="516.63 465.02 517.74 472.72 525.77 472.4 533.5 471.86 541.22 472.24 548.95 474.42 556.67 472.04 564.4 471.74 572.13 474.04 580.03 472.54 582.17 465.02 580.31 457.2 578.91 451.22 572.13 448.59 564.4 449.33 556.68 447.22 548.96 449.17 541.23 447.06 533.5 446.71 525.77 450.75 518.84 451.02 512.72 457.53 516.63 465.02"/><g class="cls-11"><polygon class="cls-12" points="572.13 466.57 574.45 464.86 575.3 457.33 572.13 456.86 564.4 454.57 556.68 454.49 548.96 457.81 541.23 453.88 533.5 455.32 525.77 454.1 525.06 457.4 520.78 464.94 525.77 467.35 533.5 468.49 541.22 464.07 548.95 463.7 556.67 463.79 564.4 465.78 572.13 466.57"/></g><polygon class="cls-10" points="444.12 465.02 445.22 472.72 453.26 472.4 460.98 471.86 468.7 472.24 476.43 474.42 484.15 472.04 491.88 471.74 499.61 474.04 507.51 472.54 509.65 465.02 507.79 457.2 506.39 451.22 499.61 448.59 491.89 449.33 484.16 447.22 476.44 449.17 468.71 447.06 460.99 446.71 453.26 450.75 446.33 451.02 440.2 457.53 444.12 465.02"/><g class="cls-11"><polygon class="cls-12" points="499.61 466.57 501.93 464.86 502.79 457.33 499.61 456.86 491.89 454.57 484.16 454.49 476.44 457.81 468.71 453.88 460.99 455.32 453.26 454.1 452.55 457.4 448.26 464.94 453.26 467.35 460.98 468.49 468.7 464.07 476.43 463.7 484.15 463.79 491.89 465.78 499.61 466.57"/></g><polygon class="cls-10" points="587.66 465.02 588.76 472.72 596.8 472.4 604.52 471.86 612.24 472.24 619.97 474.42 627.69 472.04 635.42 471.74 643.15 474.04 651.05 472.54 653.19 465.02 651.33 457.2 649.93 451.22 643.15 448.59 635.43 449.33 627.7 447.22 619.98 449.17 612.25 447.06 604.52 446.71 596.8 450.75 589.87 451.02 583.74 457.53 587.66 465.02"/><g class="cls-11"><polygon class="cls-12" points="643.15 466.57 645.47 464.86 646.33 457.33 643.15 456.86 635.43 454.57 627.7 454.49 619.98 457.81 612.25 453.88 604.52 455.32 596.8 454.1 596.08 457.4 591.8 464.94 596.8 467.35 604.52 468.49 612.24 464.07 619.97 463.7 627.69 463.79 635.43 465.78 643.15 466.57"/></g><rect class="cls-6" x="480.92" y="572.13" width="17.19" height="17.94"/><rect class="cls-13" x="498.11" y="572.13" width="24.67" height="17.94"/><rect class="cls-6" x="480.92" y="546.71" width="17.19" height="17.94"/><rect class="cls-13" x="498.11" y="546.71" width="24.67" height="17.94"/><rect class="cls-14" x="480.92" y="494.38" width="41.87" height="41.87"/><polygon class="cls-15" points="522.78 494.38 522.78 536.24 522.78 536.24 501.85 514.81 522.78 494.38"/><polygon class="cls-15" points="480.92 494.38 480.92 536.24 480.92 536.24 501.85 514.81 480.92 494.38"/><path class="cls-6" d="M606,542.33c0-9.41,3.42-14.08,3.42-23.12a32.52,32.52,0,0,0-65,0c0,9,4.41,12.14,4.41,23.12s-4.41,14.07-4.41,23.11a32.52,32.52,0,0,0,65,0C609.45,556.4,606,551.73,606,542.33Z"/><path class="cls-16" d="M576.93,588.56a23.14,23.14,0,0,1-23.12-23.12,20.92,20.92,0,0,1,1.55-7.35,44.73,44.73,0,0,0,0-31.53,20.88,20.88,0,0,1-1.55-7.35,23.12,23.12,0,1,1,46.23,0,35.16,35.16,0,0,1-1.41,9.07,50.32,50.32,0,0,0,0,28.09,35.16,35.16,0,0,1,1.41,9.07A23.14,23.14,0,0,1,576.93,588.56Z"/><path class="cls-6" d="M580.35,523.53s-1.12-3.27-4.11-2.76,1.87,5.75,1.87,5.75-3,4.12-3.74,7.1c0,0-1.5,4.49-1.12,7.48L567.64,540c-1.5,3,6.73,9.34,6.73,9.34s5.61,11.22,10.46,10.1a2.88,2.88,0,0,0,.78-.3c1.44,1.63,3.06,3.19,3.57,2.53s-.89-2.85-2.36-4.89c.23-3.63-3-10-4.6-13.79-2.24-5.23-4.11-11.59-.38-17.2,0,0,5.24-.37,4.49-3S582.59,519.79,580.35,523.53Z"/><path class="cls-13" d="M555.3,571.38a1.13,1.13,0,0,1,1.13,1.12h0a1.13,1.13,0,0,1-1.13,1.12H542.6a1.13,1.13,0,0,1-1.13-1.12h0a1.13,1.13,0,0,1,1.13-1.12Z"/><path class="cls-13" d="M555.3,561.66a1.13,1.13,0,0,1,1.13,1.12h0a1.13,1.13,0,0,1-1.13,1.12H542.6a1.13,1.13,0,0,1-1.13-1.12h0a1.13,1.13,0,0,1,1.13-1.12Z"/><path class="cls-17" d="M488.77,414.38a1.87,1.87,0,0,1,1.87,1.87h0a1.87,1.87,0,0,1-1.87,1.87h-8.23a1.87,1.87,0,0,1-1.86-1.87h0a1.87,1.87,0,0,1,1.86-1.87Z"/><path class="cls-17" d="M479.8,406.91a1.87,1.87,0,0,1,1.87,1.87h0a1.87,1.87,0,0,1-1.87,1.86h-8.23a1.87,1.87,0,0,1-1.87-1.86h0a1.87,1.87,0,0,1,1.87-1.87Z"/><rect class="cls-18" x="477.18" y="403.17" width="5.23" height="17.94" rx="2.47" ry="2.47"/><circle class="cls-19" cx="479.8" cy="412.64" r="4.31"/><rect class="cls-8" x="-128" y="-132.49" width="337.91" height="337.91"/><rect class="cls-9" x="-89.5" y="-92.49" width="259.42" height="259.42" rx="8.95" ry="8.95"/><path class="cls-20" d="M168.42,69.74H80.21A10.47,10.47,0,0,1,69.74,59.27V27.87"/><polygon class="cls-10" points="80.54 112.58 82.78 118.16 84.43 123.87 83.21 129.67 81.41 135.06 78.31 139.78 74.14 143.51 69.22 146.18 63.76 147.36 57.85 149.27 51.99 147.5 47.8 143.03 44.06 138.75 39.7 134.41 38.91 128.38 38.55 122.32 40.55 116.57 43.71 111.41 49.19 108.74 53.29 103.92 59.47 104.04 65.46 103.05 71.18 105.08 75.23 109.57 80.54 112.58"/><g class="cls-11"><polygon class="cls-12" points="75.89 115.92 78.88 120.65 79.69 126.23 78.28 131.63 75.81 136.54 71.99 140.53 66.83 142.35 61.55 143.9 56.23 142.49 51.6 139.81 48.19 135.79 45.93 131.13 44.96 126.03 44.37 120.39 48.12 116.17 51.99 112.65 56.41 109.63 61.77 107.78 67.14 109.59 71.78 112.37 75.89 115.92"/></g><g class="cls-11"><polygon class="cls-12" points="70.01 120.13 72.77 125.03 71.26 130.47 67.92 134.84 62.68 136.46 57.27 135.84 53.16 132.22 51.2 127.16 51.63 121.59 55.44 117.45 60.58 115.18 65.92 116.72 70.01 120.13"/></g><polygon class="cls-10" points="16.87 113.75 20.35 118.31 21.06 124 22.62 129.91 19.33 135.05 17.96 141.17 12.21 143.68 7.08 145.95 1.82 148.5 -3.82 146.97 -9.9 147.15 -14.92 143.85 -19.59 139.9 -22.58 134.49 -22.41 128.31 -21.61 122.63 -19.74 117.37 -16.93 112.57 -14.1 107.01 -8.24 105.3 -2.55 104.34 3.14 104.69 9.25 104.81 14.53 107.93 16.87 113.75"/><g class="cls-11"><polygon class="cls-12" points="13.12 116.44 16.41 120.78 17.92 126.24 15.19 131.29 13.05 136.02 9.58 140.02 5.03 143.14 -0.5 144 -6.09 143.32 -10.92 140.44 -15.27 136.8 -17.28 131.5 -17.77 126.02 -16.97 120.63 -13.66 116.36 -10 112.73 -5.9 108.83 -0.28 108.19 4.81 110.46 9.33 112.92 13.12 116.44"/></g><g class="cls-11"><polygon class="cls-12" points="8.61 119.67 10.19 125.08 8.79 130.28 5.39 134.18 0.62 136.28 -4.85 135.98 -8.61 132.02 -10.78 127.15 -10.11 121.73 -6.67 117.37 -1.41 115.82 4.15 116.09 8.61 119.67"/></g><polygon class="cls-10" points="140.13 1.28 141.57 6.95 142.83 12.37 144.86 18.39 141.19 23.45 139.45 29.44 134.12 32.53 128.98 35.47 123.13 36.58 117.39 35.27 111.16 35.22 107.48 30.1 103.5 26.1 101.19 20.95 99.65 15.48 98.55 9.49 100.79 3.86 104 -1.24 108.47 -5.32 113.88 -8.09 119.91 -8.19 125.67 -7.82 130.77 -5.2 135.36 -2.12 140.13 1.28"/><g class="cls-11"><polygon class="cls-12" points="136.42 3.79 138.38 9.02 139.7 14.5 136.91 19.48 136.02 25.2 131.61 28.83 126.08 29.75 120.9 32.3 115.32 30.99 111.12 27.25 106.48 24.08 105.56 18.51 104.17 13.34 106.07 8.32 108.53 3.82 111.26 -1.2 116.44 -3.6 122.07 -3.42 127.39 -2.4 131.69 0.8 136.42 3.79"/></g><g class="cls-11"><polygon class="cls-12" points="130.33 7.92 132.64 13.1 131.3 18.66 127.42 22.63 122.29 24.92 116.69 23.82 112.97 19.68 111.35 14.63 112.36 9.47 115.3 4.75 120.71 2.95 126.11 4.4 130.33 7.92"/></g><polygon class="cls-10" points="121.44 103.46 126.93 105.14 132.69 106.12 137.55 109.48 141.99 113.72 144.19 119.49 142.65 125.59 144.34 131.72 141.9 137.4 136.97 141.12 132.19 144.19 127.22 147.15 121.44 147.57 115.84 146.5 110.42 144.69 106.29 140.74 102.5 136.53 100.7 131.15 100.31 125.59 100.28 119.92 101.93 114.32 105.32 109.47 110.58 106.77 115.44 103.19 121.44 103.46"/><g class="cls-11"><polygon class="cls-12" points="121.44 107.16 126.54 109.9 132.08 110.95 135.05 115.71 138.35 120.1 139.61 125.59 137.33 130.75 136.02 136.18 131.94 140.03 126.94 142.51 121.44 142.01 116.16 141.87 110.8 140.24 106.59 136.38 105.64 130.72 103.69 125.59 104.72 120.15 107.96 115.79 110.72 110.82 116.22 109.5 121.44 107.16"/></g><g class="cls-11"><polygon class="cls-12" points="121.44 115.35 126.9 116.15 131.08 120.03 132.49 125.59 130.45 130.79 126.47 134.3 121.44 136.16 115.99 135.04 111.87 131.12 110.89 125.59 112.64 120.51 115.94 116.05 121.44 115.35"/></g><polygon class="cls-6" points="152.72 154.22 -2.03 154.22 -2.03 157.21 152.72 157.21 155.71 157.21 155.71 154.22 155.71 95.91 152.72 95.91 152.72 154.22"/><rect class="cls-6" x="152.72" y="-5.02" width="2.99" height="51.58"/><rect class="cls-21" x="12.92" y="56.28" width="17.19" height="29.16"/><rect class="cls-22" x="30.12" y="56.28" width="17.19" height="29.16"/><circle class="cls-18" cx="17.96" cy="94.22" r="4.75"/><circle class="cls-10" cx="27.68" cy="94.22" r="3.56"/><rect class="cls-23" x="-28.94" y="-58.1" width="58.31" height="99.43"/><rect class="cls-17" x="29.37" y="-58.1" width="58.31" height="99.43"/><path class="cls-24" d="M96.28,188.61a1.87,1.87,0,0,1,1.87,1.87h0a1.87,1.87,0,0,1-1.87,1.87H88.06a1.87,1.87,0,0,1-1.87-1.87h0a1.86,1.86,0,0,1,1.87-1.87Z"/><path class="cls-24" d="M87.31,181.13A1.87,1.87,0,0,1,89.18,183h0a1.87,1.87,0,0,1-1.87,1.87H79.08A1.87,1.87,0,0,1,77.22,183h0a1.87,1.87,0,0,1,1.86-1.87Z"/><rect class="cls-17" x="84.69" y="177.39" width="5.23" height="17.94" rx="2.47" ry="2.47"/><circle class="cls-19" cx="87.31" cy="186.86" r="4.31"/><rect class="cls-8" x="-128" y="394.57" width="337.91" height="337.91"/><rect class="cls-9" x="-89.5" y="434.57" width="259.42" height="259.42" rx="8.95" ry="8.95"/><polygon class="cls-10" points="120.93 455.46 126.61 454.93 131.06 459.04 136.51 460.18 141.26 463.17 143.16 468.64 146.51 472.89 149.35 477.84 149.85 483.49 146.8 488.64 145.97 493.86 144.44 499.2 139.8 502.36 136.7 507.09 132.12 510.5 126.54 511.67 120.93 511.34 115.43 511.16 110.39 508.93 105.13 507.14 102.25 502.17 98.98 498.16 94.42 494.47 95.09 488.63 92.06 483.49 92.54 477.84 94.63 472.59 97.86 468.07 102.25 464.81 105.31 460.11 110.65 458.67 115.49 456.11 120.93 455.46"/><g class="cls-11"><polygon class="cls-12" points="120.93 464.3 126.56 466.17 132.72 467.26 136.75 472 139.27 477.53 140.22 483.49 139.84 489.63 136.06 494.48 132.39 499.25 126.84 501.67 120.93 503.72 114.98 501.8 108.98 499.94 105.81 494.47 103.36 489.2 100.8 483.49 102.75 477.58 105.88 472.55 109.27 467.44 115.2 465.85 120.93 464.3"/></g><g class="cls-11"><polygon class="cls-12" points="120.93 473.87 125.68 475.26 129.31 478.66 130.49 483.49 128.66 487.95 125.42 491.26 120.93 492.79 116.09 491.88 112.96 488.09 111.84 483.49 112.92 478.86 116.54 475.87 120.93 473.87"/></g><polygon class="cls-10" points="119.44 526.8 124.98 530 130.93 530.79 134.67 535.46 139.11 539.33 140.14 545.15 140.77 550.69 141.8 556.69 139.84 562.48 136.42 567.68 131.36 571.34 125.19 572.15 119.44 572.55 113.74 571.95 108.52 569.6 103.6 566.52 100.59 561.57 98.49 556.31 95.76 550.69 97.81 544.9 99.39 539.12 102.69 533.95 108.46 531.69 113.55 528.72 119.44 526.8"/><g class="cls-11"><polygon class="cls-12" points="119.44 536.23 124.98 537.29 129.87 540.26 133.47 544.88 133.94 550.69 133.64 556.58 130.75 562.01 125.07 564.31 119.44 565.14 113.24 565.65 108.03 562.1 105.72 556.38 103.89 550.69 105.62 544.97 108.43 539.68 113.39 536.09 119.44 536.23"/></g><g class="cls-11"><polygon class="cls-12" points="119.44 543.58 124.31 545.81 126.75 550.69 124.62 555.88 119.44 557.53 114.57 555.56 112 550.69 114.12 545.38 119.44 543.58"/></g><polygon class="cls-10" points="58.15 560.47 61.78 564.6 64.7 569.09 67.76 573.6 68.6 578.98 69.41 584.36 67.26 589.43 65.51 594.29 64.58 599.98 59.19 602.33 55.6 606.18 50.58 607.74 46.06 611.78 40.51 609.41 35.33 609.09 30.71 606.73 24.69 606.4 20.32 602.82 16.95 598.27 15.67 592.74 15.18 587.37 14.43 582.12 16.14 577.08 16.18 571.48 19.94 567.47 22.98 563.06 27.3 559.86 32.15 557.57 37.51 557.33 42.7 555.34 47.88 557.11 52.69 559.2 58.15 560.47"/><g class="cls-11"><polygon class="cls-12" points="54.05 566.1 58.74 569.36 61.04 574.59 62.37 579.96 63.9 585.6 62 591.09 58.58 595.62 54.65 599.41 50.52 603.39 44.9 604.39 39.34 604.25 34.27 602.18 28.85 600.69 24.44 597.07 21.4 592.18 21.45 586.39 21.48 581.09 21.6 575.53 23.78 570.26 27.77 566.13 33.16 564.27 38.13 561.34 43.72 563.07 49.47 562.73 54.05 566.1"/></g><g class="cls-11"><polygon class="cls-12" points="45.83 577.38 48.89 582.08 47.97 587.89 42.77 590.87 36.84 589.72 34.08 584.4 35.41 578.73 40.45 576.1 45.83 577.38"/></g><polygon class="cls-10" points="-0.18 500.95 5.63 502.09 11.5 503.56 15.03 508.57 20.14 512.05 21.41 518 23.2 523.78 21.69 529.64 20.28 535.59 15.21 539.17 11.75 544.45 5.41 544.63 -0.18 545.63 -6.09 545.85 -12.06 544.35 -17.11 540.71 -19.94 535.19 -22.29 529.71 -21.88 523.78 -21.64 518.03 -18.96 512.94 -16.55 507.41 -10.92 505.18 -5.84 502.68 -0.18 500.95"/><g class="cls-11"><polygon class="cls-12" points="-0.18 505.75 5.54 506.17 10.77 508.71 13.54 513.81 16.84 518.25 17.44 523.78 15.72 528.95 13.69 533.86 10.77 538.85 5.07 539.96 -0.18 541.02 -5.7 540.76 -10.27 537.66 -13.62 533.54 -16.48 529.08 -18.09 523.78 -16.12 518.6 -14.05 513.71 -10 510.26 -5.55 507.25 -0.18 505.75"/></g><g class="cls-11"><polygon class="cls-12" points="-0.18 513.33 5.2 514.45 8.54 518.75 10.61 523.78 8.86 529 4.92 532.62 -0.18 533.98 -5.39 532.81 -9.64 529.24 -11.1 523.78 -9.71 518.28 -5.47 514.63 -0.18 513.33"/></g><polygon class="cls-10" points="61.52 471.06 67.56 468.15 72.97 471.09 79.02 471.99 83.87 475.57 88.47 479.38 91.9 484.26 94.57 489.49 97.28 494.71 97.88 500.58 97.22 506.34 96.9 511.94 96.85 517.82 92.89 522.32 92.21 528.64 88.54 533.36 83.7 536.88 78.45 539.58 72.51 540.17 67.5 544.1 61.52 540.92 56.02 541.02 50.74 539.5 45.49 537.79 38.9 537.46 34.68 533.17 33.53 526.66 28.69 523.06 27.52 517.38 25.01 512.12 25.07 506.34 25.57 500.64 24.8 494.41 30.69 490.63 33.16 485.74 35.45 480.27 39.34 475.81 44.21 472.38 49.85 470.43 55.84 470.48 61.52 471.06"/><g class="cls-11"><polygon class="cls-12" points="61.52 476.65 66.77 479.92 72.77 479.17 76.72 483.59 81.4 486.46 83.93 491.36 87.98 495.38 90.07 500.66 89 506.34 91.02 512.21 86.94 516.87 84.44 521.65 82.38 527.2 77.43 530.15 72.19 532.1 67 533.9 61.52 536.38 55.68 535.7 50.59 532.72 45.04 531 42.19 525.67 38.02 522.04 34.89 517.37 33.42 511.93 32.79 506.34 33.98 500.86 35.84 495.7 37.11 490.03 41.03 485.86 45.06 481.71 50.83 480.54 56.08 479.02 61.52 476.65"/></g><g class="cls-11"><polygon class="cls-12" points="61.52 489.57 66.84 489.95 72.03 491.87 75.56 496.13 77 501.31 77.92 506.34 78.31 511.79 75.82 516.73 71.44 520 66.6 521.98 61.52 523.28 56.38 522.15 51.35 520.33 47.06 516.84 45.81 511.44 44.43 506.34 44.46 500.8 48.08 496.57 51.56 492.64 56.35 490.45 61.52 489.57"/></g><rect class="cls-17" x="75.72" y="581.1" width="76.26" height="33.64"/><path class="cls-25" d="M41.7,417.37a1.87,1.87,0,0,1,1.87,1.87h0a1.87,1.87,0,0,1-1.87,1.87H33.48a1.87,1.87,0,0,1-1.87-1.87h0a1.87,1.87,0,0,1,1.87-1.87Z"/><path class="cls-25" d="M32.73,409.9a1.86,1.86,0,0,1,1.87,1.87h0a1.86,1.86,0,0,1-1.87,1.86H24.51a1.87,1.87,0,0,1-1.87-1.86h0a1.87,1.87,0,0,1,1.87-1.87Z"/><rect class="cls-10" x="30.12" y="406.16" width="5.23" height="17.94" rx="2.47" ry="2.47"/><circle class="cls-18" cx="32.73" cy="415.63" r="4.31"/><path class="cls-26" d="M187.86,435.69a1.87,1.87,0,0,0-1.87-1.87h0a1.87,1.87,0,0,0-1.87,1.87v8.22a1.87,1.87,0,0,0,1.87,1.87h0a1.87,1.87,0,0,0,1.87-1.87Z"/><path class="cls-26" d="M195.34,444.66a1.87,1.87,0,0,0-1.87-1.87h0a1.87,1.87,0,0,0-1.87,1.87v8.22a1.86,1.86,0,0,0,1.87,1.87h0a1.87,1.87,0,0,0,1.87-1.87Z"/><rect class="cls-27" x="181.13" y="442.04" width="17.94" height="5.23" rx="2.47" ry="2.47"/><path class="cls-18" d="M185.29,444.66a4.31,4.31,0,1,0,4.31-4.31A4.31,4.31,0,0,0,185.29,444.66Z"/><rect class="cls-8" x="390.09" y="-131.74" width="337.91" height="337.91"/><rect class="cls-9" x="430.08" y="-91.74" width="259.42" height="259.42" rx="8.95" ry="8.95"/><polygon class="cls-10" points="479.04 119.12 480.88 124.28 482.28 129.42 481.48 134.67 479.93 139.61 476.8 143.68 474 148.36 469.27 151.08 463.93 152.32 458.44 152.28 453.76 149.37 449.1 147.02 445.43 143.23 443.76 138.27 441.07 133.5 441.88 128.15 442.76 122.8 446.49 118.83 450.28 115.28 454.49 111.86 459.97 112.3 465.04 112.15 470.31 112.78 474.37 116.19 479.04 119.12"/><g class="cls-11"><polygon class="cls-12" points="473.07 123.4 475.5 128.25 475.66 133.71 473.25 138.51 469.67 142.32 464.87 144.28 459.47 145.99 454.89 142.68 450.44 139.64 448.69 134.52 447.69 129.11 450.34 124.28 453.89 120.32 458.79 118.28 464.22 117.14 469.29 119.49 473.07 123.4"/></g><g class="cls-11"><polygon class="cls-12" points="466.9 127.83 468.29 132.5 465.31 136.24 460.88 137.46 457.06 134.89 455.84 130.45 458.3 126.47 462.9 125.15 466.9 127.83"/></g><polygon class="cls-10" points="595.4 34.84 597.19 39.91 599.4 44.89 598.25 50.21 597.87 55.73 594.58 60.15 590.73 64.02 586.01 66.91 580.42 66.41 575.04 67.94 569.78 66.22 565.53 62.77 561.58 59.09 558.85 54.37 557.96 48.99 559.43 43.82 560.66 38.89 561.96 33.4 566.09 29.67 571.42 28.2 576.59 27.76 581.91 26.21 586.41 29.47 591.91 30.59 595.4 34.84"/><g class="cls-11"><polygon class="cls-12" points="589.27 39.23 592.7 43.64 592.11 49.2 589.91 54.06 586.89 58.67 581.51 59.88 576.33 60.14 571.13 58.81 567.25 55.03 564.24 50.29 564.39 44.64 567.25 39.98 570.04 35.18 575.15 32.68 580.84 32.72 586.22 34.52 589.27 39.23"/></g><g class="cls-11"><polygon class="cls-12" points="583.26 43.55 584.82 48 582.08 51.97 577.55 52.67 573.24 50.73 572.07 45.91 575.08 42.2 579.44 41.19 583.26 43.55"/></g><polygon class="cls-10" points="477.52 36.55 475.79 30.72 469.83 31.4 462.62 33.84 455.23 35.67 447.51 36.35 440.63 39.98 437.27 43.25 435.5 48.52 436.86 55.62 441.27 59.7 446.17 59.43 453.84 58.59 461.26 56.85 468.44 54.29 476.15 53.56 479.76 48.74 481.42 42.81 477.52 36.55"/><g class="cls-11"><polygon class="cls-12" points="442.15 45.3 441.07 47.07 442.43 53.9 444.6 53.89 452.33 53.28 459.66 51.25 466.37 47.03 474.41 47.47 476.19 44.29 475.06 37.35 471.94 38.81 463.84 38.14 456.64 40.63 449.16 41.97 442.15 45.3"/></g><polygon class="cls-10" points="506.43 -1.58 501.57 -5.16 497.13 -1.17 492.75 5.05 487.89 10.91 482.12 16.07 478.65 23.01 477.86 27.68 479.62 32.95 484.93 37.84 490.87 38.58 494.73 35.5 500.36 30.25 505.3 24.45 509.59 18.15 515.33 12.96 515.44 6.96 513.22 1.25 506.43 -1.58"/><g class="cls-11"><polygon class="cls-12" points="483.1 26.46 483.22 28.54 488.38 33.2 490.15 31.94 495.9 26.78 500.61 20.81 503.7 13.57 510.23 9.01 509.87 5.54 504.81 0.67 503.13 3.48 496.43 7.91 492.06 14.15 486.88 19.71 483.1 26.46"/></g><polygon class="cls-10" points="600.1 121.14 595.27 117.51 590.79 121.45 586.34 127.61 581.41 133.42 575.59 138.52 572.04 145.42 571.19 150.08 572.89 155.37 578.15 160.32 584.08 161.12 587.97 158.09 593.66 152.9 598.66 147.16 603.03 140.91 608.82 135.78 609.01 129.78 606.86 124.05 600.1 121.14"/><g class="cls-11"><polygon class="cls-12" points="576.44 148.92 576.54 151 581.65 155.71 583.44 154.48 589.24 149.38 594.01 143.46 597.2 136.26 603.77 131.76 603.46 128.3 598.45 123.38 596.73 126.17 589.99 130.52 585.55 136.71 580.31 142.22 576.44 148.92"/></g><path class="cls-20" d="M432.32,83.94c36.64,0,109.15-15,109.15-109.89"/><path class="cls-20" d="M544.41,165.43c0-50.83,71.08-90.46,71.08-90.46"/><polygon class="cls-10" points="526.13 47.37 531.95 48.27 538.02 49.4 542.19 53.93 546.78 58.07 548.54 63.98 549.32 69.99 547.68 75.77 545.29 81.05 541.3 85.16 537.28 89.31 531.67 90.68 526.13 92.47 520.44 91.2 514.73 89.73 510.08 86.04 505.83 81.71 503.18 76.14 504.62 69.99 505.32 64.41 506.23 58.5 509.35 53.21 514.82 50.41 519.94 46.88 526.13 47.37"/><g class="cls-11"><polygon class="cls-12" points="526.13 53.94 531.97 55.89 537.02 59.1 539.64 64.39 541.98 69.99 539.92 75.7 537.61 81.47 531.87 83.84 526.13 85.4 520.13 84.47 515.07 81.05 511.08 76.22 511.22 69.99 511.35 63.87 515.8 59.66 520.43 56.22 526.13 53.94"/></g><g class="cls-11"><polygon class="cls-12" points="526.13 63.19 531.5 64.62 533.49 69.99 531.01 74.87 526.13 77.21 520.77 75.35 519.26 69.99 521.29 65.15 526.13 63.19"/></g><polygon class="cls-10" points="550.05 19.62 556.24 19.23 560.95 23.45 565.56 26.82 569.18 31.29 572.14 36.41 572.98 42.33 572.27 48.28 570.43 54.1 566.06 58.34 561.05 61.38 555.89 64.13 550.05 64.9 544.09 64.57 538.73 61.94 534.06 58.32 529.61 54.13 528.69 48.05 527.98 42.33 527.71 36.34 530.94 31.29 533.85 26.13 538.42 22.18 544.15 20.31 550.05 19.62"/><g class="cls-11"><polygon class="cls-12" points="550.05 23.87 555.78 24.7 560.13 28.45 563.46 32.59 567.04 36.81 568.45 42.33 566.22 47.58 564.91 53.12 560.53 56.74 555.72 59.78 550.05 60.87 544.53 59.33 539.12 57.37 535.64 52.8 534 47.54 532.01 42.33 532.69 36.69 536.57 32.54 539.36 27.61 544.8 26.16 550.05 23.87"/></g><g class="cls-11"><polygon class="cls-12" points="550.05 31.13 555.63 32.67 559.61 36.81 560.85 42.33 559.28 47.65 555.55 51.85 550.05 52.56 544.94 51.19 540.49 47.85 538.86 42.33 541.07 37.15 545 33.57 550.05 31.13"/></g><polygon class="cls-10" points="559.89 91.92 561.54 96.92 564.71 101.67 563.76 107.14 562.08 112.25 559.7 117.17 555.47 120.66 550.19 121.91 545.36 124.01 540.24 122.7 535.42 121.32 530.81 119.09 525.96 116.26 525.26 110.6 524.25 105.67 524.19 100.63 525.33 95.62 527.87 91.08 532.14 88.14 536.53 85.67 541.43 84.33 546.69 83.5 551.76 85.21 556.22 88.09 559.89 91.92"/><g class="cls-11"><polygon class="cls-12" points="555.4 95.14 556.79 100.64 557.59 106.12 555.5 111.32 551.91 115.71 546.65 117.86 540.97 118.27 535.55 116.35 532.28 111.72 529.68 106.98 529.81 101.55 531.51 96.42 535.5 92.83 540.31 90.76 545.55 90.44 550.96 91.54 555.4 95.14"/></g><g class="cls-11"><polygon class="cls-12" points="548.13 100.35 549.38 104.77 546.88 108.69 542.4 109.61 538.17 107.5 537.48 102.81 539.83 98.86 544.31 97.97 548.13 100.35"/></g><polygon class="cls-10" points="486.65 89.87 488.01 95.25 489.9 100.25 489.81 105.65 487.86 110.66 485.91 115.86 480.51 117.85 476.2 120.48 471.36 122.68 465.92 123.12 460.65 121.51 455.75 118.87 452.94 114.05 451.23 109.11 448.31 104.37 449.05 98.94 449.87 93.47 454.34 89.98 457.11 85.22 462.57 84.3 467.46 83.29 472.7 81.87 477.81 83.57 482.4 86.36 486.65 89.87"/><g class="cls-11"><polygon class="cls-12" points="481.31 93.7 483.18 99.05 482.81 104.5 480.73 109.36 477.94 114.27 472.35 115.14 467.06 116.13 461.64 114.69 457.32 110.91 455.74 105.47 455.16 99.95 457.12 94.69 461.67 91.58 466.19 88.8 471.72 87.84 476.48 90.8 481.31 93.7"/></g><g class="cls-11"><polygon class="cls-12" points="474.55 98.55 475.55 103.31 472.95 107.32 468.35 108.3 464.09 106.05 463.2 101.27 465.58 97.03 470.36 96.09 474.55 98.55"/></g><polygon class="cls-10" points="523.13 112.54 527.99 115.72 529.51 120.93 530.32 126.22 531.15 131.62 529.4 136.8 528.44 142.18 523.42 145.35 521.39 150.29 517.62 154.01 513.43 157.52 507.72 157.32 502.7 158.01 497.68 157.71 492.71 157.12 487.06 157.5 482.65 154.4 478.19 151.39 475.2 146.92 472.3 142.47 471.23 137.26 470.55 132.14 468.28 126.84 471.79 122.06 471.55 116.43 476.46 113.26 479.18 109.04 482.54 105.11 486.2 100.82 492.22 102.03 496.91 99.53 502.15 98.98 506.94 101.5 512.94 100.31 517.41 103.53 520.02 108.59 523.13 112.54"/><g class="cls-11"><polygon class="cls-12" points="516.99 116.94 519.46 121.85 521.34 127.11 519.81 132.53 518.61 137.73 516.64 143 511.68 145.73 507.54 149.65 501.95 150.45 496.64 148.74 491.11 148.54 486.81 145.15 482.37 141.78 481.54 136.14 480.29 131.18 478.31 125.69 480.13 120.32 483.1 115.51 487.58 112.13 492.6 110.01 497.76 108.11 503.3 108.24 508.86 109.32 513.44 112.66 516.99 116.94"/></g><g class="cls-11"><polygon class="cls-12" points="507.56 123.7 509.1 128.32 507.74 132.81 505.28 136.81 500.73 138.19 495.94 137.87 492.08 134.81 490.48 130.17 491.56 125.49 494.82 122.23 498.97 120.34 503.5 121.16 507.56 123.7"/></g><path class="cls-17" d="M548.75,143.41a1.88,1.88,0,0,1-2.55.7h0a1.87,1.87,0,0,1-.71-2.54l4-7.16a1.87,1.87,0,0,1,2.55-.71h0a1.87,1.87,0,0,1,.7,2.55Z"/><path class="cls-17" d="M559.67,139.27a1.87,1.87,0,0,1-2.55.71h0a1.88,1.88,0,0,1-.7-2.55l4-7.16a1.87,1.87,0,0,1,2.55-.7h0a1.87,1.87,0,0,1,.71,2.54Z"/><path class="cls-28" d="M562.85,141.24a2.45,2.45,0,0,1-3.36.93l-11.32-6.39a2.47,2.47,0,0,1-.94-3.37l.15-.25a2.46,2.46,0,0,1,3.36-.94l11.32,6.4A2.47,2.47,0,0,1,563,141Z"/><path class="cls-19" d="M550.93,134.33a4.31,4.31,0,1,1,1.63,5.88A4.31,4.31,0,0,1,550.93,134.33Z"/><path class="cls-26" d="M489.29,74.9A1.89,1.89,0,0,0,487,73.5l-8,1.86a1.89,1.89,0,0,0-1.4,2.25h0a1.89,1.89,0,0,0,2.25,1.4l8-1.86a1.89,1.89,0,0,0,1.4-2.25Z"/><path class="cls-26" d="M496.33,65.59a1.86,1.86,0,0,0-2.24-1.4l-8,1.86a1.88,1.88,0,0,0-1.4,2.25h0a1.87,1.87,0,0,0,2.25,1.39l8-1.86a1.86,1.86,0,0,0,1.39-2.24Z"/><path class="cls-27" d="M488.34,64.23a2.47,2.47,0,0,0-3-1.85l-.29.06a2.48,2.48,0,0,0-1.85,3l2.95,12.66a2.46,2.46,0,0,0,3,1.85l.29-.06a2.47,2.47,0,0,0,1.84-3Z"/><path class="cls-18" d="M488.35,75.83a4.31,4.31,0,1,0-5.17-3.22A4.3,4.3,0,0,0,488.35,75.83Z"/><rect class="cls-1" x="0.96" y="0.96" width="598.08" height="598.08"/><path class="cls-4" d="M600.53,300.25l-12.49,0"/><path class="cls-29" d="M555.43,300.18C504.19,300.11,423.26,300,389,300c-58,0-89,30-89,95,0,46.66.52,132.48.81,177.19"/><path class="cls-4" d="M300.91,588.5c.06,7.91.09,12.5.09,12.5"/></g></g><g id="znaÄky"><g id="hlavnacesta"><path class="cls-30" d="M395.62,186.82c-.51,0-.54-1.79,0-1.79h67.95v1.79Z"/><polygon class="cls-30" points="464.84 181.56 464.84 184.82 462.76 184.82 462.76 184.22 464.52 181.56 464.84 181.56"/><polygon class="cls-30" points="464.84 190.28 464.84 187.02 462.76 187.02 462.76 187.62 464.52 190.28 464.84 190.28"/><path class="cls-31" d="M461.73,184.55l-.22.22v2.31l.22.21h3.12v-2.74Z"/><rect class="cls-32" x="398.64" y="175.24" width="21.57" height="21.57" rx="1.08" ry="1.08" transform="translate(-11.62 343.99) rotate(-45)"/><rect class="cls-33" x="402.93" y="179.53" width="12.99" height="12.99" rx="1.1" ry="1.1" transform="translate(-11.62 343.99) rotate(-45)"/><path class="cls-34" d="M423.52,186a.7.7,0,0,1-.2.49l-13.4,13.4a.7.7,0,0,1-.49.2.68.68,0,0,1-.49-.2l-13.4-13.4a.69.69,0,0,1,0-1l13.39-13.4a.71.71,0,0,1,1,0l13.4,13.4A.7.7,0,0,1,423.52,186Zm-.45.24a.35.35,0,0,0,.1-.24h0a.35.35,0,0,0-.1-.24l-13.4-13.4a.34.34,0,0,0-.49,0l-13.39,13.4a.33.33,0,0,0,0,.48l13.4,13.4a.34.34,0,0,0,.48,0Z"/></g><g id="hlavnacesta-2" data-name="hlavnacesta"><path class="cls-30" d="M408.94,402.92c0-.52,1.79-.55,1.79,0v67.95h-1.79Z"/><polygon class="cls-30" points="414.2 472.14 410.94 472.14 410.94 470.05 411.54 470.05 414.2 471.81 414.2 472.14"/><polygon class="cls-30" points="405.48 472.14 408.74 472.14 408.74 470.05 408.14 470.05 405.48 471.81 405.48 472.14"/><path class="cls-31" d="M411.21,469l-.22-.21h-2.31l-.21.21h0v3.11h2.74V469Z"/><rect class="cls-32" x="398.95" y="405.93" width="21.57" height="21.57" rx="1.08" ry="1.08" transform="translate(-174.66 411.78) rotate(-45)"/><rect class="cls-33" x="403.24" y="410.22" width="12.99" height="12.99" rx="1.1" ry="1.1" transform="translate(-174.66 411.78) rotate(-45)"/><path class="cls-34" d="M409.73,430.82a.67.67,0,0,1-.49-.21l-13.4-13.39a.72.72,0,0,1-.2-.5.7.7,0,0,1,.2-.49l13.4-13.4a.69.69,0,0,1,1,0l13.4,13.4a.69.69,0,0,1,0,1l-13.4,13.4A.67.67,0,0,1,409.73,430.82Zm-.24-.46a.31.31,0,0,0,.24.1h0a.31.31,0,0,0,.24-.1l13.4-13.4a.33.33,0,0,0,0-.48L410,403.08a.34.34,0,0,0-.48,0l-13.4,13.4a.36.36,0,0,0,0,.49Z"/></g><path class="cls-30" d="M204.13,413.84c.51,0,.54,1.78,0,1.78H136.77v-1.78Z"/><polygon class="cls-30" points="135.51 419.05 135.51 415.82 137.58 415.82 137.58 416.42 135.84 419.05 135.51 419.05"/><polygon class="cls-30" points="135.51 410.41 135.51 413.64 137.58 413.64 137.58 413.05 135.84 410.41 135.51 410.41"/><path class="cls-31" d="M138.61,416.09l.21-.22v-2.28l-.21-.22h-3.1v2.72h3.1Z"/><polygon class="cls-6" points="204.39 399.33 204.39 430.13 177.71 414.73 204.39 399.33"/><path class="cls-35" d="M176.78,414l27.42-15.82a.87.87,0,0,1,1.31.75v31.66a.87.87,0,0,1-1.31.76l-27.42-15.83A.88.88,0,0,1,176.78,414Zm26-12.44L180.4,414.47a.3.3,0,0,0,0,.52l22.42,12.95a.3.3,0,0,0,.45-.26V401.79A.3.3,0,0,0,202.82,401.53Z"/><path class="cls-30" d="M190.4,197.36c0,.5-1.77.53-1.77,0V130h1.77Z"/><polygon class="cls-30" points="185.19 128.74 188.42 128.74 188.42 130.8 187.83 130.8 185.19 129.06 185.19 128.74"/><polygon class="cls-30" points="193.83 128.74 190.6 128.74 190.6 130.8 191.2 130.8 193.83 129.06 193.83 128.74"/><path class="cls-31" d="M188.16,131.83l.21.21h2.29l.21-.21h0v-3.09h-2.72v3.09Z"/><polygon class="cls-6" points="204.91 197.61 174.11 197.61 189.51 170.93 204.91 197.61"/><path class="cls-35" d="M190.27,170l15.83,27.42a.88.88,0,0,1-.76,1.31H173.68a.87.87,0,0,1-.75-1.31L188.75,170A.88.88,0,0,1,190.27,170Zm12.45,26-12.95-22.42a.3.3,0,0,0-.52,0L176.31,196a.3.3,0,0,0,.26.45h25.89A.3.3,0,0,0,202.72,196Z"/><path class="cls-6" d="M426.39,176h17.19a2.42,2.42,0,0,1,2.42,2.42v16.16a2.42,2.42,0,0,1-2.42,2.42H427.42a2.42,2.42,0,0,1-2.42-2.42V177.39A1.39,1.39,0,0,1,426.39,176Z" transform="translate(249 622) rotate(-90)"/><path class="cls-36" d="M444.55,186.14c-10.13,0-9.41-.72-9.41,9.41"/><line class="cls-37" x1="426.09" y1="186.14" x2="432.6" y2="186.14"/><line class="cls-37" x1="435.5" y1="177.45" x2="435.5" y2="183.97"/><path class="cls-6" d="M401.39,432h17.19a2.42,2.42,0,0,1,2.42,2.42v16.16a2.42,2.42,0,0,1-2.42,2.42H402.42a2.42,2.42,0,0,1-2.42-2.42V433.39A1.39,1.39,0,0,1,401.39,432Z" transform="translate(-32 853) rotate(-90)"/><path class="cls-36" d="M419.55,442.14c-10.13,0-9.41-.72-9.41,9.41"/><line class="cls-37" x1="401.09" y1="442.14" x2="407.6" y2="442.14"/><line class="cls-37" x1="410.5" y1="433.45" x2="410.5" y2="439.97"/><path class="cls-6" d="M156.39,405h17.19a2.42,2.42,0,0,1,2.42,2.42v16.16a2.42,2.42,0,0,1-2.42,2.42H157.42a2.42,2.42,0,0,1-2.42-2.42V406.39A1.39,1.39,0,0,1,156.39,405Z" transform="translate(-250 581) rotate(-90)"/><path class="cls-36" d="M174.55,415.14c-10.13,0-9.41-.72-9.41,9.41"/><line class="cls-37" x1="156.09" y1="415.14" x2="162.6" y2="415.14"/><line class="cls-37" x1="165.5" y1="406.45" x2="165.5" y2="412.97"/><path class="cls-6" d="M180.39,148h17.19a2.42,2.42,0,0,1,2.42,2.42v16.16a2.42,2.42,0,0,1-2.42,2.42H181.42a2.42,2.42,0,0,1-2.42-2.42V149.39A1.39,1.39,0,0,1,180.39,148Z" transform="translate(31 348) rotate(-90)"/><path class="cls-36" d="M198.55,158.14c-10.13,0-9.41-.72-9.41,9.41"/><line class="cls-37" x1="180.09" y1="158.14" x2="186.6" y2="158.14"/><line class="cls-37" x1="189.5" y1="149.45" x2="189.5" y2="155.97"/></g></svg>