<svg xmlns="http://www.w3.org/2000/svg" xmlns:xlink="http://www.w3.org/1999/xlink" viewBox="0 0 600 600"><defs><style>.cls-1,.cls-20,.cls-4,.cls-5,.cls-6{fill:none;}.cls-2{clip-path:url(#clip-path);}.cls-3{fill:#5a5a62;}.cls-4,.cls-5,.cls-6,.cls-9{stroke:#fff;}.cls-20,.cls-4,.cls-5,.cls-6,.cls-8,.cls-9{stroke-miterlimit:10;}.cls-4,.cls-5,.cls-6{stroke-width:4px;}.cls-4{stroke-dasharray:26.87 36.55;}.cls-6{stroke-linecap:round;}.cls-15,.cls-31,.cls-7{fill:#fff;}.cls-8{fill:#969696;stroke:#d1c6c6;stroke-width:3px;}.cls-12,.cls-9{fill:#93b258;}.cls-9{stroke-width:6px;}.cls-10{fill:#345130;}.cls-11{opacity:0.2;}.cls-13{fill:#d5d5d5;}.cls-14{fill:#fad1ca;}.cls-15{opacity:0.3;}.cls-16{fill:#a2e6df;}.cls-17{fill:#af3f00;}.cls-18{fill:#ffe165;}.cls-19{fill:#311505;}.cls-20{stroke:#d5d5d5;stroke-width:40px;}.cls-21{fill:#d05e26;}.cls-22{fill:#ba5e26;}.cls-23{fill:#c64400;}.cls-24{fill:#1c798d;}.cls-25{fill:#2d9499;}.cls-26{fill:#863a31;}.cls-27{fill:#ff8576;}.cls-28{fill:#35b37a;}.cls-29{fill:#4f5356;}.cls-30{fill:#6f767a;}.cls-31,.cls-32{fill-rule:evenodd;}.cls-32{fill:#00a2d2;}.cls-33{fill:#eaebeb;}</style><clipPath id="clip-path"><rect class="cls-1" width="600" height="600"/></clipPath></defs><title>kriz16</title><g id="kriz_3" data-name="kriz 3"><g class="cls-2"><rect class="cls-3" x="-29" y="-8" width="665" height="650"/><line class="cls-4" x1="301.25" y1="1.51" x2="301.25" y2="110.09"/><line class="cls-5" x1="301.25" y1="128.36" x2="301.25" y2="140.86"/><line class="cls-6" x1="346.86" y1="82.55" x2="346.86" y2="55.77"/><polygon class="cls-7" points="346.86 37.69 357.26 63.16 346.86 57.12 336.45 63.16 346.86 37.69"/><line class="cls-4" x1="600.49" y1="299.25" x2="491.91" y2="299.25"/><line class="cls-5" x1="473.64" y1="299.25" x2="461.14" y2="299.25"/><line class="cls-4" x1="302.75" y1="602.49" x2="302.75" y2="493.91"/><line class="cls-5" x1="302.75" y1="475.64" x2="302.75" y2="463.14"/><line class="cls-6" x1="257.14" y1="521.45" x2="257.14" y2="548.23"/><polygon class="cls-7" points="257.14 566.31 246.74 540.84 257.14 546.88 267.55 540.84 257.14 566.31"/><line class="cls-4" x1="-0.49" y1="300.75" x2="108.09" y2="300.75"/><line class="cls-5" x1="126.36" y1="300.75" x2="138.86" y2="300.75"/><line class="cls-6" x1="80.55" y1="255.14" x2="53.77" y2="255.14"/><polygon class="cls-7" points="35.69 255.14 61.16 244.74 55.12 255.14 61.16 265.55 35.69 255.14"/><path class="cls-8" d="M-129.49,397.09V735H208.43V439.59s-43.94,5.08-43.94-42.5Z"/><rect class="cls-9" x="-90.98" y="437.08" width="259.42" height="259.42" rx="8.95" ry="8.95"/><polygon class="cls-10" points="56.87 464.54 51.03 469.37 45.08 474 37.36 474.55 29.63 474.17 21.91 471.99 14.19 474.37 6.46 474.67 -1.27 472.37 -7.36 469.55 -12.16 464.54 -14.02 456.72 -8.48 450.16 -1.27 448.48 6.45 447.74 14.17 449.85 21.9 447.9 29.62 450.01 37.35 450.36 45.08 446.31 52.14 450.37 52.95 457.05 56.87 464.54"/><g class="cls-11"><polygon class="cls-12" points="-1.27 464.89 -4.93 464.42 -4.08 456.87 -1.27 455.16 6.45 457.44 14.17 457.53 21.9 454.21 29.62 458.14 37.35 456.7 45.08 457.93 50.35 456.79 46.06 464.34 45.08 464.11 37.36 462.97 29.63 467.39 21.91 467.76 14.19 467.67 6.45 465.68 -1.27 464.89"/></g><polygon class="cls-10" points="128.64 464.54 122.8 469.37 116.85 474 109.13 474.55 101.4 474.17 93.68 471.99 85.95 474.37 78.23 474.67 70.5 472.37 64.41 469.55 59.61 464.54 57.74 456.72 63.29 450.16 70.5 448.48 78.22 447.74 85.94 449.85 93.67 447.9 101.39 450.01 109.12 450.36 116.85 446.31 123.91 450.37 124.72 457.05 128.64 464.54"/><g class="cls-11"><polygon class="cls-12" points="70.5 464.89 66.84 464.42 67.69 456.87 70.5 455.16 78.22 457.44 85.94 457.53 93.67 454.21 101.39 458.14 109.12 456.7 116.85 457.93 122.12 456.79 117.83 464.34 116.85 464.11 109.13 462.97 101.4 467.39 93.68 467.76 85.95 467.67 78.22 465.68 70.5 464.89"/></g><polygon class="cls-10" points="137.98 523.63 130.28 524.74 130.59 532.77 131.14 540.5 130.76 548.22 128.58 555.95 130.96 563.67 131.26 571.4 128.96 579.13 130.46 587.03 137.98 589.17 145.8 587.31 151.78 585.91 154.41 579.13 153.67 571.4 155.78 563.68 153.83 555.96 155.94 548.23 156.29 540.5 152.25 532.77 151.98 525.84 145.47 519.72 137.98 523.63"/><g class="cls-11"><polygon class="cls-12" points="136.43 579.13 138.14 581.45 145.67 582.3 146.14 579.13 148.43 571.4 148.51 563.68 145.19 555.96 149.12 548.23 147.68 540.5 148.91 532.77 145.6 532.06 138.06 527.78 135.65 532.77 134.51 540.5 138.93 548.22 139.3 555.95 139.22 563.67 137.22 571.4 136.43 579.13"/></g><polygon class="cls-10" points="137.98 451.12 130.28 452.22 130.59 460.26 131.14 467.98 130.76 475.7 128.58 483.43 130.96 491.15 131.26 498.88 128.96 506.61 130.46 514.51 137.98 516.65 145.8 514.79 151.78 513.39 154.41 506.61 153.67 498.89 155.78 491.16 153.83 483.44 155.94 475.71 156.29 467.99 152.25 460.26 151.98 453.33 145.47 447.2 137.98 451.12"/><g class="cls-11"><polygon class="cls-12" points="136.43 506.61 138.14 508.93 145.67 509.79 146.14 506.61 148.43 498.89 148.51 491.16 145.19 483.44 149.12 475.71 147.68 467.99 148.91 460.26 145.6 459.55 138.06 455.26 135.65 460.26 134.51 467.98 138.93 475.7 139.3 483.43 139.22 491.15 137.22 498.89 136.43 506.61"/></g><polygon class="cls-10" points="137.98 594.66 130.28 595.76 130.59 603.8 131.14 611.52 130.76 619.24 128.58 626.97 130.96 634.69 131.26 642.42 128.96 650.15 130.46 658.05 137.98 660.19 145.8 658.33 151.78 656.93 154.41 650.15 153.67 642.43 155.78 634.7 153.83 626.98 155.94 619.25 156.29 611.52 152.25 603.8 151.98 596.87 145.47 590.74 137.98 594.66"/><g class="cls-11"><polygon class="cls-12" points="136.43 650.15 138.14 652.47 145.67 653.33 146.14 650.15 148.43 642.43 148.51 634.7 145.19 626.98 149.12 619.25 147.68 611.52 148.91 603.8 145.6 603.08 138.06 598.8 135.65 603.8 134.51 611.52 138.93 619.24 139.3 626.97 139.22 634.69 137.22 642.43 136.43 650.15"/></g><rect class="cls-7" x="12.93" y="487.92" width="17.94" height="17.19"/><rect class="cls-13" x="12.93" y="505.11" width="17.94" height="24.67"/><rect class="cls-7" x="38.35" y="487.92" width="17.94" height="17.19"/><rect class="cls-13" x="38.35" y="505.11" width="17.94" height="24.67"/><rect class="cls-14" x="66.76" y="487.92" width="41.87" height="41.87"/><polygon class="cls-15" points="108.62 529.78 66.76 529.78 66.76 529.78 88.19 508.85 108.62 529.78"/><polygon class="cls-15" points="108.62 487.92 66.76 487.92 66.76 487.92 88.19 508.85 108.62 487.92"/><path class="cls-7" d="M60.67,613c9.41,0,14.08,3.42,23.12,3.42a32.52,32.52,0,0,0,0-65c-9,0-12.14,4.41-23.12,4.41s-14.07-4.41-23.11-4.41a32.52,32.52,0,0,0,0,65C46.6,616.45,51.27,613,60.67,613Z"/><path class="cls-16" d="M14.44,583.93a23.14,23.14,0,0,1,23.12-23.12,20.92,20.92,0,0,1,7.35,1.55,44.73,44.73,0,0,0,31.53,0,20.88,20.88,0,0,1,7.35-1.55,23.12,23.12,0,1,1,0,46.23,35.16,35.16,0,0,1-9.07-1.41,54.66,54.66,0,0,0-14-2,54.64,54.64,0,0,0-14,2A35.16,35.16,0,0,1,37.56,607,23.14,23.14,0,0,1,14.44,583.93Z"/><path class="cls-7" d="M79.47,587.35s3.27-1.12,2.76-4.11-5.75,1.87-5.75,1.87-4.12-3-7.1-3.74c0,0-4.49-1.5-7.48-1.12L63,574.64c-3-1.5-9.34,6.73-9.34,6.73S42.46,587,43.58,591.83a2.88,2.88,0,0,0,.3.78c-1.63,1.44-3.19,3.06-2.53,3.57s2.85-.89,4.89-2.36c3.63.23,10-3,13.79-4.6,5.23-2.24,11.59-4.11,17.2-.38,0,0,.37,5.24,3,4.49S83.21,589.59,79.47,587.35Z"/><path class="cls-13" d="M31.62,562.3a1.13,1.13,0,0,1-1.12,1.13h0a1.13,1.13,0,0,1-1.12-1.13V549.6a1.13,1.13,0,0,1,1.12-1.13h0a1.13,1.13,0,0,1,1.12,1.13Z"/><path class="cls-13" d="M41.34,562.3a1.13,1.13,0,0,1-1.12,1.13h0a1.13,1.13,0,0,1-1.12-1.13V549.6a1.13,1.13,0,0,1,1.12-1.13h0a1.13,1.13,0,0,1,1.12,1.13Z"/><path class="cls-17" d="M188.62,495.77a1.87,1.87,0,0,1-1.87,1.87h0a1.87,1.87,0,0,1-1.87-1.87v-8.23a1.87,1.87,0,0,1,1.87-1.86h0a1.87,1.87,0,0,1,1.87,1.86Z"/><path class="cls-17" d="M196.09,486.8a1.87,1.87,0,0,1-1.87,1.87h0a1.87,1.87,0,0,1-1.86-1.87v-8.23a1.87,1.87,0,0,1,1.86-1.87h0a1.87,1.87,0,0,1,1.87,1.87Z"/><rect class="cls-18" x="181.89" y="484.18" width="17.94" height="5.23" rx="2.47" ry="2.47"/><circle class="cls-19" cx="190.36" cy="486.8" r="4.31"/><path class="cls-8" d="M395.57,166.71V-128H733.49V209.91H436.68S441.5,166.71,395.57,166.71Z"/><rect class="cls-9" x="434.07" y="-89.5" width="259.42" height="259.42" rx="8.95" ry="8.95"/><path class="cls-20" d="M531.26,168.42V80.21a10.47,10.47,0,0,1,10.47-10.47h31.4"/><polygon class="cls-10" points="488.42 80.54 482.84 82.78 477.13 84.43 471.33 83.21 465.94 81.41 461.22 78.31 457.49 74.14 454.82 69.22 453.64 63.76 451.73 57.85 453.5 51.99 457.97 47.8 462.25 44.06 466.6 39.7 472.62 38.91 478.68 38.55 484.43 40.55 489.59 43.71 492.26 49.19 497.08 53.29 496.96 59.47 497.95 65.46 495.92 71.18 491.43 75.23 488.42 80.54"/><g class="cls-11"><polygon class="cls-12" points="485.08 75.89 480.35 78.88 474.76 79.69 469.37 78.28 464.46 75.81 460.47 71.99 458.64 66.83 457.1 61.55 458.51 56.23 461.19 51.6 465.21 48.19 469.87 45.93 474.97 44.96 480.61 44.37 484.83 48.12 488.35 51.99 491.38 56.41 493.22 61.77 491.41 67.14 488.63 71.78 485.08 75.89"/></g><g class="cls-11"><polygon class="cls-12" points="480.87 70.01 475.97 72.77 470.53 71.26 466.16 67.92 464.55 62.68 465.16 57.27 468.77 53.16 473.84 51.2 479.41 51.63 483.55 55.44 485.82 60.58 484.28 65.92 480.87 70.01"/></g><polygon class="cls-10" points="487.25 16.87 482.69 20.35 477 21.06 471.09 22.62 465.95 19.33 459.83 17.96 457.32 12.21 455.05 7.08 452.5 1.82 454.04 -3.82 453.85 -9.9 457.15 -14.92 461.1 -19.59 466.51 -22.58 472.69 -22.41 478.37 -21.61 483.63 -19.74 488.43 -16.93 493.99 -14.1 495.7 -8.24 496.66 -2.55 496.31 3.14 496.19 9.25 493.07 14.53 487.25 16.87"/><g class="cls-11"><polygon class="cls-12" points="484.56 13.12 480.22 16.41 474.76 17.92 469.7 15.19 464.98 13.05 460.98 9.58 457.86 5.03 457 -0.5 457.68 -6.09 460.56 -10.92 464.2 -15.27 469.5 -17.28 474.98 -17.77 480.37 -16.97 484.64 -13.66 488.27 -10 492.17 -5.9 492.81 -0.28 490.54 4.81 488.08 9.33 484.56 13.12"/></g><g class="cls-11"><polygon class="cls-12" points="481.33 8.61 475.92 10.19 470.72 8.79 466.82 5.39 464.72 0.62 465.02 -4.85 468.98 -8.61 473.85 -10.78 479.27 -10.11 483.63 -6.67 485.18 -1.41 484.91 4.15 481.33 8.61"/></g><polygon class="cls-10" points="599.72 140.13 594.05 141.57 588.63 142.83 582.61 144.86 577.55 141.19 571.56 139.45 568.47 134.12 565.53 128.98 564.42 123.13 565.73 117.39 565.78 111.16 570.9 107.48 574.9 103.5 580.05 101.19 585.52 99.65 591.51 98.55 597.14 100.79 602.24 104 606.32 108.47 609.09 113.88 609.19 119.91 608.82 125.67 606.2 130.77 603.12 135.36 599.72 140.13"/><g class="cls-11"><polygon class="cls-12" points="597.21 136.42 591.98 138.38 586.5 139.7 581.52 136.91 575.8 136.02 572.17 131.61 571.25 126.08 568.7 120.9 570.01 115.32 573.75 111.12 576.92 106.48 582.49 105.56 587.66 104.17 592.68 106.07 597.18 108.53 602.2 111.26 604.6 116.44 604.42 122.07 603.4 127.39 600.2 131.69 597.21 136.42"/></g><g class="cls-11"><polygon class="cls-12" points="593.08 130.33 587.9 132.64 582.34 131.3 578.37 127.42 576.08 122.29 577.18 116.69 581.32 112.97 586.37 111.35 591.53 112.36 596.25 115.3 598.05 120.71 596.6 126.11 593.08 130.33"/></g><polygon class="cls-10" points="497.54 121.44 495.86 126.93 494.88 132.69 491.52 137.55 487.28 141.99 481.51 144.19 475.41 142.65 469.28 144.34 463.6 141.9 459.88 136.97 456.81 132.19 453.85 127.22 453.43 121.44 454.5 115.84 456.31 110.42 460.26 106.29 464.47 102.5 469.85 100.7 475.41 100.31 481.08 100.28 486.68 101.93 491.53 105.32 494.23 110.58 497.81 115.44 497.54 121.44"/><g class="cls-11"><polygon class="cls-12" points="493.84 121.44 491.1 126.54 490.05 132.08 485.29 135.05 480.9 138.35 475.41 139.61 470.25 137.33 464.82 136.02 460.97 131.94 458.49 126.94 458.99 121.44 459.13 116.16 460.76 110.8 464.62 106.59 470.27 105.64 475.41 103.69 480.85 104.72 485.21 107.96 490.18 110.72 491.5 116.22 493.84 121.44"/></g><g class="cls-11"><polygon class="cls-12" points="485.65 121.44 484.85 126.9 480.97 131.08 475.41 132.49 470.21 130.45 466.7 126.47 464.84 121.44 465.96 115.99 469.88 111.87 475.41 110.89 480.49 112.64 484.95 115.94 485.65 121.44"/></g><polygon class="cls-7" points="446.78 152.72 446.78 -2.03 443.79 -2.03 443.79 152.72 443.79 155.71 446.78 155.71 505.09 155.71 505.09 152.72 446.78 152.72"/><rect class="cls-7" x="554.44" y="152.72" width="51.58" height="2.99"/><rect class="cls-21" x="515.56" y="12.92" width="29.16" height="17.19"/><rect class="cls-22" x="515.56" y="30.12" width="29.16" height="17.19"/><circle class="cls-18" cx="506.78" cy="17.96" r="4.75"/><circle class="cls-10" cx="506.78" cy="27.68" r="3.56"/><rect class="cls-23" x="559.67" y="-28.94" width="99.43" height="58.31"/><rect class="cls-17" x="559.67" y="29.37" width="99.43" height="58.31"/><path class="cls-24" d="M412.39,96.28a1.87,1.87,0,0,1-1.87,1.87h0a1.87,1.87,0,0,1-1.87-1.87V88.06a1.87,1.87,0,0,1,1.87-1.87h0a1.86,1.86,0,0,1,1.87,1.87Z"/><path class="cls-24" d="M419.87,87.31A1.87,1.87,0,0,1,418,89.18h0a1.87,1.87,0,0,1-1.87-1.87V79.08A1.87,1.87,0,0,1,418,77.22h0a1.87,1.87,0,0,1,1.87,1.86Z"/><rect class="cls-17" x="405.66" y="84.69" width="17.94" height="5.23" rx="2.47" ry="2.47"/><circle class="cls-19" cx="414.14" cy="87.31" r="4.31"/><path class="cls-8" d="M-128.49,209.91V-128H209.43V168.07c-47.93,0-43.38,41.84-43.38,41.84Z"/><rect class="cls-9" x="-89.98" y="-89.5" width="259.42" height="259.42" rx="8.95" ry="8.95"/><polygon class="cls-10" points="148.54 120.93 149.07 126.61 144.96 131.06 143.82 136.51 140.84 141.26 135.36 143.16 131.1 146.51 126.16 149.35 120.51 149.85 115.36 146.8 110.14 145.97 104.8 144.44 101.64 139.8 96.91 136.7 93.5 132.12 92.33 126.54 92.66 120.93 92.84 115.43 95.07 110.39 96.86 105.13 101.83 102.25 105.84 98.98 109.53 94.42 115.37 95.09 120.51 92.06 126.16 92.54 131.41 94.63 135.93 97.86 139.19 102.25 143.89 105.31 145.34 110.65 147.89 115.49 148.54 120.93"/><g class="cls-11"><polygon class="cls-12" points="139.7 120.93 137.83 126.56 136.74 132.72 132 136.75 126.47 139.27 120.51 140.22 114.37 139.84 109.52 136.06 104.75 132.39 102.33 126.84 100.28 120.93 102.2 114.98 104.06 108.98 109.53 105.81 114.8 103.36 120.51 100.8 126.42 102.75 131.45 105.88 136.56 109.27 138.15 115.2 139.7 120.93"/></g><g class="cls-11"><polygon class="cls-12" points="130.13 120.93 128.74 125.68 125.34 129.31 120.51 130.49 116.05 128.66 112.74 125.42 111.21 120.93 112.12 116.09 115.91 112.96 120.51 111.84 125.14 112.92 128.13 116.54 130.13 120.93"/></g><polygon class="cls-10" points="77.2 119.44 74 124.98 73.21 130.93 68.54 134.67 64.67 139.11 58.85 140.14 53.31 140.77 47.31 141.8 41.52 139.84 36.32 136.42 32.66 131.36 31.85 125.19 31.45 119.44 32.05 113.74 34.4 108.52 37.48 103.6 42.43 100.59 47.69 98.49 53.31 95.76 59.1 97.81 64.88 99.39 70.05 102.69 72.31 108.46 75.28 113.55 77.2 119.44"/><g class="cls-11"><polygon class="cls-12" points="67.77 119.44 66.71 124.98 63.74 129.87 59.12 133.47 53.31 133.94 47.42 133.64 41.98 130.75 39.69 125.07 38.86 119.44 38.35 113.24 41.9 108.03 47.63 105.72 53.31 103.89 59.03 105.62 64.31 108.43 67.91 113.39 67.77 119.44"/></g><g class="cls-11"><polygon class="cls-12" points="60.42 119.44 58.19 124.31 53.31 126.75 48.12 124.62 46.47 119.44 48.44 114.57 53.31 112 58.62 114.12 60.42 119.44"/></g><polygon class="cls-10" points="43.53 58.15 39.4 61.78 34.91 64.7 30.4 67.76 25.02 68.6 19.64 69.41 14.57 67.26 9.71 65.51 4.02 64.58 1.67 59.19 -2.18 55.6 -3.74 50.58 -7.78 46.06 -5.41 40.51 -5.09 35.33 -2.73 30.71 -2.4 24.69 1.18 20.32 5.73 16.95 11.26 15.67 16.63 15.18 21.88 14.43 26.92 16.14 32.52 16.18 36.53 19.94 40.94 22.98 44.14 27.3 46.43 32.15 46.67 37.51 48.66 42.7 46.89 47.88 44.8 52.69 43.53 58.15"/><g class="cls-11"><polygon class="cls-12" points="37.9 54.05 34.64 58.74 29.41 61.04 24.04 62.37 18.4 63.9 12.91 62 8.38 58.58 4.59 54.65 0.6 50.52 -0.39 44.9 -0.25 39.34 1.82 34.27 3.31 28.85 6.93 24.44 11.82 21.4 17.61 21.45 22.91 21.48 28.47 21.6 33.73 23.78 37.87 27.77 39.73 33.16 42.66 38.13 40.93 43.72 41.27 49.47 37.9 54.05"/></g><g class="cls-11"><polygon class="cls-12" points="26.62 45.83 21.92 48.89 16.11 47.97 13.13 42.77 14.28 36.84 19.6 34.08 25.27 35.41 27.9 40.45 26.62 45.83"/></g><polygon class="cls-10" points="103.05 -0.18 101.91 5.63 100.44 11.5 95.43 15.03 91.95 20.14 86 21.41 80.22 23.2 74.36 21.69 68.41 20.28 64.83 15.21 59.55 11.75 59.37 5.41 58.37 -0.18 58.15 -6.09 59.65 -12.06 63.29 -17.11 68.81 -19.94 74.3 -22.29 80.22 -21.88 85.97 -21.64 91.06 -18.96 96.59 -16.55 98.82 -10.92 101.32 -5.84 103.05 -0.18"/><g class="cls-11"><polygon class="cls-12" points="98.25 -0.18 97.83 5.54 95.29 10.77 90.19 13.54 85.75 16.84 80.22 17.44 75.05 15.72 70.14 13.69 65.15 10.77 64.05 5.07 62.98 -0.18 63.24 -5.7 66.34 -10.27 70.46 -13.62 74.92 -16.48 80.22 -18.09 85.4 -16.12 90.29 -14.05 93.74 -10 96.75 -5.55 98.25 -0.18"/></g><g class="cls-11"><polygon class="cls-12" points="90.67 -0.18 89.55 5.2 85.25 8.54 80.22 10.61 75 8.86 71.38 4.92 70.02 -0.18 71.19 -5.39 74.76 -9.64 80.22 -11.1 85.72 -9.71 89.37 -5.47 90.67 -0.18"/></g><polygon class="cls-10" points="132.94 61.52 135.85 67.56 132.91 72.97 132.01 79.02 128.43 83.87 124.62 88.47 119.73 91.9 114.51 94.57 109.28 97.28 103.42 97.88 97.66 97.22 92.06 96.9 86.18 96.85 81.68 92.89 75.36 92.21 70.64 88.54 67.12 83.7 64.42 78.45 63.83 72.51 59.9 67.5 63.08 61.52 62.98 56.02 64.5 50.74 66.2 45.49 66.54 38.9 70.83 34.68 77.33 33.53 80.94 28.69 86.61 27.52 91.88 25.01 97.66 25.07 103.36 25.57 109.59 24.8 113.36 30.69 118.27 33.16 123.73 35.45 128.19 39.34 131.62 44.21 133.57 49.85 133.52 55.84 132.94 61.52"/><g class="cls-11"><polygon class="cls-12" points="127.35 61.52 124.08 66.77 124.83 72.77 120.41 76.72 117.54 81.4 112.64 83.93 108.62 87.98 103.34 90.07 97.66 89 91.8 91.02 87.13 86.94 82.34 84.44 76.8 82.38 73.85 77.43 71.9 72.19 70.09 67 67.63 61.52 68.3 55.68 71.28 50.59 73 45.04 78.33 42.19 81.96 38.02 86.63 34.89 92.08 33.42 97.66 32.79 103.14 33.98 108.3 35.84 113.97 37.11 118.14 41.03 122.29 45.06 123.46 50.83 124.98 56.08 127.35 61.52"/></g><g class="cls-11"><polygon class="cls-12" points="114.43 61.52 114.05 66.84 112.13 72.03 107.86 75.56 102.69 77 97.66 77.92 92.21 78.31 87.27 75.82 84 71.44 82.02 66.6 80.72 61.52 81.85 56.38 83.67 51.35 87.16 47.06 92.56 45.81 97.66 44.43 103.2 44.46 107.43 48.08 111.36 51.56 113.55 56.35 114.43 61.52"/></g><rect class="cls-17" x="-10.74" y="75.72" width="33.64" height="76.26"/><path class="cls-25" d="M186.63,41.7a1.87,1.87,0,0,1-1.87,1.87h0a1.87,1.87,0,0,1-1.87-1.87V33.48a1.87,1.87,0,0,1,1.87-1.87h0a1.87,1.87,0,0,1,1.87,1.87Z"/><path class="cls-25" d="M194.1,32.73a1.86,1.86,0,0,1-1.87,1.87h0a1.86,1.86,0,0,1-1.86-1.87V24.51a1.87,1.87,0,0,1,1.86-1.87h0a1.87,1.87,0,0,1,1.87,1.87Z"/><rect class="cls-10" x="179.9" y="30.12" width="17.94" height="5.23" rx="2.47" ry="2.47"/><circle class="cls-18" cx="188.37" cy="32.73" r="4.31"/><path class="cls-26" d="M168.31,187.86a1.87,1.87,0,0,0,1.87-1.87h0a1.87,1.87,0,0,0-1.87-1.87h-8.22a1.87,1.87,0,0,0-1.87,1.87h0a1.87,1.87,0,0,0,1.87,1.87Z"/><path class="cls-26" d="M159.34,195.34a1.87,1.87,0,0,0,1.87-1.87h0a1.87,1.87,0,0,0-1.87-1.87h-8.22a1.86,1.86,0,0,0-1.87,1.87h0a1.87,1.87,0,0,0,1.87,1.87Z"/><rect class="cls-27" x="156.72" y="181.13" width="5.23" height="17.94" rx="2.47" ry="2.47"/><path class="cls-18" d="M159.34,185.29a4.31,4.31,0,1,0,4.31,4.31A4.31,4.31,0,0,0,159.34,185.29Z"/><path class="cls-8" d="M394.82,442.55c-.32,13.95,0,292.45,0,292.45H732.74V397.09H438.29C438.29,442.5,394.82,442.55,394.82,442.55Z"/><rect class="cls-9" x="433.32" y="437.08" width="259.42" height="259.42" rx="8.95" ry="8.95"/><polygon class="cls-10" points="481.88 486.04 476.72 487.88 471.58 489.28 466.33 488.48 461.39 486.93 457.32 483.8 452.64 481 449.92 476.27 448.68 470.93 448.72 465.44 451.63 460.76 453.98 456.1 457.77 452.43 462.73 450.76 467.5 448.07 472.85 448.88 478.2 449.76 482.17 453.49 485.72 457.28 489.13 461.49 488.7 466.97 488.85 472.04 488.21 477.31 484.81 481.37 481.88 486.04"/><g class="cls-11"><polygon class="cls-12" points="477.6 480.07 472.75 482.5 467.29 482.66 462.49 480.25 458.68 476.67 456.72 471.87 455.01 466.47 458.32 461.89 461.36 457.44 466.48 455.69 471.89 454.69 476.72 457.34 480.68 460.89 482.72 465.79 483.86 471.22 481.51 476.29 477.6 480.07"/></g><g class="cls-11"><polygon class="cls-12" points="473.17 473.9 468.5 475.29 464.76 472.31 463.54 467.88 466.11 464.06 470.55 462.84 474.53 465.3 475.85 469.9 473.17 473.9"/></g><polygon class="cls-10" points="566.16 602.4 561.09 604.19 556.11 606.4 550.79 605.25 545.27 604.87 540.85 601.58 536.98 597.73 534.09 593.01 534.59 587.42 533.07 582.04 534.78 576.78 538.23 572.53 541.91 568.58 546.63 565.85 552.01 564.96 557.18 566.43 562.11 567.66 567.6 568.96 571.33 573.09 572.79 578.42 573.24 583.59 574.79 588.91 571.53 593.41 570.4 598.91 566.16 602.4"/><g class="cls-11"><polygon class="cls-12" points="561.77 596.27 557.36 599.7 551.8 599.11 546.94 596.91 542.33 593.89 541.12 588.51 540.86 583.33 542.19 578.13 545.97 574.25 550.71 571.24 556.36 571.39 561.02 574.25 565.82 577.04 568.32 582.15 568.28 587.84 566.48 593.22 561.77 596.27"/></g><g class="cls-11"><polygon class="cls-12" points="557.45 590.26 553 591.82 549.03 589.08 548.33 584.55 550.27 580.24 555.1 579.07 558.8 582.08 559.81 586.44 557.45 590.26"/></g><polygon class="cls-10" points="564.45 484.52 570.28 482.79 569.6 476.83 567.16 469.62 565.33 462.23 564.65 454.51 561.02 447.63 557.75 444.27 552.48 442.5 545.38 443.86 541.3 448.27 541.57 453.17 542.41 460.84 544.15 468.26 546.71 475.44 547.43 483.15 552.26 486.76 558.19 488.42 564.45 484.52"/><g class="cls-11"><polygon class="cls-12" points="555.7 449.15 553.93 448.07 547.1 449.43 547.11 451.6 547.72 459.33 549.75 466.66 553.97 473.37 553.53 481.41 556.71 483.19 563.65 482.06 562.19 478.94 562.86 470.84 560.38 463.64 559.03 456.16 555.7 449.15"/></g><polygon class="cls-10" points="602.58 513.43 606.16 508.57 602.17 504.13 595.95 499.75 590.09 494.89 584.93 489.12 577.99 485.65 573.32 484.86 568.05 486.62 563.16 491.93 562.42 497.87 565.5 501.73 570.75 507.36 576.55 512.3 582.85 516.59 588.04 522.33 594.04 522.44 599.75 520.22 602.58 513.43"/><g class="cls-11"><polygon class="cls-12" points="574.54 490.1 572.46 490.22 567.8 495.38 569.06 497.15 574.22 502.9 580.19 507.61 587.43 510.7 592 517.23 595.47 516.87 600.33 511.81 597.51 510.13 593.09 503.43 586.85 499.06 581.28 493.88 574.54 490.1"/></g><polygon class="cls-10" points="479.86 607.1 483.49 602.27 479.55 597.79 473.39 593.34 467.58 588.41 462.48 582.59 455.58 579.04 450.92 578.19 445.63 579.89 440.68 585.15 439.88 591.08 442.91 594.97 448.1 600.66 453.84 605.66 460.1 610.03 465.22 615.82 471.22 616.01 476.95 613.86 479.86 607.1"/><g class="cls-11"><polygon class="cls-12" points="452.08 583.44 450 583.54 445.29 588.65 446.52 590.44 451.62 596.24 457.54 601.01 464.74 604.2 469.24 610.77 472.7 610.46 477.62 605.45 474.83 603.73 470.48 596.99 464.29 592.55 458.78 587.31 452.08 583.44"/></g><path class="cls-20" d="M517.06,439.32c0,36.64,15,109.15,109.89,109.15"/><path class="cls-20" d="M435.57,551.41c50.83,0,90.46,71.08,90.46,71.08"/><polygon class="cls-10" points="552.8 533.13 553.65 539.2 550.41 544.33 546.8 548.91 541.86 551.93 537.08 555.78 531.01 556.89 525.46 553.83 519.12 553.72 515.41 548.73 510.87 544.76 508.54 539.15 508.18 533.13 509.19 527.28 511.24 521.71 514.38 516.5 519.04 512.4 525.34 511.98 531.01 509.7 537.19 510.07 542.85 512.63 546.28 517.86 551.31 521.41 552.51 527.37 552.8 533.13"/><g class="cls-11"><polygon class="cls-12" points="546.27 533.13 545.49 539.13 542.04 544.16 536.82 547.15 531.01 548.02 525.42 546.62 520.32 543.82 516.79 539.02 516.32 533.13 516.1 526.95 519.67 521.79 525.32 519.4 531.01 517.32 536.91 518.89 542.07 522.07 544.97 527.35 546.27 533.13"/></g><g class="cls-11"><polygon class="cls-12" points="538.28 533.13 536.13 538.25 531.01 540.28 525.94 538.2 524.21 533.13 526.21 528.32 531.01 525.67 535.94 528.2 538.28 533.13"/></g><polygon class="cls-10" points="581.25 557.05 580.81 562.98 579.47 569.06 573.95 572.33 570.15 576.94 564.37 578.32 558.67 579.5 552.73 579.25 547.44 576.51 542.16 573.56 538.6 568.64 535.45 563.27 535.62 557.05 535.78 550.92 537.91 545.07 543.19 541.57 546.87 536.61 552.87 535.41 558.67 534.43 564.22 536.35 569.57 538.18 574.29 541.44 578.82 545.42 581.44 550.95 581.25 557.05"/><g class="cls-11"><polygon class="cls-12" points="576.95 557.05 575.85 562.63 572.9 567.39 568.95 571.19 564.28 574.32 558.67 575.19 553.17 573.99 548.9 570.5 544.88 567.07 542.25 562.39 541.63 557.05 541.14 551.35 544.89 547.03 547.91 542.23 553.06 539.78 558.67 539.82 564.3 539.75 568.57 543.43 573.74 546.11 575.85 551.47 576.95 557.05"/></g><g class="cls-11"><polygon class="cls-12" points="569.95 557.05 567.65 562.23 564.02 566.31 558.67 568.09 553.52 565.98 549.72 562.22 547.84 557.05 549.95 552.02 553.63 548.32 558.67 546.55 564.2 547.48 567.77 551.8 569.95 557.05"/></g><polygon class="cls-10" points="508.33 565.84 504.19 568.86 499.13 569.6 493.85 570.86 488.9 568.74 484.8 565.51 479.79 562.86 478.4 557.45 477.05 552.35 478.01 547.19 479.54 542.35 481.08 537.13 485.44 533.93 489.74 530.51 495.31 531.04 500.54 530.21 505.94 531.07 509.63 535.22 513.58 538.62 516.41 543.12 517.95 548.3 516.72 553.57 515.82 558.77 512.58 562.95 508.33 565.84"/><g class="cls-11"><polygon class="cls-12" points="505.37 561.71 500.44 564.15 494.95 564.18 489.66 562.53 486.07 558.36 483.77 553.5 483.06 548.03 484.89 542.7 489.38 539.43 494.2 537.42 499.45 536.8 504.61 538.47 508.03 542.6 510.46 547.26 511.34 552.68 508.43 557.32 505.37 561.71"/></g><g class="cls-11"><polygon class="cls-12" points="500.91 555.5 496.16 556.78 491.99 554.11 490.94 549.32 493.57 545.27 498.2 544.41 501.92 546.99 503.58 551.4 500.91 555.5"/></g><polygon class="cls-10" points="510.19 492.34 506.26 496.35 500.69 496.24 495.49 495.93 490.13 495.32 485.3 492.71 482.17 488.21 479.35 483.64 479.12 478.29 479.16 473.12 479.4 467.61 483.12 463.56 486.54 459.37 491.18 456.35 496.83 457.28 502 456.36 506.95 458.14 512.25 459.83 515.88 464.04 517.83 469.14 518.58 474.38 517.69 479.47 516.35 484.32 514.08 488.94 510.19 492.34"/><g class="cls-11"><polygon class="cls-12" points="506.85 487.68 502.04 490.56 496.39 490.45 491.05 488.69 487.98 484.05 485.07 479.53 484.92 474.07 487.42 469.33 490.68 465.14 495.49 462.55 500.86 463.31 505.79 464.96 509.7 468.46 512.61 473.1 512.19 478.56 511 483.98 506.85 487.68"/></g><g class="cls-11"><polygon class="cls-12" points="502.39 481.47 497.73 482.35 493.99 479.74 492.81 475.37 495.12 471.33 499.72 470.22 503.51 472.91 504.59 477.31 502.39 481.47"/></g><polygon class="cls-10" points="489.87 532.09 484.77 533.93 479.7 535.17 474.79 537.44 469.59 535.43 464.06 536.98 459.89 533.07 454.24 532.49 451.3 527.78 446.21 525.18 445.11 519.65 441.95 515.2 441.24 509.87 441.69 504.56 442.17 499.28 444.04 494.31 446.82 489.8 450.93 486.49 454.17 482.32 458.97 480.21 463.79 478.4 468.85 477.44 473.93 478.25 479.6 476.18 483.74 480.39 488.37 482.54 492.45 485.68 497.07 488.69 499.02 493.75 500.11 498.9 503.31 503.73 501.81 509.13 501.64 514.49 499.87 519.57 495.36 522.97 492.64 527.25 489.87 532.09"/><g class="cls-11"><polygon class="cls-12" points="484.07 524.01 478.83 525.6 473.91 528.58 468.43 527.08 463.08 526.03 458.44 523.09 455.38 518.6 452.55 514.09 450.52 508.95 450.99 503.43 452.36 498.07 455.29 493.35 459.04 489.11 464.2 486.78 469.79 486.9 475.24 485.73 480.28 488.02 484.81 490.93 488.81 494.62 491.11 499.55 493.41 504.7 492.97 510.34 490.72 515.43 488.01 520.17 484.07 524.01"/></g><g class="cls-11"><polygon class="cls-12" points="477.35 514.64 472.65 515.83 467.9 515.37 464.7 511.91 463.21 507.69 463.72 503.21 466.72 499.82 470.83 497.41 475.4 498.81 479.53 501.28 481.25 505.91 479.7 510.44 477.35 514.64"/></g><path class="cls-17" d="M457.59,555.75a1.88,1.88,0,0,1-.7-2.55h0a1.87,1.87,0,0,1,2.54-.71l7.16,4a1.87,1.87,0,0,1,.71,2.55h0a1.87,1.87,0,0,1-2.55.7Z"/><path class="cls-17" d="M461.73,566.67a1.87,1.87,0,0,1-.71-2.55h0a1.88,1.88,0,0,1,2.55-.7l7.16,4a1.87,1.87,0,0,1,.7,2.55h0a1.87,1.87,0,0,1-2.54.71Z"/><path class="cls-28" d="M459.76,569.85a2.45,2.45,0,0,1-.93-3.36l6.39-11.32a2.47,2.47,0,0,1,3.37-.94l.25.15a2.46,2.46,0,0,1,.94,3.36l-6.4,11.32A2.47,2.47,0,0,1,460,570Z"/><path class="cls-19" d="M466.67,557.93a4.31,4.31,0,1,1-5.88,1.63A4.31,4.31,0,0,1,466.67,557.93Z"/><path class="cls-26" d="M526.1,496.29a1.89,1.89,0,0,0,1.4-2.25l-1.86-8a1.89,1.89,0,0,0-2.25-1.4h0a1.89,1.89,0,0,0-1.4,2.25l1.86,8a1.89,1.89,0,0,0,2.25,1.4Z"/><path class="cls-26" d="M535.41,503.33a1.86,1.86,0,0,0,1.4-2.24l-1.86-8a1.88,1.88,0,0,0-2.25-1.4h0a1.87,1.87,0,0,0-1.39,2.25l1.86,8a1.86,1.86,0,0,0,2.24,1.39Z"/><rect class="cls-27" x="520.88" y="491.65" width="17.94" height="5.23" rx="2.47" ry="2.47" transform="translate(-97.57 131.8) rotate(-12.99)"/><path class="cls-18" d="M525.17,495.35a4.31,4.31,0,1,0,3.22-5.17A4.3,4.3,0,0,0,525.17,495.35Z"/><rect class="cls-1" x="2.96" y="0.96" width="598.08" height="598.08"/><circle class="cls-8" cx="300" cy="300" r="56"/><circle class="cls-9" cx="300" cy="300" r="24.66"/></g></g><g id="znaÄky"><path class="cls-29" d="M412.26,444.29c0-.57,2-.61,2,0V520h-2Z"/><polygon class="cls-29" points="418.12 521.4 414.48 521.4 414.48 519.08 415.15 519.08 418.12 521.04 418.12 521.4"/><polygon class="cls-29" points="408.4 521.4 412.03 521.4 412.03 519.08 411.37 519.08 408.4 521.04 408.4 521.4"/><path class="cls-30" d="M414.78,517.93l-.24-.24H412l-.24.24h0v3.47h3v-3.47Z"/><path class="cls-31" d="M413.59,475a16,16,0,1,1,16-16,16,16,0,0,1-16,16"/><path class="cls-32" d="M413.61,444.15l0,0a14.86,14.86,0,0,0,0,29.72h0a14.85,14.85,0,0,0,0-29.7"/><path class="cls-33" d="M407.37,463.87a7.71,7.71,0,0,1-1.75-5,6.88,6.88,0,0,1,.26-1.81L402,456a11.86,11.86,0,0,0-.4,3.14,11.72,11.72,0,0,0,3.63,8.34l-1.39,2.42,9.39-.29-4.46-8.23Z"/><path class="cls-33" d="M413.3,451.32a7.76,7.76,0,0,1,5.45,2.23l2.86-2.85a12,12,0,0,0-8.5-3.37,11.7,11.7,0,0,0-3.11.46l-1.36-2.42-4.49,8.15,9.41.37-1.46-2.47a8.09,8.09,0,0,1,1.2-.1"/><path class="cls-33" d="M422.59,453.67l-4.94,8.09h2.86a7.69,7.69,0,0,1-5.15,4.66l1,3.88a11.8,11.8,0,0,0,8.3-8.54h2.8Z"/><rect class="cls-1" x="397.6" y="443" width="31.98" height="31.98"/><path class="cls-29" d="M191.93,161.12c0,.57-2,.6-2,0V85.42h2Z"/><polygon class="cls-29" points="186.07 84 189.71 84 189.71 86.33 189.04 86.33 186.07 84.37 186.07 84"/><polygon class="cls-29" points="195.79 84 192.16 84 192.16 86.33 192.82 86.33 195.79 84.37 195.79 84"/><path class="cls-30" d="M189.41,87.48l.24.23h2.57l.24-.23h0V84H189.4v3.47Z"/><path class="cls-31" d="M190.59,130.43a16,16,0,1,1-16,16,16,16,0,0,1,16-16"/><path class="cls-32" d="M190.58,161.26v0a14.86,14.86,0,0,0,0-29.72h0a14.85,14.85,0,0,0,0,29.7"/><path class="cls-33" d="M196.82,141.54a7.71,7.71,0,0,1,1.75,5,6.5,6.5,0,0,1-.27,1.81l3.85,1a11.35,11.35,0,0,0,.41-3.13,11.76,11.76,0,0,0-3.63-8.34l1.38-2.42-9.38.29,4.46,8.23Z"/><path class="cls-33" d="M190.88,154.08a7.7,7.7,0,0,1-5.44-2.23l-2.86,2.86a12,12,0,0,0,8.5,3.37,12.19,12.19,0,0,0,3.11-.46l1.36,2.42,4.49-8.15-9.41-.37,1.45,2.47a8,8,0,0,1-1.2.09"/><path class="cls-33" d="M181.6,151.74l4.93-8.09h-2.85a7.69,7.69,0,0,1,5.15-4.66l-1-3.89a11.83,11.83,0,0,0-8.3,8.55h-2.8Z"/><rect class="cls-1" x="174.6" y="130.43" width="31.98" height="31.98"/><path class="cls-29" d="M442.68,191.54c-.57,0-.61-2,0-2h75.7v2Z"/><polygon class="cls-29" points="519.79 185.68 519.79 189.31 517.47 189.31 517.47 188.65 519.43 185.68 519.79 185.68"/><polygon class="cls-29" points="519.79 195.4 519.79 191.76 517.47 191.76 517.47 192.43 519.43 195.4 519.79 195.4"/><path class="cls-30" d="M516.32,189l-.24.24v2.57l.24.24h3.48V189h-3.48Z"/><path class="cls-31" d="M473.37,190.2a16,16,0,1,1-16-16,16,16,0,0,1,16,16"/><path class="cls-32" d="M442.54,190.19h0a14.86,14.86,0,0,0,29.72,0h0a14.85,14.85,0,0,0-29.7,0"/><path class="cls-33" d="M462.26,196.43a7.71,7.71,0,0,1-5,1.75,6.5,6.5,0,0,1-1.81-.27l-1.06,3.85a11.47,11.47,0,0,0,3.14.41,11.76,11.76,0,0,0,8.34-3.63l2.42,1.38-.29-9.38L459.76,195Z"/><path class="cls-33" d="M449.71,190.49a7.74,7.74,0,0,1,2.23-5.44l-2.85-2.86a12,12,0,0,0-3.37,8.5,11.7,11.7,0,0,0,.46,3.11l-2.42,1.36,8.15,4.49.37-9.41-2.47,1.45a8,8,0,0,1-.1-1.2"/><path class="cls-33" d="M452.06,181.21l8.09,4.93v-2.85a7.69,7.69,0,0,1,4.66,5.15l3.88-1a11.8,11.8,0,0,0-8.54-8.3v-2.8Z"/><rect class="cls-1" x="441.39" y="174.21" width="31.98" height="31.98"/><path class="cls-29" d="M156.51,414.87c.57,0,.6,2,0,2H80.81v-2Z"/><polygon class="cls-29" points="79.39 420.73 79.39 417.09 81.72 417.09 81.72 417.76 79.76 420.73 79.39 420.73"/><polygon class="cls-29" points="79.39 411.01 79.39 414.64 81.72 414.64 81.72 413.98 79.76 411.01 79.39 411.01"/><path class="cls-30" d="M82.87,417.39l.23-.24v-2.57l-.23-.24H79.39v3.05h3.48Z"/><path class="cls-31" d="M125.82,416.2a16,16,0,1,1,16,16,16,16,0,0,1-16-16"/><path class="cls-32" d="M156.65,416.22l0,0a14.86,14.86,0,0,0-29.72,0v0a14.85,14.85,0,0,0,29.7,0"/><path class="cls-33" d="M136.93,410a7.71,7.71,0,0,1,5-1.75,6.88,6.88,0,0,1,1.81.26l1.05-3.85a11.65,11.65,0,0,0-11.48,3.23l-2.41-1.39.29,9.39,8.23-4.46Z"/><path class="cls-33" d="M149.47,415.91a7.72,7.72,0,0,1-2.23,5.45l2.86,2.86A12,12,0,0,0,153,412.61l2.42-1.36-8.15-4.49-.37,9.41,2.47-1.46a8.08,8.08,0,0,1,.09,1.2"/><path class="cls-33" d="M147.13,425.2,139,420.26v2.86a7.69,7.69,0,0,1-4.66-5.15l-3.89,1a11.83,11.83,0,0,0,8.55,8.3v2.8Z"/><rect class="cls-1" x="125.82" y="400.21" width="31.98" height="31.98"/></g></svg>