<svg xmlns="http://www.w3.org/2000/svg" xmlns:xlink="http://www.w3.org/1999/xlink" viewBox="0 0 600 600"><defs><style>.cls-1,.cls-21,.cls-34,.cls-35,.cls-4,.cls-5,.cls-7,.cls-8{fill:none;}.cls-2{clip-path:url(#clip-path);}.cls-3{fill:#5a5a62;}.cls-10,.cls-4,.cls-5,.cls-7,.cls-8{stroke:#fff;}.cls-10,.cls-21,.cls-4,.cls-5,.cls-7,.cls-8,.cls-9{stroke-miterlimit:10;}.cls-4,.cls-5,.cls-7,.cls-8{stroke-width:4px;}.cls-5{stroke-dasharray:26.87 36.55;}.cls-16,.cls-6{fill:#fff;}.cls-7{stroke-linecap:round;}.cls-8{stroke-dasharray:23.98 32.61;}.cls-9{fill:#969696;stroke:#d1c6c6;stroke-width:3px;}.cls-10,.cls-13{fill:#93b258;}.cls-10{stroke-width:6px;}.cls-11{fill:#345130;}.cls-12{opacity:0.2;}.cls-14{fill:#d5d5d5;}.cls-15{fill:#fad1ca;}.cls-16{opacity:0.3;}.cls-17{fill:#a2e6df;}.cls-18{fill:#af3f00;}.cls-19{fill:#ffe165;}.cls-20{fill:#311505;}.cls-21{stroke:#d5d5d5;stroke-width:40px;}.cls-22{fill:#ba5e26;}.cls-23{fill:#1c798d;}.cls-24{fill:#2d9499;}.cls-25{fill:#863a31;}.cls-26{fill:#ff8576;}.cls-27{fill:#35b37a;}.cls-28{fill:#4f5356;}.cls-29{fill:#6f767a;}.cls-30{fill:#d03123;}.cls-31{fill:#f5f5f5;}.cls-32{fill:#f7c035;}.cls-33{fill:#383310;}.cls-34,.cls-35{stroke:#000;stroke-linejoin:round;}.cls-34{stroke-width:3.4px;}.cls-35{stroke-width:1.98px;}</style><clipPath id="clip-path"><rect class="cls-1" width="600" height="600"/></clipPath></defs><title>kriz11</title><g id="kriz_1" data-name="kriz 1"><g class="cls-2"><rect class="cls-3" x="-64" y="-26" width="756" height="663"/><line class="cls-4" x1="600.53" y1="299.25" x2="588.03" y2="299.25"/><line class="cls-5" x1="551.49" y1="299.25" x2="442.91" y2="299.25"/><line class="cls-4" x1="424.64" y1="299.25" x2="412.14" y2="299.25"/><rect class="cls-6" x="397.19" y="215.52" width="5.23" height="79.99"/><polygon class="cls-7" points="417.37 266.73 417.37 244.3 439.8 255.52 417.37 266.73"/><line class="cls-7" x1="469.69" y1="344.14" x2="496.47" y2="344.14"/><polygon class="cls-6" points="514.55 344.14 489.08 354.55 495.12 344.14 489.08 333.74 514.55 344.14"/><path class="cls-4" d="M299.75,600.53s0-4.6,0-12.49"/><path class="cls-8" d="M299.82,555.43c.07-51.24.18-132.17.18-166.43,0-58-30-89-95-89-46.66,0-132.48.52-177.19.81"/><path class="cls-4" d="M11.5,300.91-1,301"/><rect class="cls-9" x="-132.49" y="390.09" width="337.91" height="337.91"/><rect class="cls-10" x="-93.98" y="430.08" width="259.42" height="259.42" rx="8.95" ry="8.95"/><polygon class="cls-11" points="53.87 457.54 48.03 462.37 42.08 467 34.36 467.55 26.63 467.17 18.91 464.99 11.19 467.37 3.46 467.67 -4.27 465.37 -10.36 462.55 -15.16 457.54 -17.02 449.72 -11.48 443.16 -4.27 441.48 3.45 440.74 11.17 442.85 18.9 440.9 26.62 443.01 34.35 443.36 42.08 439.31 49.14 443.37 49.95 450.05 53.87 457.54"/><g class="cls-12"><polygon class="cls-13" points="-4.27 457.89 -7.93 457.42 -7.08 449.87 -4.27 448.16 3.45 450.44 11.17 450.53 18.9 447.21 26.62 451.14 34.35 449.7 42.08 450.93 47.35 449.79 43.06 457.34 42.08 457.11 34.36 455.97 26.63 460.39 18.91 460.76 11.19 460.67 3.45 458.68 -4.27 457.89"/></g><polygon class="cls-11" points="125.64 457.54 119.8 462.37 113.85 467 106.13 467.55 98.4 467.17 90.68 464.99 82.95 467.37 75.23 467.67 67.5 465.37 61.41 462.55 56.61 457.54 54.74 449.72 60.29 443.16 67.5 441.48 75.22 440.74 82.94 442.85 90.67 440.9 98.39 443.01 106.12 443.36 113.85 439.31 120.91 443.37 121.72 450.05 125.64 457.54"/><g class="cls-12"><polygon class="cls-13" points="67.5 457.89 63.84 457.42 64.69 449.87 67.5 448.16 75.22 450.44 82.94 450.53 90.67 447.21 98.39 451.14 106.12 449.7 113.85 450.93 119.12 449.79 114.83 457.34 113.85 457.11 106.13 455.97 98.4 460.39 90.68 460.76 82.95 460.67 75.22 458.68 67.5 457.89"/></g><polygon class="cls-11" points="134.98 516.63 127.28 517.74 127.59 525.77 128.14 533.5 127.76 541.22 125.58 548.95 127.96 556.67 128.26 564.4 125.96 572.13 127.46 580.03 134.98 582.17 142.8 580.31 148.78 578.91 151.41 572.13 150.67 564.4 152.78 556.68 150.83 548.96 152.94 541.23 153.29 533.5 149.25 525.77 148.98 518.84 142.47 512.72 134.98 516.63"/><g class="cls-12"><polygon class="cls-13" points="133.43 572.13 135.14 574.45 142.67 575.3 143.14 572.13 145.43 564.4 145.51 556.68 142.19 548.96 146.12 541.23 144.68 533.5 145.91 525.77 142.6 525.06 135.06 520.78 132.65 525.77 131.51 533.5 135.93 541.22 136.3 548.95 136.22 556.67 134.22 564.4 133.43 572.13"/></g><polygon class="cls-11" points="134.98 444.12 127.28 445.22 127.59 453.26 128.14 460.98 127.76 468.7 125.58 476.43 127.96 484.15 128.26 491.88 125.96 499.61 127.46 507.51 134.98 509.65 142.8 507.79 148.78 506.39 151.41 499.61 150.67 491.89 152.78 484.16 150.83 476.44 152.94 468.71 153.29 460.99 149.25 453.26 148.98 446.33 142.47 440.2 134.98 444.12"/><g class="cls-12"><polygon class="cls-13" points="133.43 499.61 135.14 501.93 142.67 502.79 143.14 499.61 145.43 491.89 145.51 484.16 142.19 476.44 146.12 468.71 144.68 460.99 145.91 453.26 142.6 452.55 135.06 448.26 132.65 453.26 131.51 460.98 135.93 468.7 136.3 476.43 136.22 484.15 134.22 491.89 133.43 499.61"/></g><polygon class="cls-11" points="134.98 587.66 127.28 588.76 127.59 596.8 128.14 604.52 127.76 612.24 125.58 619.97 127.96 627.69 128.26 635.42 125.96 643.15 127.46 651.05 134.98 653.19 142.8 651.33 148.78 649.93 151.41 643.15 150.67 635.43 152.78 627.7 150.83 619.98 152.94 612.25 153.29 604.52 149.25 596.8 148.98 589.87 142.47 583.74 134.98 587.66"/><g class="cls-12"><polygon class="cls-13" points="133.43 643.15 135.14 645.47 142.67 646.33 143.14 643.15 145.43 635.43 145.51 627.7 142.19 619.98 146.12 612.25 144.68 604.52 145.91 596.8 142.6 596.08 135.06 591.8 132.65 596.8 131.51 604.52 135.93 612.24 136.3 619.97 136.22 627.69 134.22 635.43 133.43 643.15"/></g><rect class="cls-6" x="9.93" y="480.92" width="17.94" height="17.19"/><rect class="cls-14" x="9.93" y="498.11" width="17.94" height="24.67"/><rect class="cls-6" x="35.35" y="480.92" width="17.94" height="17.19"/><rect class="cls-14" x="35.35" y="498.11" width="17.94" height="24.67"/><rect class="cls-15" x="63.76" y="480.92" width="41.87" height="41.87"/><polygon class="cls-16" points="105.62 522.78 63.76 522.78 63.76 522.78 85.19 501.85 105.62 522.78"/><polygon class="cls-16" points="105.62 480.92 63.76 480.92 63.76 480.92 85.19 501.85 105.62 480.92"/><path class="cls-6" d="M57.67,606c9.41,0,14.08,3.42,23.12,3.42a32.52,32.52,0,0,0,0-65c-9,0-12.14,4.41-23.12,4.41s-14.07-4.41-23.11-4.41a32.52,32.52,0,0,0,0,65C43.6,609.45,48.27,606,57.67,606Z"/><path class="cls-17" d="M11.44,576.93a23.14,23.14,0,0,1,23.12-23.12,20.92,20.92,0,0,1,7.35,1.55,44.73,44.73,0,0,0,31.53,0,20.88,20.88,0,0,1,7.35-1.55,23.12,23.12,0,1,1,0,46.23,35.16,35.16,0,0,1-9.07-1.41,54.66,54.66,0,0,0-14-2,54.64,54.64,0,0,0-14,2A35.16,35.16,0,0,1,34.56,600,23.14,23.14,0,0,1,11.44,576.93Z"/><path class="cls-6" d="M76.47,580.35s3.27-1.12,2.76-4.11-5.75,1.87-5.75,1.87-4.12-3-7.1-3.74c0,0-4.49-1.5-7.48-1.12L60,567.64c-3-1.5-9.34,6.73-9.34,6.73S39.46,580,40.58,584.83a2.88,2.88,0,0,0,.3.78c-1.63,1.44-3.19,3.06-2.53,3.57s2.85-.89,4.89-2.36c3.63.23,10-3,13.79-4.6,5.23-2.24,11.59-4.11,17.2-.38,0,0,.37,5.24,3,4.49S80.21,582.59,76.47,580.35Z"/><path class="cls-14" d="M28.62,555.3a1.13,1.13,0,0,1-1.12,1.13h0a1.13,1.13,0,0,1-1.12-1.13V542.6a1.13,1.13,0,0,1,1.12-1.13h0a1.13,1.13,0,0,1,1.12,1.13Z"/><path class="cls-14" d="M38.34,555.3a1.13,1.13,0,0,1-1.12,1.13h0a1.13,1.13,0,0,1-1.12-1.13V542.6a1.13,1.13,0,0,1,1.12-1.13h0a1.13,1.13,0,0,1,1.12,1.13Z"/><path class="cls-18" d="M185.62,488.77a1.87,1.87,0,0,1-1.87,1.87h0a1.87,1.87,0,0,1-1.87-1.87v-8.23a1.87,1.87,0,0,1,1.87-1.86h0a1.87,1.87,0,0,1,1.87,1.86Z"/><path class="cls-18" d="M193.09,479.8a1.87,1.87,0,0,1-1.87,1.87h0a1.87,1.87,0,0,1-1.86-1.87v-8.23a1.87,1.87,0,0,1,1.86-1.87h0a1.87,1.87,0,0,1,1.87,1.87Z"/><rect class="cls-19" x="178.89" y="477.18" width="17.94" height="5.23" rx="2.47" ry="2.47"/><circle class="cls-20" cx="187.36" cy="479.8" r="4.31"/><rect class="cls-9" x="-66" y="-128" width="798.49" height="337.91"/><rect class="cls-10" x="334.57" y="-147" width="316.92" height="316.92" rx="10.93" ry="10.93"/><path class="cls-21" d="M453.3,168.09V60.32a12.79,12.79,0,0,1,12.79-12.79h38.36"/><polygon class="cls-11" points="400.96 60.73 395.81 62.78 390.78 64.89 385.3 64.34 380.12 63.79 375.16 62.28 370.62 59.88 366.54 56.78 363.24 52.85 358.31 49.51 356.5 44.19 357.73 38.55 358.31 33.37 357.58 27.58 360.69 22.93 363.52 18.11 367.92 14.67 372.7 11.84 378.47 12.21 383.45 8.7 388.82 10.91 394.47 10.91 399.31 13.69 402.28 18.57 408.03 20.73 409.76 26.17 410.31 31.61 411.52 36.76 410.91 42.02 411.52 47.85 408.46 52.6 403.27 55.3 400.96 60.73"/><g class="cls-12"><polygon class="cls-13" points="396.88 55.04 392.2 58.32 386.59 59.59 380.94 58.76 375.57 57.22 370.69 54.41 367.51 49.79 364.09 45.33 363.46 39.74 363.95 34.3 365.96 29.31 368.82 24.88 372.53 21.09 376.57 16.84 382.39 17.24 387.71 17.67 393.14 18.39 398.63 20.33 401.7 25.26 403.94 30.3 406.33 35.5 405.52 41.14 404.17 46.6 400.42 50.79 396.88 55.04"/></g><g class="cls-12"><polygon class="cls-13" points="391.74 47.87 387.52 50.95 382.33 50.36 377.5 48.8 374.12 45.05 371.74 40.63 371.8 35.59 373.51 30.89 376.58 26.74 381.45 24.96 386.6 24.41 391.07 26.95 394.94 30.12 397.43 34.63 397.57 39.83 395.41 44.49 391.74 47.87"/></g><polygon class="cls-11" points="536.94 133.53 531.6 134.68 526.78 136.36 521.7 139.83 516.47 137.01 510.59 137.63 506.39 133.73 501.93 130.61 498.53 126.34 497.02 121.1 493.16 116.6 495.35 110.94 495.43 105.75 497.19 100.87 499.17 96.04 501.19 90.71 505.74 87.49 510.53 84.72 515.8 82.97 521.33 82.34 526.62 84.2 531.69 85.74 535.79 89.1 539.69 92.35 545.38 94.6 547.01 100.01 547.2 105.48 547.32 110.6 547.59 115.78 547.6 121.37 543.5 125.25 540.85 129.85 536.94 133.53"/><g class="cls-12"><polygon class="cls-13" points="533.87 129 528.55 131.05 523.11 132.95 517.74 130.42 511.71 130.99 507.1 127.42 504.84 122.07 500.26 118.14 499.38 112.36 501.24 106.87 501.57 101.09 506.18 97.5 509.64 93.24 514.95 91.83 520.07 90.76 525.72 88.88 531.23 90.74 535.38 94.75 539.04 98.89 540.68 104.13 542.78 109.23 541.27 114.56 539.74 119.61 538.56 125.52 533.87 129"/></g><g class="cls-12"><polygon class="cls-13" points="528.82 121.55 524.26 124.13 519 123.84 514.43 121.53 510.35 118.33 508.33 113.48 509.15 108.39 511.13 103.93 514.56 100.5 518.79 97.53 524.05 97.59 528.62 99.99 532.55 103.29 534.24 108.15 534.73 113.31 531.63 117.43 528.82 121.55"/></g><polygon class="cls-11" points="412.1 110.7 410.44 115.75 410.45 121.21 408.21 126.17 405.57 131.2 401.05 134.62 394.99 134.64 390.72 139.1 385.07 139.54 379.84 137.02 375.03 134.95 369.93 133.37 366.08 129.69 363.08 125.39 360.18 121.01 359.39 115.81 358.35 110.7 359.34 105.58 361.21 100.82 362.81 95.83 365.61 91.24 369.6 87.54 374.91 86.17 379.55 82.92 385.07 82.94 390.74 82.19 395.93 84.5 400.32 87.88 405.39 90.38 408.92 94.77 409.86 100.43 411.05 105.53 412.1 110.7"/><g class="cls-12"><polygon class="cls-13" points="407.58 110.7 404.54 115.92 404.22 121.75 399.59 125.22 395.93 129.5 390.82 132.14 385.07 131.1 379.38 131.96 374.17 129.59 369.7 126.07 367.69 120.73 364.88 116.11 362.95 110.7 363.4 104.89 367.49 100.55 369.73 95.36 374.33 92.1 379.8 91.03 385.07 88.41 390.42 90.74 395.56 92.54 399.25 96.52 403.52 100.05 405.92 105.11 407.58 110.7"/></g><g class="cls-12"><polygon class="cls-13" points="397.58 110.7 397.38 115.8 394.68 120.31 390.24 123.17 385.07 123.41 380.37 122.05 375.94 119.83 372.75 115.81 371.57 110.7 373.16 105.77 376.3 101.92 379.92 98.27 385.07 97.08 389.74 99.43 394.53 101.24 396.56 105.94 397.58 110.7"/></g><polygon class="cls-6" points="350.1 148.91 350.1 -40.14 346.44 -40.14 346.44 148.91 346.44 152.56 350.1 152.56 421.33 152.56 421.33 148.91 350.1 148.91"/><rect class="cls-6" x="481.61" y="148.91" width="164.39" height="3.65"/><rect class="cls-22" x="434.12" y="-0.87" width="35.62" height="21.01"/><circle class="cls-11" cx="423.4" cy="-3.85" r="4.35"/><rect class="cls-18" x="488.01" y="-1.78" width="121.47" height="71.24"/><path class="cls-23" d="M445.39,96.28a1.87,1.87,0,0,1-1.87,1.87h0a1.87,1.87,0,0,1-1.87-1.87V88.06a1.87,1.87,0,0,1,1.87-1.87h0a1.86,1.86,0,0,1,1.87,1.87Z"/><path class="cls-23" d="M452.87,87.31A1.87,1.87,0,0,1,451,89.18h0a1.87,1.87,0,0,1-1.87-1.87V79.08A1.87,1.87,0,0,1,451,77.22h0a1.87,1.87,0,0,1,1.87,1.86Z"/><rect class="cls-18" x="438.66" y="84.69" width="17.94" height="5.23" rx="2.47" ry="2.47"/><circle class="cls-20" cx="447.14" cy="87.31" r="4.31"/><rect class="cls-10" x="-93.98" y="-165" width="334.92" height="334.92" rx="11.56" ry="11.56"/><polygon class="cls-11" points="213.96 106.68 214.9 112.56 210.27 117.24 210.02 123.11 207.8 128.49 202.18 131.08 198.78 135.59 194.76 140.01 189.31 142.19 183.1 140.31 177.77 141.66 172.06 142.74 167.12 139.45 161.14 139.33 155.59 137.2 151.55 132.9 148.68 127.81 145.32 123.21 143.96 117.67 141.5 112.42 143.67 106.68 144.1 101.34 142.53 95.22 147.46 91.24 147.62 84.77 151.35 80.25 156.17 76.94 161.5 74.75 167.23 74.23 172.09 70.83 177.77 72 183.41 71.08 188.5 73.65 194.56 73.73 199.94 76.17 204.26 80.19 206.31 85.95 208.15 91.2 211.86 95.6 214.34 100.89 213.96 106.68"/><g class="cls-12"><polygon class="cls-13" points="202.55 106.68 200.69 111.91 201.1 117.91 197.5 122.41 193.29 126.13 188.58 129.12 183.48 131.69 177.77 130.81 172.17 131.21 167.06 128.91 161.49 127.1 158.34 122.17 154.11 118.07 154.25 112.05 153.93 106.68 152.42 100.89 155.53 95.97 159 91.7 161.81 86.66 167.38 85.1 172.18 82.17 177.77 80.58 183.06 83.54 188.68 84.03 193.84 86.53 196.51 91.73 200.14 95.91 203.1 100.9 202.55 106.68"/></g><g class="cls-12"><polygon class="cls-13" points="190.19 106.68 188.39 112.81 184.01 117.49 177.77 119.02 172.02 116.65 167.74 112.47 165.77 106.68 166.94 100.42 171.83 96.38 177.77 94.94 183.75 96.33 187.61 101 190.19 106.68"/></g><polygon class="cls-11" points="121.85 104.74 118.14 110.14 118.42 116.1 114.14 120.19 111.75 125.48 106.38 127.75 101.55 130.2 96.84 134.06 91.01 135.16 84.96 135.16 79.23 133.18 75.08 128.59 71.06 124.69 67.39 120.52 64.97 115.53 62.66 110.38 62.92 104.74 63.56 99.28 62.76 93.04 66.98 88.69 69.88 83.61 74.02 79.32 80.17 78.57 85.28 75.94 91.01 74.33 96.87 75.28 102.71 76.49 107.8 79.61 110.95 84.81 114.6 88.98 118.18 93.49 121.06 98.76 121.85 104.74"/><g class="cls-12"><polygon class="cls-13" points="109.68 104.74 109.1 109.59 107.51 114.27 104.87 118.6 100.37 120.96 96.15 123.92 91.01 125.41 86.08 123.12 81.68 120.89 76.24 119.51 72.97 115.15 72.5 109.7 70.94 104.74 72.37 99.75 73.6 94.69 76.58 90.32 80.56 86.64 86.16 86.64 91.01 84.64 95.89 86.53 100.95 87.53 104.26 91.49 107.18 95.41 110.57 99.5 109.68 104.74"/></g><g class="cls-12"><polygon class="cls-13" points="100.2 104.74 98.73 109.2 95.73 112.92 91.01 114.21 86.6 112.38 83.31 109.19 81.4 104.74 82.61 99.89 86.61 97.13 91.01 95.93 95.49 96.98 99 100.13 100.2 104.74"/></g><polygon class="cls-11" points="78.39 25.62 74.06 29.34 69.54 32.55 65.32 36.33 59.88 37.82 54.59 39.75 48.97 38.33 43.64 37.84 37.61 39.16 33.75 34.09 28.57 32.28 25.13 28.03 18.78 26.12 18.84 19.55 16.34 14.79 16 9.4 12 4.17 12.16 -1.66 13.6 -7.34 17.29 -11.99 21.13 -16.09 24.24 -20.62 29.19 -23.14 32.65 -27.99 38.37 -28.66 43.52 -30.75 49.06 -31.12 54.58 -30.63 59.51 -27.96 65.41 -27.87 69.43 -23.81 73.21 -19.91 77.29 -16.27 79.2 -11.12 83.14 -6.82 84.55 -1.36 82.53 4.26 82.36 9.55 83.71 15.54 81.83 21 78.39 25.62"/><g class="cls-12"><polygon class="cls-13" points="71.12 20.32 68.32 25.16 63.35 27.68 58.39 29.74 53.51 32.85 47.87 32.45 42.63 30.64 37.74 28.6 32.24 27.24 28.68 22.97 25.71 18.45 24.4 13.26 21.45 8.55 20.6 3.07 21.3 -2.47 25.14 -6.82 27.93 -11.13 30.28 -16.09 34.19 -20.04 39.23 -22.4 44.86 -22.23 50.17 -24.36 55.15 -21.22 60.91 -21.52 65.61 -18.57 69.24 -14.43 72.17 -9.93 75.23 -5.41 76.07 -0.03 76.88 5.35 74.73 10.43 72.97 15.3 71.12 20.32"/></g><g class="cls-12"><polygon class="cls-13" points="56.55 9.71 52.89 12.96 47.93 14.38 43.13 12.3 39.53 8.43 39.27 3.18 41.05 -1.58 45.23 -4.3 50.05 -5.52 55.02 -4.03 58.01 0.23 58.69 5.25 56.55 9.71"/></g><polygon class="cls-11" points="193.82 29.97 197.83 35.98 194.73 41.42 194.81 47.62 191.76 52.79 188.78 57.93 184.56 62.12 180.03 65.81 175.85 69.92 170.37 72.06 164.63 73.08 159.35 74.88 154.06 77.57 148.28 75.41 142.37 78.59 136.47 77.88 130.99 75.54 125.89 72.61 122.19 67.76 115.55 66.91 114.86 59.57 110.97 55.72 108.42 50.88 105.66 46.13 100.04 41.85 99.63 35.87 103.63 29.97 101.07 24.23 103.47 18.92 103.65 13.04 106.61 8.1 109.61 3.28 110.98 -3.07 118.67 -3.46 122.57 -7.28 126.16 -12.18 131 -15.59 136.5 -17.81 142.4 -18.42 148.28 -16.9 153.88 -16.12 159.73 -16.5 164.15 -11.89 170.56 -12.49 174.61 -8.19 178.35 -3.98 182.19 -0.07 186.38 3.67 191.24 7.42 193.67 12.75 195.77 18.26 194.9 24.3 193.82 29.97"/><g class="cls-12"><polygon class="cls-13" points="186.6 29.97 182.62 35.41 184.38 41.7 179.75 46 177.64 51.3 172.88 54.57 170.01 59.88 165.34 63.46 159.24 63.72 154.35 68.32 148.28 65.49 142.71 65.13 136.5 66.2 131.49 62.92 127.12 59.08 122.62 55.62 116.9 52.76 113.84 47.52 113.21 41.36 110.45 35.96 112.98 29.97 112.24 24.26 112.89 18.47 115.33 13.18 118.27 8.17 122.65 4.34 127.19 0.95 131.07 -3.8 136.72 -5.61 142.3 -7.8 148.28 -6.07 153.9 -5.55 159.19 -3.63 165.85 -4.53 170.08 -0.05 175.56 2.68 179.08 7.58 182.29 12.63 184.04 18.35 184.96 24.16 186.6 29.97"/></g><g class="cls-12"><polygon class="cls-13" points="169.93 29.97 169.76 35.72 168.27 41.51 164.12 45.81 158.78 48.17 153.76 50.43 148.28 52.75 142.37 52.02 137.37 48.85 133.26 44.98 129.32 40.91 127.55 35.52 125.95 29.97 125.99 24 129.81 19.31 132.68 14.37 136.7 9.92 142.72 9.24 148.28 8.1 153.86 9.14 159.88 9.88 163.16 15.09 168.17 18.48 168.93 24.43 169.93 29.97"/></g><rect class="cls-18" x="8.32" y="48.31" width="43.43" height="98.45"/><path class="cls-24" d="M290.63,144.7a1.87,1.87,0,0,1-1.87,1.87h0a1.87,1.87,0,0,1-1.87-1.87v-8.22a1.87,1.87,0,0,1,1.87-1.87h0a1.87,1.87,0,0,1,1.87,1.87Z"/><path class="cls-24" d="M298.1,135.73a1.86,1.86,0,0,1-1.87,1.87h0a1.86,1.86,0,0,1-1.86-1.87v-8.22a1.87,1.87,0,0,1,1.86-1.87h0a1.87,1.87,0,0,1,1.87,1.87Z"/><rect class="cls-11" x="283.9" y="133.12" width="17.94" height="5.23" rx="2.47" ry="2.47"/><circle class="cls-19" cx="292.37" cy="135.73" r="4.31"/><path class="cls-25" d="M164.31,187.86a1.87,1.87,0,0,0,1.87-1.87h0a1.87,1.87,0,0,0-1.87-1.87h-8.22a1.87,1.87,0,0,0-1.87,1.87h0a1.87,1.87,0,0,0,1.87,1.87Z"/><path class="cls-25" d="M155.34,195.34a1.87,1.87,0,0,0,1.87-1.87h0a1.87,1.87,0,0,0-1.87-1.87h-8.22a1.86,1.86,0,0,0-1.87,1.87h0a1.87,1.87,0,0,0,1.87,1.87Z"/><rect class="cls-26" x="152.72" y="181.13" width="5.23" height="17.94" rx="2.47" ry="2.47"/><path class="cls-19" d="M155.34,185.29a4.31,4.31,0,1,0,4.31,4.31A4.31,4.31,0,0,0,155.34,185.29Z"/><rect class="cls-9" x="393.82" y="390.09" width="337.91" height="337.91"/><rect class="cls-10" x="432.32" y="430.08" width="259.42" height="259.42" rx="8.95" ry="8.95"/><polygon class="cls-11" points="480.88 479.04 475.72 480.88 470.58 482.28 465.33 481.48 460.39 479.93 456.32 476.8 451.64 474 448.92 469.27 447.68 463.93 447.72 458.44 450.63 453.76 452.98 449.1 456.77 445.43 461.73 443.76 466.5 441.07 471.85 441.88 477.2 442.76 481.17 446.49 484.72 450.28 488.13 454.49 487.7 459.97 487.85 465.04 487.21 470.31 483.81 474.37 480.88 479.04"/><g class="cls-12"><polygon class="cls-13" points="476.6 473.07 471.75 475.5 466.29 475.66 461.49 473.25 457.68 469.67 455.72 464.87 454.01 459.47 457.32 454.89 460.36 450.44 465.48 448.69 470.89 447.69 475.72 450.34 479.68 453.89 481.72 458.79 482.86 464.22 480.51 469.29 476.6 473.07"/></g><g class="cls-12"><polygon class="cls-13" points="472.17 466.9 467.5 468.29 463.76 465.31 462.54 460.88 465.11 457.06 469.55 455.84 473.53 458.3 474.85 462.9 472.17 466.9"/></g><polygon class="cls-11" points="565.16 595.4 560.09 597.19 555.11 599.4 549.79 598.25 544.27 597.87 539.85 594.58 535.98 590.73 533.09 586.01 533.59 580.42 532.07 575.04 533.78 569.78 537.23 565.53 540.91 561.58 545.63 558.85 551.01 557.96 556.18 559.43 561.11 560.66 566.6 561.96 570.33 566.09 571.79 571.42 572.24 576.59 573.79 581.91 570.53 586.41 569.4 591.91 565.16 595.4"/><g class="cls-12"><polygon class="cls-13" points="560.77 589.27 556.36 592.7 550.8 592.11 545.94 589.91 541.33 586.89 540.12 581.51 539.86 576.33 541.19 571.13 544.97 567.25 549.71 564.24 555.36 564.39 560.02 567.25 564.82 570.04 567.32 575.15 567.28 580.84 565.48 586.22 560.77 589.27"/></g><g class="cls-12"><polygon class="cls-13" points="556.45 583.26 552 584.82 548.03 582.08 547.33 577.55 549.27 573.24 554.1 572.07 557.8 575.08 558.81 579.44 556.45 583.26"/></g><polygon class="cls-11" points="563.45 477.52 569.28 475.79 568.6 469.83 566.16 462.62 564.33 455.23 563.65 447.51 560.02 440.63 556.75 437.27 551.48 435.5 544.38 436.86 540.3 441.27 540.57 446.17 541.41 453.84 543.15 461.26 545.71 468.44 546.43 476.15 551.26 479.76 557.19 481.42 563.45 477.52"/><g class="cls-12"><polygon class="cls-13" points="554.7 442.15 552.93 441.07 546.1 442.43 546.11 444.6 546.72 452.33 548.75 459.66 552.97 466.37 552.53 474.41 555.71 476.19 562.65 475.06 561.19 471.94 561.86 463.84 559.38 456.64 558.03 449.16 554.7 442.15"/></g><polygon class="cls-11" points="601.58 506.43 605.16 501.57 601.17 497.13 594.95 492.75 589.09 487.89 583.93 482.12 576.99 478.65 572.32 477.86 567.05 479.62 562.16 484.93 561.42 490.87 564.5 494.73 569.75 500.36 575.55 505.3 581.85 509.59 587.04 515.33 593.04 515.44 598.75 513.22 601.58 506.43"/><g class="cls-12"><polygon class="cls-13" points="573.54 483.1 571.46 483.22 566.8 488.38 568.06 490.15 573.22 495.9 579.19 500.61 586.43 503.7 591 510.23 594.47 509.87 599.33 504.81 596.51 503.13 592.09 496.43 585.85 492.06 580.28 486.88 573.54 483.1"/></g><polygon class="cls-11" points="478.86 600.1 482.49 595.27 478.55 590.79 472.39 586.34 466.58 581.41 461.48 575.59 454.58 572.04 449.92 571.19 444.63 572.89 439.68 578.15 438.88 584.08 441.91 587.97 447.1 593.66 452.84 598.66 459.1 603.03 464.22 608.82 470.22 609.01 475.95 606.86 478.86 600.1"/><g class="cls-12"><polygon class="cls-13" points="451.08 576.44 449 576.54 444.29 581.65 445.52 583.44 450.62 589.24 456.54 594.01 463.74 597.2 468.24 603.77 471.7 603.46 476.62 598.45 473.83 596.73 469.48 589.99 463.29 585.55 457.78 580.31 451.08 576.44"/></g><path class="cls-21" d="M516.06,432.32c0,36.64,15,109.15,109.89,109.15"/><path class="cls-21" d="M434.57,544.41c50.83,0,90.46,71.08,90.46,71.08"/><polygon class="cls-11" points="552.63 526.13 551.73 531.95 550.6 538.02 546.07 542.19 541.93 546.78 536.02 548.54 530.01 549.32 524.24 547.68 518.95 545.29 514.84 541.3 510.69 537.28 509.32 531.67 507.53 526.13 508.8 520.44 510.27 514.73 513.96 510.08 518.29 505.83 523.86 503.18 530.01 504.62 535.59 505.32 541.5 506.23 546.79 509.35 549.59 514.82 553.12 519.94 552.63 526.13"/><g class="cls-12"><polygon class="cls-13" points="546.06 526.13 544.11 531.97 540.9 537.02 535.61 539.64 530.01 541.98 524.3 539.92 518.53 537.61 516.16 531.87 514.6 526.13 515.53 520.13 518.95 515.07 523.78 511.08 530.01 511.22 536.13 511.35 540.34 515.8 543.78 520.43 546.06 526.13"/></g><g class="cls-12"><polygon class="cls-13" points="536.81 526.13 535.38 531.5 530.01 533.49 525.13 531.01 522.79 526.13 524.65 520.77 530.01 519.26 534.85 521.29 536.81 526.13"/></g><polygon class="cls-11" points="580.38 550.05 580.77 556.24 576.55 560.95 573.18 565.56 568.71 569.18 563.59 572.14 557.67 572.98 551.72 572.27 545.9 570.43 541.66 566.06 538.62 561.05 535.87 555.89 535.1 550.05 535.43 544.09 538.06 538.73 541.68 534.06 545.87 529.61 551.95 528.69 557.67 527.98 563.66 527.71 568.71 530.94 573.87 533.85 577.82 538.42 579.69 544.15 580.38 550.05"/><g class="cls-12"><polygon class="cls-13" points="576.13 550.05 575.3 555.78 571.55 560.13 567.41 563.46 563.19 567.04 557.67 568.45 552.42 566.22 546.88 564.91 543.26 560.53 540.22 555.72 539.13 550.05 540.67 544.53 542.63 539.12 547.2 535.64 552.46 534 557.67 532.01 563.31 532.69 567.46 536.57 572.39 539.36 573.84 544.8 576.13 550.05"/></g><g class="cls-12"><polygon class="cls-13" points="568.87 550.05 567.33 555.63 563.19 559.61 557.67 560.85 552.35 559.28 548.15 555.55 547.44 550.05 548.82 544.94 552.15 540.49 557.67 538.86 562.86 541.07 566.43 545 568.87 550.05"/></g><polygon class="cls-11" points="508.08 559.89 503.08 561.54 498.33 564.71 492.86 563.76 487.75 562.08 482.82 559.7 479.34 555.47 478.09 550.19 475.99 545.36 477.3 540.24 478.68 535.42 480.91 530.81 483.74 525.96 489.4 525.26 494.33 524.25 499.38 524.19 504.38 525.33 508.92 527.87 511.86 532.14 514.33 536.53 515.67 541.43 516.5 546.69 514.79 551.76 511.91 556.22 508.08 559.89"/><g class="cls-12"><polygon class="cls-13" points="504.86 555.4 499.36 556.79 493.88 557.59 488.68 555.5 484.29 551.91 482.14 546.65 481.73 540.97 483.65 535.55 488.28 532.28 493.02 529.68 498.45 529.81 503.58 531.51 507.17 535.5 509.24 540.31 509.56 545.55 508.46 550.96 504.86 555.4"/></g><g class="cls-12"><polygon class="cls-13" points="499.65 548.13 495.23 549.38 491.31 546.88 490.39 542.4 492.5 538.17 497.19 537.48 501.14 539.83 502.03 544.31 499.65 548.13"/></g><polygon class="cls-11" points="510.13 486.65 504.75 488.01 499.75 489.9 494.35 489.81 489.34 487.86 484.13 485.91 482.15 480.51 479.52 476.2 477.32 471.36 476.88 465.92 478.49 460.65 481.13 455.75 485.95 452.94 490.89 451.23 495.63 448.31 501.06 449.05 506.53 449.87 510.02 454.34 514.78 457.11 515.7 462.57 516.71 467.46 518.13 472.7 516.43 477.81 513.64 482.4 510.13 486.65"/><g class="cls-12"><polygon class="cls-13" points="506.3 481.31 500.95 483.18 495.5 482.81 490.64 480.73 485.73 477.94 484.86 472.35 483.87 467.06 485.31 461.64 489.09 457.32 494.54 455.74 500.05 455.16 505.31 457.12 508.42 461.67 511.2 466.19 512.16 471.72 509.2 476.48 506.3 481.31"/></g><g class="cls-12"><polygon class="cls-13" points="501.45 474.55 496.69 475.55 492.68 472.95 491.7 468.35 493.95 464.09 498.73 463.2 502.97 465.58 503.91 470.36 501.45 474.55"/></g><polygon class="cls-11" points="487.46 523.13 484.28 527.99 479.07 529.51 473.78 530.32 468.38 531.15 463.2 529.4 457.82 528.44 454.65 523.42 449.71 521.39 445.99 517.62 442.48 513.43 442.68 507.72 441.99 502.7 442.29 497.68 442.88 492.71 442.5 487.06 445.6 482.65 448.61 478.19 453.08 475.2 457.53 472.3 462.74 471.23 467.86 470.55 473.16 468.28 477.94 471.79 483.57 471.55 486.74 476.46 490.96 479.18 494.89 482.54 499.18 486.2 497.97 492.22 500.46 496.91 501.01 502.15 498.5 506.94 499.69 512.94 496.47 517.41 491.4 520.02 487.46 523.13"/><g class="cls-12"><polygon class="cls-13" points="483.06 516.99 478.15 519.46 472.89 521.34 467.48 519.81 462.27 518.61 457 516.64 454.27 511.68 450.35 507.54 449.55 501.95 451.26 496.64 451.46 491.11 454.85 486.81 458.22 482.37 463.86 481.54 468.82 480.29 474.31 478.31 479.68 480.13 484.49 483.1 487.87 487.58 489.99 492.6 491.89 497.76 491.76 503.3 490.68 508.86 487.34 513.44 483.06 516.99"/></g><g class="cls-12"><polygon class="cls-13" points="476.3 507.56 471.68 509.1 467.19 507.74 463.19 505.28 461.81 500.73 462.13 495.94 465.19 492.08 469.83 490.48 474.51 491.56 477.77 494.82 479.66 498.97 478.84 503.5 476.3 507.56"/></g><path class="cls-18" d="M456.59,548.75a1.88,1.88,0,0,1-.7-2.55h0a1.87,1.87,0,0,1,2.54-.71l7.16,4a1.87,1.87,0,0,1,.71,2.55h0a1.87,1.87,0,0,1-2.55.7Z"/><path class="cls-18" d="M460.73,559.67a1.87,1.87,0,0,1-.71-2.55h0a1.88,1.88,0,0,1,2.55-.7l7.16,4a1.87,1.87,0,0,1,.7,2.55h0a1.87,1.87,0,0,1-2.54.71Z"/><path class="cls-27" d="M458.76,562.85a2.45,2.45,0,0,1-.93-3.36l6.39-11.32a2.47,2.47,0,0,1,3.37-.94l.25.15a2.46,2.46,0,0,1,.94,3.36l-6.4,11.32A2.47,2.47,0,0,1,459,563Z"/><path class="cls-20" d="M465.67,550.93a4.31,4.31,0,1,1-5.88,1.63A4.31,4.31,0,0,1,465.67,550.93Z"/><path class="cls-25" d="M525.1,489.29a1.89,1.89,0,0,0,1.4-2.25l-1.86-8a1.89,1.89,0,0,0-2.25-1.4h0a1.89,1.89,0,0,0-1.4,2.25l1.86,8a1.89,1.89,0,0,0,2.25,1.4Z"/><path class="cls-25" d="M534.41,496.33a1.86,1.86,0,0,0,1.4-2.24l-1.86-8a1.88,1.88,0,0,0-2.25-1.4h0a1.87,1.87,0,0,0-1.39,2.25l1.86,8a1.86,1.86,0,0,0,2.24,1.39Z"/><path class="cls-26" d="M535.77,488.34a2.47,2.47,0,0,0,1.85-3l-.06-.29a2.48,2.48,0,0,0-3-1.85l-12.66,2.95a2.46,2.46,0,0,0-1.85,3l.06.29a2.47,2.47,0,0,0,3,1.84Z"/><path class="cls-19" d="M524.17,488.35a4.31,4.31,0,1,0,3.22-5.17A4.3,4.3,0,0,0,524.17,488.35Z"/><rect class="cls-1" x="0.96" y="0.96" width="598.08" height="598.08"/></g></g><g id="znaÄky"><path class="cls-28" d="M401.89,191.62c-.51,0-.54-1.77,0-1.77h67.36v1.77Z"/><polygon class="cls-28" points="470.51 186.41 470.51 189.64 468.44 189.64 468.44 189.05 470.18 186.41 470.51 186.41"/><polygon class="cls-28" points="470.51 195.05 470.51 191.82 468.44 191.82 468.44 192.42 470.18 195.05 470.51 195.05"/><path class="cls-29" d="M467.42,189.38l-.21.21v2.29l.21.21h3.09v-2.71Z"/><polygon class="cls-6" points="401.63 206.13 401.63 175.33 428.31 190.73 401.63 206.13"/><path class="cls-30" d="M429.24,191.49l-27.42,15.83a.87.87,0,0,1-1.31-.76V174.9a.87.87,0,0,1,1.31-.75L429.24,190A.88.88,0,0,1,429.24,191.49Zm-26,12.45L425.62,191a.3.3,0,0,0,0-.52L403.2,177.53a.3.3,0,0,0-.45.26v25.89A.3.3,0,0,0,403.2,203.94Z"/><g id="hlavnacesta"><path class="cls-28" d="M414.61,395.05c0-.51,1.79-.54,1.79,0V463h-1.79Z"/><polygon class="cls-28" points="419.87 464.27 416.61 464.27 416.61 462.19 417.21 462.19 419.87 463.95 419.87 464.27"/><polygon class="cls-28" points="411.15 464.27 414.41 464.27 414.41 462.19 413.81 462.19 411.15 463.95 411.15 464.27"/><path class="cls-29" d="M416.88,461.16l-.22-.22h-2.31l-.21.22h0v3.12h2.74v-3.12Z"/><rect class="cls-31" x="404.61" y="398.07" width="21.57" height="21.57" rx="1.08" ry="1.08" transform="translate(-167.44 413.48) rotate(-45)"/><rect class="cls-32" x="408.91" y="402.36" width="12.99" height="12.99" rx="1.1" ry="1.1" transform="translate(-167.44 413.48) rotate(-45)"/><path class="cls-33" d="M415.4,423a.7.7,0,0,1-.49-.2l-13.4-13.4a.7.7,0,0,1-.2-.49.68.68,0,0,1,.2-.49l13.4-13.4a.69.69,0,0,1,1,0l13.4,13.39a.71.71,0,0,1,0,1l-13.4,13.4A.7.7,0,0,1,415.4,423Zm-.24-.45a.35.35,0,0,0,.24.1h0a.35.35,0,0,0,.24-.1L429,409.1a.34.34,0,0,0,0-.49l-13.4-13.39a.33.33,0,0,0-.48,0l-13.4,13.39a.36.36,0,0,0,0,.49Z"/></g><g id="hlavnacesta-2" data-name="hlavnacesta"><path class="cls-28" d="M199.51,408.37c.52,0,.55,1.79,0,1.79H131.56v-1.79Z"/><polygon class="cls-28" points="130.29 413.63 130.29 410.37 132.38 410.37 132.38 410.97 130.62 413.63 130.29 413.63"/><polygon class="cls-28" points="130.29 404.91 130.29 408.17 132.38 408.17 132.38 407.57 130.62 404.91 130.29 404.91"/><path class="cls-29" d="M133.41,410.64l.21-.22v-2.31l-.21-.21h-3.12v2.74h3.12Z"/><rect class="cls-31" x="174.92" y="398.38" width="21.57" height="21.57" rx="1.08" ry="1.08" transform="translate(-234.93 251.16) rotate(-45)"/><rect class="cls-32" x="179.21" y="402.67" width="12.99" height="12.99" rx="1.1" ry="1.1" transform="translate(-234.93 251.16) rotate(-45)"/><path class="cls-33" d="M171.61,409.16a.67.67,0,0,1,.21-.49l13.39-13.4a.72.72,0,0,1,.5-.2.7.7,0,0,1,.49.2l13.4,13.4a.69.69,0,0,1,0,1l-13.4,13.4a.69.69,0,0,1-1,0l-13.4-13.4A.67.67,0,0,1,171.61,409.16Zm.46-.24a.31.31,0,0,0-.1.24h0a.31.31,0,0,0,.1.24l13.4,13.4a.33.33,0,0,0,.48,0l13.4-13.4a.34.34,0,0,0,0-.48L186,395.52a.36.36,0,0,0-.49,0Z"/></g><path class="cls-6" d="M406.39,425h17.19a2.42,2.42,0,0,1,2.42,2.42v16.16a2.42,2.42,0,0,1-2.42,2.42H407.42a2.42,2.42,0,0,1-2.42-2.42V426.39A1.39,1.39,0,0,1,406.39,425Z"/><path class="cls-34" d="M415.86,444.55c0-10.13.72-9.41-9.41-9.41"/><line class="cls-35" x1="424.55" y1="435.5" x2="418.03" y2="435.5"/><path class="cls-6" d="M434.39,181h17.19a2.42,2.42,0,0,1,2.42,2.42v16.16a2.42,2.42,0,0,1-2.42,2.42H435.42a2.42,2.42,0,0,1-2.42-2.42V182.39A1.39,1.39,0,0,1,434.39,181Z"/><path class="cls-34" d="M443.86,200.55c0-10.13.72-9.41-9.41-9.41"/><line class="cls-35" x1="452.55" y1="191.5" x2="446.03" y2="191.5"/><path class="cls-6" d="M149.39,399h17.19a2.42,2.42,0,0,1,2.42,2.42v16.16a2.42,2.42,0,0,1-2.42,2.42H150.42a2.42,2.42,0,0,1-2.42-2.42V400.39A1.39,1.39,0,0,1,149.39,399Z"/><path class="cls-34" d="M158.86,418.55c0-10.13.72-9.41-9.41-9.41"/><line class="cls-35" x1="167.55" y1="409.5" x2="161.03" y2="409.5"/></g></svg>