<svg id="Layer_1" data-name="Layer 1" xmlns="http://www.w3.org/2000/svg" viewBox="0 0 17.94 20.93"><defs><style>.cls-1{fill:#863a31;}.cls-2{fill:#ff8576;}.cls-3{fill:#ffe165;}</style></defs><title>pajac2</title><path class="cls-1" d="M11.21,19.06a1.87,1.87,0,0,0,1.87,1.87h0A1.86,1.86,0,0,0,15,19.06V10.84A1.87,1.87,0,0,0,13.08,9h0a1.87,1.87,0,0,0-1.87,1.87Z"/><path class="cls-1" d="M3.74,10.09A1.87,1.87,0,0,0,5.61,12h0a1.87,1.87,0,0,0,1.87-1.87V1.87A1.87,1.87,0,0,0,5.61,0h0A1.87,1.87,0,0,0,3.74,1.87Z"/><rect class="cls-2" y="7.48" width="17.94" height="5.23" rx="2.47" ry="2.47"/><path class="cls-3" d="M13.78,10.09A4.31,4.31,0,1,0,9.47,14.4,4.31,4.31,0,0,0,13.78,10.09Z"/></svg>