<svg id="Layer_1" data-name="Layer 1" xmlns="http://www.w3.org/2000/svg" viewBox="0 0 17.94 20.93"><defs><style>.cls-1{fill:#af3f00;}.cls-2{fill:#ffe165;}.cls-3{fill:#311505;}</style></defs><title>pajac4</title><path class="cls-1" d="M6.73,19.06a1.87,1.87,0,0,1-1.87,1.87h0A1.87,1.87,0,0,1,3,19.06V10.84A1.87,1.87,0,0,1,4.86,9h0a1.87,1.87,0,0,1,1.87,1.87Z"/><path class="cls-1" d="M14.2,10.09A1.87,1.87,0,0,1,12.34,12h0a1.87,1.87,0,0,1-1.87-1.87V1.87A1.87,1.87,0,0,1,12.34,0h0A1.87,1.87,0,0,1,14.2,1.87Z"/><rect class="cls-2" y="7.48" width="17.94" height="5.23" rx="2.47" ry="2.47"/><circle class="cls-3" cx="8.47" cy="10.09" r="4.31"/></svg>