<svg xmlns="http://www.w3.org/2000/svg" xmlns:xlink="http://www.w3.org/1999/xlink" viewBox="0 0 600 600"><defs><style>.cls-1,.cls-17,.cls-25,.cls-26{fill:none;}.cls-2{clip-path:url(#clip-path);}.cls-3{fill:#5a5a62;}.cls-4{fill:#969696;stroke:#d1c6c6;stroke-width:3px;}.cls-17,.cls-25,.cls-26,.cls-4,.cls-5{stroke-miterlimit:10;}.cls-5,.cls-8{fill:#93b258;}.cls-25,.cls-26,.cls-5{stroke:#fff;}.cls-5{stroke-width:6px;}.cls-6{fill:#345130;}.cls-7{opacity:0.2;}.cls-12,.cls-27,.cls-9{fill:#fff;}.cls-10{fill:#d5d5d5;}.cls-11{fill:#fad1ca;}.cls-12{opacity:0.3;}.cls-13{fill:#a2e6df;}.cls-14{fill:#af3f00;}.cls-15{fill:#ffe165;}.cls-16{fill:#311505;}.cls-17{stroke:#d5d5d5;stroke-width:40px;}.cls-18{fill:#d05e26;}.cls-19{fill:#ba5e26;}.cls-20{fill:#c64400;}.cls-21{fill:#1c798d;}.cls-22{fill:#2d9499;}.cls-23{fill:#863a31;}.cls-24{fill:#ff8576;}.cls-25,.cls-26{stroke-width:4px;}.cls-26{stroke-dasharray:26 35.36;}.cls-27{fill-rule:evenodd;}</style><clipPath id="clip-path"><rect class="cls-1" width="600" height="600"/></clipPath></defs><title>kriz17</title><g id="kriz_1" data-name="kriz 1"><g class="cls-2"><rect class="cls-3" x="-64" y="-26" width="756" height="663"/><rect class="cls-4" x="-132.49" y="390.09" width="794.49" height="337.91"/><rect class="cls-5" x="-90.98" y="450" width="299.5" height="299.5" rx="10.33" ry="10.33"/><polygon class="cls-6" points="79.72 481.7 72.98 487.27 66.1 492.63 58.46 493.26 50.82 492.81 43.18 490.3 35.53 493.05 27.89 493.4 20.24 490.74 12.59 489.64 4.23 489.33 -2.13 481.7 0.09 472.67 4.63 465.61 12.59 462.3 20.23 464.74 27.87 462.49 35.52 464.92 43.16 465.33 50.8 460.66 58.45 462.82 66.1 465.97 75.8 463.2 81.23 472.28 79.72 481.7"/><g class="cls-7"><polygon class="cls-8" points="12.59 482.11 8.37 481.56 9.35 472.84 12.59 470.87 20.23 473.51 27.87 473.61 35.52 469.77 43.16 474.31 50.8 472.65 58.45 474.06 66.1 468.95 67.24 472.9 67.95 481.49 66.1 479.89 58.46 484.99 50.82 485.42 43.18 485.32 35.53 483.01 27.89 481.42 20.26 482.24 12.59 482.11"/></g><polygon class="cls-6" points="162.57 481.7 155.83 487.27 148.96 492.63 141.32 493.26 133.68 492.81 126.03 490.3 118.39 493.05 110.75 493.4 103.1 490.74 95.45 489.64 87.08 489.33 80.72 481.7 82.95 472.67 87.49 465.61 95.45 462.3 103.09 464.74 110.73 462.49 118.37 464.92 126.02 465.33 133.66 460.66 141.31 462.82 148.96 465.97 158.66 463.2 164.09 472.28 162.57 481.7"/><g class="cls-7"><polygon class="cls-8" points="95.45 482.11 91.22 481.56 92.21 472.84 95.45 470.87 103.09 473.51 110.73 473.61 118.37 469.77 126.02 474.31 133.66 472.65 141.31 474.06 148.96 468.95 150.09 472.9 150.81 481.49 148.96 479.89 141.32 484.99 133.68 485.42 126.03 485.32 118.39 483.01 110.75 481.42 103.12 482.24 95.45 482.11"/></g><polygon class="cls-6" points="173.36 549.93 164.46 551.2 164.83 560.48 165.46 568.12 165.02 575.76 162.5 583.4 165.25 591.05 165.6 598.69 162.94 606.34 161.84 613.99 166.52 621.78 173.36 623.43 182.39 625.66 189.79 622.19 191.47 613.99 193.91 606.35 191.66 598.71 194.09 591.07 194.5 583.42 189.83 575.77 191.99 568.13 195.13 560.48 187.38 554.02 182.78 551.44 173.36 549.93"/><g class="cls-7"><polygon class="cls-8" points="171.57 613.99 173.54 616.67 182.24 617.66 182.78 613.99 185.41 606.35 185.52 598.71 181.68 591.07 186.22 583.42 184.55 575.77 185.97 568.13 180.85 560.48 182.3 554.71 173.47 555.43 169.36 560.48 174.45 568.12 174.88 575.76 174.78 583.4 172.48 591.05 170.89 598.69 171.7 606.32 171.57 613.99"/></g><polygon class="cls-6" points="173.36 466.2 164.46 467.48 164.83 476.76 165.46 484.4 165.02 492.04 162.5 499.68 165.25 507.33 165.6 514.97 162.94 522.62 161.84 530.27 166.52 538.06 173.36 539.71 182.39 541.94 189.79 538.47 191.47 530.27 193.91 522.63 191.66 514.99 194.09 507.34 194.5 499.7 189.83 492.05 191.99 484.4 195.13 476.76 187.38 470.3 182.78 467.72 173.36 466.2"/><g class="cls-7"><polygon class="cls-8" points="171.57 530.27 173.54 532.95 182.24 533.94 182.78 530.27 185.41 522.63 185.52 514.99 181.68 507.34 186.22 499.7 184.55 492.05 185.97 484.4 180.85 476.76 182.3 470.99 173.47 471.7 169.36 476.76 174.45 484.4 174.88 492.04 174.78 499.68 172.48 507.33 170.89 514.97 171.7 522.6 171.57 530.27"/></g><rect class="cls-9" x="28.99" y="508.69" width="20.71" height="19.85"/><rect class="cls-10" x="28.99" y="528.54" width="20.71" height="28.48"/><rect class="cls-9" x="58.33" y="508.69" width="20.71" height="19.85"/><rect class="cls-10" x="58.33" y="528.54" width="20.71" height="28.48"/><rect class="cls-11" x="91.13" y="508.69" width="48.33" height="48.33"/><polygon class="cls-12" points="139.47 557.02 91.13 557.02 91.13 557.02 115.87 532.86 139.47 557.02"/><polygon class="cls-12" points="139.47 508.69 91.13 508.69 91.13 508.69 115.87 532.86 139.47 508.69"/><path class="cls-9" d="M84.11,653.13c10.85,0,16.24,4,26.69,4a37.55,37.55,0,0,0,0-75.09c-10.45,0-14,5.1-26.69,5.1S67.86,582,57.42,582a37.55,37.55,0,1,0,0,75.09C67.86,657.08,73.25,653.13,84.11,653.13Z"/><path class="cls-13" d="M30.73,619.53a26.72,26.72,0,0,1,26.69-26.69c3.18,0,5.29.72,8.48,1.8a51.72,51.72,0,0,0,36.41,0c3.19-1.08,5.3-1.8,8.49-1.8a26.69,26.69,0,0,1,0,53.38,40.76,40.76,0,0,1-10.48-1.63,63.23,63.23,0,0,0-16.21-2.31,63.16,63.16,0,0,0-16.21,2.31,40.83,40.83,0,0,1-10.48,1.63A26.72,26.72,0,0,1,30.73,619.53Z"/><path class="cls-10" d="M50.57,594.57a1.3,1.3,0,0,1-1.3,1.3h0a1.3,1.3,0,0,1-1.29-1.3V579.9a1.3,1.3,0,0,1,1.29-1.3h0a1.3,1.3,0,0,1,1.3,1.3Z"/><path class="cls-10" d="M61.79,594.57a1.3,1.3,0,0,1-1.3,1.3h0a1.3,1.3,0,0,1-1.29-1.3V579.9a1.3,1.3,0,0,1,1.29-1.3h0a1.3,1.3,0,0,1,1.3,1.3Z"/><path class="cls-14" d="M306.62,509.77a1.87,1.87,0,0,1-1.87,1.87h0a1.87,1.87,0,0,1-1.87-1.87v-8.23a1.87,1.87,0,0,1,1.87-1.86h0a1.87,1.87,0,0,1,1.87,1.86Z"/><path class="cls-14" d="M314.09,500.8a1.87,1.87,0,0,1-1.87,1.87h0a1.87,1.87,0,0,1-1.86-1.87v-8.23a1.87,1.87,0,0,1,1.86-1.87h0a1.87,1.87,0,0,1,1.87,1.87Z"/><rect class="cls-15" x="299.89" y="498.18" width="17.94" height="5.23" rx="2.47" ry="2.47"/><circle class="cls-16" cx="308.36" cy="500.8" r="4.31"/><rect class="cls-4" x="-111" y="-128" width="843.49" height="337.91"/><path class="cls-5" d="M692.49,138c0,4.94-12.14,8.95-27.1,8.95H-65.9c-15,0-27.1-4-27.1-8.95V-103.55c0-4.94,12.13-9,27.1-9H665.39c15,0,27.1,4,27.1,9Z"/><path class="cls-17" d="M530.26,145.42V57.21a10.47,10.47,0,0,1,10.47-10.47h31.4"/><polygon class="cls-6" points="487.42 57.54 481.84 59.78 476.13 61.43 470.33 60.21 464.94 58.41 460.22 55.31 456.49 51.13 453.82 46.22 452.64 40.76 450.73 34.85 452.5 28.99 456.97 24.8 461.25 21.06 465.6 16.7 471.62 15.91 477.68 15.55 483.43 17.55 488.59 20.71 491.26 26.19 496.08 30.29 495.96 36.47 496.95 42.46 494.92 48.18 490.43 52.23 487.42 57.54"/><g class="cls-7"><polygon class="cls-8" points="484.08 52.88 479.35 55.88 473.76 56.69 468.37 55.27 463.46 52.81 459.47 48.99 457.64 43.83 456.1 38.55 457.51 33.23 460.19 28.6 464.21 25.19 468.87 22.93 473.97 21.96 479.61 21.37 483.83 25.12 487.35 28.99 490.38 33.41 492.22 38.77 490.41 44.14 487.63 48.78 484.08 52.88"/></g><g class="cls-7"><polygon class="cls-8" points="479.87 47.01 474.97 49.77 469.53 48.26 465.16 44.91 463.55 39.68 464.16 34.27 467.77 30.16 472.84 28.2 478.41 28.63 482.55 32.44 484.82 37.58 483.28 42.91 479.87 47.01"/></g><polygon class="cls-6" points="598.72 117.13 593.05 118.57 587.63 119.83 581.61 121.86 576.55 118.19 570.56 116.45 567.47 111.12 564.53 105.98 563.42 100.13 564.73 94.39 564.78 88.16 569.9 84.48 573.9 80.5 579.05 78.19 584.52 76.65 590.51 75.55 596.14 77.79 601.24 81 605.32 85.47 608.09 90.88 608.19 96.91 607.82 102.67 605.2 107.77 602.12 112.36 598.72 117.13"/><g class="cls-7"><polygon class="cls-8" points="596.21 113.42 590.98 115.38 585.5 116.7 580.52 113.91 574.8 113.02 571.17 108.61 570.25 103.08 567.7 97.9 569.01 92.32 572.75 88.12 575.92 83.48 581.49 82.56 586.66 81.17 591.68 83.07 596.18 85.53 601.2 88.26 603.6 93.44 603.42 99.07 602.4 104.39 599.2 108.69 596.21 113.42"/></g><g class="cls-7"><polygon class="cls-8" points="592.08 107.33 586.9 109.64 581.34 108.3 577.37 104.42 575.08 99.29 576.18 93.69 580.32 89.97 585.37 88.35 590.53 89.36 595.25 92.3 597.05 97.71 595.6 103.11 592.08 107.33"/></g><polygon class="cls-6" points="496.54 98.44 494.86 103.93 493.88 109.69 490.52 114.55 486.28 118.99 480.51 121.19 474.41 119.65 468.28 121.34 462.6 118.89 458.88 113.97 455.81 109.19 452.85 104.22 452.43 98.44 453.5 92.84 455.31 87.42 459.26 83.29 463.47 79.5 468.85 77.7 474.41 77.31 480.08 77.28 485.68 78.93 490.53 82.32 493.23 87.58 496.81 92.44 496.54 98.44"/><g class="cls-7"><polygon class="cls-8" points="492.84 98.44 490.1 103.54 489.05 109.08 484.29 112.05 479.9 115.35 474.41 116.61 469.25 114.33 463.82 113.02 459.97 108.94 457.49 103.94 457.99 98.44 458.13 93.16 459.76 87.8 463.62 83.59 469.27 82.64 474.41 80.69 479.85 81.72 484.21 84.96 489.18 87.72 490.5 93.22 492.84 98.44"/></g><g class="cls-7"><polygon class="cls-8" points="484.65 98.44 483.85 103.9 479.97 108.08 474.41 109.49 469.21 107.45 465.7 103.47 463.84 98.44 464.96 92.99 468.88 88.87 474.41 87.89 479.49 89.64 483.95 92.94 484.65 98.44"/></g><polygon class="cls-9" points="445.78 129.72 445.78 -25.03 442.79 -25.03 442.79 129.72 442.79 132.71 445.78 132.71 504.09 132.71 504.09 129.72 445.78 129.72"/><rect class="cls-9" x="553.44" y="129.72" width="51.58" height="2.99"/><rect class="cls-18" x="514.56" y="-10.08" width="29.16" height="17.19"/><rect class="cls-19" x="514.56" y="7.12" width="29.16" height="17.19"/><circle class="cls-6" cx="505.78" cy="4.68" r="3.56"/><rect class="cls-20" x="558.67" y="-51.94" width="99.43" height="58.31"/><rect class="cls-14" x="558.67" y="6.37" width="99.43" height="58.31"/><path class="cls-21" d="M527.39,94.28a1.87,1.87,0,0,1-1.87,1.87h0a1.87,1.87,0,0,1-1.87-1.87V86.06a1.87,1.87,0,0,1,1.87-1.87h0a1.86,1.86,0,0,1,1.87,1.87Z"/><path class="cls-21" d="M534.87,85.31A1.87,1.87,0,0,1,533,87.18h0a1.87,1.87,0,0,1-1.87-1.87V77.08A1.87,1.87,0,0,1,533,75.22h0a1.87,1.87,0,0,1,1.87,1.86Z"/><rect class="cls-14" x="520.66" y="82.69" width="17.94" height="5.23" rx="2.47" ry="2.47"/><circle class="cls-16" cx="529.14" cy="85.31" r="4.31"/><polygon class="cls-6" points="18.36 116.72 12.18 116.18 9.36 111.08 6.8 106.33 2.24 102.68 2.54 96.81 -0.11 91.87 -1.67 86.34 2.25 81.33 1.83 75.67 3.36 70.26 8.46 67.14 11.21 62.43 14.58 57.75 19.56 55.05 25.72 56.16 30.68 54.26 36.04 52.59 41.14 55.18 46.9 54.63 52.45 56.05 56.82 59.71 60.14 64.27 63.88 68.31 65.8 73.49 68.75 78.24 67.32 83.99 67.5 89.16 69.69 94.85 65.4 99.22 65.98 105.45 62.92 110.2 58.66 113.92 53.79 116.62 48.35 117.75 44.07 121.56 38.49 121.08 33.19 122.59 28.02 120.69 22.2 121.29 18.36 116.72"/><g class="cls-7"><polygon class="cls-8" points="23.24 108.03 18.45 105.63 14.19 102.09 11.81 97.07 9.89 91.83 9.9 86.25 12.46 81.27 14.35 76.44 16.76 71.64 20.23 67.25 25.63 65.72 30.82 64.58 36.12 63.9 41.06 65.97 46.33 66.95 49.85 71 55.1 73.49 57.18 78.65 58.32 83.96 58.6 89.33 58.37 94.84 54.92 99.23 52.61 104.14 48.26 107.35 44.09 111.19 38.45 111.5 33 113.13 28 110.16 23.24 108.03"/></g><g class="cls-7"><polygon class="cls-8" points="28.66 98.39 24.88 93.58 23.48 87.94 24.84 82.33 28.94 78.26 34.47 76.42 40.03 78.16 44.09 82.19 46.65 87.67 44.53 93.39 40.61 97.95 34.74 99.87 28.66 98.39"/></g><polygon class="cls-6" points="63.27 40.61 58.62 37.47 56.27 32.2 53.28 27.87 49.27 23.54 47.98 17.95 50.85 12.52 51.91 7.4 53.62 2.39 56.06 -2.5 60.78 -5.3 64.47 -9.54 69.32 -12.68 75.19 -11.35 80.44 -10.71 86.52 -12.62 91.81 -10.19 95.04 -5.06 99.77 -1.99 101.8 3.23 104.86 7.95 106.27 13.44 106.86 19.23 102.67 23.97 102.25 29.72 97.68 33.16 94.78 37.96 89.37 39.5 84.46 41.29 79.5 44.46 73.78 44.86 67.98 44.15 63.27 40.61"/><g class="cls-7"><polygon class="cls-8" points="68.19 31.85 64 27.92 59.11 24.03 57.26 18.02 57.55 11.73 60.51 6.26 64.64 1.98 69.37 -1.53 75.16 -2.44 81.11 -3.45 86.42 -0.58 91.34 2.72 94.62 7.72 96.2 13.47 95.2 19.27 94.24 25.22 89.97 29.46 84.98 32.45 79.47 34.41 73.68 33.62 68.19 31.85"/></g><g class="cls-7"><polygon class="cls-8" points="72.92 23.43 69.4 20.35 68.3 15.79 69.31 11.21 72.85 8.22 77.18 7.03 81.85 7.54 84.61 11.33 86.1 15.58 84.75 19.88 82.12 23.84 77.38 24.28 72.92 23.43"/></g><polygon class="cls-6" points="295.97 48.52 293.46 43.9 293.23 38.64 290.83 33.41 293.97 28.46 294.85 23.38 297.51 18.95 299.72 14.22 301.72 8.71 306.54 5.93 310.76 2.09 316.62 2.07 321.84 0.86 327.13 2.5 332.51 1.49 338.14 1.64 342.58 5.05 346.81 8.34 352.35 10.44 355.08 15.41 356.54 20.79 357.99 25.89 361.02 30.8 360.19 36.32 359.1 41.6 356.38 46.26 356.05 51.94 353.53 56.88 349.8 61 343.9 62.16 339.29 64.4 335.02 68.01 329.84 70.04 324.29 70.16 319.19 67.56 313.36 68.26 309.78 63.26 303.84 62.55 299.93 58.65 297.24 53.84 295.97 48.52"/><g class="cls-7"><polygon class="cls-8" points="302.82 45.38 300.57 40.85 297.66 35.91 300.42 30.79 301.37 25.8 302.83 20.73 306.79 17.23 311.08 14.54 315 11.34 319.53 8.55 324.85 9.58 329.89 9.32 334.58 11.22 339.55 12.53 343.99 15.28 347.1 19.47 350.64 23.49 350.3 29.06 353.25 33.87 351.62 39.04 351.45 44.43 348.35 48.79 346.05 53.72 340.71 55.55 337.41 60.29 331.61 59.48 326.71 60.46 321.52 61.29 316.07 60.96 311.06 58.75 307.58 54.46 304.04 50.58 302.82 45.38"/></g><g class="cls-7"><polygon class="cls-8" points="317.49 38.67 316.5 34 317.82 29.22 321.71 26 326.7 25.08 331.25 27.18 334.64 30.82 335.75 35.82 333.99 40.72 329.6 43.22 324.86 44.52 320.25 42.65 317.49 38.67"/></g><polygon class="cls-6" points="300.51 137.51 295.67 134.39 291.95 130 289.19 125.02 288.42 119.4 285.44 114.26 288.35 108.81 289.09 103.58 291.4 98.81 294.16 94.27 296.5 88.64 301.6 85.87 307.65 86.29 312.67 83.65 318.14 84.6 323.71 84.87 328.63 87.47 333.13 90.66 338.28 93.58 338.65 99.91 340.9 104.69 343.22 109.8 343.77 115.45 342.81 121.12 340.25 126.26 336.14 130.22 332.01 133.81 327.81 137.5 322.08 137.75 317.06 140.57 311.56 139.51 306.44 137.77 300.51 137.51"/><g class="cls-7"><polygon class="cls-8" points="303.96 131.38 299.41 127.8 295.79 123.3 294 117.84 293.41 112.24 292.91 106.38 295.37 101.04 298.5 96.02 303.86 93.46 309.05 91.3 314.61 90.88 320.58 89.57 325.72 92.66 330.98 95.49 334.44 100.38 336.82 105.83 337.33 111.73 336.37 117.49 334.47 123.01 330.62 127.39 325.75 130.37 320.64 132.63 315.11 134.22 309.64 132.41 303.96 131.38"/></g><g class="cls-7"><polygon class="cls-8" points="308.3 123.65 304.16 120.39 302.5 115.46 300.9 110.32 303.65 105.69 306.89 101.86 311.13 98.72 316.45 98.7 321.23 100.64 325.18 103.88 328.36 108.2 328.74 113.65 326.48 118.52 323.42 122.88 318.3 124.28 313.28 125.1 308.3 123.65"/></g><polygon class="cls-6" points="159.99 138.48 156.01 134.26 150.52 132.04 147.99 126.66 144.34 122.44 142.86 116.96 140.91 111.92 140.59 106.47 136.38 101.59 135.82 95.92 136.35 90.22 137.22 84.55 142.12 80.36 143.54 75.02 146.34 70.28 151.32 67.41 152.9 61.1 158.28 58.95 162.37 54.78 168.45 54.91 173.66 53.44 178.8 50.3 184.38 53.92 189.71 53.66 195.47 52.76 200.09 56.15 204.96 58.43 210.2 60.38 215.65 62.62 218.52 67.69 219.42 73.73 222.29 78.13 227.43 81.91 229.04 87.34 227.81 93.14 226.82 98.52 227.66 103.97 225.69 109.06 225.61 114.78 224.51 120.52 218.5 123.21 216.24 128.33 213.69 133.82 207.16 134.29 202.9 137.68 197.68 139.17 193.23 143.91 187.12 140.38 181.79 144.52 176.59 140.77 171.07 140.84 166.62 137.34 159.99 138.48"/><g class="cls-7"><polygon class="cls-8" points="165.16 129.27 160.02 126.52 158 120.44 152.19 117.88 149.56 112.69 148.73 106.92 146.99 101.5 146.47 95.78 147.76 90.18 151.45 85.53 153.31 80.51 153.8 74.08 157.9 69.89 163.71 68.09 169.06 66.61 173.21 61.85 179.24 63.92 184.65 60.28 190.16 62.24 196.18 62.08 199.81 67.6 204.97 69.66 208.24 74.13 212.47 77.73 215.21 82.54 218.54 87.34 217.8 93.22 218.51 98.71 217.82 104.22 214.91 109.04 212.66 113.86 209.3 117.96 208.44 124.71 201.69 125.12 197.99 129.61 192.38 130.21 187.36 133.38 181.74 131.58 176.34 131.23 171.26 129.34 165.16 129.27"/></g><g class="cls-7"><polygon class="cls-8" points="173.12 115.1 168.86 111.88 165.67 107.63 161.64 103.3 162.01 97.52 163.19 92.17 163.9 86.46 168.61 83.07 172.71 79.68 177.37 76.71 182.89 76.08 188.69 75.55 193.86 78.19 197.3 82.78 202.24 85.94 204.76 91.2 205.24 97.01 204.87 102.82 202.34 108.06 198.27 112.05 194.49 116.4 188.86 117.67 183.4 119.78 177.69 118.6 173.12 115.1"/></g><rect class="cls-14" x="168.22" y="-44.77" width="41.94" height="95.07" transform="translate(94.1 166.35) rotate(-60.67)"/><path class="cls-22" d="M237.63,171.7a1.87,1.87,0,0,1-1.87,1.87h0a1.87,1.87,0,0,1-1.87-1.87v-8.22a1.87,1.87,0,0,1,1.87-1.87h0a1.87,1.87,0,0,1,1.87,1.87Z"/><path class="cls-22" d="M245.1,162.73a1.86,1.86,0,0,1-1.87,1.87h0a1.86,1.86,0,0,1-1.86-1.87v-8.22a1.87,1.87,0,0,1,1.86-1.87h0a1.87,1.87,0,0,1,1.87,1.87Z"/><rect class="cls-6" x="230.9" y="160.12" width="17.94" height="5.23" rx="2.47" ry="2.47"/><circle class="cls-15" cx="239.37" cy="162.73" r="4.31"/><path class="cls-23" d="M154.31,161.86a1.87,1.87,0,0,0,1.87-1.87h0a1.87,1.87,0,0,0-1.87-1.87h-8.22a1.87,1.87,0,0,0-1.87,1.87h0a1.87,1.87,0,0,0,1.87,1.87Z"/><path class="cls-23" d="M145.34,169.34a1.87,1.87,0,0,0,1.87-1.87h0a1.87,1.87,0,0,0-1.87-1.87h-8.22a1.86,1.86,0,0,0-1.87,1.87h0a1.87,1.87,0,0,0,1.87,1.87Z"/><rect class="cls-24" x="142.72" y="155.13" width="5.23" height="17.94" rx="2.47" ry="2.47"/><path class="cls-15" d="M145.34,159.29a4.31,4.31,0,1,0,4.31,4.31A4.31,4.31,0,0,0,145.34,159.29Z"/><rect class="cls-5" x="336.32" y="450.08" width="426.92" height="426.92" rx="14.73" ry="14.73"/><polygon class="cls-6" points="414.33 528.01 410.2 532.05 404.59 533.21 399.37 536.84 393.52 534.42 387.23 536.5 382.73 531.62 378.22 528.35 372.63 526.26 370.48 520.66 365.08 517.22 363.2 511.57 361.04 505.85 360.87 499.72 364.14 494.25 366.87 489.23 369.92 484.6 373.26 480.21 375.6 474.02 381.65 472.61 387.18 471.09 392.78 470.29 398.59 467.77 404.61 468.57 409.36 472.77 415.87 473.24 419.24 478.57 423.53 482.61 425.55 488.18 428.42 493.3 428.89 499.13 429.1 504.91 429.69 511.02 426.71 516.31 424.68 522.02 419.29 525.2 414.33 528.01"/><g class="cls-7"><polygon class="cls-8" points="408.96 520.52 405.12 524.2 399.77 524.17 394.79 525.18 389.62 524.83 384.67 523.06 380.95 519.36 376.39 516.43 375.67 510.92 372.98 506.42 371.76 501.16 375.05 496.49 376.57 491.81 379 487.4 382.18 483.19 386.79 480.58 391.82 478.77 397.15 478.92 402.54 479.07 407.19 481.81 411.19 485.16 414.74 488.92 416.06 493.94 417.45 498.62 419.94 503.62 418.79 508.84 415.13 512.86 412.21 516.76 408.96 520.52"/></g><g class="cls-7"><polygon class="cls-8" points="402 510.81 396.98 512.76 391.64 511.92 387.44 508.5 386.03 503.37 386.88 498.29 390.38 494.62 395.01 492.9 400.34 492.71 404.24 496.45 405.57 501.44 404.62 506.31 402 510.81"/></g><polygon class="cls-6" points="552.12 528.15 559.32 528.03 560.42 521.02 560.01 515.66 558.46 508.67 558.81 501.13 554.32 494.97 552.05 488.19 552.53 480.61 551.58 473.43 547.52 467.14 542.94 463.79 538.78 459.68 532.55 459.44 527.07 461.85 520.74 461.23 516.01 466.2 510.44 470.43 509.85 477.88 516.1 483.53 516.07 490.98 515.14 498.68 522.42 504.04 524.66 510.84 521.62 519.15 523.51 526.06 527.55 532.61 535.24 531.13 541.33 533.5 547.6 533 552.12 528.15"/><g class="cls-7"><polygon class="cls-8" points="537.72 469.94 534.78 468.17 529.06 468.83 523.84 471.23 521.16 474.65 523.02 481.56 528.5 487.44 526.3 495.5 529.79 501.94 530.45 509.19 537.1 514.75 534.53 522.92 539.48 526.46 545.37 526.07 549.45 519.87 548.41 518.97 546.54 512.07 546.69 504.59 546.19 497.29 543.48 490.63 543.21 483.26 538.19 477.21 537.72 469.94"/></g><polygon class="cls-6" points="614.86 575.73 620.44 571.31 617.33 565.01 613.84 560.88 608.43 556.18 604.19 549.99 597 547.57 591.16 543.43 586.99 537.14 581.95 531.96 575.02 529.2 569.34 529.1 563.53 528.35 558.39 531.87 555.37 537.02 549.99 540.35 549.02 547.09 547.15 553.78 551.05 560.07 559.3 561.1 563.75 567.04 567.64 573.69 576.51 573.92 582.34 578.09 584.96 586.39 590.58 590.83 597.63 593.69 603 588.16 609.24 586.36 613.94 582.23 614.86 575.73"/><g class="cls-7"><polygon class="cls-8" points="568.72 537.32 565.29 537.54 561.14 541.51 558.27 546.49 558.31 550.72 563.9 555.18 571.57 556.97 574.84 564.43 581.36 567.69 586.27 573.03 594.61 573.97 597.66 581.71 603.49 581.7 607.92 577.83 607.93 570.71 606.54 570.28 600.94 565.83 596.5 559.88 591.69 554.42 585.61 550.59 580.93 544.95 573.5 542.79 568.72 537.32"/></g><path class="cls-17" d="M474.12,453.77c0,60.29,24.61,179.63,180.86,179.63"/><polygon class="cls-6" points="534.63 608.14 534.73 613.55 532.71 618.6 531.97 624.08 527.04 627.39 523.98 631.45 522.42 637.38 516.28 638.02 513.26 643.55 508.08 645.59 502.55 646.13 497.09 645.55 492.01 643.4 486.41 644.51 482.04 641.09 476.74 639.79 473.35 635.53 467.92 633.42 463.96 629.43 461.51 624.39 461.75 618.52 461.85 613.21 459.67 608.14 458.83 602.64 459.53 597.12 463.08 592.61 466.82 588.69 467.63 582.62 471.23 578.3 477.98 578.4 480.98 572.87 486.93 573.57 491.67 570.46 497.09 569.21 502.18 572.71 507.96 571.09 512.98 573.35 517.7 576.07 520.13 581.55 524.8 584.13 529.73 587.16 532.89 591.79 531.25 598.11 534.76 602.73 534.63 608.14"/><g class="cls-7"><polygon class="cls-8" points="522.71 608.14 521.6 613.74 521.06 619.69 516.88 623.93 513.76 629.06 507.75 630.29 502.49 631.83 497.09 634.63 491.49 632.66 486.47 630.19 480.82 628.54 478.01 623.35 474.02 619.25 471.16 614.06 472.92 608.14 472.12 602.44 473.43 596.75 478 592.92 481.32 588.38 485.6 584.3 491.21 582.39 497.09 584.05 502.6 584.01 508.3 584.87 512.28 589.08 517.35 591.98 521.14 596.56 522.67 602.3 522.71 608.14"/></g><g class="cls-7"><polygon class="cls-8" points="508.92 608.14 507.21 613.99 503.03 618.45 497.09 619.45 491.14 618.43 487.33 613.78 484.68 608.14 486.61 602.09 491.12 597.81 497.09 596.21 503.24 597.49 507.11 602.36 508.92 608.14"/></g><polygon class="cls-6" points="463.88 542.49 458.44 544.89 452.7 545.98 447.15 547.13 441.38 548.39 436 545.72 429.71 546.15 424.32 543.41 419.93 539.26 416.37 534.48 414.76 528.71 410.44 524.08 412.63 517.8 412.08 512.27 413.21 506.83 414.67 501.45 415.03 494.94 419.24 490.56 425.6 489.13 429.43 484.48 435.16 483.38 440.62 481.23 446.45 481.63 452.14 482.62 458.41 482.7 461.69 488.71 466.23 491.88 471.19 495.15 474.89 499.83 477.33 505.34 478.12 511.31 476.87 517.2 475.63 522.8 474.66 528.6 469.99 532.5 468.1 538.32 463.88 542.49"/><g class="cls-7"><polygon class="cls-8" points="457.88 534.14 452.94 536.11 447.84 536.97 442.78 537.46 437.31 538.14 432.3 536.01 428.6 532.04 424.39 528.72 423.49 523.29 421.36 518.65 420.6 513.5 421.59 508.38 423.49 503.53 426.88 499.61 430.8 496.39 434.71 492.75 439.88 491.55 445.16 490.71 450.09 492.91 454.76 494.87 458.64 498.07 463.69 500.52 465.43 505.66 467.82 510.51 467.83 515.91 467.01 521.21 464.67 526.01 461.42 530.15 457.88 534.14"/></g><g class="cls-7"><polygon class="cls-8" points="450.1 523.28 444.88 524.23 439.62 524.23 436.03 520.37 433.98 515.68 435.2 510.74 438 506.41 442.92 504.38 447.97 505.78 452.63 508.46 453.68 513.73 452.88 518.74 450.1 523.28"/></g><polygon class="cls-6" points="427.07 603.22 422.25 605.43 419.72 612.82 412.71 609.62 408.13 613.72 402.5 612.47 397 615.47 391.81 612.09 386.46 611.31 381.58 608.99 375.11 609.72 371.11 605.47 365.46 603.47 362.86 598.05 358.99 594.01 357.31 588.54 355.06 583.6 354.45 578.15 349.6 573.65 348.54 568.02 348.54 562.29 348.8 556.54 353.46 551.86 354.14 546.35 356.31 541.27 360.99 537.81 361.43 531.16 366.51 528.27 369.8 523.39 375.93 522.62 380.8 520.22 385.22 515.99 391.49 518.75 396.66 517.35 402.12 515.08 407.38 517.49 412.66 518.58 418.26 519.13 424.17 519.84 428.19 524.12 430.53 529.89 434.52 533.34 440.73 535.38 443.85 540.12 444.26 546.12 444.87 551.59 447.49 556.5 447.18 561.97 449.14 567.42 450.16 573.22 445.17 577.77 444.96 583.42 444.74 589.55 438.61 592.28 435.98 597.09 431.69 600.45 427.07 603.22"/><g class="cls-7"><polygon class="cls-8" points="420.17 593.6 415.61 596.83 410.24 598.4 404.95 600.16 399.37 599.93 394.12 598.09 388.44 598.48 384.09 594.85 378.35 593.75 374.66 589.51 370.86 585.5 367.49 581 368.21 574.88 364.18 570.28 363.99 564.68 365.62 559.3 366.31 553.86 368.18 548.66 371.59 544.3 376.7 541.74 380.37 538.12 383.42 532.71 388.7 530.73 394.5 531.52 399.77 532.41 405.33 529.94 409.75 534.21 415.95 533.23 419.96 537.18 425.29 539.5 426.21 545.79 429.87 549.69 430.9 554.92 433.13 559.79 433.56 565.1 434.51 570.64 431.47 575.47 429.86 580.55 427.01 585.08 422.51 588.1 420.17 593.6"/></g><g class="cls-7"><polygon class="cls-8" points="408.77 577.7 403.19 580.34 397.26 578.99 392.05 577.01 388.06 573.16 384.39 568.44 385.03 562.5 387.37 557.31 390.6 552.38 396.35 551.08 401.9 550.81 407.44 552.23 411.6 556.27 414.82 561.33 414.65 567.37 411.59 572.36 408.77 577.7"/></g><path class="cls-23" d="M484.54,541.19a2,2,0,0,0,1.46-2.35l-1.94-8.38a2,2,0,0,0-2.35-1.46h0a2,2,0,0,0-1.46,2.35l1.94,8.38a2,2,0,0,0,2.35,1.46Z"/><path class="cls-23" d="M494.28,548.56a2,2,0,0,0,1.47-2.35l-1.95-8.38a2,2,0,0,0-2.35-1.46h0a2,2,0,0,0-1.46,2.35l1.95,8.38a2,2,0,0,0,2.34,1.46Z"/><path class="cls-24" d="M495.71,540.2a2.58,2.58,0,0,0,1.93-3.1l-.07-.3a2.57,2.57,0,0,0-3.1-1.93l-13.25,3.07a2.6,2.6,0,0,0-1.93,3.11l.07.29a2.59,2.59,0,0,0,3.1,1.94Z"/><path class="cls-15" d="M483.57,540.21a4.51,4.51,0,1,0,3.37-5.41A4.51,4.51,0,0,0,483.57,540.21Z"/><rect class="cls-1" x="0.96" y="0.96" width="598.08" height="598.08"/><line class="cls-25" x1="605.53" y1="299.25" x2="593.03" y2="299.25"/><line class="cls-26" x1="557.68" y1="299.25" x2="23.18" y2="299.25"/><line class="cls-25" x1="5.5" y1="299.25" x2="-7" y2="299.25"/><rect class="cls-9" x="224" y="375" width="77" height="10"/><rect class="cls-9" x="224" y="355" width="77" height="10"/><rect class="cls-9" x="224" y="335" width="77" height="10"/><rect class="cls-9" x="224" y="316" width="77" height="10"/><rect class="cls-9" x="224" y="296" width="77" height="10"/><rect class="cls-9" x="224" y="276" width="77" height="10"/><rect class="cls-9" x="224" y="256" width="77" height="10"/><rect class="cls-9" x="224" y="236" width="77" height="10"/><rect class="cls-9" x="224" y="216" width="77" height="10"/><rect class="cls-9" x="344" y="375" width="10" height="10"/><rect class="cls-9" x="344" y="355" width="10" height="10"/><rect class="cls-9" x="344" y="335" width="10" height="10"/><rect class="cls-9" x="344" y="316" width="10" height="10"/><rect class="cls-9" x="344" y="296" width="10" height="10"/><rect class="cls-9" x="344" y="276" width="10" height="10"/><rect class="cls-9" x="344" y="256" width="10" height="10"/><rect class="cls-9" x="344" y="236" width="10" height="10"/><rect class="cls-9" x="344" y="216" width="10" height="10"/><rect class="cls-8" x="-13" y="177" width="354" height="33"/><rect class="cls-8" x="303" y="389" width="354" height="33"/><rect class="cls-8" x="303" y="210" width="38" height="179"/><path class="cls-27" d="M60.8,190.38a4,4,0,0,0,.4-1.76,3.82,3.82,0,1,0-7.64,0,3.87,3.87,0,0,0,.26,1.43l-.55.33-1.4.82-.46.24-.3-.11a2.31,2.31,0,0,0,.12-.52c0-.6-.85-1.14-1.3-.76-.24.2-.22.78-.22,1.15v2.12c0,.39.76.44.9,0a2.09,2.09,0,0,0,.08-.23c.07-.29.15-.58.22-.89.19.08.38.14.58.21v5.35l-.36-.15a.42.42,0,0,0-.25-.09.38.38,0,0,0-.38.38v.7a.48.48,0,0,1-.47.47.42.42,0,0,1-.31-.13h0a.44.44,0,0,1-.14-.33v-1.74a.36.36,0,0,0-.37-.37.37.37,0,0,0-.38.37v1.74a1.19,1.19,0,0,0,.36.85s0,0,0,0a1.18,1.18,0,0,0,.83.34,1.19,1.19,0,0,0,.86-.37h0a1.22,1.22,0,0,0,.35-.85v-.07l1.93.75h0l.63.25a4.58,4.58,0,0,0-.25,1.44v0a3.82,3.82,0,1,0,7.64,0v0a3.79,3.79,0,0,0-6.45-2.74,4.53,4.53,0,0,0-.51.57l-.15-.06.43-.51,2.17-2.65L58,194v-1.58a3.71,3.71,0,0,0,2.29-1.21,4,4,0,0,0,.54-.82m-4.13-2a.73.73,0,0,1,1.44.22.81.81,0,0,1-.16.47c0,.43,0,.86,0,1.29v1.16a2.63,2.63,0,0,0,.9-.34,3.13,3.13,0,0,0,.91-.82,3,3,0,0,0,.55-1.76,2.95,2.95,0,1,0-5.89,0,2.49,2.49,0,0,0,.18,1l2.05-1.18m.42.9-.09,0-1.92,1.12-.06,0a3.1,3.1,0,0,0,.89.8,3.24,3.24,0,0,0,1.18.36V189.3ZM56.63,201a.59.59,0,0,1,0-.13l-.37-.44-1.61-.55a3.19,3.19,0,0,0-.22,1.12v0a2.95,2.95,0,1,0,5.89,0s0,0,0,0A3,3,0,0,0,57.39,198a2.82,2.82,0,0,0-1,.19,2.85,2.85,0,0,0-1.25.89l1.72.62c.16.16.32.32.47.49h0a.74.74,0,0,1,0,1.48.74.74,0,0,1-.74-.74m-4.26-2.87.82.31.17-.18,2.23-2.65c.36-.43.71-.87,1.06-1.3l-3.3-1.19c-.33-.11-.66-.24-1-.36v5.37Zm3.6-5c-1.15-.41-2.3-.84-3.46-1.27l1.14-.62.61-.37a3.58,3.58,0,0,0,.28.37,3.82,3.82,0,0,0,2.55,1.24v1.05l-1.12-.4"/><path class="cls-27" d="M357.8,401.38a4,4,0,0,0,.4-1.76,3.82,3.82,0,1,0-7.64,0,3.87,3.87,0,0,0,.26,1.43l-.55.33-1.4.82-.46.24-.3-.11a2.31,2.31,0,0,0,.12-.52c0-.6-.85-1.14-1.3-.76-.24.2-.22.78-.22,1.15v2.12c0,.39.76.44.9,0a2.09,2.09,0,0,0,.08-.23c.07-.29.15-.58.22-.89.19.08.38.14.58.21v5.35l-.36-.15a.42.42,0,0,0-.25-.09.38.38,0,0,0-.38.38v.7a.48.48,0,0,1-.47.47.42.42,0,0,1-.31-.13h0a.44.44,0,0,1-.14-.33v-1.74a.36.36,0,0,0-.37-.37.37.37,0,0,0-.38.37v1.74a1.19,1.19,0,0,0,.36.85s0,0,0,0a1.18,1.18,0,0,0,.83.34,1.19,1.19,0,0,0,.86-.37h0a1.22,1.22,0,0,0,.35-.85v-.07l1.93.75h0l.63.25a4.58,4.58,0,0,0-.25,1.44v0a3.82,3.82,0,1,0,7.64,0v0a3.79,3.79,0,0,0-6.45-2.74,4.53,4.53,0,0,0-.51.57l-.15-.06.43-.51,2.17-2.65L355,405v-1.58a3.71,3.71,0,0,0,2.29-1.21,4,4,0,0,0,.54-.82m-4.13-2a.73.73,0,0,1,1.44.22.81.81,0,0,1-.16.47c0,.43,0,.86,0,1.29v1.16a2.63,2.63,0,0,0,.9-.34,3.13,3.13,0,0,0,.91-.82,3,3,0,0,0,.55-1.76,2.95,2.95,0,1,0-5.89,0,2.49,2.49,0,0,0,.18,1l2.05-1.18m.42.9-.09,0-1.92,1.12-.06,0a3.1,3.1,0,0,0,.89.8,3.24,3.24,0,0,0,1.18.36V400.3ZM353.63,412a.59.59,0,0,1,0-.13l-.37-.44-1.61-.55a3.19,3.19,0,0,0-.22,1.12v0a2.95,2.95,0,1,0,5.89,0s0,0,0,0a3,3,0,0,0-2.94-2.93,2.82,2.82,0,0,0-1,.19,2.85,2.85,0,0,0-1.25.89l1.72.62c.16.16.32.32.47.49h0a.74.74,0,0,1,0,1.48.74.74,0,0,1-.74-.74m-4.26-2.87.82.31.17-.18,2.23-2.65c.36-.43.71-.87,1.06-1.3l-3.3-1.19c-.33-.11-.66-.24-1-.36v5.37Zm3.6-5c-1.15-.41-2.3-.84-3.46-1.27l1.14-.62.61-.37a3.58,3.58,0,0,0,.28.37,3.82,3.82,0,0,0,2.55,1.24v1.05l-1.12-.4"/><path class="cls-27" d="M555.8,401.38a4,4,0,0,0,.4-1.76,3.82,3.82,0,1,0-7.64,0,3.87,3.87,0,0,0,.26,1.43l-.55.33-1.4.82-.46.24-.3-.11a2.31,2.31,0,0,0,.12-.52c0-.6-.85-1.14-1.3-.76-.24.2-.22.78-.22,1.15v2.12c0,.39.76.44.9,0a2.09,2.09,0,0,0,.08-.23c.07-.29.15-.58.22-.89.19.08.38.14.58.21v5.35l-.36-.15a.42.42,0,0,0-.25-.09.38.38,0,0,0-.38.38v.7a.48.48,0,0,1-.47.47.42.42,0,0,1-.31-.13h0a.44.44,0,0,1-.14-.33v-1.74a.36.36,0,0,0-.37-.37.37.37,0,0,0-.38.37v1.74a1.19,1.19,0,0,0,.36.85s0,0,0,0a1.18,1.18,0,0,0,.83.34,1.19,1.19,0,0,0,.86-.37h0a1.22,1.22,0,0,0,.35-.85v-.07l1.93.75h0l.63.25a4.58,4.58,0,0,0-.25,1.44v0a3.82,3.82,0,1,0,7.64,0v0a3.79,3.79,0,0,0-6.45-2.74,4.53,4.53,0,0,0-.51.57l-.15-.06.43-.51,2.17-2.65L553,405v-1.58a3.71,3.71,0,0,0,2.29-1.21,4,4,0,0,0,.54-.82m-4.13-2a.73.73,0,0,1,1.44.22.81.81,0,0,1-.16.47c0,.43,0,.86,0,1.29v1.16a2.63,2.63,0,0,0,.9-.34,3.13,3.13,0,0,0,.91-.82,3,3,0,0,0,.55-1.76,2.95,2.95,0,1,0-5.89,0,2.49,2.49,0,0,0,.18,1l2-1.18m.42.9-.09,0-1.92,1.12-.06,0a3.1,3.1,0,0,0,.89.8,3.24,3.24,0,0,0,1.18.36V400.3ZM551.63,412a.59.59,0,0,1,0-.13l-.37-.44-1.61-.55a3.19,3.19,0,0,0-.22,1.12v0a2.95,2.95,0,1,0,5.89,0s0,0,0,0a3,3,0,0,0-2.94-2.93,2.82,2.82,0,0,0-1,.19,2.85,2.85,0,0,0-1.25.89l1.72.62c.16.16.32.32.47.49h0a.74.74,0,0,1,0,1.48.74.74,0,0,1-.74-.74m-4.26-2.87.82.31.17-.18,2.23-2.65c.36-.43.71-.87,1.06-1.3l-3.3-1.19c-.33-.11-.66-.24-1-.36v5.37Zm3.6-5c-1.15-.41-2.3-.84-3.46-1.27l1.14-.62.61-.37a3.58,3.58,0,0,0,.28.37,3.82,3.82,0,0,0,2.55,1.24v1.05l-1.12-.4"/><path class="cls-27" d="M268.8,188.38a4,4,0,0,0,.4-1.76,3.82,3.82,0,1,0-7.64,0,3.87,3.87,0,0,0,.26,1.43l-.55.33-1.4.82-.46.24-.3-.11a2.31,2.31,0,0,0,.12-.52c0-.6-.85-1.14-1.3-.76-.24.2-.22.78-.22,1.15v2.12c0,.39.76.44.9,0a2.09,2.09,0,0,0,.08-.23c.07-.29.15-.58.22-.89.19.08.38.14.58.21v5.35l-.36-.15a.42.42,0,0,0-.25-.09.38.38,0,0,0-.38.38v.7a.48.48,0,0,1-.47.47.42.42,0,0,1-.31-.13h0a.44.44,0,0,1-.14-.33v-1.74a.36.36,0,0,0-.37-.37.37.37,0,0,0-.38.37v1.74a1.19,1.19,0,0,0,.36.85s0,0,0,0a1.18,1.18,0,0,0,.83.34,1.19,1.19,0,0,0,.86-.37h0a1.22,1.22,0,0,0,.35-.85v-.07l1.93.75h0l.63.25a4.58,4.58,0,0,0-.25,1.44v0a3.82,3.82,0,1,0,7.64,0v0a3.79,3.79,0,0,0-6.45-2.74,4.53,4.53,0,0,0-.51.57l-.15-.06.43-.51,2.17-2.65L266,192v-1.58a3.71,3.71,0,0,0,2.29-1.21,4,4,0,0,0,.54-.82m-4.13-2a.73.73,0,0,1,1.44.22.81.81,0,0,1-.16.47c0,.43,0,.86,0,1.29v1.16a2.63,2.63,0,0,0,.9-.34,3.13,3.13,0,0,0,.91-.82,3,3,0,0,0,.55-1.76,2.95,2.95,0,1,0-5.89,0,2.49,2.49,0,0,0,.18,1l2.05-1.18m.42.9-.09,0-1.92,1.12-.06,0a3.1,3.1,0,0,0,.89.8,3.24,3.24,0,0,0,1.18.36V187.3ZM264.63,199a.59.59,0,0,1,0-.13l-.37-.44-1.61-.55a3.19,3.19,0,0,0-.22,1.12v0a2.95,2.95,0,1,0,5.89,0s0,0,0,0a3,3,0,0,0-2.94-2.93,2.82,2.82,0,0,0-1,.19,2.85,2.85,0,0,0-1.25.89l1.72.62c.16.16.32.32.47.49h0a.74.74,0,0,1,0,1.48.74.74,0,0,1-.74-.74m-4.26-2.87.82.31.17-.18,2.23-2.65c.36-.43.71-.87,1.06-1.3l-3.3-1.19c-.33-.11-.66-.24-1-.36v5.37Zm3.6-5c-1.15-.41-2.3-.84-3.46-1.27l1.14-.62.61-.37a3.58,3.58,0,0,0,.28.37,3.82,3.82,0,0,0,2.55,1.24v1.05l-1.12-.4"/></g></g></svg>